<svg xmlns="http://www.w3.org/2000/svg" xmlns:xlink="http://www.w3.org/1999/xlink" viewBox="0 0 750 500"><defs><style>.cls-1{fill:none;}.cls-2{fill:#e9e6e1;}.cls-3{clip-path:url(#clip-path);}.cls-4{fill:#78001b;}.cls-5{fill:#f5340b;}.cls-6{fill:#1dcdc3;}.cls-7{fill:#0c2e3a;}.cls-8{fill:#018790;}.cls-9{fill:#00a6a6;}.cls-10{fill:#e3651d;}.cls-11{fill:#ffa73b;}.cls-12{fill:#ffd497;}.cls-13{fill:#ff823b;}.cls-14{fill:#ff7c4e;}.cls-15{fill:#f54132;}.cls-16{clip-path:url(#clip-path-2);}</style><clipPath id="clip-path"><rect class="cls-1" width="750" height="500"/></clipPath><clipPath id="clip-path-2"><rect class="cls-1" x="-530.47" width="500" height="500"/></clipPath></defs><title>12</title><g id="BACKGROUND_2" data-name="BACKGROUND 2"><rect class="cls-2" width="750" height="500"/><rect class="cls-2" width="750" height="500"/><g class="cls-3"><polygon class="cls-4" points="751.12 340.6 751.12 397.9 701.52 369.26 701.52 369.24 751.12 340.6"/><polygon class="cls-4" points="751.12 397.9 751.12 397.95 701.59 426.54 701.52 426.5 701.52 369.26 751.12 397.9"/><polygon class="cls-4" points="701.52 369.32 701.52 426.5 701.47 426.52 651.96 397.93 701.52 369.32"/><polygon class="cls-5" points="701.52 369.24 701.52 369.32 651.96 397.93 651.92 397.9 651.92 340.6 701.52 369.24"/><polygon class="cls-6" points="701.52 254.71 701.52 312.01 651.93 283.36 651.93 283.34 701.52 254.71"/><polygon class="cls-7" points="701.52 312.01 701.52 312.05 651.99 340.64 651.93 340.6 651.93 283.36 701.52 312.01"/><polygon class="cls-7" points="701.52 312.05 701.52 369.24 651.99 340.64 701.52 312.05"/><polygon class="cls-8" points="751.07 340.63 701.52 369.24 701.52 312.05 701.56 312.03 751.07 340.63"/><polygon class="cls-8" points="751.12 283.42 751.12 340.6 751.07 340.63 701.56 312.03 751.12 283.42"/><polygon class="cls-8" points="733.53 165.72 733.53 182.32 733.52 182.33 719.14 174.03 733.53 165.72"/><polygon class="cls-6" points="751.12 226.01 751.12 226.1 701.56 254.71 701.52 254.68 701.52 197.38 751.12 226.01"/><polygon class="cls-4" points="701.52 426.5 701.52 483.8 651.93 455.16 651.93 455.13 701.52 426.5"/><polygon class="cls-4" points="701.52 483.8 701.52 483.85 651.99 512.43 651.93 512.4 651.93 455.16 701.52 483.8"/><polygon class="cls-9" points="701.52 483.85 701.52 541.03 651.99 512.43 701.52 483.85"/><polygon class="cls-9" points="751.07 512.42 701.52 541.03 701.52 483.85 701.56 483.83 751.07 512.42"/><polygon class="cls-7" points="751.12 455.22 751.12 512.4 751.07 512.42 701.56 483.83 751.12 455.22"/><polygon class="cls-7" points="751.12 455.13 751.12 455.22 701.56 483.83 701.52 483.8 701.52 426.5 751.12 455.13"/><polygon class="cls-5" points="751.12 340.6 751.12 397.9 701.52 369.26 701.52 369.24 751.12 340.6"/><polygon class="cls-5" points="751.12 397.9 751.12 397.95 701.59 426.54 701.52 426.5 701.52 369.26 751.12 397.9"/><polygon class="cls-9" points="751.12 397.95 751.12 455.13 701.59 426.54 751.12 397.95"/><polygon class="cls-5" points="701.47 426.52 651.92 455.13 651.92 397.95 651.96 397.93 701.47 426.52"/><polygon class="cls-5" points="701.52 369.32 701.52 426.5 701.47 426.52 651.96 397.93 701.52 369.32"/><polygon class="cls-1" points="701.52 369.24 701.52 369.32 651.96 397.93 651.92 397.9 651.92 340.6 701.52 369.24"/><polygon class="cls-5" points="651.92 340.6 651.92 397.9 602.33 369.26 602.33 369.24 651.92 340.6"/><polygon class="cls-10" points="651.92 397.9 651.92 397.95 602.39 426.54 602.33 426.5 602.33 369.26 651.92 397.9"/><polygon class="cls-11" points="701.52 369.24 701.52 369.32 651.96 397.93 651.92 397.9 651.92 340.6 701.52 369.24"/><polygon class="cls-12" points="602.33 254.71 602.33 312.01 552.74 283.36 552.74 283.34 602.33 254.71"/><polygon class="cls-13" points="651.88 340.63 602.33 369.24 602.33 312.05 602.37 312.03 651.88 340.63"/><polygon class="cls-13" points="568.53 340.63 545.39 353.99 545.39 327.28 545.41 327.27 568.53 340.63"/><polygon class="cls-12" points="568.12 259.12 552.31 268.25 552.31 250.01 552.32 250 568.12 259.12"/><polygon class="cls-13" points="651.93 283.42 651.93 340.6 651.88 340.63 602.37 312.03 651.93 283.42"/><polygon class="cls-11" points="651.93 283.34 651.93 283.42 602.37 312.03 602.33 312.01 602.33 254.71 651.93 283.34"/><polygon class="cls-14" points="602.33 426.5 602.33 483.8 552.74 455.16 552.74 455.13 602.33 426.5"/><polygon class="cls-15" points="651.88 512.42 602.33 541.03 602.33 483.85 602.37 483.83 651.88 512.42"/><polygon class="cls-15" points="552.74 512.42 503.19 541.03 503.19 483.85 503.23 483.83 552.74 512.42"/><polygon class="cls-15" points="651.93 455.22 651.93 512.4 651.88 512.42 602.37 483.83 651.93 455.22"/><polygon class="cls-15" points="651.93 455.13 651.93 455.22 602.37 483.83 602.33 483.8 602.33 426.5 651.93 455.13"/><polygon class="cls-11" points="651.92 340.6 651.92 397.9 602.33 369.26 602.33 369.24 651.92 340.6"/><polygon class="cls-11" points="651.92 397.9 651.92 397.95 602.39 426.54 602.33 426.5 602.33 369.26 651.92 397.9"/><polygon class="cls-10" points="651.92 397.95 651.92 455.13 602.39 426.54 651.92 397.95"/><polygon class="cls-4" points="701.47 426.52 651.92 455.13 651.92 397.95 651.96 397.93 701.47 426.52"/><polygon class="cls-11" points="701.52 369.24 701.52 369.32 651.96 397.93 651.92 397.9 651.92 340.6 701.52 369.24"/><polygon class="cls-4" points="0 55.48 0 -1.7 0.05 -1.72 49.56 26.87 0 55.48"/><polygon class="cls-5" points="0 55.57 0 55.48 49.56 26.87 49.6 26.9 49.6 84.2 0 55.57"/><polygon class="cls-6" points="0 170.1 0 112.8 49.59 141.44 49.59 141.47 0 170.1"/><polygon class="cls-7" points="0 112.8 0 112.75 49.53 84.16 49.59 84.2 49.59 141.44 0 112.8"/><polygon class="cls-7" points="16.45 174.8 16.45 174.79 33.12 165.16 33.15 165.18 33.15 184.44 16.45 174.8"/><polygon class="cls-7" points="0 112.75 0 55.57 49.53 84.16 0 112.75"/><polygon class="cls-8" points="-49.55 84.18 0 55.57 0 112.75 -0.03 112.77 -49.55 84.18"/><polygon class="cls-6" points="-49.59 198.79 -49.59 198.71 -0.03 170.1 0 170.12 0 227.43 -49.59 198.79"/><polygon class="cls-5" points="0.05 -1.72 49.6 -30.33 49.6 26.86 49.56 26.87 0.05 -1.72"/><polygon class="cls-5" points="0 55.48 0 -1.7 0.05 -1.72 49.56 26.87 0 55.48"/><polygon class="cls-1" points="0 55.57 0 55.48 49.56 26.87 49.6 26.9 49.6 84.2 0 55.57"/><polygon class="cls-5" points="49.6 84.2 49.6 26.9 99.19 55.54 99.19 55.57 49.6 84.2"/><polygon class="cls-10" points="49.6 26.9 49.6 26.86 99.13 -1.73 99.19 -1.7 99.19 55.54 49.6 26.9"/><polygon class="cls-11" points="0 55.57 0 55.48 49.56 26.87 49.6 26.9 49.6 84.2 0 55.57"/><polygon class="cls-11" points="99.19 55.48 99.19 -1.7 99.24 -1.72 148.75 26.87 99.19 55.48"/><polygon class="cls-12" points="163.41 38.49 163.41 15.28 163.43 15.27 183.53 26.88 163.41 38.49"/><polygon class="cls-12" points="99.19 170.1 99.19 112.8 148.79 141.44 148.79 141.47 99.19 170.1"/><polygon class="cls-13" points="49.65 84.18 99.19 55.57 99.19 112.75 99.16 112.77 49.65 84.18"/><polygon class="cls-13" points="49.59 141.38 49.59 84.2 49.65 84.18 99.16 112.77 49.59 141.38"/><polygon class="cls-11" points="49.59 141.47 49.59 141.38 99.16 112.77 99.19 112.8 99.19 170.1 49.59 141.47"/><polygon class="cls-11" points="49.6 84.2 49.6 26.9 99.19 55.54 99.19 55.57 49.6 84.2"/><polygon class="cls-11" points="49.6 26.9 49.6 26.86 99.13 -1.73 99.19 -1.7 99.19 55.54 49.6 26.9"/><polygon class="cls-10" points="49.6 26.86 49.6 -30.33 99.13 -1.73 49.6 26.86"/><polygon class="cls-4" points="0.05 -1.72 49.6 -30.33 49.6 26.86 49.56 26.87 0.05 -1.72"/><polygon class="cls-11" points="0 55.57 0 55.48 49.56 26.87 49.6 26.9 49.6 84.2 0 55.57"/></g></g><g id="BACKGROUND_1" data-name="BACKGROUND 1"><g class="cls-16"><polygon class="cls-11" points="47.5 416.08 47.5 460.99 8.63 438.54 8.63 438.52 47.5 416.08"/><polygon class="cls-7" points="8.63 438.58 8.63 483.4 8.59 483.42 -30.21 461.01 8.63 438.58"/><polygon class="cls-4" points="8.63 438.52 8.63 438.58 -30.21 461.01 -30.24 460.99 -30.24 416.08 8.63 438.52"/><polygon class="cls-11" points="8.63 348.76 8.63 393.67 -30.24 371.22 -30.24 371.2 8.63 348.76"/><polygon class="cls-5" points="8.63 393.67 8.63 393.7 -30.19 416.11 -30.24 416.08 -30.24 371.22 8.63 393.67"/><polygon class="cls-5" points="8.63 393.7 8.63 438.52 -30.19 416.11 8.63 393.7"/><polygon class="cls-13" points="47.46 416.1 8.63 438.52 8.63 393.7 8.66 393.69 47.46 416.1"/><polygon class="cls-8" points="8.63 483.4 8.63 528.31 -30.24 505.86 -30.24 505.84 8.63 483.4"/><polygon class="cls-11" points="47.5 505.84 47.5 505.91 8.66 528.33 8.63 528.31 8.63 483.4 47.5 505.84"/><polygon class="cls-11" points="47.5 416.08 47.5 460.99 8.63 438.54 8.63 438.52 47.5 416.08"/><polygon class="cls-9" points="8.59 483.42 -30.24 505.84 -30.24 461.02 -30.21 461.01 8.59 483.42"/><polygon class="cls-7" points="8.63 438.58 8.63 483.4 8.59 483.42 -30.21 461.01 8.63 438.58"/><polygon class="cls-11" points="8.63 438.52 8.63 438.58 -30.21 461.01 -30.24 460.99 -30.24 416.08 8.63 438.52"/><polygon class="cls-4" points="8.63 438.52 8.63 438.58 -30.21 461.01 -30.24 460.99 -30.24 416.08 8.63 438.52"/><polygon class="cls-13" points="8.59 483.42 -30.24 505.84 -30.24 461.02 -30.21 461.01 8.59 483.42"/><polygon class="cls-11" points="8.63 438.52 8.63 438.58 -30.21 461.01 -30.24 460.99 -30.24 416.08 8.63 438.52"/></g></g></svg>