<?xml version="1.0"?>
<svg xmlns="http://www.w3.org/2000/svg" xmlns:xlink="http://www.w3.org/1999/xlink" version="1.1" viewBox="0 0 224 224" width="200px" height="200px"><g fill="none" fill-rule="nonzero" stroke="none" stroke-width="1" stroke-linecap="butt" stroke-linejoin="miter" stroke-miterlimit="10" stroke-dasharray="" stroke-dashoffset="0" font-family="none" font-weight="none" font-size="none" text-anchor="none" style="mix-blend-mode: normal"><path d="M0,224v-224h224v224z" fill="none"/><g fill="#ffffff"><path d="M129.36437,35.42c-0.80871,0.11644 -1.51924,0.67708 -1.79812,1.49188c-2.5424,7.39648 -7.33471,11.4024 -14.24063,11.91312c-8.36416,0.60704 -13.96878,-3.27184 -17.1675,-11.88688c-0.39424,-1.06624 -1.51833,-1.67104 -2.62937,-1.4c-8.288,2.0272 -16.04729,5.28283 -23.05625,9.66875c-0.9632,0.60032 -1.32395,1.82658 -0.83563,2.8525c3.62208,7.65184 2.8,14.00452 -2.52,19.41188c-5.39168,5.48352 -11.78153,6.4078 -19.54313,2.835c-1.03264,-0.47936 -2.25676,-0.09929 -2.84812,0.87063c-4.36576,7.18368 -7.52507,14.96593 -9.38875,23.12625c-0.25088,1.0976 0.34923,2.21123 1.40875,2.59875c7.75936,2.8448 11.62028,7.81379 11.795,15.18562c0.18368,7.67872 -3.60836,12.91885 -11.585,16.02125c-1.04384,0.40768 -1.62495,1.52324 -1.36063,2.61188c1.95776,8.07296 5.21104,15.77982 9.67312,22.9075c0.59584,0.94976 1.79617,1.30774 2.81313,0.8575c7.51296,-3.34432 13.73386,-2.46778 19.0225,2.6775c5.41856,5.27072 6.43916,11.54821 3.115,19.18437c-0.448,1.02816 -0.06835,2.22635 0.88813,2.80875c7.168,4.3568 14.91661,7.51824 23.03437,9.39312c0.13888,0.03136 0.28112,0.04375 0.42,0.04375c0.88704,0 1.78013,-0.59829 2.17437,-1.39125c0.11648,-0.21952 0.20426,-0.39872 0.2625,-0.56c2.55808,-6.66848 8.23263,-10.86337 14.81375,-10.94625c0.0784,-0.00224 0.15571,0 0.23187,0c6.944,0 12.66227,3.93309 15.32563,10.56125c0.50176,1.24096 1.62523,2.58923 4.05563,1.96875c7.3808,-1.86592 14.43103,-4.78261 20.96063,-8.67125c0.27776,-0.16576 0.54995,-0.34612 0.79187,-0.51187l0.245,-0.16625c0.91392,-0.60032 1.26164,-1.77909 0.81812,-2.77813c-3.0912,-6.96864 -2.47565,-12.83083 1.88563,-17.91562c5.3312,-6.21376 11.93847,-7.5242 20.19063,-4.01188c1.01024,0.4368 2.19786,0.06143 2.7825,-0.87937c4.41952,-7.1456 7.63319,-14.86517 9.55063,-22.93813c0.25984,-1.09312 -0.32756,-2.20654 -1.37812,-2.6075c-7.66976,-2.93664 -11.4743,-7.90979 -11.62438,-15.19875c-0.16128,-7.67648 3.63909,-12.90817 11.61125,-15.99938c0.9408,-0.36512 1.5183,-1.31309 1.4175,-2.31437c-0.54656,-5.40288 -6.59445,-19.9739 -9.80437,-23.62062c-0.6608,-0.74816 -1.73561,-0.97237 -2.62937,-0.55125c-7.5712,3.54816 -13.88415,2.67803 -19.29375,-2.66437c-5.43648,-5.36928 -6.33598,-11.7634 -2.7475,-19.55188c0.47488,-1.0304 0.10356,-2.24791 -0.86188,-2.84375c-7.20608,-4.43744 -14.99452,-7.64908 -23.14812,-9.54188c-0.28,-0.06608 -0.55731,-0.07819 -0.82688,-0.03937zM131.075,40.285c6.37952,1.66432 12.5132,4.1938 18.27,7.53812c-3.36896,8.69792 -1.84737,16.53379 4.45375,22.75875c6.29216,6.21376 14.09727,7.67256 22.64063,4.27c2.52448,3.99392 6.38323,13.36321 7.49875,18.22625c-8.54784,3.88864 -12.95441,10.61641 -12.76625,19.55625c0.17696,8.57024 4.43373,14.78977 12.66125,18.51937c-1.68672,6.34592 -4.23083,12.44373 -7.58187,18.17813c-9.24672,-3.30848 -17.34432,-1.269 -23.52,5.92812c-5.05568,5.89568 -6.18793,13.06746 -3.31625,20.8425c-5.68064,3.30176 -11.77613,5.83072 -18.27437,7.56c-3.55936,-7.92288 -10.76408,-12.49829 -19.37688,-12.45125c-7.9968,0.1008 -14.92445,4.84232 -18.41437,12.53c-6.38848,-1.6464 -12.52408,-4.14652 -18.28312,-7.455c3.0912,-8.5456 1.43539,-16.23048 -4.83437,-22.33c-6.1264,-5.9584 -13.75084,-7.43417 -22.14188,-4.30937c-3.3824,-5.71424 -5.95353,-11.80393 -7.66937,-18.14313c8.46496,-3.9088 12.81056,-10.62173 12.6,-19.52125c-0.20384,-8.53888 -4.63936,-14.9148 -12.86688,-18.53688c1.63744,-6.3952 4.12496,-12.52867 7.42,-18.27875c8.67552,3.34432 16.50509,1.78707 22.74125,-4.55437c6.16448,-6.26752 7.58954,-14.05096 4.1825,-22.61c5.62688,-3.31072 11.74369,-5.87384 18.22625,-7.63c4.0544,9.1728 11.26653,13.65409 20.93437,12.91937c8.10432,-0.59584 14.09048,-5.08176 17.41688,-13.00688zM109.43188,62.545c-1.52712,0.06664 -3.04685,0.20405 -4.55438,0.41125c-0.60928,0.08512 -1.03225,0.64421 -0.94937,1.25125c0.07616,0.55552 0.55157,0.9625 1.09813,0.9625c0.05152,0 0.09936,-0.00203 0.15312,-0.00875c2.8784,-0.392 5.8205,-0.52175 8.7325,-0.38063c0.69888,0.0784 1.13463,-0.44947 1.16375,-1.05875c0.02912,-0.616 -0.44285,-1.13463 -1.05437,-1.16375c-1.52768,-0.07504 -3.06225,-0.07976 -4.58937,-0.01312zM100.24875,64.05875c-0.14336,-0.02177 -0.29449,-0.01564 -0.44625,0.02188c-16.00704,4.07232 -28.90584,15.79861 -34.49688,31.36437c-0.20832,0.57792 0.09145,1.21356 0.66937,1.42188c0.12544,0.04256 0.25081,0.06563 0.37625,0.06563c0.45472,0 0.88648,-0.28252 1.05,-0.735c1.65461,-4.60584 3.98176,-8.85438 6.85563,-12.64812l4.67687,6.93c-0.32015,0.48917 -0.66634,0.95551 -0.96687,1.46125c-5.4096,9.10336 -6.94747,19.76856 -4.33563,30.03c0.60374,2.37252 1.43296,4.6466 2.4325,6.825l-8.2425,0.42437c-0.67906,-1.72763 -1.26433,-3.50244 -1.72813,-5.32875c-0.15008,-0.59136 -0.74483,-0.95956 -1.35187,-0.805c-0.5936,0.15232 -0.95071,0.75603 -0.80063,1.35187c1.62733,6.40746 4.56109,12.26308 8.53563,17.33813c0.03995,0.06372 0.08908,0.11721 0.14,0.17063c6.24263,7.89512 15.02641,13.87265 25.45812,16.97062c4.47969,1.33196 8.98985,2.02487 13.44437,2.17c0.01332,0.00047 0.02605,0.00875 0.03937,0.00875c0.00937,0 0.0169,-0.00852 0.02625,-0.00875c0.53525,0.01676 1.07231,0.06125 1.60563,0.06125c12.152,0 23.73256,-4.34591 32.67688,-12.58687c0.45248,-0.41664 0.48227,-1.12039 0.06563,-1.57063c-0.41664,-0.45248 -1.12263,-0.48227 -1.57063,-0.06563c-4.69946,4.33036 -10.17024,7.5184 -16.07375,9.52l0.6475,-8.06312c0.00914,-0.10845 -0.01402,-0.20915 -0.035,-0.31063c7.13749,-3.33396 13.11645,-8.70895 17.22875,-15.6275c5.4096,-9.10336 6.95408,-19.76856 4.34,-30.03c-0.55973,-2.19955 -1.33055,-4.30545 -2.23125,-6.33937l8.08063,-0.87063c0.65801,1.71849 1.22813,3.47992 1.68875,5.28937c0.12544,0.504 0.57897,0.83563 1.07625,0.83563c0.0896,0 0.17941,-0.00823 0.27125,-0.03063c0.5936,-0.15232 0.95071,-0.75603 0.80063,-1.35187c-4.11936,-16.18848 -16.00102,-29.14397 -31.7975,-34.65437c-0.57344,-0.2016 -1.2159,0.10447 -1.4175,0.68687c-0.2016,0.58016 0.10671,1.21366 0.68687,1.4175c4.5402,1.58327 8.73109,3.81824 12.495,6.58l-10.72313,2.59437c-8.4254,-4.12032 -17.93864,-5.13746 -27.12937,-2.79563c-2.32714,0.5922 -4.55302,1.40689 -6.69375,2.38l-0.875,-8.09813c1.83008,-0.71833 3.71492,-1.33243 5.64812,-1.82437c0.5936,-0.15232 0.95071,-0.75166 0.80063,-1.3475c-0.11256,-0.4452 -0.47117,-0.76157 -0.90125,-0.82688zM92.56625,68.9675l0.87063,8.08063c0.0059,0.05575 0.03452,0.10049 0.04812,0.15313c-2.09082,1.10443 -4.07351,2.37739 -5.92375,3.8325l-2.3625,-7.91875c2.31644,-1.59144 4.77906,-2.98201 7.3675,-4.1475zM83.29563,74.50188l2.40625,8.0675c-1.99193,1.77561 -3.81462,3.75442 -5.42937,5.92812l-4.55875,-6.755c2.25368,-2.69057 4.79648,-5.11548 7.58188,-7.24063zM112.04375,74.76875c16.70144,0 31.96571,11.28274 36.26875,28.1925c2.46624,9.68576 1.00996,19.75075 -4.095,28.34563c-5.10496,8.59264 -13.25236,14.68152 -22.93812,17.15c-9.69248,2.464 -19.75299,1.00996 -28.34563,-4.095c-8.59264,-5.10496 -14.68152,-13.25237 -17.15,-22.93813c-2.46624,-9.688 -1.00996,-19.75299 4.095,-28.34563c5.10496,-8.59264 13.25237,-14.68152 22.93813,-17.15c3.08672,-0.78624 6.17823,-1.15937 9.22687,-1.15937zM142.3625,75.72688c2.48345,2.06253 4.75066,4.36794 6.75937,6.88625l-8.75438,1.44375c-0.1141,0.01902 -0.21252,0.06867 -0.31062,0.11812c-2.29275,-2.28445 -4.85289,-4.32826 -7.70437,-6.02875zM150.61812,84.5775c1.88517,2.63504 3.48712,5.48544 4.80813,8.4875l-8.2075,0.88812c-1.46867,-2.84508 -3.26373,-5.49231 -5.36812,-7.88812l8.58375,-1.42188c0.0666,-0.0111 0.1223,-0.04374 0.18375,-0.06563zM112.175,97.81625c-3.8416,-0.0112 -7.45924,1.41159 -10.17188,4.09063c-2.69696,2.65888 -4.19083,6.21757 -4.20875,10.01437c-0.03584,7.8288 6.32583,14.22442 14.18375,14.2625h0.00875c7.75264,-0.04256 13.99923,-6.0894 14.21875,-13.76812c0.10752,-3.8528 -1.30253,-7.49511 -3.96813,-10.26375c-2.65664,-2.76192 -6.2321,-4.29979 -10.0625,-4.33563zM112.03063,100.05625h0.1225c3.22336,0.03136 6.23661,1.32587 8.47437,3.64875c2.24448,2.33184 3.42997,5.40148 3.33813,8.645c-0.18368,6.46464 -5.45342,11.55343 -11.9875,11.59375c-6.61696,-0.0336 -11.97511,-5.42143 -11.94375,-12.01375c0.01568,-3.19648 1.26801,-6.19073 3.53937,-8.42625c2.25568,-2.2288 5.25592,-3.4475 8.45688,-3.4475zM159.18875,121.86125c-0.42693,0.07444 -0.78127,0.39851 -0.88375,0.84875c-0.6496,2.84032 -1.56755,5.6358 -2.72563,8.30812c-0.24416,0.56224 0.01526,1.21933 0.5775,1.46125c0.14336,0.06272 0.29403,0.09188 0.44187,0.09188c0.42784,0 0.83569,-0.24612 1.01937,-0.665c1.21184,-2.79776 2.17378,-5.72502 2.8525,-8.6975c0.13888,-0.59808 -0.23531,-1.19773 -0.83563,-1.33437c-0.15064,-0.03528 -0.30394,-0.03794 -0.44625,-0.01312zM77.16625,130.96125c1.26455,2.36035 2.76041,4.57256 4.47125,6.61937l-7.80937,2.3275c-2.00255,-2.63121 -3.6908,-5.48502 -5.07063,-8.50937zM154.75688,134.365c-0.42903,-0.04211 -0.86761,0.16824 -1.08938,0.57312c-0.98112,1.79648 -2.08092,3.54256 -3.26812,5.18c-0.3584,0.49728 -0.24791,1.18811 0.24937,1.54875c0.19712,0.14336 0.4234,0.21437 0.65188,0.21437c0.34272,0 0.67949,-0.16145 0.90125,-0.45937c1.23872,-1.71808 2.39095,-3.53903 3.41687,-5.42063c0.29344,-0.5376 0.09359,-1.20932 -0.44625,-1.505c-0.13216,-0.07168 -0.27262,-0.11721 -0.41563,-0.13125zM83.2475,139.41812c2.18186,2.30191 4.66123,4.33426 7.38938,6.08563l-7.24938,3.72313c-2.98993,-2.18465 -5.68911,-4.67882 -8.04125,-7.45063zM92.78937,146.82063c2.88753,1.6069 5.9158,2.8463 9.03437,3.68375l-5.42063,5.18437c-0.08435,0.08012 -0.13914,0.17474 -0.1925,0.27125c-3.86345,-1.36183 -7.46078,-3.1503 -10.74937,-5.29812l7.0525,-3.6225c0.10876,-0.05572 0.19441,-0.13608 0.27563,-0.21875zM126.65625,149.0125l-0.65625,8.155c-4.05372,1.14134 -8.2885,1.71816 -12.6,1.73688l3.8325,-7.13563c0.05037,-0.0941 0.06625,-0.1936 0.0875,-0.29312c1.50614,-0.20504 3.01173,-0.48543 4.50625,-0.86625c1.66051,-0.42256 3.26169,-0.97827 4.83,-1.59687zM104.2475,151.0775c2.54232,0.51215 5.12838,0.77438 7.73063,0.77438c0.91221,0 1.82885,-0.04141 2.74313,-0.105l-3.82375,7.11375c-4.03942,-0.18904 -8.12926,-0.87127 -12.18875,-2.07812c-0.0592,-0.01759 -0.11591,-0.0391 -0.175,-0.05688l5.44688,-5.21063c0.13235,-0.1257 0.21086,-0.27656 0.26687,-0.4375z"/></g></g></svg>
