<?xml version="1.0"?>
<svg xmlns="http://www.w3.org/2000/svg" xmlns:xlink="http://www.w3.org/1999/xlink" version="1.1" viewBox="0 0 224 224" width="200px" height="200px"><g fill="none" fill-rule="nonzero" stroke="none" stroke-width="1" stroke-linecap="butt" stroke-linejoin="miter" stroke-miterlimit="10" stroke-dasharray="" stroke-dashoffset="0" font-family="none" font-weight="none" font-size="none" text-anchor="none" style="mix-blend-mode: normal"><path d="M0,224v-224h224v224z" fill="none"/><g fill="#ffffff"><path d="M112,38.08c-7.09333,0 -12.49474,1.78268 -16.12188,3.59625c-3.62714,1.81357 -5.62187,3.78 -5.62187,3.78c-0.42008,0.42003 -0.65614,0.9897 -0.65625,1.58375v103.04c-0.00073,0.3037 0.0603,0.60437 0.17937,0.88375l17.39937,40.59563c0.8733,2.03582 2.89163,3.17625 4.82125,3.17625c1.92962,0 3.94947,-1.14398 4.82125,-3.18063l17.39937,-40.59125c0.11908,-0.27938 0.1801,-0.58005 0.17937,-0.88375v-103.04c-0.00011,-0.59405 -0.23617,-1.16372 -0.65625,-1.58375c0,0 -1.99474,-1.96643 -5.62187,-3.78c-3.62714,-1.81357 -9.02854,-3.59625 -16.12188,-3.59625zM112,42.56c6.34667,0 11.02526,1.57732 14.11812,3.12375c2.63747,1.31874 3.4524,2.17978 3.80188,2.50688v12.28937h-3.36c-0.40391,-0.00571 -0.77961,0.2065 -0.98323,0.55538c-0.20362,0.34888 -0.20362,0.78037 0,1.12924c0.20362,0.34888 0.57932,0.56109 0.98323,0.55538h3.36v4.48h-35.84v-4.48h25.76c0.40391,0.00571 0.77961,-0.2065 0.98323,-0.55538c0.20362,-0.34888 0.20362,-0.78037 0,-1.12924c-0.20362,-0.34888 -0.57932,-0.56109 -0.98323,-0.55538h-25.76v-12.28937c0.34948,-0.3271 1.1644,-1.18814 3.80188,-2.50688c3.09286,-1.54643 7.77146,-3.12375 14.11812,-3.12375zM94.08,69.44h35.84v6.72h-17.92h-17.92zM94.08,80.64h4.48v61.6c-0.00571,0.40391 0.2065,0.77961 0.55538,0.98323c0.34888,0.20362 0.78037,0.20362 1.12924,0c0.34888,-0.20362 0.56109,-0.57932 0.55538,-0.98323v-61.6h4.48v67.2h-11.2zM107.52,80.64h4.48h4.48v7.84c-0.00571,0.40391 0.2065,0.77961 0.55538,0.98323c0.34888,0.20362 0.78037,0.20362 1.12924,0c0.34888,-0.20362 0.56109,-0.57932 0.55538,-0.98323v-7.84h4.48v43.68c-0.00571,0.40391 0.2065,0.77961 0.55538,0.98323c0.34888,0.20362 0.78037,0.20362 1.12924,0c0.34888,-0.20362 0.56109,-0.57932 0.55538,-0.98323v-43.68h4.48v67.2h-4.48v-7.84c0.00474,-0.30311 -0.11358,-0.5952 -0.32794,-0.80956c-0.21436,-0.21436 -0.50645,-0.33268 -0.80956,-0.32794c-0.29704,0.00463 -0.58008,0.12708 -0.78684,0.34041c-0.20676,0.21332 -0.32031,0.50005 -0.31566,0.79709v7.84h-4.48v-52.64c0.00474,-0.30311 -0.11358,-0.5952 -0.32794,-0.80956c-0.21436,-0.21436 -0.50645,-0.33268 -0.80956,-0.32794c-0.29704,0.00463 -0.58008,0.12708 -0.78684,0.34041c-0.20676,0.21332 -0.32031,0.50005 -0.31566,0.79709v52.64h-4.48h-4.48zM124.3025,129.9025c-0.29704,0.00463 -0.58008,0.12708 -0.78684,0.34041c-0.20676,0.21332 -0.32031,0.50005 -0.31566,0.79709v2.24c-0.00571,0.40391 0.2065,0.77961 0.55538,0.98323c0.34888,0.20362 0.78037,0.20362 1.12924,0c0.34888,-0.20362 0.56109,-0.57932 0.55538,-0.98323v-2.24c0.00474,-0.30311 -0.11358,-0.5952 -0.32794,-0.80956c-0.21436,-0.21436 -0.50645,-0.33268 -0.80956,-0.32794zM95.235,152.32h16.765h16.765l-10.56125,24.64h-12.4075zM106.75437,179.2h10.49125l-4.54125,10.59188c-0.16758,0.39151 -0.39232,0.46375 -0.70437,0.46375c-0.31206,0 -0.53608,-0.07141 -0.70437,-0.46375z"/></g></g></svg>
