<?xml version="1.0"?>
<svg xmlns="http://www.w3.org/2000/svg" xmlns:xlink="http://www.w3.org/1999/xlink" version="1.1" viewBox="0 0 224 224" width="200px" height="200px"><g fill="none" fill-rule="nonzero" stroke="none" stroke-width="1" stroke-linecap="butt" stroke-linejoin="miter" stroke-miterlimit="10" stroke-dasharray="" stroke-dashoffset="0" font-family="none" font-weight="none" font-size="none" text-anchor="none" style="mix-blend-mode: normal"><path d="M0,224v-224h224v224z" fill="none"/><g fill="#ffffff"><path d="M113.11563,27.65437c-31.82816,0 -57.72375,25.89559 -57.72375,57.72375c0,21.21056 11.47972,40.46473 30.065,50.62313l-1.02375,8.35625c-0.0112,0.0896 -0.0175,0.17941 -0.0175,0.27125c0,5.59854 3.05477,10.64638 7.80937,13.34375c-1.95146,1.64405 -3.22437,4.11725 -3.22437,6.92125c0,3.47741 1.93829,6.46489 4.73812,7.94937c-0.87468,1.27635 -1.38687,2.81469 -1.38687,4.47563v2.03c0,4.22589 3.32344,7.66053 7.49,7.90125c0.97059,5.16576 7.06494,9.03 14.68687,9.03c4.66876,0 14.02933,-2.24254 15.01063,-9.02125c4.22604,-0.17894 7.6125,-3.64264 7.6125,-7.91v-2.03c0,-4.38144 -3.56356,-7.945 -7.945,-7.945h-28.91c-0.01496,0 -0.02881,0.00429 -0.04375,0.00437h-2.6075c-2.296,0 -4.165,-2.00928 -4.165,-4.48c0,-2.47072 1.869,-4.48 4.165,-4.48h32.09063c2.296,0 4.165,2.00928 4.165,4.48c0,1.27904 -0.00269,1.27638 -0.91437,2.5375c-0.72576,1.00128 -0.49816,2.40236 0.50312,3.12812c1.00128,0.72352 2.39799,0.50253 3.12375,-0.49875c1.56576,-2.1616 1.7675,-2.59301 1.7675,-5.17125c0,-4.94144 -3.87604,-8.96 -8.645,-8.96h-32.09063c-0.05099,0 -0.09797,0.01658 -0.14875,0.0175c-0.26234,-0.45084 -0.65841,-0.82498 -1.19,-1.00625c-4.39264,-1.49408 -7.35749,-5.57732 -7.41125,-10.185l1.19437,-9.7475c0.11648,-0.93184 -0.36323,-1.83841 -1.19875,-2.26625c-17.8976,-9.17056 -29.01937,-27.32237 -29.01937,-47.36813c0,-29.35744 23.88631,-53.24375 53.24375,-53.24375c29.87488,0 54.18437,23.92891 54.18437,53.33563c0,19.39392 -11.76224,37.95327 -29.96,47.28063c-0.83552,0.42784 -1.31523,1.33217 -1.19875,2.26625l1.19437,9.7475c-0.03584,2.87392 -1.18524,5.56973 -3.255,7.60813c-0.88256,0.86912 -0.891,2.28931 -0.02188,3.17187c0.86912,0.88032 2.28494,0.891 3.1675,0.02188c2.95904,-2.91872 4.58937,-6.80033 4.58937,-10.93313c0,-0.0896 -0.0063,-0.18379 -0.0175,-0.27563l-1.02375,-8.35625c18.88768,-10.30624 31.00563,-29.97253 31.00563,-50.53125c0,-31.87968 -26.31877,-57.81563 -58.66437,-57.81563zM115.87188,43.37375c-0.61824,0 -1.12,0.50176 -1.12,1.12c0,0.61824 0.50176,1.12 1.12,1.12c2.20864,0 4.42928,0.1841 6.59312,0.5425c12.53504,2.07872 23.44675,10.1171 29.18563,21.5075c0.19712,0.38976 0.59195,0.61688 1.00188,0.61688c0.17024,0 0.34408,-0.03962 0.50312,-0.1225c0.55328,-0.27776 0.77651,-0.94735 0.49875,-1.50063c-6.0592,-12.02656 -17.58348,-20.51766 -30.82187,-22.71062c-2.2848,-0.37856 -4.62879,-0.57313 -6.96063,-0.57313zM155.57063,73.15875c-0.1442,-0.01725 -0.29404,-0.00868 -0.44188,0.035c-0.59584,0.17248 -0.94024,0.79104 -0.77,1.38688c1.02816,3.58176 1.55313,7.30544 1.55313,11.07312c0,0.61824 0.50176,1.12 1.12,1.12c0.62048,0 1.12,-0.49728 1.12,-1.12c0,-3.976 -0.55423,-7.91325 -1.64063,-11.69437c-0.12768,-0.4452 -0.50803,-0.74886 -0.94063,-0.80063zM126.47688,96.67875c-0.64848,-0.0364 -1.33987,0.09583 -2.03875,0.39375c-1.87712,0.80192 -3.39895,2.63263 -3.69687,4.45375c-0.50848,3.11584 0.51593,6.45943 2.76937,9.27063c-1.58816,1.25664 -3.46864,2.01512 -5.46,2.18312c-2.22656,0.19488 -4.7264,-0.73885 -6.72,-2.44125c1.5344,-2.42816 2.45245,-5.02043 3.00125,-7.16187c0.60704,-2.37216 0.31433,-4.12017 -0.87063,-5.19313c-0.90496,-0.82432 -2.16647,-1.07835 -3.53063,-0.70875c-1.81888,0.48384 -3.45912,1.96969 -3.99,3.60937c-0.96544,2.98368 -0.19408,6.36321 2.11312,9.26625c0.11872,0.14784 0.23769,0.29638 0.36313,0.4375c-0.84,1.06848 -1.83827,2.05433 -3.01875,2.88313c-0.56,0.39424 -1.15171,0.735 -1.75875,1.015c-1.1872,-2.93216 -2.62052,-5.73132 -4.305,-8.435c-1.64192,-2.63648 -3.90929,-4.00288 -6.04625,-3.64c-0.9184,0.15232 -1.80698,0.62283 -2.6425,1.39563c-1.62848,1.50752 -2.42659,3.36952 -2.30563,5.39c0.1456,2.42816 1.63152,4.83014 4.07312,6.5975c2.744,1.98464 6.41935,2.49616 9.91375,1.55312c3.27712,9.16384 4.21865,19.754 3.04937,32.97c-0.056,0.616 0.399,1.15812 1.015,1.21188c0.0336,0.00448 0.06916,0.00437 0.105,0.00437c0.57344,0 1.05728,-0.43911 1.12,-1.02375c1.20064,-13.56096 0.22162,-24.45527 -3.1675,-33.92375c0.77504,-0.35168 1.52981,-0.77788 2.24437,-1.28188c1.30368,-0.91392 2.40405,-1.99203 3.33813,-3.14563c2.4192,2.00256 5.44537,3.08109 8.21625,2.84813c2.49312,-0.20832 4.83662,-1.17236 6.79438,-2.765c0.0224,0.0224 0.04536,0.04323 0.07,0.06562c1.07968,0.99904 2.26331,1.8227 3.50875,2.45438c-0.21047,0.37616 -0.38528,0.72664 -0.58625,1.09812c-0.41685,-0.10858 -0.86442,0.0116 -1.10688,0.52937c-1.12894,2.41283 -2.00603,4.84801 -2.73,7.30188c-0.11137,0.25535 -0.39416,0.86471 -0.45062,0.9975c-0.10284,0.24282 -0.09544,0.49542 -0.03063,0.73063c-2.05335,7.89572 -2.35796,16.01405 -2.19625,24.43437c0.02688,1.44032 2.26688,1.4448 2.24,0c-0.16413,-8.64367 0.1202,-17.05247 2.45875,-25.17812c1.20813,-2.76138 2.7647,-5.97318 4.50625,-9.05188c2.15936,0.68768 4.41294,0.80427 6.5275,0.27563c0.67648,-0.31808 6.63992,-3.21783 7.35,-7.32375c0.19488,-1.13568 0.05481,-2.85925 -1.72375,-4.62437c-1.01472,-1.01024 -2.25887,-1.40396 -3.60063,-1.14188c-3.16736,0.62272 -6.66347,5.19165 -9.54187,10.01437c-1.08416,-0.54432 -2.13013,-1.25905 -3.08437,-2.13937c0.0896,-0.1008 0.17738,-0.20759 0.2625,-0.31063c2.24448,-2.71264 3.32892,-6.20504 2.975,-9.60312c-0.12992,-1.23648 -0.28819,-2.77207 -1.61875,-3.68375c-0.5376,-0.36736 -1.14527,-0.57173 -1.79375,-0.60813zM126.25375,98.91437c0.25536,0 0.51313,0.05971 0.73937,0.21875c0.44352,0.30464 0.54863,1.01402 0.66063,2.0825c0.2912,2.7888 -0.60819,5.67843 -2.47187,7.93187c-0.02016,0.02464 -0.04109,0.05411 -0.06125,0.07875c-1.76736,-2.28032 -2.56861,-4.91096 -2.17437,-7.33688c0.17472,-1.0528 1.21103,-2.26345 2.36687,-2.75625c0.2688,-0.11648 0.60463,-0.21875 0.94063,-0.21875zM111.11188,99.55312c0.29568,0 0.60032,0.07147 0.84,0.28875c0.6496,0.59136 0.46995,1.94673 0.20562,2.97937c-0.46368,1.81216 -1.21628,3.98555 -2.42812,6.04187c-1.77408,-2.28256 -2.38154,-4.86094 -1.6625,-7.0875c0.29568,-0.91168 1.36391,-1.85052 2.43687,-2.135c0.18144,-0.04928 0.39309,-0.0875 0.60813,-0.0875zM93.975,104.79437c1.32832,0 2.63652,1.32762 3.45188,2.6425c1.59488,2.56032 2.95281,5.20891 4.08625,7.98875c-2.77984,0.67872 -5.69075,0.2807 -7.79187,-1.2425c-1.8928,-1.37088 -3.04035,-3.16134 -3.14563,-4.9175c-0.08064,-1.34624 0.45458,-2.56319 1.5925,-3.61375c0.50848,-0.47264 1.00814,-0.75061 1.4875,-0.83125c0.10752,-0.01792 0.21409,-0.02625 0.31937,-0.02625zM140.14,105.175c0.41591,0.01796 0.7854,0.20083 1.155,0.56875c0.88928,0.88256 1.24831,1.75077 1.09375,2.65125c-0.43232,2.51328 -4.54709,4.95029 -5.88437,5.60437c-1.46272,0.35616 -3.05168,0.29467 -4.63312,-0.14437c2.72384,-4.50688 5.63819,-8.21492 7.83563,-8.645c0.14952,-0.03024 0.29449,-0.04099 0.43312,-0.035zM100.29688,173.85375h27.895h1.015c1.91072,0 3.465,1.55428 3.465,3.465v2.03c0,1.91072 -1.55428,3.465 -3.465,3.465h-28.91c-1.91072,0 -3.465,-1.55428 -3.465,-3.465v-2.03c0,-1.91072 1.55428,-3.465 3.465,-3.465zM104.54937,187.29375h20.3525c-1.36431,3.39026 -8.26265,4.50625 -10.37313,4.50625c-4.72503,0 -8.79753,-1.95197 -9.97937,-4.50625z"/></g></g></svg>
