<svg xmlns="http://www.w3.org/2000/svg" viewBox="0 0 55.73 78.63"><defs><style>.cls-1{fill:#bfb382;}.cls-2{fill:#a3986a;}.cls-3{fill:none;}.cls-4{fill:#ffaebe;}.cls-5{fill:#fc7790;}.cls-6{fill:#ef5b7b;}.cls-7{fill:#5d3828;}.cls-8{fill:#562d20;}.cls-9{fill:#ffcc5c;}.cls-10{fill:#f22a67;opacity:0.35;}.cls-11{fill:#f75048;}.cls-12{fill:#f4cb4a;}.cls-13{fill:#5de05a;}.cls-14{fill:#35a6d8;}.cls-15{fill:#be25d8;}.cls-16{opacity:0.18;}</style></defs><title>balon</title><g id="Layer_2" data-name="Layer 2"><g id="Layer_4" data-name="Layer 4"><polygon class="cls-1" points="23.26 71.64 24.03 78.56 30.69 78.56 32.23 71.64 23.26 71.64"/><polygon class="cls-2" points="23 71.89 32.74 71.89 32.74 70.87 22.74 70.87 23 71.89"/><path class="cls-2" d="M21.21,59.33l2.05,11.54h.47s-2-12.31-2-12.31Z"/><path class="cls-2" d="M34,58.56,32.23,71.12s-.7-.25-.48-.25,1.5-12.82,1.5-12.82Z"/><polygon class="cls-3" points="27.81 69.38 27.81 64.94 25.3 64.94 22.72 64.94 24.24 69.38 27.78 69.38 27.81 69.38"/><polygon class="cls-3" points="27.81 69.38 31.28 69.38 32.82 64.94 27.81 64.94 27.81 69.38"/><path class="cls-4" d="M34.77,60.6l-.2.26Z"/><path class="cls-4" d="M35.08,60.19l-.31.41Z"/><path class="cls-4" d="M34.56,60.89l-.17.23Z"/><path class="cls-4" d="M22.45,61.18a1,1,0,0,1-.07-.15l-.75-.21c-.3-.08-.59-.18-.89-.27l.47.63h1.24Z"/><path class="cls-5" d="M22.45,61.18H23L22.38,61A1,1,0,0,0,22.45,61.18Z"/><path class="cls-6" d="M29,61.53a17.16,17.16,0,0,1-2.46.1A19.93,19.93,0,0,1,23,61.18H21.43l1.29,3.76H25.3A36.41,36.41,0,0,0,29,61.53Z"/><polygon class="cls-6" points="21.21 61.17 22.5 64.94 22.72 64.94 21.43 61.17 21.21 61.17"/><path class="cls-7" d="M27.78,69.38c.57,0,1,1.22,1,1.8a1,1,0,1,1-2.09,0c0-.58.47-1.8,1.05-1.8H24.24l0,.07a2.44,2.44,0,0,1,.81,1.73,1,1,0,1,1-2.09,0c0-.58.47-1.8,1-1.8H22.09a.37.37,0,0,0-.36.42l.94,6.92h.78A8.47,8.47,0,0,0,31,72.08a1,1,0,0,1-.53-.9,2.53,2.53,0,0,1,.77-1.7l0-.1h-3.5Z"/><path class="cls-7" d="M31.85,69.38h-.32a.5.5,0,0,1,.3.11A.36.36,0,0,0,31.85,69.38Z"/><path class="cls-7" d="M31.53,69.38h-.25l0,.1A.5.5,0,0,1,31.53,69.38Z"/><path class="cls-7" d="M24.24,69.38H24a.51.51,0,0,1,.24.07Z"/><path class="cls-8" d="M32.82,77.21a1.69,1.69,0,0,1-.35.81,1.69,1.69,0,0,0,.35-.81l1-7.41a.25.25,0,0,0,0-.08.25.25,0,0,1,0,.08Z"/><path class="cls-8" d="M22.73,77.21l-.06-.49h0l.06.49a1.66,1.66,0,0,0,.85,1.22A1.66,1.66,0,0,1,22.73,77.21Z"/><path class="cls-8" d="M31.83,69.49a2.58,2.58,0,0,1,.74,1.69,1,1,0,0,1-1,1,1,1,0,0,1-.52-.15,8.47,8.47,0,0,1-7.56,4.64h-.78l.06.49a1.66,1.66,0,0,0,.85,1.22l.2.1a1.63,1.63,0,0,0,.59.1h6.82a1.65,1.65,0,0,0,1.08-.4l.2-.21a1.69,1.69,0,0,0,.35-.81l1-7.41a.25.25,0,0,0,0-.08.37.37,0,0,0-.15-.26.27.27,0,0,0-.14-.07H31.85A.36.36,0,0,1,31.83,69.49Z"/><path class="cls-8" d="M33.83,69.72a.37.37,0,0,0-.15-.26A.37.37,0,0,1,33.83,69.72Z"/><path class="cls-8" d="M33.54,69.39a.27.27,0,0,1,.14.07A.27.27,0,0,0,33.54,69.39Z"/><path class="cls-9" d="M31.16,69.74l.09-.26a2.53,2.53,0,0,0-.77,1.7,1,1,0,0,0,.53.9,8.26,8.26,0,0,0,.82-2.59.45.45,0,0,0-.58,0Z"/><path class="cls-9" d="M32.57,71.18a2.58,2.58,0,0,0-.74-1.69A8.26,8.26,0,0,1,31,72.08a1,1,0,0,0,.52.15A1,1,0,0,0,32.57,71.18Z"/><path class="cls-9" d="M26.73,71.18a1,1,0,1,0,2.09,0c0-.58-.47-1.8-1-1.8S26.73,70.6,26.73,71.18Z"/><path class="cls-9" d="M23,71.18a1,1,0,1,0,2.09,0,2.44,2.44,0,0,0-.81-1.73l.1.29-.1-.29a.51.51,0,0,0-.24-.07C23.45,69.38,23,70.6,23,71.18Z"/><path class="cls-4" d="M33.79,60.48l-.41.13q-.15.28-.27.57h1.23l0,0,0,0,.17-.23v0l.2-.26h0l.31-.41.19-.26C34.77,60.13,34.28,60.32,33.79,60.48Z"/><path class="cls-10" d="M33.79,60.48l-.41.13q-.15.28-.27.57h1.23l0,0,0,0,.17-.23v0l.2-.26h0l.31-.41.19-.26C34.77,60.13,34.28,60.32,33.79,60.48Z"/><path class="cls-4" d="M35.08,60.19l.19-.26h0Z"/><path class="cls-10" d="M35.08,60.19l.19-.26h0Z"/><path class="cls-4" d="M34.37,61.14l0,0Z"/><path class="cls-10" d="M34.37,61.14l0,0Z"/><path class="cls-5" d="M32.63,60.87a.17.17,0,0,1-.12,0l-.72.18,0,.13h1.36q.12-.28.27-.57h0Z"/><path class="cls-10" d="M32.63,60.87a.17.17,0,0,1-.12,0l-.72.18,0,.13h1.36q.12-.28.27-.57h0Z"/><path class="cls-4" d="M31.24,61.18h.51l0-.13Z"/><path class="cls-10" d="M31.24,61.18h.51l0-.13Z"/><path class="cls-6" d="M33.11,61.18H31.24a19.64,19.64,0,0,1-2.22.35,36.41,36.41,0,0,1-3.72,3.41h7.52l1.3-3.76Z"/><path class="cls-10" d="M33.11,61.18H31.24a19.64,19.64,0,0,1-2.22.35,36.41,36.41,0,0,1-3.72,3.41h7.52l1.3-3.76Z"/><polygon class="cls-6" points="32.82 64.94 33.06 64.94 34.34 61.17 34.12 61.17 32.82 64.94"/><polygon class="cls-10" points="32.82 64.94 33.06 64.94 34.34 61.17 34.12 61.17 32.82 64.94"/><path class="cls-11" d="M2.76,34.23q-.39-.75-.75-1.56Q2.37,33.48,2.76,34.23Z"/><path class="cls-11" d="M4.79,19.29A24.88,24.88,0,0,1,6.88,6.71,20.3,20.3,0,0,0,.24,19.29Z"/><path class="cls-11" d="M2.77,34.25c.15.27.29.53.45.79,1.46,2.44,3.17,5.09,4.94,7.74-.58-2.69-1.06-5.58-1.43-8.53Z"/><path class="cls-11" d="M1.66,31.82c-.21-.55-.4-1.12-.58-1.7C1.26,30.7,1.45,31.27,1.66,31.82Z"/><path class="cls-11" d="M4.79,19.29h1A55.7,55.7,0,0,1,7,6.62l-.09.09A24.88,24.88,0,0,0,4.79,19.29Z"/><path class="cls-11" d="M7,6.62l-.08.07v0L7,6.62Z"/><path class="cls-11" d="M.24,19.29v0Z"/><path class="cls-11" d="M2.77,34.25h0v0Z"/><path class="cls-11" d="M5.9,24.79v0c-.08-.27-.15-.53-.22-.79,0,0,0-.09,0-.14,0-.21-.11-.41-.16-.62L5.41,23c0-.16-.07-.31-.11-.47l-.06-.32c0-.13-.06-.26-.08-.39s0-.24-.07-.36L5,21.09,5,20.68c0-.08,0-.17,0-.26L4.87,20a1.5,1.5,0,0,1,0-.2l-.06-.47v0H.24v.05c0,.29-.07.58-.1.86,0,.07,0,.14,0,.22,0,.28,0,.56-.07.84v.08c0,.31,0,.62,0,.93v1a1.09,1.09,0,0,1,0,.18c0,.31,0,.62,0,.93v0c0,.29,0,.59.07.88a1.11,1.11,0,0,1,0,.17c0,.3.07.6.11.89h0c0,.31.09.62.15.92a.5.5,0,0,0,0,.12c0,.27.1.54.16.81,0,0,0,.07,0,.1.13.6.29,1.19.46,1.76l0,.09c.18.58.37,1.15.58,1.7v0c.11.27.22.54.34.81H2q.36.81.75,1.56v0h4C6.33,31.12,6.05,27.91,5.9,24.79Z"/><path class="cls-11" d="M5.89,24.76c-.08-.27-.15-.53-.22-.79.07.26.14.52.22.79v0h0Z"/><path class="cls-11" d="M4.79,19.29v0Z"/><path class="cls-11" d="M5.9,24.79c-.09-1.88-.13-3.72-.13-5.5h-1v0l.06.47a1.5,1.5,0,0,0,0,.2l.06.43c0,.09,0,.18,0,.26l.06.41.06.32c0,.12,0,.24.07.36s0,.26.08.39l.06.32c0,.16.08.31.11.47l.06.26c0,.21.11.41.16.62,0,.05,0,.09,0,.14.07.26.14.52.22.79Z"/><path class="cls-12" d="M20.73,60.54h0c.3.09.59.19.89.27C21.33,60.74,21,60.64,20.73,60.54Z"/><path class="cls-12" d="M19.14,58.38c-1.21-1.64-2.85-3.9-4.68-6.48C16.29,54.48,17.93,56.74,19.14,58.38Z"/><path class="cls-12" d="M20.7,58.38H19.14c.69.94,1.24,1.67,1.59,2.16.3.1.6.2.9.28C21.33,60.74,21,59.86,20.7,58.38Z"/><path class="cls-12" d="M16.77,50.35a165.9,165.9,0,0,1-7.58-16.1H6.73c.37,3,.85,5.84,1.43,8.53,1.73,2.6,3.52,5.19,5.2,7.57Z"/><path class="cls-12" d="M16.46,1.69h0l-.62.17.42-.12Z"/><path class="cls-12" d="M16.75,1.6h0Z"/><path class="cls-12" d="M17.14,1.5l-.15,0,.15,0Z"/><path class="cls-12" d="M13.34,2.76l-.22.09.22-.09Z"/><path class="cls-12" d="M19.35,48.56C17.79,44,16.1,39,14.58,34.25H9.19a165.9,165.9,0,0,0,7.58,16.1h2.77C19.47,49.77,19.41,49.17,19.35,48.56Z"/><path class="cls-12" d="M16.5,1.68h0Z"/><path class="cls-12" d="M17.14,1.5l-.15,0-.24.06h0Z"/><path class="cls-12" d="M16.3,1.73l-.42.12-.2.07-.7.22-.22.08-.8.29-.21.08-.4.17A28.29,28.29,0,0,1,16.3,1.73Z"/><path class="cls-12" d="M13.75,2.59l-.4.17h0Z"/><path class="cls-12" d="M5.77,19.29h4.6c-.08-.4-.16-.79-.22-1.15A20,20,0,0,1,13.34,2.76l-.22.09-.21.09c-.25.1-.49.21-.73.33l-.22.1-.56.28-.2.1-.67.36-.21.13-.51.3-.18.11c-.21.13-.41.26-.6.4a1.64,1.64,0,0,0-.22.14l-.45.33-.17.12-.54.42-.2.16L7,6.57,7,6.62A55.7,55.7,0,0,0,5.77,19.29Z"/><path class="cls-12" d="M7,6.57,7,6.62H7Z"/><path class="cls-12" d="M17.36,1.45Z"/><path class="cls-12" d="M17.36,1.45Z"/><polygon class="cls-12" points="13.35 2.76 13.34 2.76 13.34 2.76 13.35 2.76"/><polygon class="cls-12" points="13.35 2.75 13.34 2.76 13.34 2.76 13.35 2.76 13.35 2.75"/><polygon class="cls-12" points="17.34 1.45 17.34 1.45 17.35 1.45 17.34 1.45"/><polygon class="cls-12" points="17.34 1.45 17.34 1.45 17.34 1.45 17.34 1.45 17.34 1.45"/><polygon class="cls-12" points="17.34 1.45 17.34 1.45 17.34 1.45 17.34 1.45"/><path class="cls-12" d="M14.58,34.25C16.1,39,17.79,44,19.35,48.56c-.44-4.22-.84-9.17-1.18-14.31Z"/><path class="cls-12" d="M16.61,19.29c-1.11-7-.42-12,.62-15.21,0-.73.05-1.42.09-2.05l-.82-.35h0l-.16,0a28.29,28.29,0,0,0-3,1h0a20,20,0,0,0-3.19,15.38c.06.36.14.75.22,1.15Z"/><polygon class="cls-12" points="13.35 2.75 13.35 2.75 13.35 2.76 13.35 2.75"/><path class="cls-12" d="M17.23,4.08c-1,3.24-1.73,8.17-.62,15.21h.79C17.18,13.4,17.11,8,17.23,4.08Z"/><path class="cls-12" d="M20.49,57.31c-.44-.84-.91-1.72-1.41-2.65-.72-1.34-1.5-2.77-2.3-4.29v0H13.36l.42.6h0l.67.94c1.83,2.58,3.47,4.84,4.68,6.48H20.7C20.63,58.05,20.56,57.69,20.49,57.31Z"/><path class="cls-12" d="M14.46,51.9,13.79,51Z"/><path class="cls-12" d="M13.36,50.35l.42.6-.42-.6Z"/><path class="cls-12" d="M19.08,54.66c-.72-1.34-1.5-2.77-2.3-4.29C17.58,51.89,18.36,53.32,19.08,54.66Z"/><path class="cls-12" d="M19.08,54.66c.5.93,1,1.81,1.41,2.65h0C20.05,56.47,19.58,55.59,19.08,54.66Z"/><polygon class="cls-12" points="16.77 50.35 16.78 50.37 16.77 50.35 16.77 50.35"/><path class="cls-12" d="M19.54,50.35H16.77v0c.8,1.52,1.58,3,2.3,4.29.5.93,1,1.81,1.41,2.65C20.17,55.52,19.85,53.14,19.54,50.35Z"/><path class="cls-12" d="M7.52,29.78a2.25,2.25,0,0,1-.08-.24c-.25-.7-.49-1.4-.72-2.12L6.57,27c-.22-.69-.44-1.39-.65-2.09l0-.07c.15,3.12.43,6.33.83,9.46H9.19v0C8.61,32.77,8.05,31.29,7.52,29.78Z"/><path class="cls-12" d="M7.52,29.78c.53,1.51,1.09,3,1.66,4.42C8.61,32.77,8.05,31.29,7.52,29.78Z"/><path class="cls-12" d="M9.19,34.25h0v0Z"/><path class="cls-12" d="M5.9,24.79h0l0,.07Z"/><path class="cls-12" d="M14.47,33.91l-.06-.19c-.21-.69-.43-1.36-.63-2l-.1-.3c-.06-.19-.12-.38-.17-.57s-.07-.22-.1-.33c-.1-.31-.19-.62-.28-.92L13,29.17l-.15-.49-.12-.41c-.05-.15-.09-.31-.13-.46s-.15-.5-.23-.75-.07-.26-.11-.38-.09-.33-.13-.49-.08-.25-.11-.37l-.15-.55A2.29,2.29,0,0,1,11.8,25l-.21-.76c0-.09-.05-.18-.08-.28s-.1-.36-.14-.54,0-.18-.07-.26c-.07-.25-.13-.5-.19-.75l0-.11c-.06-.21-.11-.43-.16-.64a1.17,1.17,0,0,1-.05-.2c0-.2-.1-.39-.14-.59l0-.13L10.54,20l0-.11-.12-.55,0-.09H5.77c0,1.78,0,3.62.13,5.5l0,.07c.21.7.43,1.4.65,2.09l.15.47c.23.72.47,1.42.72,2.12a2.25,2.25,0,0,0,.08.24c.53,1.51,1.09,3,1.66,4.42v0h5.39C14.54,34.13,14.51,34,14.47,33.91Z"/><path class="cls-12" d="M10.37,19.29h0l0,.09Z"/><path class="cls-12" d="M14.58,34.25h0c0-.12-.07-.23-.11-.34C14.51,34,14.54,34.13,14.58,34.25Z"/><path class="cls-12" d="M10.51,19.93l0,.11.15.69,0,.13c0,.2.09.39.14.59a1.17,1.17,0,0,0,.05.2c.05.21.1.43.16.64l0,.11c.06.25.12.5.19.75,0,.08,0,.17.07.26s.09.36.14.54.05.19.08.28l.21.76a2.29,2.29,0,0,0,.08.28l.15.55c0,.12.07.25.11.37s.09.32.13.49.08.25.11.38.15.5.23.75.08.31.13.46l.12.41.15.49.12.39c.09.3.18.61.28.92,0,.11.06.22.1.33s.11.38.17.57l.1.3c.2.68.42,1.35.63,2l.06.19c0,.11.07.22.11.34h3.59c-.22-3.34-.41-6.75-.57-10.08-.05-.23-.11-.46-.16-.68-.09-.38-.17-.76-.25-1.13h0C17.11,22,17,21.65,17,21.3l-.12-.62c0-.13-.05-.27-.07-.41s-.09-.49-.13-.74a2,2,0,0,0,0-.24H10.37l0,.09Z"/><path class="cls-12" d="M17.44,23.49c-.09-.38-.17-.76-.25-1.13.08.37.16.75.25,1.13,0,.22.11.45.16.68h0C17.55,23.94,17.5,23.71,17.44,23.49Z"/><path class="cls-12" d="M16.61,19.29a2,2,0,0,1,0,.24,2,2,0,0,0,0-.24Z"/><path class="cls-12" d="M17.6,24.17c-.08-1.65-.15-3.28-.2-4.88h-.79a2,2,0,0,1,0,.24c0,.25.08.49.13.74s0,.28.07.41l.12.62c.07.35.14.7.22,1.06h0c.08.37.16.75.25,1.13C17.5,23.71,17.55,23.94,17.6,24.17Z"/><polygon class="cls-12" points="17.14 1.5 17.14 1.5 17.14 1.5 17.14 1.5"/><polygon class="cls-12" points="17.14 1.5 17.15 1.5 17.15 1.5 17.14 1.5 17.14 1.5 17.14 1.5"/><path class="cls-12" d="M16.71,1.61h0l-.21.07h0Z"/><path class="cls-12" d="M16.71,1.61l-.22.07h0l.21-.07Z"/><path class="cls-12" d="M17.14,1.5h0l-.43.11-.21.07h0Z"/><polygon class="cls-12" points="17.14 1.5 17.14 1.5 17.14 1.5 17.14 1.5"/><polygon class="cls-12" points="17.36 1.45 17.36 1.45 17.35 1.45 17.36 1.45"/><path class="cls-12" d="M17.28,1.47l-.13,0h0Z"/><path class="cls-12" d="M17.31,1.46l-.16,0,.13,0Z"/><path class="cls-12" d="M16.5,1.68l.82.35c0-.2,0-.39,0-.58h0l-.2.05Z"/><path class="cls-12" d="M17.34,1.45h0l-.06,0-.13,0h0Z"/><path class="cls-12" d="M17.34,1.45h-.06Z"/><path class="cls-12" d="M17.34,1.45h0Z"/><path class="cls-13" d="M33.38,60.61l.41-.13c.49-.16,1-.35,1.48-.55l.08-.1c-.7.29-1.37.56-2,.78Z"/><path class="cls-13" d="M35.35,59.83l-.08.1h0l.08-.1Z"/><path class="cls-13" d="M33.35,60.62h0Z"/><path class="cls-13" d="M29.24.29h0Z"/><path class="cls-13" d="M29.4.29Z"/><path class="cls-13" d="M29.4.29h0Z"/><path class="cls-13" d="M30.43,60c.45-.52.89-1.06,1.31-1.61h-1C30.63,59,30.53,59.49,30.43,60Z"/><polygon class="cls-13" points="29.11 0.28 29.11 0.28 29.11 0.28 29.11 0.28"/><polygon class="cls-13" points="29.11 0.28 29.11 0.28 29.11 0.28 29.11 0.28"/><path class="cls-13" d="M29.6,50.35H31c-.21-3.22-.38-7-.54-11C30.19,43.18,29.88,47,29.6,50.35Z"/><path class="cls-13" d="M28.94,58.38c-.09,1.07-.16,2-.23,2.8h.66c.36-.39.72-.79,1.06-1.19.1-.5.2-1,.32-1.61Z"/><path class="cls-13" d="M26.44.28h0Z"/><path class="cls-13" d="M21.06,58.38H20.7c.32,1.48.63,2.36.93,2.44l.75.21c-.39-.82-.83-1.7-1.32-2.65Z"/><path class="cls-13" d="M23.9.41l-.23,0h0Z"/><path class="cls-13" d="M21.51.66h0l.11,0-.17,0Z"/><path class="cls-13" d="M25.89.3h0Z"/><path class="cls-13" d="M22.56.53h0Z"/><path class="cls-13" d="M22.17.58h0l.25,0-.79.09.53-.06Z"/><path class="cls-13" d="M19.29,1,19.65,1h0l.13,0c-.22,0-.43.07-.64.12l.15,0Z"/><path class="cls-13" d="M25.44.32h0Z"/><path class="cls-13" d="M19.9.91h0l.12,0-.21,0Z"/><path class="cls-13" d="M20.66.78l-.49.08.3,0Z"/><path class="cls-13" d="M24.11.4l.26,0h.1L24,.4h.08Z"/><path class="cls-13" d="M24.8.35h0Z"/><path class="cls-13" d="M20.84.75l.28,0h.07l-.45.07.1,0Z"/><path class="cls-13" d="M24.91.34Z"/><path class="cls-13" d="M25.17.33Z"/><path class="cls-13" d="M24,.41h0Z"/><path class="cls-13" d="M19.54,50.35H20l-.62-1.79C19.41,49.17,19.47,49.77,19.54,50.35Z"/><path class="cls-13" d="M22.8,58.38H21.06c.49.95.93,1.83,1.32,2.65l.61.15h.82C23.52,60.39,23.19,59.45,22.8,58.38Z"/><path class="cls-13" d="M22.56.53h0l-.12,0-.25,0Z"/><path class="cls-13" d="M21.51.66h-.06l-.26,0h-.07Z"/><path class="cls-13" d="M20.29.84l.18,0-.3,0L20,.88l-.12,0Z"/><path class="cls-13" d="M17.36,1.45c.2-.05.4-.11.61-.15h0l-.18,0-.41.11Z"/><path class="cls-13" d="M18,1.29h0Z"/><path class="cls-13" d="M17.77,1.34l-.41.11h0Z"/><path class="cls-13" d="M25.17.33h0Z"/><path class="cls-13" d="M26.31.29h0Z"/><path class="cls-13" d="M18.43,1.19h.06L19.2,1l.09,0-.15,0-.24,0-.47.1Z"/><path class="cls-13" d="M18.9,1.09l-.47.1h0Z"/><path class="cls-13" d="M23.67.43h0Z"/><path class="cls-13" d="M25.75.3h0l-.31,0h.31Z"/><path class="cls-13" d="M25.38.32h0Z"/><path class="cls-13" d="M19.9.91h-.12l-.13,0Z"/><path class="cls-13" d="M23.65.43h-.11L23,.49Z"/><path class="cls-13" d="M22.92.5h0l.58,0L22.91.5h0Z"/><path class="cls-13" d="M20.47.81h.1l.27-.05-.1,0h-.08l-.19,0Z"/><path class="cls-13" d="M24.38.38l.4,0h0l-.3,0h-.09Z"/><path class="cls-13" d="M21.51.66h0l.12,0,.17,0,.37,0-.53.06h0l-.11,0Z"/><path class="cls-13" d="M20.47.81l-.18,0,.18,0Z"/><polygon class="cls-13" points="21.51 0.66 21.51 0.66 21.51 0.66 21.51 0.66"/><polygon class="cls-13" points="21.51 0.66 21.51 0.66 21.51 0.66 21.51 0.66"/><path class="cls-13" d="M22.8,58.38c.39,1.07.72,2,1,2.8h1.54l-.54-2.8Z"/><path class="cls-13" d="M19.87,34.25h-1.7c.34,5.14.74,10.09,1.18,14.31L20,50.35h3.25c-1-4.77-2.11-10.39-3.35-16.1Z"/><path class="cls-13" d="M17.32,2c0,.63-.07,1.32-.09,2.05A17.69,17.69,0,0,1,17.9,2.3Z"/><polygon class="cls-13" points="26.45 0.28 26.45 0.28 26.45 0.28 26.45 0.28"/><polygon class="cls-13" points="26.45 0.28 26.45 0.28 26.45 0.28 26.45 0.28"/><path class="cls-13" d="M25.37.32h0Z"/><polygon class="cls-13" points="18.43 1.2 18.43 1.2 18.43 1.2 18.43 1.2 18.43 1.2"/><path class="cls-13" d="M24.1.4h0Z"/><polygon class="cls-13" points="18.43 1.19 18.43 1.2 18.43 1.19 18.43 1.19"/><polygon class="cls-13" points="18.43 1.2 18.43 1.19 18.43 1.2 18.43 1.2 18.43 1.2"/><path class="cls-13" d="M22.91.5Z"/><path class="cls-13" d="M22.91.5h0Z"/><polygon class="cls-13" points="25.38 0.32 25.38 0.32 25.37 0.32 25.38 0.32 25.38 0.32"/><path class="cls-13" d="M24.81,58.38l.54,2.8h1.49c-.06-.79-.14-1.73-.23-2.8Z"/><path class="cls-13" d="M26,50.35h0c-.39-4.87-.86-10.54-1.32-16.1H19.87c1.24,5.71,2.39,11.33,3.35,16.1H26Z"/><path class="cls-13" d="M17.4,19.29h6a95.82,95.82,0,0,1-.11-13.9A36.34,36.34,0,0,0,17.9,2.3a17.69,17.69,0,0,0-.67,1.78C17.11,8,17.18,13.4,17.4,19.29Z"/><path class="cls-13" d="M20.7,58.38h.36c-.19-.35-.37-.71-.57-1.07C20.56,57.69,20.63,58.05,20.7,58.38Z"/><path class="cls-13" d="M20.49,57.31c.2.36.38.72.57,1.07h0c-.19-.35-.37-.71-.57-1.07Z"/><path class="cls-13" d="M22.54,57.63l-.06-.16c-.09-.25-.18-.5-.28-.76l-.06-.19c-.1-.26-.19-.53-.29-.81l0-.05-.32-.91,0-.13c-.11-.31-.23-.63-.34-.95l0-.07-.33-.93-.05-.13-.36-1,0-.06c-.13-.36-.25-.73-.38-1.1h-.43c.31,2.79.63,5.17.95,7,.2.36.38.72.57,1.07H22.8l0-.08C22.7,58.08,22.62,57.86,22.54,57.63Z"/><path class="cls-13" d="M22.8,58.38h0l0-.08Z"/><path class="cls-13" d="M24.81,58.37c0-.21-.09-.43-.13-.65l0-.2c0-.17-.07-.36-.1-.54l-.08-.37c0-.19-.07-.4-.11-.6l-.07-.33c0-.22-.09-.45-.13-.69l-.06-.3L23.94,54l-.06-.31c-.05-.29-.11-.58-.17-.87l0-.19-.15-.79-.07-.34c-.05-.25-.11-.51-.16-.77l-.07-.35H20c.13.37.25.74.38,1.1l0,.06.36,1,.05.13.33.93,0,.07c.11.32.23.64.34.95l0,.13.32.91,0,.05c.1.28.19.55.29.81l.06.19c.1.26.19.51.28.76l.06.16c.08.23.16.45.23.67l0,.08h2Z"/><path class="cls-13" d="M23.22,50.35l.07.35-.07-.35Z"/><path class="cls-13" d="M26,50.35H23.22l.07.35c.05.26.11.52.16.77l.07.34.15.79,0,.19c.06.29.12.58.17.87l.06.31.15.72.06.3c0,.24.09.47.13.69l.07.33c0,.2.08.41.11.6l.08.37c0,.18.07.37.1.54l0,.2c0,.22.09.44.13.65h1.8l-.06-.69C26.38,55.61,26.18,53.12,26,50.35Z"/><path class="cls-13" d="M31.39,55.06l-.12.62-.06.33-.12.6L31,57c0,.18-.07.37-.11.54l0,.2-.12.65h1l0-.05C31.64,57.44,31.51,56.34,31.39,55.06Z"/><path class="cls-13" d="M29.6,50.35c-.23,2.77-.43,5.26-.6,7.34l-.06.69h1.81l.12-.65,0-.2c0-.17.07-.36.11-.54l.07-.37.12-.6.06-.33.12-.62c-.12-1.38-.24-3-.35-4.71Z"/><path class="cls-13" d="M17.6,24.17c.16,3.33.35,6.74.57,10.08h1.7C19.13,30.87,18.37,27.46,17.6,24.17Z"/><path class="cls-13" d="M19.87,34.25c-.74-3.38-1.5-6.79-2.27-10.08h0c.77,3.29,1.53,6.7,2.27,10.08Z"/><path class="cls-13" d="M24.35,30.86l0-.33c0-.43-.07-.86-.11-1.29l-.06-.76-.09-1L24,27l-.09-1.11,0-.55-.1-1.14,0-.57-.09-1,0-.51c0-.45-.07-.89-.11-1.32L23.46,20l-.06-.7h-6c.05,1.6.12,3.23.2,4.88.77,3.29,1.53,6.7,2.27,10.08h4.76v-.12Z"/><path class="cls-13" d="M28.81.28h0Z"/><path class="cls-13" d="M25.78.3h0Z"/><path class="cls-13" d="M26.81.27h0Z"/><path class="cls-13" d="M28.75.27h0Z"/><path class="cls-13" d="M27.78,58.38v2.8h.93c.07-.79.14-1.73.23-2.8Z"/><path class="cls-13" d="M29.94,19.29c-.06-2.86-.11-5.62-.15-8.19q-1-1.08-2-2.07V19.29Z"/><path class="cls-13" d="M30.33,34.25H27.78v16.1H29.6c.28-3.39.59-7.17.9-11C30.44,37.66,30.38,36,30.33,34.25Z"/><path class="cls-13" d="M25.88.3h0Z"/><path class="cls-13" d="M27.78.26h0Z"/><path class="cls-13" d="M24.78.35h0Z"/><polygon class="cls-13" points="24.78 0.35 24.78 0.35 24.78 0.35 24.78 0.35"/><path class="cls-13" d="M23.4,19.29h4.38V9a36.44,36.44,0,0,0-4.49-3.64A95.82,95.82,0,0,0,23.4,19.29Z"/><path class="cls-13" d="M27.78,34.25H24.63c.46,5.56.93,11.23,1.32,16.1h1.83V34.25Z"/><path class="cls-13" d="M26.61,58.38c.09,1.07.17,2,.23,2.8h.94v-2.8Z"/><polygon class="cls-13" points="23.4 19.29 23.4 19.29 23.4 19.3 23.4 19.29"/><path class="cls-13" d="M24.35,30.86l.27,3.27Z"/><rect class="cls-13" x="27.78" y="19.29" height="14.95"/><path class="cls-13" d="M30.33,34.25c-.16-4.95-.29-10.09-.39-15H27.78v15Z"/><path class="cls-13" d="M27.78,19.29H23.4l.06.7.06.81c0,.43.07.88.11,1.32l0,.51.09,1,0,.57.1,1.14,0,.55L24,27l0,.46.09,1,.06.76c0,.43.07.86.11,1.29l0,.33.27,3.27v.12h3.15Z"/><path class="cls-13" d="M23.52,20.81c0,.43.07.87.11,1.32C23.59,21.69,23.56,21.24,23.52,20.81Z"/><path class="cls-13" d="M26.55,57.69c-.17-2.08-.37-4.57-.6-7.34h0C26.18,53.12,26.38,55.61,26.55,57.69Z"/><path class="cls-13" d="M29,57.69c.17-2.08.37-4.57.6-7.34h0C29.37,53.12,29.17,55.61,29,57.69Z"/><path class="cls-13" d="M26,50.35c.23,2.77.43,5.26.6,7.34l.06.69h1.17v-8Z"/><path class="cls-13" d="M29.6,50.35H27.78v8h1.16l.06-.69C29.17,55.61,29.37,53.12,29.6,50.35Z"/><path class="cls-13" d="M28.71,61.18H23a19.93,19.93,0,0,0,3.57.45,17.16,17.16,0,0,0,2.46-.1l.35-.35Z"/><polygon class="cls-13" points="25.75 0.3 25.75 0.3 25.75 0.3 25.75 0.3"/><polygon class="cls-13" points="23.9 0.41 23.9 0.41 23.9 0.41 23.9 0.41"/><path class="cls-13" d="M23.93.41h0Z"/><polygon class="cls-13" points="28.98 0.28 28.98 0.28 28.98 0.28 28.98 0.28 28.98 0.28"/><polygon class="cls-13" points="26.57 0.28 26.57 0.28 26.57 0.28 26.57 0.28 26.57 0.28"/><path class="cls-13" d="M29.24.29h0Z"/><path class="cls-13" d="M32.13,60.12c-.12.33-.24.64-.34.93l.72-.18C32.38,60.8,32.25,60.55,32.13,60.12Z"/><path class="cls-13" d="M29.33.29h0Z"/><polygon class="cls-13" points="29.4 0.29 29.4 0.29 29.4 0.29 29.4 0.29"/><path class="cls-13" d="M28.94.28h0Z"/><path class="cls-13" d="M28.93.28h0Z"/><path class="cls-13" d="M29.33.29Z"/><path class="cls-13" d="M32.13,60.12a12.81,12.81,0,0,1-.35-1.74h0c-.42.55-.86,1.09-1.31,1.61-.08.43-.15.83-.22,1.19h1l.55-.13C31.89,60.76,32,60.45,32.13,60.12Z"/><path class="cls-13" d="M29,.28h0Z"/><path class="cls-13" d="M29.11.28h0Z"/><path class="cls-13" d="M29.22.29h0Z"/><path class="cls-13" d="M29.09.28h0Z"/><path class="cls-13" d="M29,.28h0Z"/><path class="cls-13" d="M29.09.28h0Z"/><path class="cls-13" d="M28.94.28Z"/><path class="cls-13" d="M30.21,61.18c.07-.36.14-.76.22-1.19-.34.4-.7.8-1.06,1.19Z"/><path class="cls-13" d="M29.33.29h0Z"/><path class="cls-13" d="M23.73.42h.17l-.23,0Z"/><path class="cls-13" d="M26.44.28h0Z"/><path class="cls-13" d="M24,.41Z"/><polygon class="cls-13" points="25.17 0.33 25.17 0.33 25.17 0.33 25.17 0.33 25.17 0.33"/><path class="cls-13" d="M22.79.51Z"/><path class="cls-13" d="M18.43,1.2h0l-.24.05-.22,0h0l.46-.09Z"/><path class="cls-13" d="M24.37.38l-.26,0h.26Z"/><polygon class="cls-13" points="24.91 0.34 24.91 0.34 24.91 0.34 24.91 0.34"/><path class="cls-13" d="M19.49,1l.16,0h0L19.29,1h0l.17,0Z"/><path class="cls-13" d="M22.56.53h0Z"/><path class="cls-13" d="M22.59.53h0Z"/><path class="cls-13" d="M21.12.71h0l-.28,0,.14,0Z"/><polygon class="cls-13" points="19.9 0.91 19.9 0.91 19.9 0.91 19.9 0.91"/><polygon class="cls-13" points="22.18 0.58 22.17 0.58 22.17 0.58 22.18 0.58"/><path class="cls-13" d="M21.51.66h0l-.39,0L21,.73Z"/><polygon class="cls-13" points="21.51 0.66 21.51 0.66 21.51 0.66 21.51 0.66"/><path class="cls-13" d="M18.49,1.18h0Z"/><path class="cls-13" d="M25,.34h0Z"/><path class="cls-13" d="M26.2.29h0Z"/><polygon class="cls-13" points="26.15 0.29 26.15 0.29 26.15 0.29 26.15 0.29"/><path class="cls-13" d="M19.46,1l-.17,0L19.2,1,19.45,1Z"/><path class="cls-13" d="M23.9.41Z"/><path class="cls-13" d="M18.43,1.2h0L18,1.3c-.21,0-.41.1-.61.15h0Z"/><path class="cls-13" d="M18.43,1.2h0L18,1.29h0Z"/><path class="cls-13" d="M22.59.53h0l-.38,0h0Z"/><path class="cls-13" d="M25.75.3h0Z"/><path class="cls-13" d="M26.61.28h0Z"/><path class="cls-13" d="M23.65.43h0Z"/><polygon class="cls-13" points="23.67 0.43 23.67 0.43 23.67 0.43 23.67 0.43 23.67 0.43"/><path class="cls-13" d="M23.67.43Z"/><polygon class="cls-13" points="23.67 0.43 23.67 0.43 23.67 0.43 23.67 0.43"/><polygon class="cls-13" points="23.67 0.43 23.67 0.43 23.67 0.43 23.67 0.43"/><polygon class="cls-13" points="23.67 0.43 23.67 0.43 23.67 0.43 23.67 0.43"/><path class="cls-13" d="M20.54.8h0Z"/><path class="cls-13" d="M24.26.39l.52,0-.4,0h-.12Z"/><path class="cls-13" d="M21,.73l-.14,0h0L20.57.8h.05Z"/><polygon class="cls-13" points="20.84 0.75 20.84 0.75 20.84 0.75 20.84 0.75"/><path class="cls-13" d="M26.63.28h0Z"/><path class="cls-13" d="M22.78.51l-.19,0h0l.17,0Z"/><path class="cls-13" d="M22.78.51h-.19Z"/><path class="cls-13" d="M25.7.31h0Z"/><path class="cls-13" d="M22.17.58h0l-.37,0h0Z"/><polygon class="cls-13" points="22.17 0.58 22.17 0.58 22.17 0.58 22.17 0.58"/><path class="cls-13" d="M19.5,1l.4-.07h0l-.25,0-.16,0Z"/><polygon class="cls-13" points="19.9 0.91 19.9 0.91 19.9 0.91 19.9 0.91"/><path class="cls-13" d="M21.63.64l-.12,0h0l.11,0Z"/><path class="cls-13" d="M23.06.48l.59,0h0L23,.49h0Z"/><path class="cls-13" d="M23,.49h0Z"/><path class="cls-13" d="M21.8.62l1-.11-.17,0-.42,0Z"/><path class="cls-13" d="M19.9.91,19.5,1l1-.18h-.06l-.18,0L19.9.91Z"/><polygon class="cls-13" points="19.9 0.91 19.9 0.91 19.9 0.91 19.9 0.91"/><polygon class="cls-13" points="19.9 0.91 19.9 0.91 19.9 0.91 19.9 0.91"/><path class="cls-13" d="M20.29.84,19.9.91h0Z"/><path class="cls-13" d="M26.23.29h0Z"/><path class="cls-13" d="M19.45,1,19.2,1l-.71.14h0Z"/><path class="cls-13" d="M23.89.41h-.24l-.59,0Z"/><path class="cls-13" d="M18.43,1.2l-1.07.25c0,.19,0,.38,0,.58l.58.27C18.08,1.89,18.25,1.52,18.43,1.2Z"/><path class="cls-13" d="M21.51.66,21,.73l-.36.06,1-.15-.11,0Z"/><polygon class="cls-13" points="21.51 0.66 21.51 0.66 21.51 0.66 21.51 0.66"/><path class="cls-13" d="M26.52.28h0Z"/><path class="cls-13" d="M26.45.28Z"/><path class="cls-13" d="M26.46.28h0Z"/><path class="cls-13" d="M22.81.51h0Z"/><path class="cls-13" d="M22.82.51h0Z"/><polygon class="cls-13" points="18.43 1.2 18.43 1.2 18.43 1.2 18.43 1.2 18.43 1.2"/><path class="cls-13" d="M25.3.32h0Z"/><path class="cls-13" d="M19.49,1h0Z"/><path class="cls-13" d="M24.18.39h0Z"/><path class="cls-13" d="M25.3.32h-.22Z"/><path class="cls-13" d="M19.46,1h0Z"/><path class="cls-13" d="M23.9.41h0Z"/><path class="cls-13" d="M26.33.29h0Z"/><path class="cls-13" d="M18.48,1.19h0Z"/><polygon class="cls-13" points="18.43 1.2 18.43 1.2 18.43 1.2 18.43 1.2 18.43 1.2"/><path class="cls-13" d="M26.61.28h0Z"/><path class="cls-13" d="M26.55.28h0Z"/><path class="cls-13" d="M24.18.39h0Z"/><path class="cls-13" d="M26.57.28h0Z"/><path class="cls-13" d="M23.06.48l-.13,0h-.17Z"/><path class="cls-13" d="M22.92.5h0Z"/><path class="cls-13" d="M22.85.5h0Z"/><polygon class="cls-13" points="22.91 0.5 22.91 0.5 22.92 0.5 22.91 0.5"/><path class="cls-13" d="M21.8.62h0l-.17,0h0Z"/><path class="cls-13" d="M20.62.79h0Z"/><polygon class="cls-13" points="19.5 0.98 19.49 0.98 19.49 0.98 19.5 0.98"/><path class="cls-13" d="M25.39.32h0Z"/><path class="cls-13" d="M26.46.28h0Z"/><path class="cls-13" d="M25.39.32H25.3l-.22,0Z"/><path class="cls-13" d="M23.29,5.39a45.23,45.23,0,0,1,.61-5h0l-.83.07-.3,0-1,.11-.18,0-1,.15h-.09L19.5,1h-.05l-1,.2h-.05c-.18.32-.35.69-.53,1.1A36.34,36.34,0,0,1,23.29,5.39Z"/><path class="cls-13" d="M31.74,58.38h0v-.05Z"/><path class="cls-13" d="M25.78.3h0Z"/><path class="cls-13" d="M26.77.27Z"/><polygon class="cls-13" points="26.75 0.28 26.74 0.28 26.74 0.28 26.74 0.28 26.75 0.28"/><path class="cls-13" d="M23.92.41Z"/><path class="cls-13" d="M28.79.27h0Z"/><polygon class="cls-13" points="28.81 0.28 28.81 0.28 28.81 0.28 28.81 0.28 28.81 0.28"/><path class="cls-13" d="M28.78.27h0Z"/><path class="cls-13" d="M29.64.3Z"/><path class="cls-13" d="M29.64.3Z"/><path class="cls-13" d="M29.4.29Z"/><polygon class="cls-13" points="29.4 0.29 29.4 0.29 29.4 0.29 29.4 0.29"/><polygon class="cls-13" points="29.4 0.29 29.4 0.29 29.4 0.29 29.4 0.29"/><polygon class="cls-13" points="29.4 0.29 29.4 0.29 29.4 0.29 29.4 0.29 29.4 0.29"/><path class="cls-13" d="M28.81.28Z"/><polygon class="cls-13" points="28.81 0.28 28.81 0.28 28.81 0.28 28.81 0.28"/><polygon class="cls-13" points="28.81 0.28 28.81 0.28 28.81 0.28 28.81 0.28"/><polygon class="cls-13" points="28.81 0.28 28.81 0.28 28.81 0.28 28.81 0.28"/><polygon class="cls-13" points="28.81 0.28 28.81 0.28 28.81 0.28 28.81 0.28"/><path class="cls-13" d="M28.93.28H27.78l1.16,0Z"/><path class="cls-13" d="M29.64.3Z"/><path class="cls-13" d="M29.42.29h0Z"/><path class="cls-13" d="M29,.28h0l-1.16,0h0Z"/><path class="cls-13" d="M29.79,11.1c-.07-4.28-.12-8-.15-10.8H29l-1.21,0V9Q28.83,10,29.79,11.1Z"/><path class="cls-13" d="M23.9.41Z"/><path class="cls-13" d="M26.77.27h0Z"/><path class="cls-13" d="M26.14.29h0Z"/><path class="cls-13" d="M26.15.29h0Z"/><path class="cls-13" d="M24.91.34Z"/><polygon class="cls-13" points="24.91 0.34 24.91 0.34 24.91 0.34 24.91 0.34"/><path class="cls-13" d="M24,.41h0Z"/><path class="cls-13" d="M26.15.29Z"/><polygon class="cls-13" points="26.15 0.29 26.15 0.29 26.15 0.29 26.15 0.29"/><polygon class="cls-13" points="26.15 0.29 26.15 0.29 26.15 0.29 26.15 0.29"/><polygon class="cls-13" points="26.15 0.29 26.15 0.29 26.15 0.29 26.15 0.29 26.15 0.29"/><path class="cls-13" d="M23.94.41h0Z"/><path class="cls-13" d="M25,.34h0Z"/><path class="cls-13" d="M26.77.27h0Z"/><polygon class="cls-13" points="26.74 0.28 26.74 0.28 26.74 0.28 26.74 0.28"/><polygon class="cls-13" points="26.74 0.28 26.74 0.28 26.74 0.28 26.74 0.28"/><polygon class="cls-13" points="26.74 0.28 26.74 0.28 26.74 0.28 26.74 0.28"/><polygon class="cls-13" points="26.74 0.28 26.74 0.28 26.74 0.28 26.74 0.28"/><path class="cls-13" d="M25.77.3h0Z"/><polygon class="cls-13" points="25.75 0.3 25.75 0.3 25.75 0.3 25.75 0.3"/><polygon class="cls-13" points="25.75 0.3 25.75 0.3 25.75 0.3 25.75 0.3"/><polygon class="cls-13" points="25.75 0.3 25.75 0.3 25.75 0.3 25.75 0.3"/><polygon class="cls-13" points="25.75 0.3 25.75 0.3 25.75 0.3 25.75 0.3"/><polygon class="cls-13" points="25.75 0.3 25.75 0.3 25.75 0.3 25.75 0.3"/><polygon class="cls-13" points="25.75 0.3 25.75 0.3 25.75 0.3 25.75 0.3"/><polygon class="cls-13" points="25.75 0.3 25.75 0.3 25.75 0.3 25.75 0.3 25.75 0.3"/><path class="cls-13" d="M24.4.38l.46,0h-.08l-.52,0Z"/><polygon class="cls-13" points="24.78 0.35 24.78 0.35 24.78 0.35 24.78 0.35"/><path class="cls-13" d="M26.63.28h0l1.16,0H26.63Z"/><path class="cls-13" d="M26.14.29h-.66l.38,0Z"/><path class="cls-13" d="M24.86.35l-.46,0,.62,0Z"/><path class="cls-13" d="M26.22.29h0Z"/><path class="cls-13" d="M24.06.4h0Z"/><path class="cls-13" d="M25.08.34h0Z"/><path class="cls-13" d="M24.06.4h0Z"/><path class="cls-13" d="M26.57.28l1.21,0h0l-1.16,0Z"/><path class="cls-13" d="M25.48.32h-.09l.47,0Z"/><path class="cls-13" d="M24.26.39h-.2l.34,0Z"/><path class="cls-13" d="M25.86.3l-.47,0-.31,0H25l-.62,0-.34,0H23.9a45.23,45.23,0,0,0-.61,5A36.44,36.44,0,0,1,27.78,9V.26l-1.21,0h-.71Z"/><path class="cls-13" d="M29.37,61.18l-.35.35a19.64,19.64,0,0,0,2.22-.35H29.37Z"/><path class="cls-14" d="M32.63,60.87l.72-.25-.84.25A.17.17,0,0,0,32.63,60.87Z"/><path class="cls-14" d="M55.43,18.06c.14,1.2.24,2.36.3,3.49A34.37,34.37,0,0,0,55.43,18.06Z"/><path class="cls-14" d="M35.37,59.8l1-1.42h0Z"/><path class="cls-14" d="M38.75,55.17l-.48.66h0c.34-.46.7-1,1.06-1.46-.15.22-.31.43-.46.64Z"/><path class="cls-14" d="M37.94,56.29l.31-.43,0,0Z"/><path class="cls-14" d="M39.73,53.81l0,0h0Z"/><path class="cls-14" d="M40.34,53l-.15.19c-.13.2-.27.38-.4.57l1-1.43-.16.22Z"/><polygon class="cls-14" points="41.76 50.96 41.76 50.96 41.76 50.96 41.76 50.96"/><path class="cls-14" d="M41.15,51.83l-.17.23.45-.64-.15.22Z"/><path class="cls-14" d="M42.27,50.23l.28-.39h0Z"/><path class="cls-14" d="M37.75,56.56l-.14.18c.11-.14.21-.29.32-.44l-.14.2Z"/><path class="cls-14" d="M36.81,57.84l-.4.54.87-1.19-.42.58Z"/><path class="cls-14" d="M39.26,1.73h0l.41.12-.41-.12Z"/><path class="cls-14" d="M38.84,1.61h0Z"/><path class="cls-14" d="M29.67.3Z"/><path class="cls-14" d="M31.61.41h0Z"/><path class="cls-14" d="M35.09.81h0l.29,0L34.9.78l.19,0Z"/><path class="cls-14" d="M34.43.71l.28,0h0l.11,0L34.36.7Z"/><path class="cls-14" d="M35.65.91h.09l-.2,0,.11,0Z"/><path class="cls-14" d="M38.57,1.54l-.16,0h0Z"/><path class="cls-14" d="M34.1.67l-.17,0,.12,0Z"/><path class="cls-14" d="M31.45.4h.08l-.45,0h.11Z"/><path class="cls-14" d="M33,.53h0Z"/><path class="cls-14" d="M33.38.58h0l.53.06L33.12.55l.25,0Z"/><path class="cls-14" d="M30.27.32h0Z"/><path class="cls-14" d="M35.9,1l.36.07h0l.15,0Q36.1,1,35.78.93l.12,0Z"/><path class="cls-14" d="M37.6,1.3h0Z"/><path class="cls-14" d="M37.12,1.19l-.47-.1.47.1Z"/><path class="cls-14" d="M30.78.35h0Z"/><path class="cls-14" d="M30.38.33Z"/><path class="cls-14" d="M30.65.34Z"/><path class="cls-14" d="M40,2h0l-.11,0Z"/><path class="cls-14" d="M38.84,1.61h0l-.23-.06-.16,0Z"/><path class="cls-14" d="M38.21,1.45h0l-.43-.11-.18,0h0Z"/><path class="cls-14" d="M38.21,1.45l-.43-.11.43.11Z"/><path class="cls-14" d="M33.37.58h0l-.25,0L33,.53h0Z"/><path class="cls-14" d="M36.4,50.35A36.74,36.74,0,0,0,39.1,40c-1.19,3.57-2.4,7.12-3.52,10.33Z"/><path class="cls-14" d="M34.05.66l.38,0h-.07l-.26,0Z"/><path class="cls-14" d="M35.34.85l.31.06-.11,0-.16,0-.29,0Z"/><path class="cls-14" d="M30.64.34h0Z"/><path class="cls-14" d="M36.35,1l.71.14h.06l-.47-.1-.24,0-.15,0Z"/><path class="cls-14" d="M40,2h0l-.11,0-.2-.06-.41-.12Z"/><path class="cls-14" d="M32,.44h0Z"/><path class="cls-14" d="M29.91.31h.21L29.8.3h.11Z"/><path class="cls-14" d="M30.17.32h0Z"/><path class="cls-14" d="M32.59.49,32,.44h-.11Z"/><path class="cls-14" d="M32.64.5h0L32,.44l.57,0Z"/><path class="cls-14" d="M33.75.62l.18,0h0l.12,0h0l-.12,0h0L33.38.58Z"/><path class="cls-14" d="M30.77.35h0l.41,0h-.1l-.3,0Z"/><path class="cls-14" d="M35.9,1l-.12,0h-.13Z"/><path class="cls-14" d="M35,.8h.11l-.19,0h-.08l-.11,0Z"/><polygon class="cls-14" points="38.21 1.45 38.2 1.45 38.21 1.45 38.21 1.45"/><polygon class="cls-14" points="38.21 1.45 38.21 1.45 38.21 1.45 38.21 1.45 38.21 1.45"/><polygon class="cls-14" points="38.21 1.45 38.21 1.45 38.21 1.45 38.21 1.45"/><polygon class="cls-14" points="34.05 0.66 34.05 0.66 34.05 0.66 34.05 0.66"/><path class="cls-14" d="M39.29,34.25h-3.6c-1.24,5.71-2.4,11.33-3.36,16.1h3.25C36.7,47.14,37.91,43.59,39.1,40a37.19,37.19,0,0,0,.23-4.11C39.33,35.35,39.31,34.8,39.29,34.25Z"/><path class="cls-14" d="M31.61.41h0Z"/><polygon class="cls-14" points="37.12 1.2 37.12 1.2 37.12 1.2 37.12 1.2 37.12 1.19 37.12 1.2"/><polygon class="cls-14" points="37.12 1.2 37.12 1.2 37.12 1.2 37.12 1.2"/><path class="cls-14" d="M30.18.32h0Z"/><polygon class="cls-14" points="37.12 1.19 37.12 1.19 37.12 1.2 37.12 1.19"/><polygon class="cls-14" points="30.18 0.32 30.18 0.32 30.17 0.32 30.18 0.32 30.18 0.32"/><path class="cls-14" d="M30.5,39.32c.16,4,.33,7.81.54,11h1.29c1-4.77,2.12-10.39,3.36-16.1H30.92Z"/><path class="cls-14" d="M32.15,19.29H35.4a36.87,36.87,0,0,0-3-4.94c0,1.52-.13,3.17-.26,4.94Z"/><path class="cls-14" d="M37.29,57.18h0l-.43.58.42-.58h0q.14-.21.3-.42v0l.14-.18Z"/><path class="cls-14" d="M37.79,56.5l.14-.2h0l.29-.4Z"/><path class="cls-14" d="M38.27,55.83l.48-.66Z"/><path class="cls-14" d="M36.42,58.38h0l.4-.54Z"/><path class="cls-14" d="M41.77,51h0l0,0Z"/><path class="cls-14" d="M41.77,51l.42-.6h0l-.39.56Z"/><path class="cls-14" d="M39.36,54.32l.13-.17-.12.17Z"/><path class="cls-14" d="M35.2,51.45l0,.06-.36,1,0,.13c-.12.31-.23.63-.33.93l0,.07c-.11.32-.22.62-.32.93l-.07.18-.18.53a36.81,36.81,0,0,0,2.55-5h-.82C35.45,50.72,35.33,51.09,35.2,51.45Z"/><path class="cls-14" d="M33.85,55.31h0l.18-.53Z"/><path class="cls-14" d="M34.1,54.6c.1-.31.21-.61.32-.93l0-.07c.1-.3.21-.62.33-.93l0-.13.36-1,0-.06c.13-.36.25-.73.38-1.1H32.33l0,.09-.21,1.05,0,.12c-.07.34-.13.67-.2,1l0,.19c-.05.29-.11.58-.17.87l-.06.31c-.05.24-.1.48-.14.72l-.06.3,0,.07c.12,1.28.25,2.38.38,3.27.74-1,1.43-2,2.08-3l.18-.53Z"/><path class="cls-14" d="M31.47,54.69c0-.24.09-.48.14-.72l.06-.31c.06-.29.12-.58.17-.87l0-.19c.07-.32.13-.65.2-1l0-.12.21-1.05,0-.09H31c.11,1.75.23,3.33.35,4.71l0-.07Z"/><path class="cls-14" d="M37.49,26.16l-.6,2.62v.06c-.2.89-.4,1.78-.59,2.67v0c-.2.9-.4,1.8-.59,2.7h3.6a37,37,0,0,0-1.56-9.12c-.07.32-.15.63-.22,1Z"/><path class="cls-14" d="M37.51,26.09c.07-.33.15-.64.22-1h0C37.65,25.44,37.58,25.76,37.51,26.09Z"/><path class="cls-14" d="M32.15,19.3c0,.23,0,.46,0,.7s-.05.54-.07.81c0,.43-.07.87-.11,1.32l0,.51c0,.33-.06.66-.08,1l-.05.57-.09,1.14-.05.55L31.52,27l0,.46c0,.33-.06.67-.08,1l-.07.76c0,.43-.07.86-.1,1.29l0,.5-.07.83c-.07.79-.13,1.59-.2,2.39h4.77c.19-.9.39-1.8.59-2.7v0c.19-.89.39-1.78.59-2.67v-.06l.6-2.62,0-.07c.07-.33.14-.65.22-1a37.9,37.9,0,0,0-2.33-5.83H32.15Z"/><path class="cls-14" d="M29.8.3Z"/><path class="cls-14" d="M30.77.35Z"/><path class="cls-14" d="M29.77.3h0Z"/><polygon class="cls-14" points="30.77 0.35 30.77 0.35 30.77 0.35 30.77 0.35"/><path class="cls-14" d="M32.15,19.29c.13-1.77.21-3.42.26-4.94a37.22,37.22,0,0,0-2.62-3.25c0,2.57.09,5.33.15,8.19Z"/><path class="cls-14" d="M30.33,34.25c.05,1.72.11,3.41.17,5.07l.42-5.07h-.59Z"/><path class="cls-14" d="M30.92,34.25c.07-.8.13-1.6.2-2.39-.07.79-.13,1.59-.2,2.39Z"/><polygon class="cls-14" points="32.15 19.29 32.15 19.29 32.15 19.3 32.15 19.29"/><path class="cls-14" d="M30.92,34.25c.07-.8.13-1.6.2-2.39l.07-.83,0-.5c0-.43.07-.86.1-1.29l.07-.76c0-.35.05-.69.08-1l0-.46.09-1.11.05-.55.09-1.14.05-.57c0-.33.05-.66.08-1l0-.51c0-.44.08-.89.11-1.32,0-.27,0-.55.07-.81s0-.47,0-.7H29.94c.1,4.87.23,10,.39,15Z"/><path class="cls-14" d="M32,20.81c0,.43-.07.88-.11,1.32C32,21.68,32,21.24,32,20.81Z"/><path class="cls-14" d="M31.65.41Z"/><polygon class="cls-14" points="29.8 0.3 29.8 0.3 29.8 0.3 29.8 0.3"/><polygon class="cls-14" points="31.65 0.41 31.65 0.41 31.65 0.41 31.65 0.41"/><path class="cls-14" d="M39.75,53.78l0,0,0,0Z"/><path class="cls-14" d="M39.69,53.86l0,0h0Z"/><path class="cls-14" d="M39.49,54.15l.24-.34h0l0,0Z"/><polygon class="cls-14" points="39.36 54.32 39.36 54.32 39.36 54.33 39.36 54.32"/><path class="cls-14" d="M42.79,42.41c-1.36,2.86-2.72,5.51-4,7.94h3.41l.08-.12.28-.39C42.72,47.63,42.79,45.12,42.79,42.41Z"/><path class="cls-14" d="M42.19,50.35l.08-.12-.08.12Z"/><path class="cls-14" d="M34.5,58.38c-.41.79-.79,1.53-1.12,2.23.6-.22,1.27-.49,2-.78v0h0l1-1.42Z"/><path class="cls-14" d="M35.35,59.83v0Z"/><path class="cls-14" d="M31.65.41h.23l-.23,0Z"/><path class="cls-14" d="M31.88.43l-.23,0,.23,0Z"/><polygon class="cls-14" points="38.41 1.5 38.41 1.5 38.41 1.5 38.41 1.5"/><polygon class="cls-14" points="38.41 1.5 38.41 1.5 38.41 1.5 38.41 1.5 38.41 1.5 38.41 1.5"/><path class="cls-14" d="M39.1,1.69h0l-.26-.08h0Z"/><path class="cls-14" d="M39.12,1.69l-.27-.08h0l.26.08Z"/><path class="cls-14" d="M31.45.4h0l-.26,0h.26Z"/><polygon class="cls-14" points="30.64 0.34 30.64 0.34 30.64 0.34 30.64 0.34"/><path class="cls-14" d="M34.71.75l-.28,0h0l.15,0Z"/><polygon class="cls-14" points="30.38 0.33 30.38 0.33 30.38 0.33 30.38 0.33 30.38 0.33"/><polygon class="cls-14" points="35.66 0.91 35.65 0.91 35.65 0.91 35.65 0.91 35.66 0.91"/><path class="cls-14" d="M37.12,1.2l.46.09h0l-.46-.09Z"/><path class="cls-14" d="M37.58,1.29h0l-.22,0-.24-.05h0Z"/><path class="cls-14" d="M33,.53h0Z"/><path class="cls-14" d="M33,.53h0Z"/><path class="cls-14" d="M32.9.52h0Z"/><path class="cls-14" d="M31.61.41Z"/><polygon class="cls-14" points="39.26 1.73 39.26 1.73 39.26 1.73 39.26 1.73 39.26 1.73"/><polygon class="cls-14" points="39.26 1.73 39.26 1.73 39.26 1.73 39.26 1.73 39.26 1.73"/><path class="cls-14" d="M36.09,1l.17,0h0L35.9,1h0l.16,0Z"/><path class="cls-14" d="M37.12,1.19h0Z"/><path class="cls-14" d="M33,.53h0l.4,0Z"/><path class="cls-14" d="M38.21,1.45l-.63-.16-.46-.09h0Z"/><path class="cls-14" d="M36.1,1l.25.05-.09,0-.17,0Z"/><path class="cls-14" d="M42.6,34.25H41c-.6,1.9-1.23,3.84-1.87,5.77a36.74,36.74,0,0,1-2.7,10.33h2.38c1.29-2.43,2.65-5.08,4-7.94C42.78,39.83,42.71,37.07,42.6,34.25Z"/><path class="cls-14" d="M32.75,58.38c-.22.63-.43,1.21-.62,1.74.12.43.25.68.38.75l.84-.25h0c.33-.7.71-1.44,1.12-2.23Z"/><path class="cls-14" d="M31.67.41h0Z"/><path class="cls-14" d="M39.1,1.69l-.26-.08-.43-.11h0Z"/><polygon class="cls-14" points="38.41 1.5 38.41 1.5 38.41 1.5 38.41 1.5"/><path class="cls-14" d="M35.65.91,35.34.85l.31.06Z"/><path class="cls-14" d="M34.43.71l-.38,0,.53.07Z"/><path class="cls-14" d="M30.52.34h0Z"/><path class="cls-14" d="M29.91.31h0Z"/><path class="cls-14" d="M31.9.43h0Z"/><polygon class="cls-14" points="31.88 0.43 31.88 0.43 31.88 0.43 31.88 0.43 31.88 0.43"/><path class="cls-14" d="M31.88.43Z"/><polygon class="cls-14" points="31.88 0.43 31.88 0.43 31.88 0.43 31.88 0.43"/><polygon class="cls-14" points="31.88 0.43 31.88 0.43 31.88 0.43 31.88 0.43"/><polygon class="cls-14" points="31.88 0.43 31.88 0.43 31.88 0.43 31.88 0.43"/><path class="cls-14" d="M34.05.66l-.12,0,.12,0Z"/><path class="cls-14" d="M33.38.58l.37,0h0l-.37,0Z"/><polygon class="cls-14" points="33.38 0.58 33.38 0.58 33.38 0.58 33.38 0.58 33.38 0.58"/><path class="cls-14" d="M35.09.81Z"/><polygon class="cls-14" points="35.09 0.81 35.09 0.81 35.09 0.81 35.09 0.81 35.09 0.81"/><path class="cls-14" d="M38.41,1.5h0l-.16,0Z"/><path class="cls-14" d="M38.41,1.5l-.16,0h0Z"/><path class="cls-14" d="M32.62.5h0L31.91.43h0l.59,0Z"/><path class="cls-14" d="M32.64.5h0Z"/><path class="cls-14" d="M31.38.39h-.2l-.41,0,.52,0Z"/><path class="cls-14" d="M39.26,1.73l-.16,0h0l.16,0Z"/><path class="cls-14" d="M39.26,1.73h0l-.14,0h0Z"/><path class="cls-14" d="M39.12,1.69h0l.14,0Z"/><path class="cls-14" d="M34.93.79h0L34.71.75h0l-.13,0Z"/><polygon class="cls-14" points="34.71 0.75 34.71 0.75 34.71 0.75 34.71 0.75"/><path class="cls-14" d="M33,.53h0l-.19,0h0Z"/><path class="cls-14" d="M32.77.51l.19,0h-.19Z"/><path class="cls-14" d="M36.06,1h0L35.9,1l-.25,0h0Z"/><path class="cls-14" d="M30.07.32h0Z"/><path class="cls-14" d="M37.07,1.19h0L36.35,1,36.1,1Z"/><path class="cls-14" d="M32.49.48l-.59,0h-.23Z"/><path class="cls-14" d="M33.75.62l-.37,0h0l-.4,0-.18,0Z"/><polygon class="cls-14" points="33.38 0.58 33.38 0.58 33.38 0.58 33.38 0.58"/><polygon class="cls-14" points="33.38 0.58 33.38 0.58 33.38 0.58 33.38 0.58"/><polygon class="cls-14" points="33.38 0.58 33.37 0.58 33.38 0.58 33.38 0.58"/><path class="cls-14" d="M35.09.81H35l1,.18L35.65.91,35.34.85l-.25,0Z"/><polygon class="cls-14" points="35.09 0.81 35.09 0.81 35.09 0.81 35.09 0.81"/><polygon class="cls-14" points="35.09 0.81 35.09 0.81 35.09 0.81 35.09 0.81"/><path class="cls-14" d="M35.34.85l-.25,0h0Z"/><path class="cls-14" d="M38.94,19.29h2.71C41.08,12.3,40.43,6,40,2l-.72-.22h0l-.16,0-.69-.19-.2-.05h0L37.12,1.2C38.63,4,40.46,9.7,38.94,19.29Z"/><path class="cls-14" d="M38.41,1.5l-.16,0h0l.2.05Z"/><polygon class="cls-14" points="39.26 1.73 39.26 1.73 39.26 1.73 39.26 1.73"/><path class="cls-14" d="M38.25,1.46Z"/><polygon class="cls-14" points="39.26 1.73 39.26 1.73 39.26 1.73 39.26 1.73"/><path class="cls-14" d="M40,2h0l-.72-.22h0Z"/><path class="cls-14" d="M38.25,1.46h0Z"/><polygon class="cls-14" points="39.26 1.73 39.26 1.73 39.26 1.73 39.26 1.73"/><polygon class="cls-14" points="39.26 1.73 39.26 1.73 39.26 1.73 39.26 1.73"/><path class="cls-14" d="M34.93.79,34.58.73,34.05.66h0l-.12,0h0Z"/><polygon class="cls-14" points="33.93 0.65 33.93 0.65 33.93 0.65 33.93 0.65"/><path class="cls-14" d="M31.78,58.38a12.81,12.81,0,0,0,.35,1.74c.19-.53.4-1.11.62-1.74Z"/><path class="cls-14" d="M39.33,35.91A37.19,37.19,0,0,1,39.1,40c.64-1.93,1.27-3.87,1.87-5.77H39.29C39.31,34.8,39.33,35.35,39.33,35.91Z"/><path class="cls-14" d="M30.38.33Z"/><path class="cls-14" d="M31.45.4h0Z"/><polygon class="cls-14" points="37.12 1.2 37.12 1.2 37.12 1.2 37.12 1.2 37.12 1.2 37.12 1.2"/><polygon class="cls-14" points="37.12 1.2 37.12 1.2 37.12 1.2 37.12 1.2 37.12 1.2"/><path class="cls-14" d="M36.06,1Z"/><polygon class="cls-14" points="32.76 0.51 32.76 0.51 32.76 0.51 32.76 0.51"/><path class="cls-14" d="M32.76.51h0Z"/><path class="cls-14" d="M30.52.34h-.26l.21,0Z"/><path class="cls-14" d="M36.06,1h0Z"/><path class="cls-14" d="M31.67.41h0Z"/><path class="cls-14" d="M37.12,1.2Z"/><path class="cls-14" d="M33.93.64l-.18,0h0Z"/><path class="cls-14" d="M30.16.32h0Z"/><polygon class="cls-14" points="36.06 0.98 36.06 0.98 36.06 0.98 36.06 0.98"/><path class="cls-14" d="M32.49.48l.3,0h-.17Z"/><path class="cls-14" d="M32.77.51h0Z"/><polygon class="cls-14" points="32.64 0.5 32.64 0.5 32.64 0.5 32.64 0.5 32.64 0.5"/><path class="cls-14" d="M32.76.51h0Z"/><path class="cls-14" d="M32.74.51h0Z"/><polygon class="cls-14" points="32.64 0.5 32.64 0.5 32.64 0.5 32.64 0.5 32.64 0.5"/><polygon class="cls-14" points="32.64 0.5 32.64 0.5 32.64 0.5 32.64 0.5"/><path class="cls-14" d="M31.38.39h0Z"/><path class="cls-14" d="M35,.8h0Z"/><path class="cls-14" d="M32.79.51l-.3,0L31.67.41h0a65.3,65.3,0,0,1,.76,13.94,36.87,36.87,0,0,1,3,4.94h3.54C40.46,9.7,38.63,4,37.12,1.2h0l-1-.2h0L35,.8h-.1l-1-.15h0l-.18,0Z"/><polygon class="cls-14" points="33.93 0.65 33.93 0.65 33.93 0.65 33.93 0.65"/><polygon class="cls-14" points="33.93 0.65 33.92 0.64 33.93 0.65 33.93 0.65"/><path class="cls-14" d="M30.26.32h-.1l.31,0Z"/><path class="cls-14" d="M41.28,51.64l.48-.68h0l0,0,.39-.56H38.78c-.81,1.52-1.58,3-2.31,4.3s-1.38,2.57-2,3.72h1.92l.39-.54,0-.07.43-.58h0l.46-.62,0-.06.44-.61,0-.06.48-.66.11-.15c.15-.21.31-.42.46-.64s.25-.34.37-.52l.05-.06h0l0-.06c.13-.19.27-.37.4-.57l.15-.19.31-.45.16-.22.17-.24.17-.23Z"/><path class="cls-14" d="M39.32,54.38l0-.05h0l.12-.17.2-.29C39.57,54,39.45,54.21,39.32,54.38Z"/><path class="cls-14" d="M39.75,53.78l0,0,0,0,0,.06Z"/><path class="cls-14" d="M40.81,52.3l.17-.24-.17.24Z"/><path class="cls-14" d="M41.8,50.91l.39-.56h0Z"/><path class="cls-14" d="M38.26,55.84v0Z"/><path class="cls-14" d="M38.23,55.89l0,0v0h0Z"/><path class="cls-14" d="M41.76,51h0l-.33.46Z"/><path class="cls-14" d="M41.28,51.64l.15-.22.33-.46h0Z"/><path class="cls-14" d="M38.78,50.36c-.81,1.52-1.58,3-2.31,4.3C37.2,53.32,38,51.88,38.78,50.36Z"/><path class="cls-14" d="M36.47,54.66c-.71,1.33-1.38,2.57-2,3.72C35.09,57.23,35.76,56,36.47,54.66Z"/><polygon class="cls-14" points="38.78 50.35 38.78 50.35 38.78 50.36 38.78 50.35"/><path class="cls-14" d="M33.85,55.31l-.13.35,0,.06c-.1.27-.19.54-.28.8l-.07.19c-.09.26-.19.51-.27.76l-.06.17-.24.65,0,.09H34.5c.59-1.15,1.26-2.39,2-3.72s1.5-2.78,2.31-4.3H36.4A36.81,36.81,0,0,1,33.85,55.31Z"/><path class="cls-14" d="M33.72,55.66l.13-.35h0Z"/><path class="cls-14" d="M32.75,58.38l0-.09,0,.09Z"/><path class="cls-14" d="M32.78,58.29l.24-.65.06-.17c.08-.25.18-.5.27-.76l.07-.19c.09-.26.18-.53.28-.8l0-.06.13-.35c-.65,1-1.34,2-2.08,3v.05h1Z"/><path class="cls-14" d="M42,31.05c-.32,1-.65,2.11-1,3.18v0H42.6c-.06-1.49-.14-3-.22-4.52-.13.42-.26.85-.4,1.29Z"/><path class="cls-14" d="M41,34.23c.34-1.07.67-2.14,1-3.18C41.65,32.09,41.32,33.16,41,34.23Z"/><path class="cls-14" d="M41,34.25h0v0Z"/><path class="cls-14" d="M38.58,21.33l0,.12c-.06.31-.12.62-.19.94s-.16.72-.25,1.1c-.13.54-.25,1.09-.38,1.64a37,37,0,0,1,1.56,9.12H41v0c.34-1.07.67-2.14,1-3.18v0c.14-.44.27-.87.4-1.29-.2-3.51-.45-7-.73-10.44H38.94Q38.78,20.28,38.58,21.33Z"/><path class="cls-14" d="M42.38,29.73h0c-.13.42-.26.85-.4,1.29C42.12,30.58,42.25,30.15,42.38,29.73Z"/><path class="cls-14" d="M38.94,19.29h0q-.16,1-.36,2Q38.78,20.28,38.94,19.29Z"/><path class="cls-14" d="M37.73,25.13c.13-.55.25-1.1.38-1.64-.13.54-.25,1.09-.38,1.63Z"/><path class="cls-14" d="M38.11,23.49c.09-.38.17-.74.25-1.1s.13-.63.19-.94l0-.12q.2-1,.36-2H35.4a37.9,37.9,0,0,1,2.33,5.83C37.86,24.58,38,24,38.11,23.49Z"/><path class="cls-14" d="M29.8.3h0Z"/><path class="cls-14" d="M31.63.41h0Z"/><path class="cls-14" d="M31.65.41h0Z"/><path class="cls-14" d="M31.63.41Z"/><path class="cls-14" d="M29.64.3h0Z"/><path class="cls-14" d="M29.67.3Z"/><path class="cls-14" d="M30.69.35h0Z"/><polygon class="cls-14" points="30.64 0.34 30.64 0.34 30.65 0.34 30.64 0.34"/><path class="cls-14" d="M31.65.41Z"/><path class="cls-14" d="M30.69.35h0Z"/><path class="cls-14" d="M29.85.31h0Z"/><polygon class="cls-14" points="29.8 0.3 29.8 0.3 29.8 0.3 29.8 0.3"/><polygon class="cls-14" points="29.8 0.3 29.8 0.3 29.8 0.3 29.8 0.3"/><polygon class="cls-14" points="29.8 0.3 29.8 0.3 29.8 0.3 29.8 0.3"/><polygon class="cls-14" points="29.8 0.3 29.8 0.3 29.8 0.3 29.8 0.3"/><polygon class="cls-14" points="29.8 0.3 29.8 0.3 29.8 0.3 29.8 0.3"/><polygon class="cls-14" points="29.8 0.3 29.8 0.3 29.8 0.3 29.8 0.3"/><polygon class="cls-14" points="29.8 0.3 29.8 0.3 29.8 0.3 29.8 0.3 29.8 0.3"/><path class="cls-14" d="M31.15.38h.14l-.52,0h-.08Z"/><polygon class="cls-14" points="30.77 0.35 30.77 0.35 30.77 0.35 30.77 0.35"/><path class="cls-14" d="M29.69.3l.38,0h-.38Z"/><path class="cls-14" d="M31.15.38l-.46,0h-.16Z"/><path class="cls-14" d="M29.64.3Z"/><path class="cls-14" d="M31.49.4h0Z"/><path class="cls-14" d="M31.65.41h0Z"/><path class="cls-14" d="M30.53.34h0Z"/><path class="cls-14" d="M31.45.4h-.3l.34,0Z"/><path class="cls-14" d="M30.16.32h-.09l-.38,0Z"/><path class="cls-14" d="M31.65.41h-.16l-.34,0-.62,0h-.06l-.31,0-.47,0h-.05c0,2.77.08,6.52.15,10.8a37.22,37.22,0,0,1,2.62,3.25A65.3,65.3,0,0,0,31.65.41Z"/><path class="cls-15" d="M52.56,11.37A18.1,18.1,0,0,1,53.43,13,18.1,18.1,0,0,0,52.56,11.37Z"/><path class="cls-15" d="M49.37,7.35l-.7-.66h0Z"/><path class="cls-15" d="M55.19,18.55c0,.2.07.4.1.6C55.26,19,55.22,18.75,55.19,18.55Z"/><path class="cls-15" d="M55.42,20.22c0-.26-.05-.51-.09-.77,0,.25.07.51.09.77Z"/><path class="cls-15" d="M55,17.5c.06.27.12.54.17.81C55.1,18,55,17.77,55,17.5Z"/><path class="cls-15" d="M51.79,35.94c.18-.31.37-.61.55-.9s.21-.36.31-.55c-.1.19-.21.37-.31.55S52,35.63,51.79,35.94Z"/><path class="cls-15" d="M43.57,48.38l-.48.7Z"/><path class="cls-15" d="M42.55,49.84l.28-.39-.28.39Z"/><path class="cls-15" d="M44.35,47.26,44,47.8Z"/><path class="cls-15" d="M52.79,34.23l.16-.3-.16.3Z"/><path class="cls-15" d="M52.71,34.37a.75.75,0,0,0,.07-.12h0A.75.75,0,0,1,52.71,34.37Z"/><path class="cls-15" d="M53.8,32.05l.12-.32a1.34,1.34,0,0,1-.07.18Z"/><path class="cls-15" d="M53.16,33.49,53,33.8c.08-.15.16-.31.23-.46l-.06.12Z"/><path class="cls-15" d="M54.49,30v0c.18-.59.33-1.19.47-1.81v0C54.82,28.88,54.67,29.46,54.49,30Z"/><path class="cls-15" d="M41.35,2.42l-.55-.2.55.2Z"/><path class="cls-15" d="M42.44,2.85l-.23-.09h0Z"/><path class="cls-15" d="M42.21,2.76l-.4-.17.4.17Z"/><path class="cls-15" d="M42.67,3h0Z"/><polygon class="cls-15" points="48.67 6.69 48.67 6.69 48.67 6.69 48.67 6.69"/><path class="cls-15" d="M47.7,5.9c-.11-.09-.22-.18-.34-.26.12.08.23.17.34.26Z"/><path class="cls-15" d="M47.91,6.06l0,0h0Z"/><path class="cls-15" d="M44.79,4l-.44-.24.44.24Z"/><polygon class="cls-15" points="45.93 4.66 45.92 4.65 45.93 4.66 45.93 4.66"/><path class="cls-15" d="M40.07,2h0L40,2h0Z"/><path class="cls-15" d="M40.55,2.14l.6.21.2.07-.55-.2-.23-.08-.15-.05Z"/><path class="cls-15" d="M40.57,2.14l-.15-.05h0Z"/><path class="cls-15" d="M40,2h0L40,2h0Z"/><path class="cls-15" d="M43.72,3.43l-.13-.06-.21-.1L42.87,3Z"/><path class="cls-15" d="M43.72,3.43l-.13-.06.13.06Z"/><path class="cls-15" d="M43.38,3.27,42.87,3h0Z"/><path class="cls-15" d="M45.93,4.66h0l-.19-.11-.51-.3L45,4.11h0C45.31,4.28,45.63,4.47,45.93,4.66Z"/><path class="cls-15" d="M45,4.11h0Z"/><path class="cls-15" d="M44.79,4l-.44-.24-.19-.1L44,3.57Z"/><path class="cls-15" d="M44.16,3.65,44,3.57h0Z"/><path class="cls-15" d="M46.82,5.25l.2.14-.28-.2-.21-.14L46,4.72C46.3,4.89,46.56,5.07,46.82,5.25Z"/><path class="cls-15" d="M47.36,5.64l-.16-.12L47,5.4l.66.5C47.59,5.81,47.48,5.72,47.36,5.64Z"/><path class="cls-15" d="M46.53,5.05,46,4.72h0Z"/><path class="cls-15" d="M48.67,6.69h0l-.15-.12a4.87,4.87,0,0,0-.42-.35l-.19-.16,0,0C48.15,6.25,48.41,6.47,48.67,6.69Z"/><path class="cls-15" d="M42.21,2.76l.46.19h0l-.21-.09-.23-.09Z"/><path class="cls-15" d="M41.57,2.5l.32.13.32.13-.4-.17-.21-.08-.06,0Z"/><path class="cls-15" d="M41.6,2.51l-.08,0h0Z"/><polygon class="cls-15" points="42.21 2.76 42.21 2.76 42.21 2.76 42.21 2.76 42.21 2.76"/><polygon class="cls-15" points="42.21 2.76 42.21 2.76 42.21 2.76 42.21 2.76"/><path class="cls-15" d="M42.21,2.76h0l-.32-.13.32.13Z"/><path class="cls-15" d="M55.55,22.42v0Z"/><path class="cls-15" d="M55,28.24v0Z"/><path class="cls-15" d="M55.51,21.32h0c0-.31,0-.62-.07-.93h0C55.47,20.7,55.5,21,55.51,21.32Z"/><polygon class="cls-15" points="55.44 20.39 55.44 20.39 55.44 20.39 55.44 20.39"/><polygon class="cls-15" points="55.51 21.32 55.51 21.32 55.51 21.32 55.51 21.32"/><path class="cls-15" d="M55.14,27.32c0,.28-.1.55-.16.82.06-.27.11-.54.16-.82v0Z"/><path class="cls-15" d="M55.14,27.32v0Z"/><path class="cls-15" d="M55.55,22.29v0c0-.32,0-.64,0-1h0C55.53,21.65,55.54,22,55.55,22.29Z"/><polygon class="cls-15" points="55.51 21.32 55.51 21.32 55.51 21.32 55.51 21.32"/><path class="cls-15" d="M55.15,27.26h0c0-.14.05-.28.07-.42C55.2,27,55.18,27.12,55.15,27.26Z"/><path class="cls-15" d="M55.15,27.26c0-.23.08-.46.11-.69,0,.09,0,.18,0,.27S55.18,27.12,55.15,27.26Z"/><polygon class="cls-15" points="55.15 27.26 55.15 27.26 55.15 27.26 55.15 27.26"/><path class="cls-15" d="M55.43,25.27v0c0-.58.09-1.17.11-1.76C55.52,24.1,55.48,24.69,55.43,25.27Z"/><path class="cls-15" d="M55.43,25.27c.06-.58.09-1.17.11-1.76h0C55.52,24.1,55.48,24.69,55.43,25.27Z"/><path class="cls-15" d="M55.42,25.35v0Z"/><path class="cls-15" d="M52.78,34.25h0v0h0Z"/><path class="cls-15" d="M52.78,34.25v0Z"/><path class="cls-15" d="M55.42,20.22c0-.26-.05-.52-.09-.77v-.07C55.36,19.66,55.4,19.94,55.42,20.22Z"/><path class="cls-15" d="M55.33,19.45c0-.05,0-.11,0-.16h0s0,.06,0,.09Z"/><polygon class="cls-15" points="54.48 30.1 54.48 30.1 54.48 30.1 54.48 30.1 54.48 30.1"/><polygon class="cls-15" points="54.49 30.06 54.49 30.06 54.49 30.06 54.49 30.06 54.49 30.06"/><polygon class="cls-15" points="54.96 28.25 54.96 28.25 54.96 28.25 54.96 28.25"/><polygon class="cls-15" points="55.42 20.23 55.42 20.23 55.42 20.22 55.42 20.22 55.42 20.23"/><path class="cls-15" d="M54.23,30.88l0-.1h0c.08-.22.15-.44.22-.67h0C54.4,30.36,54.31,30.62,54.23,30.88Z"/><path class="cls-15" d="M54.23,30.88l0-.1,0,.1Z"/><path class="cls-15" d="M46.36,34.25c-1.15,2.88-2.36,5.6-3.57,8.16,0,2.71-.07,5.22-.24,7.43l.28-.39.26-.37.48-.7L44,47.8l.37-.54.8-1.16,0,0,.65-1,0-.07.64-.95.07-.09.63-.94,0-.08c.22-.32.43-.65.64-1l0,0L49.21,40l.06-.1c.2-.3.39-.6.58-.91l.08-.12.56-.88.09-.14c.19-.29.37-.58.55-.87l.07-.12.54-.87,0-.08c.18-.31.37-.61.55-.9s.21-.36.31-.55l.06-.12a.75.75,0,0,0,.07-.12Z"/><path class="cls-15" d="M44,47.8l-.41.58Z"/><path class="cls-15" d="M45.15,46.1l-.8,1.16Z"/><path class="cls-15" d="M43.09,49.08l-.26.37Z"/><path class="cls-15" d="M50.76,19.29h4.55a.68.68,0,0,1,0-.14c0-.2-.07-.4-.1-.6a2,2,0,0,1,0-.24c0-.27-.11-.54-.17-.81v-.06l-.21-.86v0c-.17-.6-.35-1.19-.57-1.77l0,0c-.09-.26-.2-.52-.3-.78l-.06-.13c-.11-.25-.22-.51-.34-.76l0-.07a18.1,18.1,0,0,0-.87-1.62l-.09-.15-.4-.63L52,10.42c-.15-.23-.31-.45-.48-.68l0-.07-.59-.75-.07-.08-.54-.62L50.05,8l-.51-.53-.17-.16-.7-.66A25,25,0,0,1,50.76,19.29Z"/><path class="cls-15" d="M55.31,19.29a.68.68,0,0,1,0-.14.68.68,0,0,0,0,.14Z"/><path class="cls-15" d="M55.15,18.31a2,2,0,0,0,0,.24A2,2,0,0,1,55.15,18.31Z"/><path class="cls-15" d="M52.79,34.23l.16-.3L53,33.8l.15-.31C53,33.74,52.92,34,52.79,34.23Z"/><path class="cls-15" d="M54.49,30.06h0v0Z"/><path class="cls-15" d="M53.18,33.46l.06-.12,0-.1c.08-.17.15-.34.23-.52l0-.07c.08-.18.16-.37.23-.56l0,0,.05-.14C53.64,32.44,53.42,33,53.18,33.46Z"/><path class="cls-15" d="M53.93,31.71l.1-.27v0l.1-.3Z"/><path class="cls-15" d="M54,31.42l.1-.3h0Z"/><path class="cls-15" d="M53.93,31.71l.1-.27-.1.27Z"/><polygon class="cls-15" points="55.42 20.22 55.42 20.22 55.42 20.22 55.42 20.22"/><path class="cls-15" d="M55.55,22.42h0v0Z"/><path class="cls-15" d="M55.55,23.17v0Z"/><path class="cls-15" d="M55,28.28v0h0Z"/><path class="cls-15" d="M47.87,6h0L47.7,5.9h0Z"/><path class="cls-15" d="M47.87,6,47.7,5.9h0l.17.13Z"/><path class="cls-15" d="M42.8,3l-.13,0h0Z"/><path class="cls-15" d="M42.87,3h0L42.67,3h0l.13,0Z"/><path class="cls-15" d="M44,3.57l-.28-.14h0l.28.14Z"/><path class="cls-15" d="M44.85,4l-.06,0h0Z"/><path class="cls-15" d="M45,4.1h0L44.79,4h0l.06,0Z"/><path class="cls-15" d="M46,4.68l0,0h0Z"/><path class="cls-15" d="M46,4.72l-.1-.06h0l0,0Z"/><polygon class="cls-15" points="48.67 6.69 48.67 6.69 48.67 6.69 48.67 6.69"/><path class="cls-15" d="M41.44,2.45l-.09,0h0Z"/><path class="cls-15" d="M41.52,2.48l-.17-.06h0l.09,0Z"/><path class="cls-15" d="M40.39,2.08,40.07,2h0Z"/><path class="cls-15" d="M40.42,2.09h0L40.07,2h0l.32.1Z"/><path class="cls-15" d="M40.55,2.14l-.13-.05h0L40.07,2h0Z"/><path class="cls-15" d="M40.42,2.09Z"/><path class="cls-15" d="M42.6,34.25c.11,2.82.18,5.58.19,8.16,1.21-2.56,2.42-5.28,3.57-8.16H42.6Z"/><path class="cls-15" d="M46,4.72l-.06,0,0,0c-.3-.19-.62-.38-.94-.56L44.85,4l-.06,0L44,3.57l-.28-.14L42.87,3,42.8,3l-.13,0-.46-.19a20,20,0,0,1,3.2,15.38c-.07.36-.15.75-.23,1.15h5.58a25,25,0,0,0-2.09-12.6h0c-.26-.22-.52-.44-.8-.66L47.7,5.9,47,5.4h0l-.2-.14C46.56,5.07,46.3,4.89,46,4.72Z"/><path class="cls-15" d="M44,3.57h0l-.28-.14h0Z"/><path class="cls-15" d="M42.87,3h0L42.8,3Z"/><path class="cls-15" d="M45,4.1h0L44.85,4Z"/><path class="cls-15" d="M46,4.72h0l-.06,0Z"/><path class="cls-15" d="M47,5.4h0Z"/><polygon class="cls-15" points="48.67 6.69 48.67 6.69 48.67 6.69 48.67 6.69"/><polygon class="cls-15" points="46.03 4.72 46.03 4.72 46.03 4.72 46.03 4.72"/><path class="cls-15" d="M41.57,2.5h0l-.1,0-.09,0-.2-.07.74.28Z"/><path class="cls-15" d="M41.54,2.49h0l-.08,0Z"/><path class="cls-15" d="M40,2c.45,4,1.1,10.35,1.67,17.34h3.53c.08-.4.16-.79.23-1.15a20,20,0,0,0-3.2-15.38l-.32-.13-.74-.28-.6-.21L40,2Z"/><path class="cls-15" d="M40,2,40,2h0Z"/><path class="cls-15" d="M55.44,20.35a.49.49,0,0,1,0-.12h0C55.43,20.27,55.43,20.31,55.44,20.35Z"/><path class="cls-15" d="M55.44,20.39h0c0-.05,0-.11,0-.16a.49.49,0,0,0,0,.12Z"/><path class="cls-15" d="M54.48,30.09v0h0Z"/><path class="cls-15" d="M55.55,22.42h0v0Z"/><polygon class="cls-15" points="55.51 21.32 55.51 21.32 55.51 21.32 55.51 21.32 55.51 21.32"/><path class="cls-15" d="M55.55,23.39v-.12h0v.12Z"/><path class="cls-15" d="M55.55,22.29c0-.32,0-.64,0-1h0c0-.31,0-.62-.07-.93v0s0-.08,0-.13h0c0-.28-.06-.56-.1-.84,0,0,0-.06,0-.09H50.76l-.06.57a.31.31,0,0,0,0,.1c0,.17,0,.34-.07.51l0,.18c0,.16-.05.31-.08.47s0,.16,0,.24,0,.3-.08.44l-.06.3-.09.41c0,.12-.05.24-.08.36l-.09.37c0,.15-.07.3-.11.46s-.05.19-.08.29c-.07.25-.14.51-.22.77-.22.76-.46,1.5-.69,2.24l-.13.39c-.24.73-.48,1.46-.73,2.18l-.06.16c-.54,1.54-1.11,3.05-1.69,4.52h6.42v0c.13-.24.25-.49.37-.74l0,0c.24-.5.46-1,.67-1.55a1.34,1.34,0,0,0,.07-.18v0l.21-.59.09-.24c.08-.26.17-.52.25-.78h0V30c.18-.58.33-1.16.46-1.76v0h0v0a.15.15,0,0,1,0-.07c.06-.27.11-.54.16-.82v-.06c0-.14.05-.28.07-.42.08-.47.14-.95.19-1.44v-.13c0-.58.09-1.17.11-1.76a.49.49,0,0,1,0-.12v-1.1Z"/><path class="cls-15" d="M55.22,26.84c0-.09,0-.18,0-.27q.09-.59.15-1.17C55.36,25.89,55.3,26.37,55.22,26.84Z"/><path class="cls-15" d="M55.54,23.51h0a.49.49,0,0,1,0-.12A.49.49,0,0,0,55.54,23.51Z"/><path class="cls-15" d="M55.55,23.27v0Z"/><path class="cls-15" d="M54.14,31.12h0l.09-.24h0Z"/><path class="cls-15" d="M53.92,31.73v0h0Z"/><path class="cls-15" d="M55.55,23.39h0v-.12h0Z"/><polygon class="cls-15" points="55.51 21.32 55.51 21.32 55.51 21.32 55.51 21.32 55.51 21.32"/><path class="cls-15" d="M55.41,25.4h0v0Z"/><path class="cls-15" d="M55.15,27.29v0h0Z"/><path class="cls-15" d="M55,28.21h0a.15.15,0,0,1,0-.07.15.15,0,0,0,0,.07Z"/><path class="cls-15" d="M55,28.23v0h0Z"/><path class="cls-15" d="M55.55,23.27v0Z"/><path class="cls-15" d="M55.26,26.57q.09-.59.15-1.17h0Q55.35,26,55.26,26.57Z"/><path class="cls-15" d="M55.54,23.51a.49.49,0,0,1,0-.12h0A.49.49,0,0,0,55.54,23.51Z"/><path class="cls-15" d="M54.49,30c.18-.58.33-1.16.46-1.76C54.82,28.88,54.67,29.46,54.49,30Z"/><polygon class="cls-15" points="54.48 30.1 54.48 30.09 54.48 30.1 54.48 30.1"/><polygon class="cls-15" points="54.48 30.1 54.48 30.1 54.48 30.1 54.48 30.1"/><path class="cls-15" d="M55.41,25.4v0Z"/><polygon class="cls-15" points="54.96 28.25 54.96 28.24 54.96 28.25 54.96 28.25"/><path class="cls-15" d="M55,28.25h0Z"/><polygon class="cls-15" points="54.96 28.25 54.96 28.25 54.96 28.25 54.96 28.25"/><path class="cls-15" d="M46.36,34.25c.58-1.47,1.15-3,1.69-4.52-.54,1.54-1.11,3.05-1.69,4.52Z"/><path class="cls-15" d="M50.76,19.29h0l-.06.57Z"/><path class="cls-15" d="M44.9,20.57C44.53,22.16,44,24,43.48,26v0c-.27.94-.55,1.93-.86,2.94v0c-.07.25-.15.5-.22.76.08,1.51.16,3,.22,4.52h3.76c.58-1.47,1.15-3,1.69-4.52l.06-.16c.25-.72.49-1.45.73-2.18L49,27c.23-.74.47-1.48.69-2.24.08-.26.15-.52.22-.77,0-.1,0-.2.08-.29s.08-.31.11-.46l.09-.37c0-.12.06-.24.08-.36l.09-.41.06-.3c0-.14,0-.29.08-.44s0-.16,0-.24.06-.31.08-.47l0-.18c0-.17,0-.34.07-.51a.31.31,0,0,1,0-.1l.06-.57H45.18Z"/><path class="cls-15" d="M49.66,24.76c-.22.76-.46,1.5-.69,2.24C49.2,26.26,49.44,25.52,49.66,24.76Z"/><path class="cls-15" d="M43.48,26c.56-2,1.05-3.82,1.42-5.41C44.53,22.16,44,24,43.48,26Z"/><path class="cls-15" d="M42.61,28.94c.31-1,.59-2,.86-2.94C43.2,26.94,42.92,27.93,42.61,28.94Z"/><polygon class="cls-15" points="45.18 19.29 45.18 19.29 45.18 19.29 45.18 19.29"/><path class="cls-15" d="M42.38,29.73c.07-.26.15-.51.22-.76v0c.31-1,.59-2,.86-2.94v0c.56-2,1.05-3.82,1.42-5.41l.28-1.28H41.65C41.93,22.68,42.18,26.22,42.38,29.73Z"/><path class="cls-15" d="M44.9,20.57l.28-1.28Z"/><path class="cls-15" d="M42.6,29c-.07.25-.15.5-.22.76h0C42.45,29.47,42.53,29.22,42.6,29Z"/><path class="cls-16" d="M10.44,4.23s15.64-9,33.32-.77S54,31.65,54,31.65s-1.29,5.13-11.54,18.2C42.48,49.85,50.43,5.76,10.44,4.23Z"/></g></g></svg>