<svg xmlns="http://www.w3.org/2000/svg" viewBox="0 0 494.3 107.4"><defs><style>.cls-1{fill:#1a123c;}.cls-2{fill:#1b0e2c;}.cls-3{fill:#27244f;}.cls-4{fill:#271a42;}.cls-5{fill:#736d5e;}</style></defs><title>cliff</title><g id="Layer_2" data-name="Layer 2"><g id="Layer_4" data-name="Layer 4"><polygon class="cls-1" points="107.06 10.21 96.51 26.21 99.06 29.28 89.36 32 81.7 35.91 68.94 49.7 65.36 59.91 57.7 62.47 44.94 66.04 44.94 73.7 38.37 79.32 28.57 83.4 23.49 92.08 12.26 94.64 6.64 98.21 0 107.4 177.19 107.04 179.75 99.23 175.15 87.49 179.75 77.28 189.96 59.91 200.17 54.3 207.83 47.66 216.51 49.19 227.23 46.64 243.06 43.57 260.43 39.49 267.92 44.6 282.38 43.57 293.62 40.51 303.32 47.66 319.66 50.72 326.3 57.87 326.3 70.13 321.19 82.38 321.7 89.53 316.08 98.72 306.89 107.04 494.3 107.04 489.7 82.89 477.96 75.75 475.4 68.6 465.7 65.02 465.7 56.34 461.11 53.79 456 38.98 444.25 34.89 434.04 27.23 435.57 19.06 428.77 11.23 107.06 10.21"/><path class="cls-2" d="M125.79,16.68l1.66.77,16.72,7.74,17.36,2.72s29.62-.34,30.64,0,20.09-3.74,20.09-3.74l16.34-1.86,24.85-5.63L268.77,15l9.87,5.11L298,27.94s21.11-2.07,22.13-2.41,8.51.68,8.51.68l18.38,1.73L359.32,32s10.55-5.11,12.25-5.11,15,.34,15,.34l17.71-5.44,12.25-4.43,12.26-6.13-5.11-2.38H410L388.6,7.15,366.13,9.53l-15-2.38-16.68-2L323.57,3.4,309.62,4.77,296.34,3.4,275.57,0H235.06L223.49,2.72,210.89,2,196.26,0,172.43,2.72H153L135,5.11,115.23,6.47l-8.17,3.74,5.79,4.09Z"/><polygon class="cls-3" points="494.3 107.04 489.7 82.89 477.96 75.75 475.4 68.6 465.7 65.02 465.7 56.34 461.11 53.79 456 38.98 444.25 34.89 434.04 27.23 435.57 19.06 428.77 11.23 404.25 21.79 382.09 27.12 393.96 46.22 411.83 54.04 417.7 44.51 426.13 62.21 440.17 68.34 450.68 89.73 458.04 78.81 469.53 94.89 482.3 99.49 494.3 107.04"/><polygon class="cls-4" points="398.81 10.21 388.6 7.15 366.13 9.53 323.57 3.4 311.75 8.85 275.75 3.23 236.43 4 205.79 7.57 186.64 7.57 197.11 10.21 172.09 17.28 199.15 17.28 200.94 21.62 225.19 18.04 241.79 13.06 266.81 10.21 283.15 8.85 275.23 13.06 299.23 20.09 316.08 20.6 309.45 17.53 326.3 18.04 357.7 22.38 410.81 16 418.21 13.06 406.47 10.21 398.81 10.21"/><path class="cls-5" d="M428.77,11.23l7.19,7,.38,7.19,7.92,9.44,12.42,3.92,4.77,14.55,4.85,3,.51,8.68,9.1,3.24,2.56,7.23,8.46,5.72h-8.46l-6.38-6.49s-3.83.51-4.6.26-14.81-17.36-14.81-17.36l-2.55,3.32-7.66-12.51-7.66-11.24h-5.36l-4.34-13.28L420,27.49,417.7,16"/><polygon class="cls-3" points="207.83 47.66 192.37 53.28 186.46 53.28 179.75 54.81 164.64 61.96 147.37 71.66 150.1 76.25 128.28 85.96 123.28 90.55 107.36 95.15 96 107.4 180.55 107.04 182.83 99.23 178.74 87.49 182.83 77.28 191.92 59.91 201.01 54.3 207.83 47.66"/><polygon class="cls-5" points="207.83 47.66 201.01 54.3 191.92 59.91 178.74 87.49 182.83 99.23 180.55 107.04 174.13 107.4 168.51 100.77 168.51 93.62 163.91 85.96 167.49 72.17 174.64 66.04 179.65 59.14 186.46 53.28 192.37 53.28 207.83 47.66"/></g></g></svg>