<svg xmlns="http://www.w3.org/2000/svg" viewBox="0 0 26 22.43"><defs><style>.cls-1{fill:#c49a6c;}.cls-2{fill:#754c29;}.cls-3{fill:#3c2415;}.cls-4{fill:#a97c50;}.cls-5{fill:#1b75bc;}.cls-6{fill:#231f20;}.cls-7{fill:#2b3990;}.cls-8{fill:#9a1c23;}.cls-9{fill:#be1e2d;}.cls-10{fill:#fbb040;}.cls-11{fill:#fff;}.cls-12{fill:#603913;}.cls-13{fill:#262262;}</style></defs><title>h1_1</title><g id="Layer_2" data-name="Layer 2"><g id="Layer_3" data-name="Layer 3"><path class="cls-1" d="M24.7,16.91s-1.79-.14-2,2.19S24,21.3,24,21.3s1.72-.29,2-3C26.15,16.69,24.7,16.91,24.7,16.91Z"/><path class="cls-2" d="M13.66,13.24,25.15,16.9a2.68,2.68,0,0,0-2,1.42A2.4,2.4,0,0,0,23,20.78a1,1,0,0,0,.64.47l-12-4.74a2.07,2.07,0,0,1-.39-2.07A2.27,2.27,0,0,1,13.66,13.24Z"/><polygon class="cls-3" points="13.28 14.44 17.3 15.72 23.17 17.17 19.04 15.72 13.28 14.44"/><polygon class="cls-3" points="22.6 17.83 18.11 16.65 19.98 17.55 22.6 17.83"/><polygon class="cls-3" points="21.77 18.92 16.02 16.65 14.11 15.17 15.26 16.39 11.68 15.17 14.11 16.51 19.04 18.32 22.28 19.68 21.77 18.92"/><path class="cls-4" d="M24.17,17.83s-1.76,1-.61,2.4,1.72-1.06,1.72-1.06-.46,1.65-1.43.87C23.26,19.56,23.25,19.25,24.17,17.83Z"/><path class="cls-4" d="M24.09,18.76s.29-1.36.93-1.17.55,1.54-.3,1.88c0,0,.81-.74.43-1.45S24.09,18.76,24.09,18.76Z"/><path class="cls-5" d="M20.35,14.44s1,1.06.39,1.36a7.7,7.7,0,0,1-2.63,1.1c-1.09.14-.59,2.35-.59,2.35l-.11.95h-.88l-.16-.73a10.53,10.53,0,0,1,0-2.82,8.81,8.81,0,0,1,2.08-1.24s-2.5.57-2.77,1a26.46,26.46,0,0,0-1,2.87l-.58.43-.31-.58.87-3.37.4-.56s2.81-.9,2.91-.9.79-.2.79-.2Z"/><path class="cls-6" d="M16.28,19.68h1.19l-.14,1.86s-1,.9-1.21.86-1.05.19-.88-.3.49-.43.49-.43l.8-.52Z"/><path class="cls-6" d="M13.77,18.65l1.08.51-.92,1.62a6.05,6.05,0,0,1-1.46.26c-.13-.09-1-.28-.66-.65s.62-.17.62-.17l1-.13Z"/><path class="cls-7" d="M20.35,14.44a1,1,0,0,1-.37,1c-.51.29-1.21.92-1.6,1a2,2,0,0,0-1,.52A5,5,0,0,0,17,18.32l.16,1.36h.33l0-.16-.08-1.2.06-.71a.72.72,0,0,1,.64-.71A9.76,9.76,0,0,0,20,16.24l.79-.44s.34-.14.2-.63a2.14,2.14,0,0,0-.32-.73Z"/><path class="cls-7" d="M18.22,15.46l-2,.62s-.32-.12-.52.3-.87,2.37-.87,2.37l-.06.17h-.26l.86-2.27s.26-.81.77-.85a13.23,13.23,0,0,0,2.1-.63Z"/><path class="cls-8" d="M17.87,10.09a3.79,3.79,0,0,0-.55,1.72l0,1.21s-2.15.48-2.39.46-.55.55-.35.75,4-.7,4-.7.6-2.83.24-3.33,0-.84-.16-.77S17.87,10.09,17.87,10.09Z"/><path class="cls-9" d="M18.11,9.72s-.92,1.32-.64,1.87a4.91,4.91,0,0,1,.75,1.65,3.76,3.76,0,0,1,.16,1.2l.66.27.68.46L21,14.94a9.4,9.4,0,0,1-.45-2.24,17.65,17.65,0,0,0,.42-2.52c-.07-.51-.21-1-.59-.92a9.58,9.58,0,0,1-1.37,0Z"/><path class="cls-9" d="M20.23,10.38a8.61,8.61,0,0,0,.71,1.83c.41.68.28,1,.28,1s-1.65,1.47-1.87,1.57-.21.74.07.83,2.95-2.41,2.95-2.41-1.1-3.5-1.66-3.76-.31.23-.39.35A2.46,2.46,0,0,0,20.23,10.38Z"/><path class="cls-10" d="M14.69,13.66s-.9-.61-1.15,0-.41.66,0,.75,1.07-.38,1.07-.38Z"/><path class="cls-10" d="M19.46,15s-1-.42-1.13.25l0,.16c-.11.52-.21.57.14.58s1-.58,1-.58Z"/><polygon class="cls-2" points="13.76 13.77 1.42 12.47 0 12.47 1.34 12.8 13.76 13.91 13.76 13.77"/><polygon class="cls-11" points="0.65 11.84 0.27 11.84 0.27 12.99 0.46 13.24 0.94 13.24 1.08 12.47 0.94 11.65 0.65 11.84"/><path class="cls-12" d="M18.93,6.54s-.87,1-.71,1.18a3.19,3.19,0,0,1,.23,1.53c-.08.33-.55,1.44-.55,1.44l1.3-1.44L19.68,9c0,.06.67.33.67.23,0-.52-.28,1.94-.28,1.94l.48-1.48L20.94,8l-.8-1Z"/><path class="cls-10" d="M19.2,6.64a2.2,2.2,0,0,0-.29.26,1.16,1.16,0,0,0-.3.73A3.12,3.12,0,0,0,19,8.87l.44.38h.75a2.87,2.87,0,0,0,.48-1.11c0-.42.25-1.09,0-1.34a4.4,4.4,0,0,0-1.45-.45Z"/><path class="cls-12" d="M21,9.25c0-.06.25-1.9,0-2.1s-.16-.54-.77-.8.27-.13-.74-.13a.92.92,0,0,0-1,.9,4,4,0,0,1,1-.35.84.84,0,0,1,.52.38c.09.19.67,1.15.67,1.15Z"/><polygon class="cls-13" points="0.94 0 0.65 0.32 0.8 0.45 1.34 0.22 0.94 0"/></g></g></svg>