<svg xmlns="http://www.w3.org/2000/svg" viewBox="0 0 25.35 22.43"><defs><style>.cls-1{fill:#c49a6c;}.cls-2{fill:#754c29;}.cls-3{fill:#3c2415;}.cls-4{fill:#a97c50;}.cls-5{fill:#1b75bc;}.cls-6{fill:#231f20;}.cls-7{fill:#2b3990;}.cls-8{fill:#9a1c23;}.cls-9{fill:#be1e2d;}.cls-10{fill:#fbb040;}.cls-11{fill:#fff;}.cls-12{fill:#603913;}.cls-13{fill:#262262;}</style></defs><title>h2</title><g id="Layer_2" data-name="Layer 2"><g id="Layer_3" data-name="Layer 3"><path class="cls-1" d="M24.05,16.91s-1.79-.14-2,2.19,1.28,2.2,1.28,2.2,1.72-.29,2-3C25.5,16.69,24.05,16.91,24.05,16.91Z"/><path class="cls-2" d="M13,13.24,24.49,16.9a2.7,2.7,0,0,0-2,1.42,2.42,2.42,0,0,0-.18,2.46,1,1,0,0,0,.64.47L11,16.51a2.07,2.07,0,0,1-.38-2.07A2.27,2.27,0,0,1,13,13.24Z"/><polygon class="cls-3" points="12.62 14.44 16.64 15.72 22.52 17.17 18.38 15.72 12.62 14.44"/><polygon class="cls-3" points="21.94 17.83 17.46 16.65 19.32 17.55 21.94 17.83"/><polygon class="cls-3" points="21.11 18.92 15.37 16.65 13.45 15.17 14.6 16.39 11.03 15.17 13.45 16.51 18.38 18.32 21.62 19.68 21.11 18.92"/><path class="cls-4" d="M23.52,17.83s-1.76,1-.61,2.4,1.72-1.06,1.72-1.06-.46,1.65-1.43.87C22.6,19.56,22.59,19.25,23.52,17.83Z"/><path class="cls-4" d="M23.43,18.76s.3-1.36.94-1.17.55,1.54-.3,1.88c0,0,.81-.74.42-1.45S23.43,18.76,23.43,18.76Z"/><path class="cls-5" d="M19.7,14.44s1,1.06.39,1.36a7.7,7.7,0,0,1-2.63,1.1c-1.09.14-.59,2.35-.59,2.35l-.12.95h-.87l-.16-.73a10.13,10.13,0,0,1,0-2.82,8.59,8.59,0,0,1,2.07-1.24s-2.49.57-2.76,1a26.86,26.86,0,0,0-1,2.87l-.57.43-.32-.58L14,15.73l.4-.56s2.81-.9,2.9-.9.8-.2.8-.2Z"/><path class="cls-6" d="M15.62,19.68h1.2l-.15,1.86s-1.05.9-1.21.86-1.05.19-.87-.3.49-.43.49-.43l.8-.52Z"/><path class="cls-6" d="M13.12,18.65l1.08.51-.92,1.62a6.14,6.14,0,0,1-1.47.26c-.13-.09-1-.28-.66-.65s.63-.17.63-.17l.94-.13Z"/><path class="cls-7" d="M19.7,14.44a.94.94,0,0,1-.38,1c-.51.29-1.21.92-1.59,1a2.05,2.05,0,0,0-1,.52,5,5,0,0,0-.37,1.42l.16,1.36h.34v-.16l-.07-1.2.06-.71a.72.72,0,0,1,.64-.71,9.61,9.61,0,0,0,1.83-.66l.8-.44s.33-.14.2-.63a2.26,2.26,0,0,0-.33-.73Z"/><path class="cls-7" d="M17.57,15.46l-2,.62s-.31-.12-.51.3-.88,2.37-.88,2.37l-.05.17h-.26l.86-2.27s.25-.81.76-.85a13.42,13.42,0,0,0,2.11-.63Z"/><path class="cls-8" d="M17.22,10.09a3.79,3.79,0,0,0-.55,1.72l0,1.21s-2.15.48-2.4.46-.54.55-.34.75,3.94-.7,3.94-.7.61-2.83.24-3.33,0-.84-.16-.77S17.22,10.09,17.22,10.09Z"/><path class="cls-9" d="M17.46,9.72s-.92,1.32-.64,1.87a5.12,5.12,0,0,1,.75,1.65,4.25,4.25,0,0,1,.16,1.2l.65.27.68.46,1.26-.23a8.92,8.92,0,0,1-.45-2.24,19.18,19.18,0,0,0,.42-2.52c-.07-.51-.21-1-.59-.92a9.7,9.7,0,0,1-1.38,0Z"/><path class="cls-9" d="M19.42,10.4a9.13,9.13,0,0,0-.07,2c.11.79-.13,1-.13,1s-2.09.7-2.33.7-.49.61-.27.79,3.66-1,3.66-1,.37-3.65,0-4.11-.38.09-.5.17A2.22,2.22,0,0,0,19.42,10.4Z"/><path class="cls-10" d="M14,13.66s-.91-.61-1.16,0-.41.66,0,.75,1.07-.38,1.07-.38Z"/><path class="cls-10" d="M16.89,14.35s-.77-.79-1.14-.22l-.09.13c-.31.44-.41.45-.1.59s1.12-.15,1.12-.15Z"/><polygon class="cls-2" points="15.7 15.95 6.6 7.53 5.46 6.67 6.34 7.74 15.61 16.07 15.7 15.95"/><polygon class="cls-11" points="6.36 6.57 6.05 6.34 5.36 7.25 5.37 7.57 5.76 7.86 6.33 7.33 6.71 6.58 6.36 6.57"/><path class="cls-12" d="M18.68,6.47s-1,.84-.91,1a3.18,3.18,0,0,1-.06,1.55c-.13.31-.8,1.32-.8,1.32l1.54-1.18L19,9.06c0,.06.59.45.61.34.13-.5-.63,1.87-.63,1.87l.74-1.37.69-1.58-.59-1.18Z"/><path class="cls-10" d="M18.92,6.62a1.68,1.68,0,0,0-.32.21,1.15,1.15,0,0,0-.44.65,3.16,3.16,0,0,0,.14,1.29l.37.46.73.13a2.83,2.83,0,0,0,.68-1c.07-.41.45-1,.24-1.32A4.32,4.32,0,0,0,19,6.34Z"/><path class="cls-12" d="M20.19,9.51s.59-1.82.39-2.06-.06-.57-.61-.93.28-.08-.71-.26A.91.91,0,0,0,18.1,7a4.57,4.57,0,0,1,1.06-.16.85.85,0,0,1,.44.47c.06.21.45,1.26.45,1.26Z"/><polygon class="cls-13" points="0.29 0 0 0.32 0.14 0.45 0.69 0.22 0.29 0"/></g></g></svg>