<svg xmlns="http://www.w3.org/2000/svg" viewBox="0 0 2535.35 2269.34"><defs><style>.cls-1,.cls-10,.cls-11,.cls-12,.cls-13,.cls-14,.cls-2,.cls-3,.cls-4,.cls-5,.cls-6,.cls-7,.cls-8,.cls-9{fill:#f74424;}.cls-1{opacity:0.56;}.cls-3{opacity:0.63;}.cls-4{opacity:0.32;}.cls-5{opacity:0.78;}.cls-6{opacity:0.68;}.cls-7{opacity:0.53;}.cls-8{opacity:0.67;}.cls-9{opacity:0.76;}.cls-10{opacity:0.26;}.cls-11{opacity:0.35;}.cls-12{opacity:0.89;}.cls-13{opacity:0.83;}.cls-14{opacity:0.5;}</style></defs><title>heart</title><g id="Layer_2" data-name="Layer 2"><g id="Layer_4" data-name="Layer 4"><rect class="cls-1" x="283.16" width="271.74" height="271.74"/><rect class="cls-2" x="565.89" width="271.74" height="271.74"/><rect class="cls-2" y="283.16" width="271.74" height="271.74"/><rect class="cls-2" x="282.73" y="282.59" width="271.74" height="271.74"/><rect class="cls-3" x="565.88" y="283.16" width="271.74" height="271.74"/><rect class="cls-2" x="848.61" y="282.59" width="271.74" height="271.74"/><rect class="cls-2" x="1698.16" width="271.74" height="271.74"/><rect class="cls-4" x="1980.89" width="271.74" height="271.74"/><rect class="cls-2" x="1415" y="283.16" width="271.74" height="271.74"/><rect class="cls-5" x="1697.73" y="282.59" width="271.74" height="271.74"/><rect class="cls-2" x="1980.88" y="283.16" width="271.74" height="271.74"/><rect class="cls-6" x="2263.61" y="282.59" width="271.74" height="271.74"/><rect class="cls-2" y="569.16" width="271.74" height="271.74"/><rect class="cls-7" x="282.73" y="568.59" width="271.74" height="271.74"/><rect class="cls-2" x="565.88" y="569.16" width="271.74" height="271.74"/><rect class="cls-2" x="848.61" y="568.59" width="271.74" height="271.74"/><rect class="cls-8" x="1131.58" y="569.06" width="271.74" height="271.74"/><rect class="cls-2" x="1415" y="569.16" width="271.74" height="271.74"/><rect class="cls-2" x="1697.73" y="568.59" width="271.74" height="271.74"/><rect class="cls-9" x="1980.88" y="569.16" width="271.74" height="271.74"/><rect class="cls-2" x="2263.61" y="568.59" width="271.74" height="271.74"/><rect class="cls-5" y="856.16" width="271.74" height="271.74"/><rect class="cls-2" x="282.73" y="855.59" width="271.74" height="271.74"/><rect class="cls-10" x="565.88" y="856.16" width="271.74" height="271.74"/><rect class="cls-7" x="848.61" y="855.59" width="271.74" height="271.74"/><rect class="cls-2" x="1131.58" y="856.06" width="271.74" height="271.74"/><rect class="cls-2" x="1415" y="856.16" width="271.74" height="271.74"/><rect class="cls-11" x="1697.73" y="855.59" width="271.74" height="271.74"/><rect class="cls-2" x="1980.88" y="856.16" width="271.74" height="271.74"/><rect class="cls-2" x="2263.61" y="855.59" width="271.74" height="271.74"/><rect class="cls-12" x="283" y="1139.16" width="271.74" height="271.74"/><rect class="cls-2" x="565.73" y="1138.59" width="271.74" height="271.74"/><rect class="cls-13" x="848.88" y="1139.16" width="271.74" height="271.74"/><rect class="cls-1" x="1131.61" y="1138.59" width="271.74" height="271.74"/><rect class="cls-2" x="1414.58" y="1139.06" width="271.74" height="271.74"/><rect class="cls-2" x="1698" y="1139.16" width="271.74" height="271.74"/><rect class="cls-1" x="1980.73" y="1138.59" width="271.74" height="271.74"/><rect class="cls-14" x="565.73" y="1424.59" width="271.74" height="271.74"/><rect class="cls-2" x="848.88" y="1425.16" width="271.74" height="271.74"/><rect class="cls-2" x="1131.61" y="1424.59" width="271.74" height="271.74"/><rect class="cls-11" x="1414.58" y="1425.06" width="271.74" height="271.74"/><rect class="cls-2" x="1698" y="1425.16" width="271.74" height="271.74"/><rect class="cls-2" x="848.88" y="1712.16" width="271.74" height="271.74"/><rect class="cls-2" x="1131.61" y="1711.59" width="271.74" height="271.74"/><rect class="cls-2" x="1414.58" y="1712.06" width="271.74" height="271.74"/><rect class="cls-13" x="1131.61" y="1997.59" width="271.74" height="271.74"/></g></g></svg>