<svg xmlns="http://www.w3.org/2000/svg" viewBox="0 0 411.13 120.41"><defs><style>.cls-1{fill:#1b0e2c;}.cls-2{fill:#1a123c;}.cls-3{fill:#131126;}.cls-4{fill:#27244f;}.cls-5{fill:#1a1a3e;}.cls-6{fill:#191424;}.cls-7{fill:#19223a;}.cls-8{fill:#4e7380;}.cls-9{fill:#111b30;}.cls-10{fill:#e2c479;}.cls-11{fill:#efc786;}.cls-12{fill:#0d0d0d;}.cls-13{fill:#232323;}.cls-14{fill:#1e1e1e;}</style></defs><title>hill_1</title><g id="Layer_2" data-name="Layer 2"><g id="Layer_2-2" data-name="Layer 2"><polygon class="cls-1" points="277.35 24.81 195.13 20.21 177.26 24.81 148.15 20.21 81.77 34.51 51.13 30.43 0 44.41 4.66 54.94 17.09 63.28 27.98 61.74 91.47 74.85 138.96 69.74 144.07 74.85 194.62 62.59 243.13 74.85 259.98 86.08 274.28 101.92 296.75 119.17 411.13 119.17 390.2 94.25 384.07 95.28 364.15 74.34 359.05 73.32 347.3 53.91 331.98 48.3 301.35 22.77 277.35 24.81"/><polygon class="cls-2" points="14.37 120.42 0 44.38 4.66 54.9 17.09 63.24 27.98 61.71 91.47 74.82 138.96 69.71 144.07 74.82 194.62 62.56 243.13 74.82 259.98 86.05 274.28 101.88 296.75 119.13 14.37 120.42"/><polygon class="cls-3" points="27.13 119.13 17.09 63.24 27.98 61.71 27.13 119.13"/><polygon class="cls-3" points="94.63 120.42 91.47 74.82 138.96 69.71 140.89 119.84 94.63 120.42"/><polygon class="cls-3" points="143.05 119.83 144.07 74.82 194.62 62.56 187.22 119.13 143.05 119.83"/><polygon class="cls-4" points="15.9 119.83 6.84 56.37 0 44.38 14.37 120.42 15.9 119.83"/><polygon class="cls-5" points="296.75 119.13 229 119.13 232.75 99.84 230.93 71.73 243.13 74.82 259.98 86.05 274.28 101.88 296.75 119.13"/><polygon class="cls-6" points="194.62 62.56 234.79 64.78 262.88 61.71 294.71 51.84 307.3 51.84 319.07 37.51 331.98 48.27 347.3 53.88 359.05 73.29 364.15 74.31 384.07 95.24 390.2 94.22 411.13 119.13 296.75 119.13 274.28 101.88 259.98 86.05 243.13 74.82 230.93 71.73 194.62 62.56"/><polygon class="cls-7" points="13.99 21.54 17.46 27.49 15.37 27.49 18.62 32.17 16.52 32.17 20.55 36.25 16.86 36.25 21.87 40.6 15.1 40.77 14.87 46.16 13.16 46.16 13 40.82 6.28 40.98 11.45 37.03 8.21 37.13 11.84 32.67 9.7 32.67 12.72 27.82 10.69 27.82 13.99 21.54"/><path class="cls-8" d="M11.79,27.09l2-.59L11,32l1.79-.32L10,36.32s1.94.34,1.94.59-4,4-4,4L6.28,41,11.45,37l-3.24.1,3.63-4.46H9.7l2.52-4.85H10.69L13.76,22Z"/><polygon class="cls-7" points="292.88 9.68 296.35 15.62 294.26 15.62 297.51 20.3 295.41 20.3 299.43 24.38 295.74 24.38 300.76 28.73 293.99 28.9 293.76 34.29 292.06 34.29 291.89 28.95 285.17 29.12 290.34 25.16 287.1 25.26 290.73 20.8 288.58 20.8 291.61 15.95 289.58 15.95 292.88 9.68"/><path class="cls-8" d="M290.67,15.22l1.7,0-2.46,4.92,1.79-.32-2.79,4.77s1.94.23,1.94.49-4,4-4,4l-1.68.05,5.17-4-3.24.1,3.63-4.46h-2.14L291.11,16h-1.53l3.07-5.83Z"/><polygon class="cls-7" points="381.85 83.13 378.38 89.07 380.48 89.07 377.23 93.75 379.32 93.75 375.3 97.83 378.99 97.83 373.98 102.18 380.75 102.35 380.97 107.74 382.68 107.74 382.84 102.4 389.56 102.57 384.39 98.61 387.64 98.71 384 94.25 386.15 94.25 383.12 89.41 385.16 89.41 381.85 83.13"/><path class="cls-9" d="M382.93,87.64l-1.54.24,2.19,4.64-1.81.49L384.21,97s-2.44.64-2.44.89,3,4.6,3,4.6l4.84.12-5.17-4,3.25.1L384,94.25h2.15l-2.53-4.85h1.54l-3.07-5.83Z"/><polygon class="cls-7" points="210.85 32.49 213.59 40.48 211.5 40.48 214.75 45.16 212.66 45.16 216.68 49.23 212.99 49.23 218 53.59 211.23 53.75 211 59.15 209.3 59.15 209.13 53.8 202.41 53.97 207.59 50.02 204.34 50.12 207.98 45.66 205.83 45.66 208.86 40.81 206.82 40.81 210.85 32.49"/><path class="cls-10" d="M207.92,40.08l2-.59L207.15,45l2.74.46-3.74,3.88s1.94.34,1.94.59-4,4-4,4l-1.69,0L206.77,50l-2.43.08L208,45.66h-2.15l2.53-4.85h-1.54l4-8.32Z"/><polygon class="cls-7" points="55.12 14.4 58.59 20.35 56.5 20.35 59.75 25.03 57.65 25.03 61.67 29.11 57.98 29.11 61.74 35.16 56.2 35.45 56.06 45.64 54.35 45.64 54.16 35.16 48.47 35.16 52.58 29.89 49.34 29.99 52.97 25.53 50.83 25.53 53.85 20.68 51.82 20.68 55.12 14.4"/><path class="cls-8" d="M53.49,19.18l2.13.61-2.16,4.56,1.43.51-3,3.93s2.81.21,2.81.47-4.25,5.87-4.25,5.87l-1.94,0,3.38-5.46L49.34,30,53,25.53H50.83l2.52-4.85H51.82l3.07-5.83Z"/><polygon class="cls-7" points="228.92 1.32 232.39 7.26 230.3 7.26 233.55 11.95 231.46 11.95 235.47 16.02 231.79 16.02 236.8 20.37 230.03 20.54 230.21 28.38 228.5 28.38 227.93 20.59 221.21 20.76 226.38 16.8 223.14 16.9 226.77 12.44 224.63 12.44 227.66 7.59 225.62 7.59 228.92 1.32"/><path class="cls-8" d="M227.29,6.09l1.4.18-2.57,4.58,1.62.58L225,16.09s2.06-.27,2.06,0-5.18,4.66-5.18,4.66l-.62,0,4.44-4.13-2.51.27,3.63-4.46h-2.14l2.52-4.85h-1.53l3.07-5.83Z"/><polygon class="cls-7" points="286.17 71.73 289.64 77.68 287.55 77.68 290.8 82.36 288.71 82.36 292.73 86.44 289.04 86.44 294.05 90.79 287.28 90.96 287.46 98.8 285.75 98.8 285.18 91.01 278.46 91.17 283.64 87.22 280.39 87.32 284.02 82.86 281.88 82.86 284.91 78.01 282.87 78.01 286.17 71.73"/><path class="cls-8" d="M284.54,76.51l1.4.18-2.57,4.58,1.62.58-2.79,4.66s2.06-.27,2.06,0-5.18,4.66-5.18,4.66l-.62,0,4.44-4.13-2.51.27L284,82.86h-2.14L284.4,78h-1.53l3.07-5.83Z"/><polygon class="cls-7" points="340.66 54.71 337.19 60.65 339.28 60.65 336.03 65.33 338.13 65.33 334.1 69.41 337.79 69.41 332.78 73.76 339.55 73.93 339.37 81.77 341.08 81.77 341.65 73.98 348.37 74.15 343.19 70.19 346.44 70.29 342.81 65.83 344.95 65.83 341.93 60.98 343.96 60.98 340.66 54.71"/><path class="cls-9" d="M341.57,58.79l-1.44.5L342.42,64l-1.57-.06,2.6,4.87a15.37,15.37,0,0,1-2.87.9c-1-.68,2.52,4.33,2.52,4.33l5.27.13-3.85-3.58,1.92-.28-3.63-4.46H345L342.43,61H344l-3.07-5.83Z"/><polygon class="cls-7" points="73.1 41.17 76.57 47.12 74.48 47.12 77.73 51.8 75.64 51.8 79.66 55.88 75.97 55.88 80.98 60.23 74.21 60.4 74.39 68.24 72.68 68.24 72.11 60.45 65.39 60.62 70.56 56.66 67.32 56.76 70.95 52.3 68.81 52.3 71.83 47.45 69.8 47.45 73.1 41.17"/><path class="cls-8" d="M71.47,46l1.4.18L70.3,50.7l1.62.59L69.13,56s2.06-.27,2.06,0S66,60.6,66,60.6h-.62l4.44-4.12-2.51.27L71,52.3H68.81l2.52-4.85H69.8l3.07-5.83Z"/><polygon class="cls-7" points="152.04 2.18 155.51 8.12 153.42 8.12 156.67 12.8 154.58 12.8 158.6 16.88 154.91 16.88 159.92 21.23 153.15 21.4 153.33 29.24 151.62 29.24 151.05 21.45 144.33 21.62 149.51 17.66 146.26 17.76 149.9 13.3 147.75 13.3 150.78 8.45 148.74 8.45 152.04 2.18"/><path class="cls-8" d="M150.41,7l1.4.18-2.57,4.58,2.89.41-3.32,4.22s1.33.34,1.33.6-3.88,4.63-3.88,4.63l-1.93.05,4.44-4.13-2.51.27,3.64-4.46h-2.15l2.52-4.85h-1.53l3.07-5.83Z"/><polygon class="cls-7" points="37.22 31.48 40.61 40.48 38.52 40.48 41.77 45.16 39.67 45.16 43.39 49.89 40 49.24 45.02 53.59 38.25 53.76 38.41 61.21 36.7 61.21 36.15 53.81 29.43 53.97 34.3 50.68 31.05 50.77 34.99 45.66 32.84 45.66 35.87 40.81 33.84 40.81 37.22 31.48"/><path class="cls-8" d="M35.45,39.3l1.46.19L34.17,45l3.38.09-4.38,4.25s4,.67,4,.92-6.11,3.7-6.11,3.7l-1.68,0,4.24-3.23-2.62,0L35,45.66H32.84l2.53-4.85H33.84l3.38-9.33Z"/><polygon class="cls-7" points="277.38 11.22 280.76 20.22 278.67 20.22 281.92 24.9 279.83 24.9 283.55 29.63 280.16 28.98 285.17 33.33 278.4 33.49 278.56 40.95 276.85 40.95 276.31 33.55 269.59 33.71 274.46 30.42 271.21 30.51 275.15 25.4 273 25.4 276.03 20.55 273.99 20.55 277.38 11.22"/><path class="cls-8" d="M275.6,19l1.46.19-2.74,5.48,3.39.09-4.39,4.25s4.06.67,4.06.92-6.11,3.7-6.11,3.7l-1.68,0,4.23-3.23-2.61,0,3.94-5.11H273l2.53-4.85H274l3.39-9.33Z"/><polygon class="cls-7" points="324.91 29.47 328.38 35.41 326.28 35.41 329.53 40.09 327.44 40.09 331.16 44.83 327.77 44.17 332.78 48.52 326.01 48.69 325.53 55.89 323.82 55.89 323.92 48.74 317.2 48.91 322.07 45.61 318.82 45.71 322.76 40.59 320.61 40.59 323.64 35.74 321.6 35.74 324.91 29.47"/><path class="cls-8" d="M323.21,34.23l1.46.2-2.73,5.47,1.79-.32-2.79,4.66s1.63,1,1.63,1.25a43.37,43.37,0,0,1-3.69,3.37l-1.68,0,4.23-3.24-2.61,0,3.94-5.12h-2.15l2.53-4.85H321.6l3.07-5.83Z"/><polygon class="cls-7" points="364.36 61.73 360.89 67.67 362.98 67.67 359.73 72.35 361.82 72.35 358.11 77.09 361.49 76.43 356.48 80.78 363.25 80.95 363.74 88.15 365.44 88.15 365.35 81 372.07 81.17 367.2 77.87 370.44 77.97 366.5 72.85 368.65 72.85 365.62 68 367.66 68 364.36 61.73"/><path class="cls-9" d="M365.17,66.37l-1.38-.18L366,71l-1.69.57,3,4.67s-2,.51-2,.76,2.42,4,2.42,4l4.46.11-4.24-3.24,2.61,0-3.94-5.12h2.15L366.13,68h1.53l-3.07-5.83Z"/><polygon class="cls-7" points="262.8 5.25 266.26 11.2 264.17 11.2 267.42 15.88 265.33 15.88 269.05 20.61 265.66 19.95 270.67 24.3 263.9 24.47 263.42 31.67 261.71 31.67 261.81 24.52 255.09 24.69 259.95 21.39 256.71 21.49 260.65 16.38 258.5 16.38 261.53 11.53 259.49 11.53 262.8 5.25"/><path class="cls-8" d="M261.1,10l1.46.2-2.74,5.48,1.79-.33L258.82,20s1.64,1,1.64,1.25a45.1,45.1,0,0,1-3.69,3.37l-1.69,0,4.24-3.24-2.61,0,3.94-5.12H258.5L261,11.53h-1.54l3.07-5.84Z"/><polygon class="cls-7" points="314.12 86.61 310.65 92.56 312.74 92.56 309.49 97.24 311.59 97.24 307.87 101.97 311.26 101.31 306.25 105.66 313.01 105.83 313.5 113.03 315.21 113.03 315.11 105.88 321.83 106.05 316.96 102.75 320.2 102.85 316.27 97.73 318.42 97.73 315.39 92.89 317.42 92.89 314.12 86.61"/><path class="cls-9" d="M315.05,91.47l-.7.1,1.44,5-2.1-.12,2.73,4.74s-2.38.51-2.38.77,3.72,4,3.72,4l4.07.1-4.24-3.24,2.62,0-3.94-5.12h2.15l-2.53-4.85h1.53l-3.07-5.83Z"/><polygon class="cls-7" points="254.69 49.35 258.16 55.3 256.06 55.3 259.31 59.98 257.22 59.98 260.94 64.71 257.55 64.06 262.56 68.41 255.79 68.57 255.31 75.78 253.6 75.78 253.7 68.63 246.98 68.79 251.85 65.5 248.6 65.59 252.54 60.48 250.39 60.48 253.42 55.63 251.38 55.63 254.69 49.35"/><path class="cls-8" d="M253,54.12l1.46.19-2.73,5.48,1.79-.33-2.79,4.67s1.63,1,1.63,1.25a37.15,37.15,0,0,1-2.43,3.34l-2.94.07,4.23-3.23-2.61,0,3.94-5.11h-2.15l2.53-4.85h-1.54l3.07-5.84Z"/><polygon class="cls-7" points="194.54 22.09 198.01 28.03 195.92 28.03 199.16 32.72 197.07 32.72 200.79 37.45 197.4 36.79 202.41 41.14 195.65 41.31 195.16 48.51 193.45 48.51 193.55 41.36 186.83 41.53 191.7 38.23 188.45 38.33 192.39 33.21 190.24 33.21 193.27 28.36 191.24 28.36 194.54 22.09"/><path class="cls-11" d="M192.84,26.85l1.47.19-2.74,5.48,1.79-.32-2.79,4.66s1.63,1,1.63,1.25a43.37,43.37,0,0,1-3.69,3.37l-1.68.05,4.23-3.24-2.61,0,3.94-5.12h-2.15l2.53-4.85h-1.54l3.08-5.83Z"/><polygon class="cls-7" points="125.58 0 129.05 7.13 126.96 7.13 130.21 12.74 128.12 12.74 131.83 18.41 128.45 17.63 133.46 22.84 126.69 23.04 126.2 31.67 124.5 31.67 124.59 23.1 117.87 23.3 122.74 19.35 119.5 19.47 123.44 13.34 121.29 13.34 124.32 7.53 122.28 7.53 125.58 0"/><polygon class="cls-7" points="245.58 4.38 249.05 11.51 246.96 11.51 250.21 17.12 248.12 17.12 251.83 22.79 248.45 22 253.46 27.22 246.69 27.42 246.2 36.05 244.5 36.05 244.59 27.48 237.87 27.68 242.74 23.73 239.5 23.84 243.44 17.71 241.29 17.71 244.32 11.9 242.28 11.9 245.58 4.38"/><path class="cls-8" d="M124.49,5.81l.86.13-2.57,6.17,2.57.42-3.74,5.18s3.74.56,3.74.86-3.62,4.62-3.62,4.62l-3.86.11,4.24-3.88-2.61,0,3.94-6.14h-2.15l2.52-5.8h-1.53L125.58,0Z"/><path class="cls-8" d="M244.49,10l.86.14-2.57,6.17,2.57.42-3.74,5.18s3.74.55,3.74.86-3.62,4.61-3.62,4.61l-3.86.12,4.24-3.88-2.61,0,3.94-6.13h-2.15l2.52-5.81h-1.53l3.3-7.52Z"/><path class="cls-12" d="M111.84,63.81l1-.74-.32-.67-1.34-.64L109.66,63l.41,1s.61,1,.65.71S111.84,63.81,111.84,63.81Z"/><polygon class="cls-13" points="108.23 64.47 107.15 63.57 108.23 62.3 110.15 61.91 109.38 63.19 110.47 64.85 109.06 65.11 108.23 64.47"/><path class="cls-14" d="M111.3,62.76l-.64-1.1-.7.25-.77,1.28,1.09,1.66,1-.32s1.09-.51.77-.57S111.3,62.76,111.3,62.76Z"/><path class="cls-12" d="M230.84,61.9l1-.74-.32-.67-1.35-.65-1.55,1.24.42,1s.61,1,.64.7S230.84,61.9,230.84,61.9Z"/><polygon class="cls-13" points="227.23 62.55 226.14 61.66 227.23 60.38 229.14 60 228.38 61.28 229.46 62.94 228.06 63.19 227.23 62.55"/><path class="cls-14" d="M230.3,60.84l-.64-1.1L229,60l-.77,1.28,1.09,1.66,1-.32s1.08-.51.76-.58S230.3,60.84,230.3,60.84Z"/><path class="cls-12" d="M315.52,40l1-.74-.32-.68-1.34-.64-1.55,1.24.41,1s.61,1,.65.71S315.52,40,315.52,40Z"/><polygon class="cls-13" points="311.91 40.62 310.82 39.73 311.91 38.45 313.82 38.07 313.06 39.34 314.14 41 312.74 41.26 311.91 40.62"/><path class="cls-14" d="M315,38.91l-.64-1.1-.7.26-.77,1.27L314,41l1-.32s1.09-.51.77-.57S315,38.91,315,38.91Z"/><path class="cls-12" d="M205,24.84l1.19-.58-.37-.52-1.55-.5-1.78,1,.48.77s.7.8.74.55S205,24.84,205,24.84Z"/><polygon class="cls-13" points="200.8 25.34 199.55 24.65 200.8 23.66 203.01 23.36 202.13 24.36 203.38 25.64 201.76 25.84 200.8 25.34"/><path class="cls-14" d="M204.34,24l-.73-.85-.81.2-.89,1,1.25,1.28,1.18-.25s1.25-.39.89-.44S204.34,24,204.34,24Z"/><path class="cls-12" d="M259.47,39.84l1-.74-.32-.68-1.35-.64L257.28,39l.42,1s.61,1,.64.7S259.47,39.84,259.47,39.84Z"/><polygon class="cls-13" points="255.85 40.49 254.77 39.6 255.85 38.32 257.77 37.94 257 39.22 258.09 40.88 256.68 41.13 255.85 40.49"/><path class="cls-14" d="M258.93,38.78l-.64-1.1-.71.26-.76,1.28,1.08,1.66,1-.32s1.08-.51.76-.58S258.93,38.78,258.93,38.78Z"/><path class="cls-12" d="M20.59,60.18l1-.74-.32-.68L20,58.12l-1.55,1.24.42,1s.61,1,.64.71S20.59,60.18,20.59,60.18Z"/><polygon class="cls-13" points="16.98 60.83 15.9 59.94 16.98 58.66 18.9 58.28 18.13 59.55 19.22 61.21 17.81 61.47 16.98 60.83"/><path class="cls-14" d="M20.05,59.12,19.42,58l-.71.26L18,59.55,19,61.21l1-.32s1.09-.51.77-.57S20.05,59.12,20.05,59.12Z"/><path class="cls-12" d="M71,35.28l.41-.57-.3-.3-.81-.08-.59.93.4.43s.51.43.47.26S71,35.28,71,35.28Z"/><polygon class="cls-13" points="69.28 36.29 68.55 36.02 68.88 35.15 69.81 34.6 69.64 35.41 70.52 36.08 69.83 36.47 69.28 36.29"/><path class="cls-14" d="M70.57,34.83,70,34.37l-.32.27-.16.8.87.67.47-.35s.48-.47.3-.44S70.57,34.83,70.57,34.83Z"/><path class="cls-12" d="M45,36.35l.4-.57-.29-.29-.82-.09-.58.93.4.44s.51.42.47.25S45,36.35,45,36.35Z"/><polygon class="cls-13" points="43.24 37.36 42.51 37.09 42.84 36.23 43.77 35.67 43.6 36.48 44.47 37.15 43.79 37.54 43.24 37.36"/><path class="cls-14" d="M44.52,35.9,44,35.45l-.32.26-.16.8.87.67.47-.35s.47-.47.3-.44S44.52,35.9,44.52,35.9Z"/><path class="cls-12" d="M52.2,42.2l.4-.57-.29-.3-.82-.09-.58.93.39.44s.51.43.47.25S52.2,42.2,52.2,42.2Z"/><polygon class="cls-13" points="50.43 43.2 49.7 42.94 50.03 42.07 50.96 41.52 50.8 42.33 51.67 42.99 50.98 43.39 50.43 43.2"/><path class="cls-14" d="M51.72,41.75l-.53-.46-.32.26-.17.81.87.67.48-.36s.47-.46.29-.44S51.72,41.75,51.72,41.75Z"/><path class="cls-12" d="M146.92,26.13l.4-.58-.29-.29-.82-.09-.58.93.39.44s.51.43.47.25S146.92,26.13,146.92,26.13Z"/><polygon class="cls-13" points="145.15 27.13 144.42 26.86 144.75 26 145.68 25.45 145.52 26.25 146.39 26.92 145.7 27.31 145.15 27.13"/><path class="cls-14" d="M146.44,25.67l-.53-.45-.32.26-.17.81.87.66.48-.35s.47-.47.29-.44S146.44,25.67,146.44,25.67Z"/><path class="cls-12" d="M129,34.42l.41-.58-.29-.29-.82-.09-.59.93.4.44s.51.43.47.25S129,34.42,129,34.42Z"/><polygon class="cls-13" points="127.28 35.42 126.55 35.15 126.88 34.29 127.81 33.74 127.65 34.54 128.52 35.21 127.83 35.6 127.28 35.42"/><path class="cls-14" d="M128.57,34l-.54-.45-.32.26-.16.81.87.66.47-.35s.48-.47.3-.44S128.57,34,128.57,34Z"/></g></g></svg>