<svg xmlns="http://www.w3.org/2000/svg" viewBox="0 0 495.5 283.82"><defs><style>.cls-1{fill:#26915e;}.cls-2{fill:#b7a377;}.cls-3{fill:#fdfff7;}.cls-4{fill:#e0e2dc;}.cls-5{fill:#d86246;}.cls-6{fill:#973a29;}.cls-7{fill:#859392;}.cls-8{fill:#95a09f;}.cls-9{fill:#738382;}.cls-10{fill:#030b18;}.cls-11{fill:#ecedeb;}.cls-12{fill:#b9bab9;}.cls-13{fill:#d0d1cf;}.cls-14{fill:#2c3238;}.cls-15{fill:#0f332c;}.cls-16{fill:#8caaa7;}.cls-17{fill:#58726d;}.cls-18{fill:#434649;}.cls-19{fill:#3e4a5b;}.cls-20{fill:#1c8b58;}.cls-21{fill:#6d4030;}.cls-22{fill:#177747;}.cls-23{fill:#2f560c;}</style></defs><title>hrad</title><g id="Layer_2" data-name="Layer 2"><g id="Layer_3" data-name="Layer 3"><g id="hrad"><path class="cls-1" d="M495.5,283.82S490,258.25,476,245.25s-21-53-21-53l-337-10s-36,8-43,33-75,57-75,57Z"/><path class="cls-2" d="M119,182.25s-21.54,4.2-18,8.6,16.49,17.8,93.8,12.6,89-4.2,123-.2,153.21,3.58,137-11.4-62.12-8.1-62.12-8.1S124.82,180.9,119,182.25Z"/><polygon class="cls-3" points="127 147.87 252 142.75 253.58 188.69 127 191.25 127 147.87"/><polygon class="cls-4" points="279.21 146.3 252 142.75 253.58 188.69 281.18 188.69 279.21 146.3"/><polygon class="cls-3" points="346.05 188.69 348.02 142.75 323.18 142.75 323.18 122.05 294.98 124.41 294.98 145.7 279.21 146.3 281.18 188.69 346.05 188.69"/><polygon class="cls-5" points="147.9 135.45 127 147.87 252 142.75 248.45 130.92 147.9 135.45"/><polygon class="cls-6" points="274.87 134.86 248.45 130.92 252 142.75 279.21 146.3 274.87 134.86"/><polygon class="cls-5" points="289.46 132.49 279.21 146.3 274.87 134.86 289.46 132.49"/><polygon class="cls-4" points="361.63 145.31 348.02 142.75 346.25 186.91 346.05 188.69 358.87 188.69 361.63 145.31"/><polygon class="cls-7" points="294.98 132.49 289.46 132.49 279.21 146.3 294.98 145.7 294.98 132.49"/><path class="cls-8" d="M287.69,119.68H295v12.81l-14.78,1.38,6.9-13.21v-.39A.62.62,0,0,1,287.69,119.68Z"/><polygon class="cls-9" points="335.01 117.12 384.89 114.16 388.44 138.41 376.21 138.41 355.71 139.4 349.99 135.45 343.88 130.92 339.54 130.92 341.51 126.58 335.01 117.12"/><polygon class="cls-4" points="341.51 126.58 323.18 122.05 323.18 142.75 330.47 130.92 339.54 130.92 341.51 126.58"/><polygon class="cls-9" points="348.02 142.75 343.88 130.92 330.47 130.92 323.18 142.75 348.02 142.75"/><polygon class="cls-10" points="361.63 145.31 343.88 130.92 347.04 142.75 361.63 145.31"/><polygon class="cls-11" points="358.87 188.69 368.53 188.69 368.53 163.06 360.44 163.06 358.87 188.69"/><rect class="cls-3" x="368.53" y="163.05" width="18.34" height="25.63"/><polygon class="cls-9" points="360.84 158.52 371.68 148.86 371.68 162.07 371.68 163.06 360.84 163.06 360.84 158.52"/><polygon class="cls-9" points="394.75 148.86 388.44 163.06 371.68 163.06 371.68 148.86 394.75 148.86"/><polygon class="cls-4" points="355.71 139.4 373.45 138.01 388.44 138.41 389.23 148.86 371.68 148.86 370.1 150.24 361.63 148.86 361.63 145.31 355.71 139.4"/><polygon class="cls-12" points="360.84 158.52 370.1 150.24 361.63 148.86 360.84 158.52"/><polygon class="cls-4" points="388.44 138.41 396.92 138.41 396.92 151.22 394.75 148.86 389.03 148.86 388.44 138.41"/><polygon class="cls-4" points="403.82 140.78 396.92 139.4 396.92 141.56 400.27 145.31 401.65 145.31 401.65 151.82 405.2 151.82 409.54 155.76 409.54 146.3 404.8 142.75 403.82 140.78"/><polygon class="cls-3" points="396.92 151.22 396.92 152.6 401.65 151.82 401.65 145.31 396.92 141.37 396.92 151.22"/><polygon class="cls-3" points="388.44 165.62 406.58 165.62 407.76 188.69 388.44 188.88 388.44 165.62"/><polygon class="cls-4" points="386.86 188.69 388.44 188.88 388.44 163.06 386.86 163.06 386.86 188.69"/><polygon class="cls-4" points="406.58 165.62 413.08 165.62 414.07 188.69 407.76 188.69 406.58 165.62"/><polygon class="cls-13" points="419 188.69 419 167 413.08 165.62 414.07 188.69 419 188.69"/><polygon class="cls-10" points="394.75 148.86 396.92 151.22 388.44 165.62 388.44 163.06 394.75 148.86"/><polygon class="cls-9" points="405.2 152.6 403.82 151.82 396.13 152.6 388.44 165.62 406.58 165.62 413.08 165.62 405.2 152.6"/><polygon class="cls-10" points="419 167 419 165.62 405.2 151.82 413.08 165.62 419 167"/><polygon class="cls-14" points="388.44 138.41 399.28 139.4 384.89 114.16 388.44 138.41"/><polygon class="cls-10" points="405.2 141.37 399.28 139.4 384.89 114.16 405.2 141.37"/><polygon class="cls-14" points="356.89 138.41 362.81 115.54 342.11 116.72 338.95 123.03 341.51 126.58 339.54 130.92 343.88 130.92 355.71 139.4 356.89 138.41"/><path class="cls-10" d="M327.12,40.42l-1.77,3.35v8.87l.59,1.58.59,1h2.37s1.57,2.36,0,2.56-6.9,2.37-1.38,5.32S334,66.64,333,69s-3.55,2.36-4.93,3.35-.59,5.91.39,6.9a21,21,0,0,0,3.55,2.37L333.43,85l-8.28,1.38-6.31-14.2V42.59L320.42,39Z"/><path class="cls-9" d="M325.35,84s-6.51-7.29-3.55-12,3.55-6.3,1.38-10.25-2-6.5-2-6.5l-1.38-1,1-15.38-12.81,1v1a4,4,0,0,1,2,3.55c0,2.57.39,7.3.39,7.3L309,54.22V55.6h-3s-1,1.58,1,2,3.35,1.38,2.56,2,.4,1-2.56,2.57-7.49,3.35-5.91,6.5c1.57,3.35,3.35,2,3.35,2l2.95,3.55s1.58,3.36-4.53,7.5C296.56,86,299.52,85,299.52,85h3.55l22.28,1Z"/><path class="cls-4" d="M335.6,122l-12.42-3V86.36l1-1.38V84h2.57s.59-4.34,2.56-3.94,3.94,3.55,3.94,4.93l2.37,1L335,88.33l-1,1.38,1,27.6,1.58,4.54Z"/><polygon class="cls-10" points="341.51 126.58 341.51 115.54 339.94 115.54 339.94 121.06 324.56 118.1 324.56 112.78 323.18 111.79 323.18 122.05 341.51 126.58"/><path class="cls-3" d="M324.16,83v2.56l-1,.59v32.93l-24.84,2.36V109l1.57-2,.4-20.31-.59-1.58,3.54-.59s3.16-5.32,6.91-5.32c3.94,0,2.56,0,7.29,3.55l6.7.2Z"/><path class="cls-15" d="M327.52,39.83s-5.13-3.16-4.14-4.14,3.94-1.58,2.95-3A10.47,10.47,0,0,0,323,29.38c-2.36-1.58-5.13-18.54-5.13-18.54l.4,16.17v9.86l2.37,2,6.9,2Z"/><polygon class="cls-9" points="323.18 122.05 323.18 111.79 320.81 112.78 320.81 117.71 295.57 118.69 294.98 111.79 293.01 111.79 293.01 124.41 323.18 122.05"/><path class="cls-16" d="M307.41,40l13.21-1.18s-2-3-1-4.93-.59-5.52-.59-5.52l-1-15.18s2.37-4.53,1-4.93-2.57-.59-3.35.59c-.6,1.38,1.38,3.35,1.38,3.35l-1,4-2.56,12.22s-6.31,3.94-3.95,5.52,3.55,0,1.58,3S307.41,40,307.41,40Z"/><polygon class="cls-17" points="317.86 8.08 317.86 2.96 319.63 2.56 319.63 1.97 317.66 2.37 317.66 0 317.26 0 317.26 2.37 315.69 2.56 315.69 2.96 316.87 2.96 317.26 8.08 317.86 8.08"/><path class="cls-10" d="M311.94,54.42h3.55s2.36-8.48,0-11.83-3.94.59-3.55,4.34A42,42,0,0,1,311.94,54.42Z"/><circle class="cls-10" cx="311.35" cy="85.96" r="4.53"/><ellipse class="cls-10" cx="329.88" cy="87.34" rx="2.37" ry="4.34"/><path class="cls-10" d="M309,113.76h3.55s2.37-8.47,0-11.83-4.93,1.58-4.53,5.33C308.39,110.81,309,113.76,309,113.76Z"/><path class="cls-10" d="M328.3,115.54h2s1.18-8.48,0-11.83-2.57,1.58-2.37,5.32S328.3,115.54,328.3,115.54Z"/><path class="cls-18" d="M322.78,70.39l-14.59,1.77s0,2,3.36,2h9.66Z"/><path class="cls-10" d="M306,143.34l5.32-.59s1-7.89-.59-11.24c-1.78-3.55-4.93,1.58-4.54,5.32A22.76,22.76,0,0,1,306,143.34Z"/><path class="cls-10" d="M377.6,178.83l2.56-.4s.39-3.74-.4-5.32c-.78-1.77-2.36.79-2.16,2.56A14.44,14.44,0,0,1,377.6,178.83Z"/><path class="cls-10" d="M368.33,178.83l2.56-.4s.4-3.74-.39-5.32c-.79-1.77-2.37.79-2.17,2.56A13.73,13.73,0,0,1,368.33,178.83Z"/><polygon class="cls-10" points="329.09 152.6 329.09 163.06 335.99 162.46 336.39 151.82 329.09 151.82 329.09 152.6"/><path class="cls-10" d="M304.05,152.8l8.48-.59s.4,11.44,0,11.44h-8.48Z"/><polygon class="cls-10" points="284.53 153.59 290.65 153.59 290.65 163.65 285.72 163.65 284.53 153.59"/><polygon class="cls-19" points="137.45 152.6 137.45 159.11 141.39 159.11 141.39 152.21 137.45 152.6"/><rect class="cls-19" x="147.31" y="152.21" width="3.35" height="5.91"/><polygon class="cls-19" points="155.79 151.82 155.79 158.13 159.14 158.13 159.14 151.22 155.79 151.82"/><polygon class="cls-19" points="164.66 152.21 164.66 157.53 167.62 157.53 167.62 151.82 164.66 152.21"/><polygon class="cls-19" points="172.94 151.22 172.94 157.53 176.88 157.14 176.88 151.22 172.94 151.22"/><polygon class="cls-19" points="181.42 150.83 181.42 157.53 184.97 157.53 184.97 150.63 181.42 150.83"/><polygon class="cls-19" points="190.88 149.84 190.88 156.55 194.82 156.55 194.82 149.65 190.88 149.84"/><rect class="cls-19" x="200.74" y="149.65" width="3.35" height="5.91"/><polygon class="cls-19" points="209.41 149.25 209.41 155.56 212.57 155.56 212.57 148.66 209.41 149.25"/><polygon class="cls-19" points="218.29 149.65 218.29 154.77 221.25 154.77 221.25 149.25 218.29 149.65"/><polygon class="cls-19" points="226.37 148.66 226.37 154.77 230.31 154.58 230.31 148.66 226.37 148.66"/><polygon class="cls-19" points="234.85 148.27 234.85 154.77 238.59 154.77 238.59 147.87 234.85 148.27"/><polygon class="cls-19" points="134.49 164.63 134.49 171.34 138.44 171.34 138.44 164.44 134.49 164.63"/><rect class="cls-19" x="144.35" y="164.43" width="3.35" height="5.91"/><polygon class="cls-19" points="152.83 164.04 152.83 170.35 156.18 170.35 156.18 163.45 152.83 164.04"/><polygon class="cls-19" points="161.7 164.44 161.7 169.56 164.66 169.56 164.66 164.04 161.7 164.44"/><polygon class="cls-19" points="169.98 163.45 169.98 169.56 173.93 169.36 173.93 163.45 169.98 163.45"/><polygon class="cls-19" points="178.46 163.06 178.46 169.56 182.21 169.56 182.21 162.66 178.46 163.06"/><polygon class="cls-19" points="187.92 162.07 187.92 168.57 191.87 168.57 191.87 161.68 187.92 162.07"/><rect class="cls-19" x="197.78" y="161.67" width="3.35" height="5.91"/><polygon class="cls-19" points="206.46 161.48 206.46 167.59 209.61 167.59 209.61 160.69 206.46 161.48"/><polygon class="cls-19" points="215.33 161.68 215.33 167 218.29 167 218.29 161.48 215.33 161.68"/><polygon class="cls-19" points="223.41 160.69 223.41 167 227.36 166.6 227.36 160.69 223.41 160.69"/><polygon class="cls-19" points="231.89 160.49 231.89 167 235.64 167 235.64 160.1 231.89 160.49"/><polygon class="cls-19" points="135.87 176.86 135.87 183.36 139.82 183.36 139.82 176.46 135.87 176.86"/><rect class="cls-19" x="145.73" y="176.46" width="3.35" height="5.91"/><polygon class="cls-19" points="154.21 176.07 154.21 182.38 157.56 182.38 157.56 175.48 154.21 176.07"/><polygon class="cls-19" points="163.08 176.46 163.08 181.78 166.04 181.78 166.04 176.07 163.08 176.46"/><polygon class="cls-19" points="171.36 175.48 171.36 181.78 175.31 181.39 175.31 175.48 171.36 175.48"/><polygon class="cls-19" points="179.84 175.08 179.84 181.78 183.39 181.78 183.39 174.88 179.84 175.08"/><polygon class="cls-19" points="189.3 174.1 189.3 180.8 193.25 180.8 193.25 173.9 189.3 174.1"/><rect class="cls-19" x="199.16" y="173.9" width="3.35" height="5.91"/><polygon class="cls-19" points="207.64 173.5 207.64 179.81 210.99 179.81 210.99 172.91 207.64 173.5"/><polygon class="cls-19" points="216.51 173.9 216.51 179.03 219.47 179.03 219.47 173.5 216.51 173.9"/><polygon class="cls-19" points="224.79 172.91 224.79 179.03 228.74 178.83 228.74 172.91 224.79 172.91"/><polygon class="cls-19" points="233.27 172.52 233.27 179.03 236.82 179.03 236.82 172.12 233.27 172.52"/><path class="cls-10" d="M395.93,188.88l2.76-.39s.59-4.73-.39-6.7c-1-2.17-2.57,1-2.37,3.15A21.51,21.51,0,0,1,395.93,188.88Z"/><path class="cls-10" d="M416.24,175.08l1.18-.39a27.08,27.08,0,0,0-.19-5.33c-.4-1.77-1.19.79-1.19,2.57A31.21,31.21,0,0,1,416.24,175.08Z"/><path class="cls-10" d="M392.38,173.5l1.78-.19s.39-2.76-.2-3.95-1.58.6-1.58,1.78Z"/><path class="cls-10" d="M402.24,173.5l1.78-.19s.39-2.76-.2-3.95-1.58.6-1.58,1.78Z"/><polygon class="cls-10" points="258.31 149.25 261.47 149.25 261.47 159.51 258.9 159.51 258.31 149.25"/><polygon class="cls-10" points="269.75 150.24 272.9 150.24 272.9 160.49 270.34 160.49 269.75 150.24"/><polygon class="cls-20" points="111.61 192.03 84.68 192.03 98.14 152.76 111.61 192.03"/><rect class="cls-21" x="96.4" y="192.03" width="3.49" height="11.08"/><path class="cls-22" d="M98.14,152.76l3.25,16.57a15.6,15.6,0,0,1-15.3,18.6h0L84.68,192h26.93Z"/><polygon class="cls-20" points="138.93 242.97 110.6 242.97 124.77 201.65 138.93 242.97"/><rect class="cls-21" x="122.93" y="242.97" width="3.67" height="11.66"/><path class="cls-22" d="M124.77,201.65l3.41,17.43a16.41,16.41,0,0,1-16.1,19.57h0L110.6,243h28.33Z"/><polygon class="cls-23" points="371.79 214.31 372.8 224.58 376.06 224.58 377.07 212.48 371.79 214.31"/><polygon class="cls-22" points="375.14 188.18 365.99 201.29 383.17 201.29 375.14 188.18"/><polygon class="cls-22" points="372.8 196.82 365.89 209.84 383.17 209.12 377.18 197.33 372.8 196.82"/><polyline class="cls-22" points="371.99 205.67 378.4 204.24 384.7 217.56 364.16 217.56 371.48 205.67"/><polygon class="cls-22" points="401.68 188.59 392.53 201.8 409.81 201.8 401.68 188.59"/><polygon class="cls-22" points="399.34 197.23 392.53 210.24 409.71 209.63 403.81 197.74 399.34 197.23"/><polygon class="cls-23" points="398.32 214.72 399.34 224.98 402.69 224.98 403.61 212.88 398.32 214.72"/><polyline class="cls-22" points="398.02 206.18 390.7 218.07 411.34 218.07 405.03 204.75 398.63 206.18"/><polygon class="cls-22" points="427.81 186.35 418.66 199.57 435.84 199.57 427.81 186.35"/><polygon class="cls-22" points="425.47 194.99 418.55 208 435.84 207.4 429.94 195.5 425.47 194.99"/><polygon class="cls-23" points="424.45 212.48 425.47 222.75 428.82 222.75 429.74 210.65 424.45 212.48"/><polyline class="cls-22" points="424.15 203.94 416.83 215.83 437.36 215.83 431.06 202.51 424.76 203.94"/><polyline class="cls-20" points="374.96 188.38 365.99 201.29 370.48 201.29 365.89 209.84 368.92 209.84 364.16 217.56 373.12 217.56 372.11 212.9 373.76 205.7 372.07 198.92 374.96 188.38"/><polyline class="cls-20" points="401.53 188.78 392.56 201.69 397.05 201.69 392.46 210.23 395.49 210.23 390.73 217.95 399.69 217.95 398.68 213.29 400.33 206.09 398.64 199.31 401.53 188.78"/><polyline class="cls-20" points="427.66 186.88 418.69 199.79 423.17 199.79 418.59 208.33 421.62 208.33 416.86 216.06 425.81 216.06 424.81 211.4 426.46 204.19 424.77 197.41 427.66 186.88"/></g></g></g></svg>