<?xml version="1.0"?>
<svg xmlns="http://www.w3.org/2000/svg" xmlns:xlink="http://www.w3.org/1999/xlink" version="1.1" viewBox="0 0 224 224" width="64px" height="64px"><g fill="none" fill-rule="nonzero" stroke="none" stroke-width="1" stroke-linecap="butt" stroke-linejoin="miter" stroke-miterlimit="10" stroke-dasharray="" stroke-dashoffset="0" font-family="none" font-weight="none" font-size="none" text-anchor="none" style="mix-blend-mode: normal"><path d="M0,224v-224h224v224z" fill="none"/><g fill="#ffffff"><g id="surface1"><path d="M108.5,7c-55.97265,0 -101.5,45.54102 -101.5,101.5c0,55.95898 45.52735,101.5 101.5,101.5c55.97266,0 101.5,-45.54102 101.5,-101.5c0,-55.95898 -45.52734,-101.5 -101.5,-101.5zM108.5,14c52.10352,0 94.5,42.39648 94.5,94.5c0,52.10352 -42.39648,94.5 -94.5,94.5c-52.10352,0 -94.5,-42.39648 -94.5,-94.5c0,-52.10352 42.39648,-94.5 94.5,-94.5zM106.96875,28.02735c-20.61719,0.41015 -40.5918,8.75 -55.38477,23.54297c-31.39062,31.39063 -31.39062,82.45508 0,113.8457c0.6836,0.68359 1.57227,1.02539 2.47461,1.02539c0.90234,0 1.79101,-0.3418 2.47461,-1.02539c1.36719,-1.36719 1.36719,-3.58203 0,-4.94922c-28.65625,-28.65625 -28.66992,-75.27734 0,-103.93359c16.61133,-16.625 40.41406,-24.32227 63.65625,-20.60352c1.90039,0.31445 3.6914,-0.99805 4.00586,-2.89844c0.30078,-1.91406 -0.99805,-3.71875 -2.89844,-4.01953c-4.78515,-0.76562 -9.57031,-1.09375 -14.32812,-0.98437zM135.29688,32.83985c-1.35352,0.06836 -2.61133,0.92969 -3.11719,2.2832c-0.68359,1.81836 0.23242,3.82813 2.05078,4.51172c2.48828,0.91602 4.94922,1.99609 7.3418,3.19922c0.50586,0.25977 1.05273,0.38281 1.58594,0.38281c1.27148,0 2.50195,-0.69726 3.13086,-1.92773c0.86133,-1.70898 0.16406,-3.82812 -1.55859,-4.70312c-2.625,-1.3125 -5.33203,-2.50195 -8.05274,-3.52734c-0.45117,-0.16406 -0.91601,-0.23242 -1.38086,-0.21875zM155.51758,44.36523c-0.88867,0.10938 -1.73633,0.56055 -2.33789,1.3125c-1.18945,1.53125 -0.92969,3.71875 0.60156,4.9082c2.32422,1.83203 4.58008,3.82813 6.68555,5.94727c28.66992,28.65625 28.66992,75.27734 0,103.93359c-1.36719,1.38086 -1.36719,3.58203 0,4.96289c0.6836,0.66992 1.58594,1.02539 2.48828,1.02539c0.88867,0 1.79102,-0.35547 2.47461,-1.02539c31.37695,-31.39062 31.37695,-82.46875 0,-113.85937c-2.31055,-2.29687 -4.78515,-4.49805 -7.32812,-6.49414c-0.76562,-0.58789 -1.69531,-0.82031 -2.58398,-0.71094zM108.5,63c-1.92773,0 -3.5,1.5586 -3.5,3.5v38.5h-38.5c-1.92773,0 -3.5,1.5586 -3.5,3.5c0,1.94141 1.57227,3.5 3.5,3.5h38.5v38.5c0,1.94141 1.57227,3.5 3.5,3.5c1.92773,0 3.5,-1.55859 3.5,-3.5v-38.5h38.5c1.92773,0 3.5,-1.55859 3.5,-3.5c0,-1.9414 -1.57227,-3.5 -3.5,-3.5h-38.5v-38.5c0,-1.9414 -1.57227,-3.5 -3.5,-3.5zM74.8125,165.88086c-1.36719,-0.16406 -2.74805,0.46485 -3.45898,1.72266l-3.5,6.05664c-0.9707,1.68164 -0.41016,3.81445 1.27148,4.78515c0.54688,0.31445 1.14844,0.46485 1.75,0.46485c1.20313,0 2.37891,-0.62891 3.02148,-1.75l3.5,-6.05664c0.9707,-1.66797 0.41016,-3.81445 -1.27148,-4.78516c-0.42383,-0.23242 -0.875,-0.38281 -1.3125,-0.4375zM142.1875,165.88086c-0.4375,0.05469 -0.88867,0.20508 -1.3125,0.4375c-1.68164,0.9707 -2.24219,3.11719 -1.27148,4.79883l3.5,6.05664c0.64258,1.12109 1.81836,1.75 3.02148,1.75c0.60156,0 1.20313,-0.16406 1.75,-0.47852c1.68164,-0.9707 2.24219,-3.10352 1.27148,-4.77148l-3.5,-6.05664c-0.71094,-1.25781 -2.0918,-1.90039 -3.45898,-1.73633zM126.65625,172.70313c-0.45117,-0.06836 -0.92969,-0.04102 -1.4082,0.0957c-1.85937,0.49219 -2.9668,2.41992 -2.47461,4.2793l1.81836,6.76758c0.42383,1.55859 1.83203,2.58398 3.37695,2.58398c0.30078,0 0.60156,-0.02734 0.91602,-0.10937c1.85938,-0.50586 2.9668,-2.41992 2.47461,-4.2793l-1.80469,-6.76758c-0.38281,-1.4082 -1.55859,-2.3789 -2.89844,-2.57031zM90.34375,172.70313c-1.33984,0.19141 -2.51562,1.16211 -2.89844,2.57031l-1.80469,6.76758c-0.50586,1.85938 0.60156,3.77344 2.47461,4.2793c0.30078,0.08203 0.61524,0.10938 0.91602,0.10938c1.53125,0 2.95313,-1.02539 3.37695,-2.58398l1.80469,-6.76758c0.50586,-1.85937 -0.60156,-3.78711 -2.46094,-4.2793c-0.47852,-0.13672 -0.95703,-0.15039 -1.4082,-0.0957zM108.5,175c-1.92773,0 -3.5,1.5586 -3.5,3.5v7c0,1.94141 1.57227,3.5 3.5,3.5c1.92773,0 3.5,-1.55859 3.5,-3.5v-7c0,-1.9414 -1.57227,-3.5 -3.5,-3.5z"/></g></g></g></svg>
