<svg xmlns="http://www.w3.org/2000/svg" viewBox="0 0 91.8 75.69"><defs><style>.cls-1{fill:#fceb15;}</style></defs><title>more</title><g id="Layer_2" data-name="Layer 2"><g id="OBJECTS"><polygon class="cls-1" points="54.6 0 49.54 5.44 62.1 17.11 17.84 17.11 17.84 26.16 62.1 26.16 49.54 37.84 54.6 43.28 77.88 21.64 54.6 0"/><path class="cls-1" d="M.29,61.34H2.46L5.87,72.48,9.28,61.34h2.17L6.82,75.54H4.92Z" transform="translate(-0.29)"/><path class="cls-1" d="M13.3,61.34h2v2h-2Zm0,4.06h2V75.54h-2Z" transform="translate(-0.29)"/><path class="cls-1" d="M21.06,75.69l-1-.53a3.5,3.5,0,0,1-1.52-1.55A5.32,5.32,0,0,1,18,71.15V70a6,6,0,0,1,.5-2.56A3.6,3.6,0,0,1,20,65.82a4.43,4.43,0,0,1,2.3-.56,3.68,3.68,0,0,1,2.17.63,4,4,0,0,1,1.37,1.84,7.75,7.75,0,0,1,.48,2.88v.66H19.47v-1.6h4.94a3.36,3.36,0,0,0-.64-1.93,1.78,1.78,0,0,0-1.48-.68,2.15,2.15,0,0,0-1.75.74,3.19,3.19,0,0,0-.62,2.1v1.29a2.6,2.6,0,0,0,.67,1.93,2.51,2.51,0,0,0,1.88.67,3.21,3.21,0,0,0,1.2-.24,3.54,3.54,0,0,0,1.07-.68l1.3,1.3a5.32,5.32,0,0,1-1.68,1.12,4.76,4.76,0,0,1-1.89.4Z" transform="translate(-0.29)"/><path class="cls-1" d="M28,65.4h2.08l1.8,7.24,2.53-7.24h1.38l2.53,7.24,1.8-7.24h2.08L39,75.54h-1.5l-2.47-7-2.47,7H31.09Z" transform="translate(-0.29)"/><path class="cls-1" d="M47.73,65.4h2V75.54h-2Zm6.06,4a2.4,2.4,0,0,0-.53-1.66,1.91,1.91,0,0,0-1.49-.59,2.09,2.09,0,0,0-1.51.52,1.93,1.93,0,0,0-.53,1.46l-.21-2a3.55,3.55,0,0,1,1.23-1.41,2.9,2.9,0,0,1,1.67-.5,3.31,3.31,0,0,1,1.82.48,3.07,3.07,0,0,1,1.15,1.41,5.79,5.79,0,0,1,.39,2.24v6.15h-2Zm6.05,0a2.31,2.31,0,0,0-.55-1.66,2.06,2.06,0,0,0-1.57-.59,1.82,1.82,0,0,0-1.43.57,2.31,2.31,0,0,0-.51,1.6l-.4-1.95a3.89,3.89,0,0,1,1.27-1.56,2.92,2.92,0,0,1,1.73-.55,3.49,3.49,0,0,1,1.87.48,3,3,0,0,1,1.18,1.41,5.6,5.6,0,0,1,.41,2.24v6.15h-2Z" transform="translate(-0.29)"/><path class="cls-1" d="M66.49,75.17a3.43,3.43,0,0,1-1.43-1.51,5.28,5.28,0,0,1-.49-2.39V69.62a5.16,5.16,0,0,1,.49-2.35,3.4,3.4,0,0,1,1.43-1.5,5.26,5.26,0,0,1,4.52,0,3.4,3.4,0,0,1,1.43,1.5,5.16,5.16,0,0,1,.49,2.35V71.3a5.19,5.19,0,0,1-.49,2.37A3.4,3.4,0,0,1,71,75.17a5.17,5.17,0,0,1-4.52,0Zm3.88-2a2.72,2.72,0,0,0,.57-1.84V69.62a2.66,2.66,0,0,0-.57-1.82,2.34,2.34,0,0,0-3.24,0,2.66,2.66,0,0,0-.57,1.82V71.3a2.72,2.72,0,0,0,.57,1.84,2.34,2.34,0,0,0,3.24,0Z" transform="translate(-0.29)"/><path class="cls-1" d="M75.76,65.4h2V75.54h-2Zm4.91,1.92a2.36,2.36,0,0,0-.92-.17,2,2,0,0,0-1.47.53,1.94,1.94,0,0,0-.53,1.45l-.2-2a3.73,3.73,0,0,1,1.21-1.41,2.88,2.88,0,0,1,1.64-.5,3.87,3.87,0,0,1,1.26.2,2.79,2.79,0,0,1,1,.59l-1.3,1.76A1.64,1.64,0,0,0,80.67,67.32Z" transform="translate(-0.29)"/><path class="cls-1" d="M86.85,75.69l-1-.53a3.56,3.56,0,0,1-1.52-1.55,5.32,5.32,0,0,1-.52-2.46V70a6,6,0,0,1,.5-2.56,3.6,3.6,0,0,1,1.46-1.62,4.44,4.44,0,0,1,2.31-.56,3.65,3.65,0,0,1,2.16.63,4,4,0,0,1,1.38,1.84,8,8,0,0,1,.47,2.88v.66H85.25v-1.6h5a3.51,3.51,0,0,0-.64-1.93,1.8,1.8,0,0,0-1.48-.68,2.16,2.16,0,0,0-1.76.74,3.19,3.19,0,0,0-.62,2.1v1.29a2.6,2.6,0,0,0,.67,1.93,2.51,2.51,0,0,0,1.88.67,3.13,3.13,0,0,0,1.2-.24,3.42,3.42,0,0,0,1.07-.68l1.31,1.3a5.36,5.36,0,0,1-1.69,1.12,4.76,4.76,0,0,1-1.89.4Z" transform="translate(-0.29)"/></g></g></svg>