<svg xmlns="http://www.w3.org/2000/svg" viewBox="0 0 1255.97 1084.49"><defs><style>.cls-1{isolation:isolate;}.cls-2{fill:#aff5f9;}.cls-3{fill:#299b67;}.cls-4{fill:#26915e;}.cls-5{fill:#37b55a;}.cls-6{fill:#2fad5c;}.cls-7{fill:#97cc3b;}.cls-8{fill:none;}.cls-9{fill:#423222;}.cls-10{fill:#ffffe1;}.cls-11{fill:#d4b16d;}.cls-12{fill:#ead7b5;}.cls-13{fill:#020202;}.cls-14{fill:#353332;}.cls-15{fill:#d6e4ff;}.cls-16{fill:#f8fce1;}.cls-17{fill:#6e9ab7;}.cls-18{fill:#a21b39;}.cls-19{fill:#9e937a;}.cls-20{fill:#e5dec7;}.cls-21{fill:#066e8e;}.cls-22{fill:#6d6d6d;}.cls-23{fill:#dbb556;}.cls-24{fill:#efca65;}.cls-25{fill:#222813;}.cls-26{fill:#384420;}.cls-27{fill:#3d3b38;}.cls-28{fill:#070707;}.cls-29{fill:#e2bb5a;}.cls-30{fill:#c9a450;}.cls-31{fill:#1c8b58;}.cls-32{fill:#6d4030;}.cls-33{fill:#177747;}.cls-34{fill:#2f560c;}.cls-35,.cls-36{fill:#f9877b;}.cls-36{opacity:0.3;mix-blend-mode:multiply;}</style></defs><title>nr</title><g class="cls-1"><g id="Layer_2" data-name="Layer 2"><g id="Layer_3" data-name="Layer 3"><g id="nr"><rect class="cls-2" x="148.39" width="1107.59" height="1080.35"/><path class="cls-3" d="M522.6,687.82a19.88,19.88,0,0,0-22.33,0L148.39,938.86v140.38H969v-71.11Z"/><path class="cls-4" d="M522.6,687.82a19.88,19.88,0,0,0-22.33,0L374.73,777.37c179.08,11.93,289.76,142.52,289.76,301.87H969v-71.11Z"/><path class="cls-3" d="M1069.12,781.93,842.78,943.41V1083.8h409.27V850.32C1204.53,811.69,1142.58,786.82,1069.12,781.93Z"/><polygon class="cls-4" points="1069.12 781.93 1069.12 781.93 1194.67 692.35 1069.12 781.93"/><path class="cls-4" d="M1252.05,717.53l-35-25.15a19.86,19.86,0,0,0-22.33,0l-125.55,89.58c73.46,4.89,135.41,29.76,182.93,68.39Z"/><path class="cls-5" d="M1255.65,890.17,802.33,590.71c-8.76-5.78-21.82-5.79-30.59,0L0,1084.49H1255.65Z"/><path class="cls-6" d="M802.33,590.71c-8.76-5.78-21.82-5.79-30.59,0L624,685.78S976.46,793,1025.07,1084.49h230.58V890.17Z"/><path class="cls-7" d="M90.67,1083.35S266.28,950.21,530.26,961.68s368.43-44.76,368.43-44.76,291.53,1.15,357,60.83v106.74Z"/><polyline class="cls-8" points="802.57 497.38 803.37 453.6 803.48 448.81 799.04 448.47 802.68 451.78 806.45 454.63 796.98 459.87 805.53 467.17 794.59 473.67 805.88 480.96 791.74 490.77 806.11 495.45 793.56 485.3 805.88 476.86 796.41 468.99 807.13 461.35 797.78 455.2 807.36 449.95 799.26 449.72 807.13 452.92 798.81 452.35 798.12 457.82 806.22 457.93 796.75 463.63 806.11 472.07 793.68 479.37 804.17 488.15 792.65 494.65"/><polygon class="cls-9" points="800.4 497.27 804.85 448.7 801.32 448.47 800.4 497.27"/><polygon class="cls-9" points="805.53 514.37 811.12 511.18 812.49 504.68 801.32 499.66 791.05 498.98 782.85 505.71 785.13 510.72 787.41 511.18 787.75 507.99 791.05 506.28 800.75 506.85 805.65 509.24 805.53 514.37"/><polygon class="cls-10" points="782.85 500.81 782.85 501.49 782.85 505.71 790.83 499.21 801.32 499.66 812.49 504.68 812.26 501.49 801.43 495.22 790.83 494.53 782.85 500.81"/><polygon class="cls-11" points="812.26 501.72 812.49 504.68 801.32 499.66 801.66 495.22 812.26 501.72"/><polygon class="cls-12" points="790.83 494.53 790.83 498.98 801.32 499.66 801.66 495.22 790.83 494.53"/><polygon class="cls-13" points="782.16 610.26 783.19 545.62 802.23 532.73 803.25 613.8 781.71 612.32 782.16 610.26"/><polygon class="cls-13" points="797.78 555.31 818.3 553.03 804.05 506.28 787.29 505.14 786.26 509.24 765.86 553.14 797.78 555.31"/><polygon class="cls-9" points="808.84 527.26 816.82 524.52 818.53 518.59 802.34 513.69 787.75 512.78 776.12 518.59 779.65 523.15 782.85 523.72 783.19 520.76 787.86 519.28 801.66 520.19 808.84 522.47 808.84 527.26"/><polygon class="cls-10" points="775.89 514.14 776 514.72 776.12 518.59 787.29 513 802.34 513.69 818.53 518.59 818.08 515.74 802.34 509.7 787.18 508.67 775.89 514.14"/><polygon class="cls-11" points="818.08 515.97 818.53 518.59 802.34 513.69 802.68 509.7 818.08 515.97"/><polygon class="cls-12" points="787.18 508.67 787.29 512.78 802.34 513.69 802.68 509.7 787.18 508.67"/><polygon class="cls-9" points="814.09 539.91 825.72 537.52 828 532.05 804.05 526.8 782.27 525.43 765.4 530.45 770.76 535.01 775.43 535.58 775.89 532.84 782.73 531.59 803.25 532.96 813.86 535.35 814.09 539.91"/><polygon class="cls-10" points="764.94 526.23 765.06 526.8 765.4 530.45 781.71 525.55 804.05 526.8 828 532.05 827.31 529.31 803.94 523.04 781.48 521.56 764.94 526.23"/><polygon class="cls-11" points="827.31 529.42 828 532.05 804.05 526.8 804.28 523.04 827.31 529.42"/><polygon class="cls-12" points="781.48 521.56 781.71 525.32 804.05 526.8 804.28 523.04 781.48 521.56"/><polygon class="cls-14" points="795.73 611.29 796.18 546.64 799.95 532.62 799.83 613.34 795.62 613.34 795.73 611.29"/><polygon class="cls-15" points="759.36 610.83 785.58 612.66 784.21 589.17 761.41 580.16 759.36 610.83"/><polygon class="cls-9" points="826.17 557.13 835.29 555.08 838.49 547.89 806.67 541.05 777.94 539.12 755.59 545.84 760.84 552.23 764.49 552.11 769.5 548.92 778.63 547.33 805.65 549.15 819.67 552.23 826.17 557.13"/><polygon class="cls-10" points="755.02 540.26 755.14 540.94 755.59 545.84 777.26 539.34 806.67 541.05 838.49 547.89 837.46 544.25 806.56 535.92 776.8 533.99 755.02 540.26"/><polygon class="cls-11" points="837.46 544.47 838.49 547.89 806.67 541.05 807.02 535.92 837.46 544.47"/><polygon class="cls-12" points="776.8 533.99 777.26 539 806.67 541.05 807.02 535.92 776.8 533.99"/><polygon class="cls-16" points="764.6 550.06 761.41 580.16 784.21 589.17 783.53 544.13 764.6 550.06"/><polygon class="cls-17" points="802.23 610.15 803.25 545.39 826.17 551.77 823.21 615.05 801.43 613.68 802.23 610.15"/><polygon class="cls-9" points="825.49 580.16 844.64 576.4 848.52 567.28 808.96 558.73 773.15 556.33 745.33 564.66 754.11 572.18 761.87 573.21 762.66 568.65 773.95 566.59 807.7 568.76 825.15 572.75 825.49 580.16"/><polygon class="cls-10" points="744.53 557.7 744.65 558.61 745.33 564.66 772.24 556.56 808.96 558.73 848.52 567.28 847.38 562.72 808.73 552.46 771.78 549.95 744.53 557.7"/><polygon class="cls-11" points="847.38 563.06 848.52 567.28 808.96 558.73 809.41 552.46 847.38 563.06"/><polygon class="cls-12" points="771.78 549.95 772.24 556.33 808.96 558.73 809.41 552.46 771.78 549.95"/><polygon class="cls-10" points="798.69 428.52 797.89 441.17 800.63 441.4 801.32 429.88 800.63 426.58 798.69 428.52"/><polygon class="cls-18" points="800.97 417 799.38 418.37 798.58 429.77 800.18 428.29 801.32 429.88 802 418.82 800.97 417"/><polygon class="cls-18" points="797.89 439.92 796.75 458.05 800.63 457.48 800.63 440.03 799.49 438.78 797.89 439.92"/><polygon class="cls-10" points="790.83 496.02 794.59 449.5 798.69 446.53 804.85 448.7 798.92 448.36 790.83 496.02"/><polygon class="cls-19" points="634.69 907.62 633.2 903.25 632.74 902.57 632.97 900.04 663.39 900.5 663.39 902.45 662.81 903.02 662.13 906.93 655.47 906.7 656.04 902.68 655.24 902.8 654.66 906.35 654.66 906.81 653.75 906.81 654.43 902.8 652.48 902.68 651.57 906.81 651.11 906.7 651.68 902.68 649.73 902.8 648.93 906.7 648.47 906.7 648.81 902.91 646.98 903.02 646.17 907.04 645.71 906.7 646.29 903.25 643.99 902.91 643.19 906.7 642.73 906.7 643.19 903.14 641.12 903.14 640.32 907.5 639.86 907.04 640.55 903.02 639.51 903.02 638.71 907.39 634.69 907.62"/><polygon class="cls-20" points="622.18 906.24 676.82 906.12 674.52 984.86 622.53 984.98 622.18 906.24"/><polygon class="cls-21" points="628.73 913.13 632.63 912.67 632.51 916.8 628.84 916.68 628.84 913.47 628.73 913.13"/><polygon class="cls-21" points="628.84 920.01 628.96 923.68 632.63 923.57 632.74 919.67 628.84 920.01"/><polygon class="cls-21" points="629.41 942.51 633.2 942.39 632.97 946.3 629.3 945.95 629.41 942.85 629.41 942.51"/><polygon class="cls-21" points="629.07 949.16 628.96 952.72 632.63 952.84 633.09 949.05 629.07 949.16"/><polygon class="cls-21" points="629.41 927.47 633.2 927.24 632.97 931.61 629.41 931.26 629.41 927.82 629.41 927.47"/><polygon class="cls-21" points="629.18 934.82 629.18 938.72 632.74 938.72 633.09 934.59 629.18 934.82"/><polygon class="cls-21" points="629.18 956.86 629.3 960.53 632.97 960.41 633.09 956.63 629.18 956.86"/><polygon class="cls-21" points="629.76 964.43 633.43 964.09 633.32 968.45 629.64 968.1 629.76 964.77 629.76 964.43"/><polygon class="cls-21" points="629.53 971.66 629.53 975.56 633.09 975.56 633.43 971.55 629.53 971.66"/><polygon class="cls-21" points="637.22 913.13 641.01 912.67 641.01 916.8 637.33 916.68 637.22 913.47 637.22 913.13"/><polygon class="cls-21" points="637.22 920.01 637.33 923.68 641.01 923.57 641.24 919.67 637.22 920.01"/><polygon class="cls-21" points="637.79 942.51 641.7 942.39 641.35 946.3 637.79 945.95 637.79 942.85 637.79 942.51"/><polygon class="cls-21" points="637.56 949.16 637.45 952.72 641.01 952.84 641.47 949.05 637.56 949.16"/><polygon class="cls-21" points="637.79 927.47 641.58 927.24 641.35 931.61 637.79 931.26 637.79 927.82 637.79 927.47"/><polygon class="cls-21" points="637.56 934.82 637.56 938.72 641.24 938.72 641.58 934.59 637.56 934.82"/><polygon class="cls-21" points="637.56 956.86 637.68 960.53 641.35 960.41 641.58 956.63 637.56 956.86"/><polygon class="cls-21" points="638.14 964.43 641.92 964.09 641.7 968.45 638.14 968.1 638.14 964.77 638.14 964.43"/><polygon class="cls-21" points="637.91 971.66 637.91 975.56 641.47 975.56 641.81 971.55 637.91 971.66"/><polygon class="cls-21" points="646.29 912.55 650.07 912.09 650.07 916.23 646.4 916 646.29 912.78 646.29 912.55"/><polygon class="cls-21" points="646.29 919.32 646.4 923 650.07 922.88 650.3 919.09 646.29 919.32"/><polygon class="cls-21" points="646.86 941.93 650.76 941.71 650.42 945.72 646.86 945.26 646.86 942.16 646.86 941.93"/><polygon class="cls-21" points="646.51 948.48 646.51 952.03 650.07 952.15 650.53 948.48 646.51 948.48"/><polygon class="cls-21" points="646.86 926.9 650.65 926.55 650.42 930.92 646.86 930.57 646.86 927.24 646.86 926.9"/><polygon class="cls-21" points="646.63 934.13 646.63 938.03 650.3 938.03 650.65 934.01 646.63 934.13"/><polygon class="cls-21" points="646.63 956.28 646.75 959.84 650.42 959.73 650.65 955.94 646.63 956.28"/><polygon class="cls-21" points="647.2 963.74 650.99 963.4 650.76 967.87 647.2 967.53 647.2 964.09 647.2 963.74"/><polygon class="cls-21" points="646.98 971.09 646.98 974.99 650.53 974.99 650.88 970.86 646.98 971.09"/><polygon class="cls-21" points="655.47 913.13 659.25 912.67 659.25 916.8 655.58 916.68 655.47 913.47 655.47 913.13"/><polygon class="cls-21" points="655.58 920.01 655.7 923.68 659.37 923.57 659.49 919.67 655.58 920.01"/><polygon class="cls-21" points="656.16 942.51 659.94 942.39 659.72 946.3 656.04 945.95 656.16 942.85 656.16 942.51"/><polygon class="cls-21" points="655.81 949.16 655.7 952.72 659.37 952.84 659.72 949.05 655.81 949.16"/><polygon class="cls-21" points="656.16 927.47 659.94 927.24 659.72 931.61 656.04 931.26 656.16 927.82 656.16 927.47"/><polygon class="cls-21" points="655.93 934.82 655.93 938.72 659.49 938.72 659.83 934.59 655.93 934.82"/><polygon class="cls-21" points="655.81 956.86 655.93 960.53 659.6 960.41 659.83 956.63 655.81 956.86"/><polygon class="cls-21" points="656.5 964.43 660.17 964.09 660.06 968.45 656.39 968.1 656.39 964.77 656.5 964.43"/><polygon class="cls-21" points="656.27 971.66 656.16 975.56 659.83 975.56 660.17 971.55 656.27 971.66"/><polygon class="cls-21" points="664.42 914.62 668.21 914.16 668.21 918.29 664.53 918.06 664.42 914.85 664.42 914.62"/><polygon class="cls-21" points="664.42 921.39 664.53 925.06 668.21 924.95 668.44 921.16 664.42 921.39"/><polygon class="cls-21" points="664.99 944 668.9 943.77 668.55 947.79 664.99 947.33 664.99 944.23 664.99 944"/><polygon class="cls-21" points="664.65 950.54 664.65 954.1 668.21 954.22 668.67 950.54 664.65 950.54"/><polygon class="cls-21" points="664.99 928.97 668.78 928.62 668.55 932.98 664.99 932.64 664.99 929.31 664.99 928.97"/><polygon class="cls-21" points="664.76 936.2 664.76 940.1 668.44 940.1 668.78 936.08 664.76 936.2"/><polygon class="cls-21" points="664.76 958.35 664.88 961.9 668.55 961.79 668.78 958 664.76 958.35"/><polygon class="cls-21" points="665.34 965.81 669.13 965.46 668.9 969.94 665.34 969.6 665.34 966.15 665.34 965.81"/><polygon class="cls-21" points="665.11 973.15 665.11 977.06 668.67 977.06 669.01 972.92 665.11 973.15"/><rect class="cls-19" x="640.66" y="977.06" width="14.92" height="7.8"/><polygon class="cls-19" points="533.69 905.32 532.2 900.96 531.74 900.27 531.97 897.75 562.38 898.21 562.38 900.16 561.81 900.73 561.12 904.63 554.47 904.4 555.04 900.39 554.24 900.5 553.66 904.06 553.66 904.52 552.74 904.52 553.43 900.5 551.48 900.39 550.56 904.52 550.1 904.4 550.68 900.39 548.73 900.5 547.92 904.4 547.46 904.4 547.81 900.62 545.97 900.73 545.17 904.75 544.71 904.4 545.28 900.96 542.99 900.62 542.18 904.4 541.73 904.4 542.18 900.85 540.12 900.85 539.32 905.21 538.86 904.75 539.54 900.73 538.51 900.73 537.71 905.09 533.69 905.32"/><polygon class="cls-20" points="521.18 903.94 575.81 903.83 573.52 982.57 521.52 982.68 521.18 903.94"/><polygon class="cls-21" points="527.72 910.83 531.63 910.37 531.51 914.5 527.84 914.39 527.84 911.17 527.72 910.83"/><polygon class="cls-21" points="527.84 917.72 527.95 921.39 531.63 921.27 531.74 917.37 527.84 917.72"/><polygon class="cls-21" points="528.41 940.21 532.2 940.1 531.97 944 528.3 943.66 528.41 940.56 528.41 940.21"/><polygon class="cls-21" points="528.07 946.87 527.95 950.43 531.63 950.54 532.08 946.75 528.07 946.87"/><polygon class="cls-21" points="528.41 925.18 532.2 924.95 531.97 929.31 528.41 928.97 528.41 925.52 528.41 925.18"/><polygon class="cls-21" points="528.18 932.52 528.18 936.42 531.74 936.42 532.08 932.29 528.18 932.52"/><polygon class="cls-21" points="528.18 954.56 528.3 958.23 531.97 958.12 532.08 954.33 528.18 954.56"/><polygon class="cls-21" points="528.76 962.13 532.43 961.79 532.31 966.15 528.64 965.81 528.76 962.48 528.76 962.13"/><polygon class="cls-21" points="528.53 969.37 528.53 973.27 532.08 973.27 532.43 969.25 528.53 969.37"/><polygon class="cls-21" points="536.22 910.83 540 910.37 540 914.5 536.33 914.39 536.22 911.17 536.22 910.83"/><polygon class="cls-21" points="536.22 917.72 536.33 921.39 540 921.27 540.23 917.37 536.22 917.72"/><polygon class="cls-21" points="536.79 940.21 540.69 940.1 540.35 944 536.79 943.66 536.79 940.56 536.79 940.21"/><polygon class="cls-21" points="536.56 946.87 536.45 950.43 540 950.54 540.46 946.75 536.56 946.87"/><polygon class="cls-21" points="536.79 925.18 540.58 924.95 540.35 929.31 536.79 928.97 536.79 925.52 536.79 925.18"/><polygon class="cls-21" points="536.56 932.52 536.56 936.42 540.23 936.42 540.58 932.29 536.56 932.52"/><polygon class="cls-21" points="536.56 954.56 536.67 958.23 540.35 958.12 540.58 954.33 536.56 954.56"/><polygon class="cls-21" points="537.13 962.13 540.92 961.79 540.69 966.15 537.13 965.81 537.13 962.48 537.13 962.13"/><polygon class="cls-21" points="536.9 969.37 536.9 973.27 540.46 973.27 540.81 969.25 536.9 969.37"/><polygon class="cls-21" points="545.28 910.26 549.07 909.8 549.07 913.93 545.4 913.7 545.28 910.49 545.28 910.26"/><polygon class="cls-21" points="545.28 917.03 545.4 920.7 549.07 920.59 549.3 916.8 545.28 917.03"/><polygon class="cls-21" points="545.86 939.64 549.76 939.41 549.41 943.43 545.86 942.97 545.86 939.87 545.86 939.64"/><polygon class="cls-21" points="545.51 946.18 545.51 949.74 549.07 949.85 549.53 946.18 545.51 946.18"/><polygon class="cls-21" points="545.86 924.6 549.64 924.26 549.41 928.62 545.86 928.28 545.86 924.95 545.86 924.6"/><polygon class="cls-21" points="545.63 931.83 545.63 935.74 549.3 935.74 549.64 931.72 545.63 931.83"/><polygon class="cls-21" points="545.63 953.99 545.74 957.54 549.41 957.43 549.64 953.64 545.63 953.99"/><polygon class="cls-21" points="546.2 961.45 549.99 961.1 549.76 965.58 546.2 965.23 546.2 961.79 546.2 961.45"/><polygon class="cls-21" points="545.97 968.79 545.97 972.69 549.53 972.69 549.87 968.56 545.97 968.79"/><polygon class="cls-21" points="554.47 910.83 558.25 910.37 558.25 914.5 554.58 914.39 554.47 911.17 554.47 910.83"/><polygon class="cls-21" points="554.58 917.72 554.7 921.39 558.37 921.27 558.48 917.37 554.58 917.72"/><polygon class="cls-21" points="555.15 940.21 558.94 940.1 558.71 944 555.04 943.66 555.15 940.56 555.15 940.21"/><polygon class="cls-21" points="554.81 946.87 554.7 950.43 558.37 950.54 558.71 946.75 554.81 946.87"/><polygon class="cls-21" points="555.15 925.18 558.94 924.95 558.71 929.31 555.04 928.97 555.15 925.52 555.15 925.18"/><polygon class="cls-21" points="554.92 932.52 554.92 936.42 558.48 936.42 558.83 932.29 554.92 932.52"/><polygon class="cls-21" points="554.81 954.56 554.92 958.23 558.6 958.12 558.83 954.33 554.81 954.56"/><polygon class="cls-21" points="555.5 962.13 559.17 961.79 559.06 966.15 555.38 965.81 555.38 962.48 555.5 962.13"/><polygon class="cls-21" points="555.27 969.37 555.15 973.27 558.83 973.27 559.17 969.25 555.27 969.37"/><polygon class="cls-21" points="563.42 912.32 567.21 911.86 567.21 916 563.53 915.77 563.42 912.55 563.42 912.32"/><polygon class="cls-21" points="563.42 919.09 563.53 922.77 567.21 922.65 567.43 918.87 563.42 919.09"/><polygon class="cls-21" points="563.99 941.71 567.89 941.48 567.55 945.49 563.99 945.03 563.99 941.93 563.99 941.71"/><polygon class="cls-21" points="563.65 948.25 563.65 951.8 567.21 951.92 567.66 948.25 563.65 948.25"/><polygon class="cls-21" points="563.99 926.67 567.78 926.33 567.55 930.69 563.99 930.34 563.99 927.01 563.99 926.67"/><polygon class="cls-21" points="563.76 933.9 563.76 937.8 567.43 937.8 567.78 933.78 563.76 933.9"/><polygon class="cls-21" points="563.76 956.05 563.88 959.61 567.55 959.5 567.78 955.71 563.76 956.05"/><polygon class="cls-21" points="564.34 963.51 568.12 963.17 567.89 967.64 564.34 967.3 564.34 963.86 564.34 963.51"/><polygon class="cls-21" points="564.11 970.86 564.11 974.76 567.66 974.76 568.01 970.63 564.11 970.86"/><rect class="cls-19" x="539.66" y="974.76" width="14.92" height="7.8"/><polygon class="cls-19" points="441.87 901.88 440.38 897.52 439.92 896.83 440.15 894.3 470.56 894.76 470.56 896.71 469.99 897.29 469.3 901.19 462.64 900.96 463.22 896.94 462.42 897.06 461.84 900.62 461.84 901.07 460.92 901.07 461.61 897.06 459.66 896.94 458.74 901.07 458.28 900.96 458.86 896.94 456.91 897.06 456.1 900.96 455.64 900.96 455.99 897.17 454.15 897.29 453.35 901.3 452.89 900.96 453.46 897.52 451.17 897.17 450.36 900.96 449.9 900.96 450.36 897.4 448.3 897.4 447.49 901.76 447.04 901.3 447.72 897.29 446.69 897.29 445.89 901.65 441.87 901.88"/><polygon class="cls-20" points="429.36 900.5 483.99 900.39 481.7 979.12 429.7 979.24 429.36 900.5"/><polygon class="cls-21" points="435.9 907.39 439.8 906.93 439.69 911.06 436.02 910.95 436.02 907.73 435.9 907.39"/><polygon class="cls-21" points="436.02 914.27 436.13 917.95 439.8 917.83 439.92 913.93 436.02 914.27"/><polygon class="cls-21" points="436.59 936.77 440.38 936.65 440.15 940.56 436.48 940.21 436.59 937.11 436.59 936.77"/><polygon class="cls-21" points="436.25 943.43 436.13 946.99 439.8 947.1 440.26 943.31 436.25 943.43"/><polygon class="cls-21" points="436.59 921.73 440.38 921.5 440.15 925.87 436.59 925.52 436.59 922.08 436.59 921.73"/><polygon class="cls-21" points="436.36 929.08 436.36 932.98 439.92 932.98 440.26 928.85 436.36 929.08"/><polygon class="cls-21" points="436.36 951.12 436.48 954.79 440.15 954.67 440.26 950.89 436.36 951.12"/><polygon class="cls-21" points="436.94 958.69 440.61 958.35 440.49 962.71 436.82 962.37 436.94 959.04 436.94 958.69"/><polygon class="cls-21" points="436.7 965.92 436.7 969.83 440.26 969.83 440.61 965.81 436.7 965.92"/><polygon class="cls-21" points="444.39 907.39 448.18 906.93 448.18 911.06 444.51 910.95 444.39 907.73 444.39 907.39"/><polygon class="cls-21" points="444.39 914.27 444.51 917.95 448.18 917.83 448.41 913.93 444.39 914.27"/><polygon class="cls-21" points="444.97 936.77 448.87 936.65 448.53 940.56 444.97 940.21 444.97 937.11 444.97 936.77"/><polygon class="cls-21" points="444.74 943.43 444.63 946.99 448.18 947.1 448.64 943.31 444.74 943.43"/><polygon class="cls-21" points="444.97 921.73 448.76 921.5 448.53 925.87 444.97 925.52 444.97 922.08 444.97 921.73"/><polygon class="cls-21" points="444.74 929.08 444.74 932.98 448.41 932.98 448.76 928.85 444.74 929.08"/><polygon class="cls-21" points="444.74 951.12 444.85 954.79 448.53 954.67 448.76 950.89 444.74 951.12"/><polygon class="cls-21" points="445.31 958.69 449.1 958.35 448.87 962.71 445.31 962.37 445.31 959.04 445.31 958.69"/><polygon class="cls-21" points="445.08 965.92 445.08 969.83 448.64 969.83 448.99 965.81 445.08 965.92"/><polygon class="cls-21" points="453.46 906.81 457.25 906.35 457.25 910.49 453.58 910.26 453.46 907.04 453.46 906.81"/><polygon class="cls-21" points="453.46 913.59 453.58 917.26 457.25 917.14 457.48 913.36 453.46 913.59"/><polygon class="cls-21" points="454.04 936.2 457.94 935.97 457.6 939.98 454.04 939.52 454.04 936.42 454.04 936.2"/><polygon class="cls-21" points="453.69 942.74 453.69 946.3 457.25 946.41 457.71 942.74 453.69 942.74"/><polygon class="cls-21" points="454.04 921.16 457.82 920.82 457.6 925.18 454.04 924.83 454.04 921.5 454.04 921.16"/><polygon class="cls-21" points="453.81 928.39 453.81 932.29 457.48 932.29 457.82 928.28 453.81 928.39"/><polygon class="cls-21" points="453.81 950.54 453.92 954.1 457.6 953.99 457.82 950.2 453.81 950.54"/><polygon class="cls-21" points="454.38 958 458.17 957.66 457.94 962.13 454.38 961.79 454.38 958.35 454.38 958"/><polygon class="cls-21" points="454.15 965.35 454.15 969.25 457.71 969.25 458.05 965.12 454.15 965.35"/><polygon class="cls-21" points="462.64 907.39 466.43 906.93 466.43 911.06 462.76 910.95 462.64 907.73 462.64 907.39"/><polygon class="cls-21" points="462.76 914.27 462.87 917.95 466.55 917.83 466.66 913.93 462.76 914.27"/><polygon class="cls-21" points="463.33 936.77 467.12 936.65 466.89 940.56 463.22 940.21 463.33 937.11 463.33 936.77"/><polygon class="cls-21" points="462.99 943.43 462.87 946.99 466.55 947.1 466.89 943.31 462.99 943.43"/><polygon class="cls-21" points="463.33 921.73 467.12 921.5 466.89 925.87 463.22 925.52 463.33 922.08 463.33 921.73"/><polygon class="cls-21" points="463.1 929.08 463.1 932.98 466.66 932.98 467.01 928.85 463.1 929.08"/><polygon class="cls-21" points="462.99 951.12 463.1 954.79 466.78 954.67 467.01 950.89 462.99 951.12"/><polygon class="cls-21" points="463.68 958.69 467.35 958.35 467.24 962.71 463.56 962.37 463.56 959.04 463.68 958.69"/><polygon class="cls-21" points="463.45 965.92 463.33 969.83 467.01 969.83 467.35 965.81 463.45 965.92"/><polygon class="cls-21" points="471.6 908.88 475.38 908.42 475.38 912.55 471.71 912.32 471.6 909.11 471.6 908.88"/><polygon class="cls-21" points="471.6 915.65 471.71 919.32 475.38 919.21 475.61 915.42 471.6 915.65"/><polygon class="cls-21" points="472.17 938.26 476.07 938.03 475.73 942.05 472.17 941.59 472.17 938.49 472.17 938.26"/><polygon class="cls-21" points="471.83 944.8 471.83 948.36 475.38 948.48 475.84 944.8 471.83 944.8"/><polygon class="cls-21" points="472.17 923.23 475.96 922.88 475.73 927.24 472.17 926.9 472.17 923.57 472.17 923.23"/><polygon class="cls-21" points="471.94 930.46 471.94 934.36 475.61 934.36 475.96 930.34 471.94 930.46"/><polygon class="cls-21" points="471.94 952.61 472.06 956.17 475.73 956.05 475.96 952.26 471.94 952.61"/><polygon class="cls-21" points="472.51 960.07 476.3 959.73 476.07 964.2 472.51 963.86 472.51 960.41 472.51 960.07"/><polygon class="cls-21" points="472.29 967.41 472.29 971.32 475.84 971.32 476.19 967.18 472.29 967.41"/><rect class="cls-19" x="447.84" y="971.32" width="14.92" height="7.8"/><path class="cls-22" d="M271,926s22.65,31.94,44.32,36.48c14.73,3,49.15-37.06,49.15-37.06s-6.94,10.48-6.44,16.45c.74,8.25,6.07,12.52,6.94,22.33.87,9.24,2.19,17.5,2.19,17.5.7.43-2.53,42.43-2.53,42.43l-44.07,2.7-42.6-.25-5.8-46.66,1-9.22Z"/><polygon class="cls-23" points="268.83 925.32 273.63 916.72 278.2 914.78 278.88 917.35 280.96 920.64 280.39 954.58 273.21 960.74 271.37 927.2 268.83 925.32"/><path class="cls-24" d="M303.09,956.29s-1.73-31.27-1.3-31.83,4.58-2.78,3.46-3.65-6.36-2.49-7.64-2.08.31-2,.31-2l-5.77-4.33-5.85,2.19-8.84,2.16s1.38,3.15,1.8,3.86,1,34.24,1,34.24Z"/><path class="cls-25" d="M284.39,874.67l-4.48,6.19a6,6,0,0,1,.11,2.56c-.3,1-3.3,2.66-2.47,4.37a13.46,13.46,0,0,1,1.77,5.85c.11,2.56-4.57,2.07-3.46,4.36s-6.34,6.73-4.67,9.74a21.05,21.05,0,0,0,4.19,5.16s-6.94,9.57-6.52,10.15a6.7,6.7,0,0,1,.12,2.27l2.58-2.38s.21-5.54,3.88-3.5l3.58-2.09,4.07-7.33s-4.35-4.46-2.87-8.84l1.6-3.39a9.2,9.2,0,0,1,1.49-4.95s-.24-3.84.49-5.25-.83-1.72.18-2.7-1.81-3-.79-5A29.7,29.7,0,0,0,284.39,874.67Z"/><path class="cls-26" d="M305,920l-7.23-1.37a8.88,8.88,0,0,0-5.77-3.77c-3.69-.47-5.16,3.2-5.16,3.2l-7.95-.39L281,910s-3.77-4.88.58-11.78c0,0-.1-3.55,1.19-4.24,0,0-.66-4.56.79-6.67,0,0-2.4-1.17-.1-3.55,0,0-1.69-1,.21-4.83l.92-5.24,3.88,7.15s2-.69,3.1,1.89-.89,3.25-.89,3.25l2.52,2.87s-2.19,4.66-.49,5.25a3.43,3.43,0,0,1,2.11,1.59s-1.3,1.4-.6,2-.32,3,1.1,3.28,9,3.38,4.16,8-.44.7-.44.7-2,.69-1,2S304.16,917.25,305,920Z"/><path class="cls-27" d="M288.53,951.42l7.52.09-.32-8.24s-.48-7-3.49-4.73-2.86,1.53-3.19,5.07C289,947,288.53,951.42,288.53,951.42Z"/><path class="cls-27" d="M275.12,955.65l1.58-1.4.1-7.81s-1.38-3.14-2,.68A34.69,34.69,0,0,0,275.12,955.65Z"/><ellipse class="cls-27" cx="292.11" cy="919.59" rx="2.84" ry="2.98" transform="translate(-28.38 9.5) rotate(-1.78)"/><ellipse class="cls-27" cx="273.6" cy="923.34" rx="0.71" ry="2.84" transform="translate(-28.51 8.93) rotate(-1.78)"/><path class="cls-28" d="M285.43,893.86l4.26-.09-.79-5.26s-1.51-4-2.54-.89A13.38,13.38,0,0,0,285.43,893.86Z"/><path class="cls-28" d="M280.46,893.65l.85-.27s1.19-4.25-.51-4.69C279.24,888.52,280.46,893.65,280.46,893.65Z"/><ellipse class="cls-26" cx="284.33" cy="872.63" rx="2.13" ry="1.99" transform="translate(-26.93 9.24) rotate(-1.78)"/><polygon class="cls-26" points="284.8 864.59 284.99 872.55 283.72 871.82 284.11 863.16 284.8 864.59"/><polygon class="cls-26" points="285.93 865.46 282.53 864.99 281.52 865.97 285.92 866.45 285.93 865.46"/><polygon class="cls-26" points="281.93 866.97 281.64 867.82 286.46 868.16 285.91 867.16 281.93 866.97"/><polygon class="cls-23" points="330.67 931.79 334.76 923.32 339.04 921.53 339.86 924.09 341.81 927.1 346.78 960.68 335.35 965.79 332.92 933.52 330.67 931.79"/><path class="cls-24" d="M363.25,960.89s-2.17-30-1.74-30.7,4.3-2.64,3.17-3.65-5.93-2.21-7.22-1.8c-1.14.42.31-2,.31-2l-5.48-4.19-5.43,2.06-8.26,2.31s1.38,3,1.8,3.72S342,959.48,342,959.48Z"/><path class="cls-25" d="M344.22,883l-3.91,5.92a5.42,5.42,0,0,1,.11,2.41c-.29,1-3,2.8-2.32,4.23a14.11,14.11,0,0,1,1.77,5.57c.11,2.41-4.14,2.07-3.18,4.36s-5.76,6.6-4.09,9.32a22.51,22.51,0,0,0,3.91,4.88s-6.22,9.15-5.95,9.72a5.92,5.92,0,0,1,.12,2.13l2.3-2.38s.07-5.4,3.45-3.37l3.3-2.08,3.64-7.06s-4.35-4.17-2.88-8.42L342,905a10.18,10.18,0,0,1,1.2-4.82s-.24-3.69.35-5.11-.69-1.57.17-2.55-1.66-2.86-.93-4.7A15.52,15.52,0,0,0,344.22,883Z"/><path class="cls-26" d="M364.41,925.83l-6.8-1.23a8.89,8.89,0,0,0-5.35-3.47c-3.41-.47-4.73,3.06-4.73,3.06l-7.38-.38,1.8-7.36s-3.64-4.59.28-11.36c0,0-.24-3.41,1-4.1,0,0-.65-4.41.65-6.39,0,0-2.26-1.16-.24-3.41,0,0-1.55-.87.06-4.54l.63-5,3.75,6.87s1.85-.69,3,1.74-.76,3.26-.76,3.26l2.38,2.73s-1.9,4.52-.34,5.11,2,1.44,2,1.44-1.16,1.27-.6,2-.18,2.84,1.1,3.14,8.48,3.09,4.16,7.72-.29.71-.29.71-1.86.69-.88,1.84C358.39,919.36,363.59,923.54,364.41,925.83Z"/><path class="cls-27" d="M349.53,956.46l7.1-.06-.32-7.95s-.63-6.54-3.35-4.59-2.72,1.39-2.76,4.94A66.94,66.94,0,0,1,349.53,956.46Z"/><path class="cls-27" d="M337.12,960.84l1.44-1.4-.05-7.67s-1.38-3-1.85.69A31.43,31.43,0,0,0,337.12,960.84Z"/><ellipse class="cls-27" cx="352.64" cy="925.97" rx="2.56" ry="2.84" transform="matrix(1, -0.05, 0.05, 1, -46.4, 19.03)"/><ellipse class="cls-27" cx="335.26" cy="929.72" rx="0.57" ry="2.7" transform="translate(-46.61 18.15) rotate(-2.9)"/><path class="cls-28" d="M345.41,901.3l4-.09-.94-5s-1.51-3.85-2.4-.74A17.43,17.43,0,0,0,345.41,901.3Z"/><path class="cls-28" d="M340.87,901.1l.85-.28s1-4.1-.51-4.4S340.87,901.1,340.87,901.1Z"/><ellipse class="cls-26" cx="344.4" cy="881.13" rx="1.99" ry="1.85" transform="translate(-44.14 18.55) rotate(-2.9)"/><polygon class="cls-26" points="344.35 873.16 344.68 880.7 343.55 880.11 343.65 872.02 344.35 873.16"/><polygon class="cls-26" points="345.33 874.03 342.21 873.7 341.35 874.54 345.32 875.02 345.33 874.03"/><polygon class="cls-26" points="341.62 875.54 341.46 876.53 346.15 876.6 345.45 875.73 341.62 875.54"/><path class="cls-24" d="M279,964.79l1.42,0,86.87,3.8s-3.55.1-1.89-7.12l-.7-1.29-23.57-.3s-6.67-.09-7.47-4.78a17.7,17.7,0,0,1,1.11-8.94s2-1.67,1.89-3.1.6-3-1.53-2.86-3.69-.19-3.69-.19l-2.25-1.87-5.35-3.48L318,937.45l-.58,1.41-6.55.77L309,940.88a12.7,12.7,0,0,1,1.67,2.3c.28.57,3.22,4.16,1.88,8.83-1.35,5.38-4.76,5.76-4.76,5.76l-4.11-.9-.69-1-22.71-1.57Z"/><polygon class="cls-29" points="280.89 971.35 280.1 977.02 312.76 978 325.77 971.35 341.84 980.64 367.11 981.68 365.51 973.42 367.83 969.61 278.98 964.79 280.89 971.35"/><ellipse class="cls-27" cx="289.04" cy="970.82" rx="2.41" ry="2.98" transform="translate(-29.97 9.43) rotate(-1.78)"/><ellipse class="cls-27" cx="303.8" cy="971.72" rx="2.27" ry="2.98" transform="translate(-29.99 9.89) rotate(-1.78)"/><ellipse class="cls-27" cx="343.82" cy="974.22" rx="2.13" ry="2.84" transform="translate(-30.05 11.13) rotate(-1.78)"/><ellipse class="cls-27" cx="358.73" cy="974.7" rx="2.13" ry="2.84" transform="translate(-30.06 11.59) rotate(-1.78)"/><polygon class="cls-24" points="279.4 976.58 281.41 986.26 284.29 1027.35 364.58 1024.11 368.04 986.52 371.23 981.73 366.53 982.24 341.83 981.35 325.77 971.35 313.03 978.57 279.4 976.58"/><polygon class="cls-23" points="280.39 954.58 272.22 960.73 273.33 962.3 271.95 970.1 279.27 964.22 280.39 954.58"/><polygon class="cls-30" points="270.24 970.78 278.98 964.79 282.88 971.37 280.4 976.31 271.95 981.46 271.64 972.22 270.24 970.78"/><polygon class="cls-23" points="279.39 977.43 268.51 984.25 273.14 988.43 277.91 1026.56 284.29 1027.35 281.41 986.26 279.39 977.43"/><path class="cls-27" d="M292.61,998.48l4.26,0-.08-4.54s-.38-4-2-2.72-1.72.83-1.89,2.81A39.19,39.19,0,0,1,292.61,998.48Z"/><path class="cls-27" d="M311,997.15l3.55.05-.23-3.84s-.25-3.27-1.68-2.44c-1.43,1-1.43.7-1.45,2.4A20.22,20.22,0,0,1,311,997.15Z"/><path class="cls-27" d="M342.06,996.7l3.27,0-.1-3.55s-.25-3-1.39-2-1.29.55-1.31,2.26C342.23,994.85,342.06,996.7,342.06,996.7Z"/><path class="cls-27" d="M358.69,995.91l2.55,0,0-2.84s-.25-2.42-1.26-1.72-1,.41-1.15,1.69A11,11,0,0,1,358.69,995.91Z"/><path class="cls-27" d="M319.25,1026.09l18.76-1-.72-10.8s-1.47-7.41-7.43-7.77-10.83,2.85-11.57,5.54C318,1014.85,319.25,1026.09,319.25,1026.09Z"/><path class="cls-31" d="M542,751.22a14.34,14.34,0,0,1,8.1,2.49,25.44,25.44,0,0,1,48.73-9.37,18.73,18.73,0,1,1,7.84,35.73H542a14.43,14.43,0,0,1,0-28.85Z"/><path class="cls-31" d="M828.9,847.25a10.38,10.38,0,0,1,5.87,1.81,18.46,18.46,0,0,1,35.36-6.8,13.58,13.58,0,1,1,5.68,25.92H828.9a10.47,10.47,0,0,1,0-20.93Z"/><path class="cls-31" d="M595.15,1010.29a7.3,7.3,0,0,1,4.12,1.27,12.94,12.94,0,0,1,24.79-4.77,9.52,9.52,0,1,1,4,18.17h-32.9a7.34,7.34,0,1,1,0-14.67Z"/><path class="cls-31" d="M803.4,636.18a6.84,6.84,0,0,1,3.89,1.2,12.21,12.21,0,0,1,23.39-4.5,8.88,8.88,0,0,1,3.76-.83,9,9,0,1,1,0,18h-31a6.92,6.92,0,0,1,0-13.84Z"/><path class="cls-31" d="M953,751a25.47,25.47,0,0,0-23.31,15.22,18.65,18.65,0,0,0-7.83-1.73"/><polygon class="cls-31" points="910.24 692.7 872.6 692.7 891.42 637.8 910.24 692.7"/><rect class="cls-32" x="888.98" y="692.7" width="4.88" height="15.49"/><path class="cls-33" d="M891.42,637.8,896,661a21.8,21.8,0,0,1-21.4,26h0l-2,5.74h37.64Z"/><polygon class="cls-31" points="502.82 800.55 465.17 800.55 483.99 745.65 502.82 800.55"/><rect class="cls-32" x="481.55" y="800.55" width="4.88" height="15.49"/><path class="cls-33" d="M484,745.65l4.54,23.16a21.8,21.8,0,0,1-21.39,26h0l-2,5.74h37.65Z"/><polygon class="cls-31" points="267.53 1028.65 229.88 1028.65 248.7 973.75 267.53 1028.65"/><rect class="cls-32" x="246.26" y="1028.65" width="4.88" height="15.49"/><path class="cls-33" d="M248.7,973.75l4.54,23.16a21.8,21.8,0,0,1-21.39,26h0l-2,5.74h37.65Z"/><polygon class="cls-31" points="758.66 804.83 721.02 804.83 739.84 749.93 758.66 804.83"/><rect class="cls-32" x="737.4" y="804.83" width="4.88" height="15.49"/><path class="cls-33" d="M739.84,749.93l4.54,23.16a21.8,21.8,0,0,1-21.39,26h0l-2,5.74h37.64Z"/><polygon class="cls-31" points="732.21 985.1 698.59 985.1 715.4 936.08 732.21 985.1"/><rect class="cls-32" x="713.22" y="985.1" width="4.36" height="13.83"/><path class="cls-33" d="M715.4,936.08l4.05,20.68A19.47,19.47,0,0,1,700.35,980h0l-1.76,5.12H732.2Z"/><polygon class="cls-34" points="566.4 858.26 568.34 877.9 574.56 877.9 576.51 854.76 566.4 858.26"/><polygon class="cls-33" points="572.81 808.28 555.31 833.37 588.18 833.37 572.81 808.28"/><polygon class="cls-33" points="568.34 824.81 555.12 849.7 588.18 848.34 576.7 825.78 568.34 824.81"/><polyline class="cls-33" points="566.78 841.73 579.04 839.01 591.1 864.48 551.81 864.48 565.81 841.73"/><polygon class="cls-33" points="623.57 809.06 606.07 834.34 639.13 834.34 623.57 809.06"/><polygon class="cls-33" points="619.1 825.59 606.07 850.48 638.94 849.31 627.66 826.56 619.1 825.59"/><polygon class="cls-34" points="617.15 859.04 619.1 878.68 625.52 878.68 627.27 855.54 617.15 859.04"/><polyline class="cls-33" points="616.57 842.7 602.57 865.46 642.05 865.46 629.99 839.98 617.74 842.7"/><polygon class="cls-33" points="673.55 804.78 656.05 830.06 688.92 830.06 673.55 804.78"/><polygon class="cls-33" points="669.08 821.31 655.86 846.2 688.92 845.03 677.64 822.28 669.08 821.31"/><polygon class="cls-34" points="667.14 854.76 669.08 874.4 675.5 874.4 677.25 851.26 667.14 854.76"/><polyline class="cls-33" points="666.55 838.42 652.55 861.18 691.84 861.18 679.78 835.7 667.72 838.42"/><polyline class="cls-31" points="572.47 808.67 555.31 833.37 563.89 833.37 555.12 849.7 560.9 849.7 551.81 864.48 568.94 864.48 567.02 855.57 570.17 841.79 566.93 828.82 572.47 808.67"/><polyline class="cls-31" points="623.29 809.42 606.13 834.12 614.71 834.12 605.94 850.45 611.73 850.45 602.63 865.23 619.76 865.23 617.84 856.32 621 842.54 617.76 829.57 623.29 809.42"/><polyline class="cls-31" points="673.28 805.79 656.12 830.49 664.69 830.49 655.92 846.83 661.71 846.83 652.62 861.61 669.75 861.61 667.83 852.7 670.98 838.91 667.74 825.94 673.28 805.79"/><polygon class="cls-34" points="416.4 1012.03 418.34 1031.67 424.57 1031.67 426.51 1008.53 416.4 1012.03"/><polygon class="cls-33" points="422.82 962.04 405.31 987.13 438.18 987.13 422.82 962.04"/><polygon class="cls-33" points="418.34 978.58 405.12 1003.47 438.18 1002.11 426.71 979.55 418.34 978.58"/><polyline class="cls-33" points="416.79 995.5 429.04 992.77 441.1 1018.25 401.81 1018.25 415.82 995.5"/><polygon class="cls-33" points="473.58 962.82 456.07 988.11 489.14 988.11 473.58 962.82"/><polygon class="cls-33" points="469.1 979.35 456.07 1004.25 488.94 1003.08 477.66 980.33 469.1 979.35"/><polygon class="cls-34" points="467.16 1012.8 469.1 1032.45 475.52 1032.45 477.27 1009.3 467.16 1012.8"/><polyline class="cls-33" points="466.58 996.47 452.57 1019.22 492.05 1019.22 480 993.75 467.74 996.47"/><polygon class="cls-33" points="523.56 958.54 506.06 983.83 538.92 983.83 523.56 958.54"/><polygon class="cls-33" points="519.09 975.08 505.86 999.97 538.92 998.8 527.64 976.05 519.09 975.08"/><polygon class="cls-34" points="517.14 1008.53 519.09 1028.17 525.5 1028.17 527.25 1005.02 517.14 1008.53"/><polyline class="cls-33" points="516.56 992.19 502.56 1014.94 541.84 1014.94 529.78 989.47 517.72 992.19"/><polyline class="cls-31" points="422.47 962.43 405.31 987.13 413.89 987.13 405.12 1003.47 410.91 1003.47 401.81 1018.25 418.94 1018.25 417.02 1009.34 420.18 995.55 416.94 982.58 422.47 962.43"/><polyline class="cls-31" points="473.3 963.18 456.14 987.88 464.72 987.88 455.94 1004.22 461.74 1004.22 452.64 1019 469.77 1019 467.85 1010.09 471 996.3 467.76 983.33 473.3 963.18"/><polyline class="cls-31" points="523.28 959.56 506.12 984.26 514.7 984.26 505.93 1000.6 511.72 1000.6 502.62 1015.38 519.75 1015.38 517.83 1006.47 520.99 992.68 517.74 979.71 523.28 959.56"/><polygon class="cls-34" points="877.81 776.28 879.75 795.92 885.98 795.92 887.92 772.78 877.81 776.28"/><polygon class="cls-33" points="884.23 726.3 866.72 751.38 899.59 751.38 884.23 726.3"/><polygon class="cls-33" points="879.75 742.83 866.53 767.72 899.59 766.36 888.12 743.8 879.75 742.83"/><polyline class="cls-33" points="878.2 759.75 890.45 757.02 902.51 782.5 863.22 782.5 877.22 759.75"/><polygon class="cls-33" points="934.99 727.08 917.48 752.36 950.54 752.36 934.99 727.08"/><polygon class="cls-33" points="930.51 743.61 917.48 768.5 950.35 767.33 939.07 744.58 930.51 743.61"/><polygon class="cls-34" points="928.57 777.06 930.51 796.7 936.93 796.7 938.68 773.56 928.57 777.06"/><polyline class="cls-33" points="927.98 760.72 913.98 783.47 953.46 783.47 941.4 758 929.15 760.72"/><polygon class="cls-33" points="984.97 722.8 967.46 748.08 1000.33 748.08 984.97 722.8"/><polygon class="cls-33" points="980.49 739.33 967.27 764.22 1000.33 763.05 989.05 740.3 980.49 739.33"/><polygon class="cls-34" points="978.55 772.78 980.49 792.42 986.91 792.42 988.66 769.28 978.55 772.78"/><polyline class="cls-33" points="977.97 756.44 963.96 779.2 1003.25 779.2 991.19 753.72 979.13 756.44"/><polyline class="cls-31" points="883.88 726.69 866.72 751.38 875.3 751.38 866.53 767.72 872.32 767.72 863.22 782.5 880.35 782.5 878.43 773.59 881.59 759.81 878.35 746.84 883.88 726.69"/><polyline class="cls-31" points="934.71 727.43 917.55 752.13 926.13 752.13 917.35 768.47 923.14 768.47 914.05 783.25 931.18 783.25 929.26 774.34 932.41 760.56 929.17 747.58 934.71 727.43"/><polyline class="cls-31" points="984.69 723.81 967.53 748.51 976.11 748.51 967.34 764.85 973.12 764.85 964.03 779.63 981.16 779.63 979.24 770.72 982.39 756.93 979.15 743.96 984.69 723.81"/><polygon class="cls-34" points="676.66 710.13 678.22 725.9 683.22 725.9 684.78 707.32 676.66 710.13"/><polygon class="cls-33" points="681.81 669.99 667.75 690.14 694.15 690.14 681.81 669.99"/><polygon class="cls-33" points="678.22 683.27 667.6 703.26 694.15 702.16 684.93 684.05 678.22 683.27"/><polyline class="cls-33" points="676.97 696.85 686.81 694.67 696.49 715.13 664.94 715.13 676.19 696.85"/><polygon class="cls-33" points="722.57 670.62 708.51 690.92 735.06 690.92 722.57 670.62"/><polygon class="cls-33" points="718.98 683.89 708.51 703.88 734.9 702.94 725.85 684.67 718.98 683.89"/><polygon class="cls-34" points="717.41 710.75 718.98 726.52 724.13 726.52 725.54 707.94 717.41 710.75"/><polyline class="cls-33" points="716.95 697.63 705.7 715.91 737.4 715.91 727.72 695.45 717.88 697.63"/><polygon class="cls-33" points="762.7 667.18 748.65 687.48 775.04 687.48 762.7 667.18"/><polygon class="cls-33" points="759.11 680.46 748.49 700.45 775.04 699.51 765.98 681.24 759.11 680.46"/><polygon class="cls-34" points="757.55 707.32 759.11 723.09 764.26 723.09 765.67 704.51 757.55 707.32"/><polyline class="cls-33" points="757.08 694.2 745.84 712.47 777.38 712.47 767.7 692.01 758.02 694.2"/><polyline class="cls-31" points="681.53 670.31 667.75 690.14 674.64 690.14 667.6 703.26 672.25 703.26 664.94 715.13 678.7 715.13 677.16 707.97 679.69 696.9 677.09 686.49 681.53 670.31"/><polyline class="cls-31" points="722.35 670.91 708.57 690.74 715.45 690.74 708.41 703.86 713.06 703.86 705.76 715.73 719.51 715.73 717.97 708.57 720.5 697.5 717.9 687.09 722.35 670.91"/><polyline class="cls-31" points="762.48 668 748.7 687.83 755.59 687.83 748.54 700.95 753.19 700.95 745.89 712.82 759.64 712.82 758.1 705.66 760.63 694.59 758.03 684.18 762.48 668"/><polygon class="cls-35" points="679.23 906.58 619.18 906.58 649.2 893.11 679.23 906.58"/><path class="cls-36" d="M619.18,906.58l22.19-10c-10.41,4.84-10,9.37,7.83,9.37,18.5,0,24.93-1.7,20-3.89l10,4.48Z"/><polygon class="cls-35" points="579.1 904.51 519.05 904.51 549.07 891.05 579.1 904.51"/><path class="cls-36" d="M519.05,904.52l22.19-10c-10.41,4.84-10,9.36,7.83,9.36,18.5,0,24.93-1.69,20-3.89l10,4.49Z"/><polygon class="cls-35" points="486.7 900.59 426.65 900.59 456.68 887.13 486.7 900.59"/><path class="cls-36" d="M426.65,900.59l22.2-10c-10.42,4.83-10,9.36,7.83,9.36,18.5,0,24.92-1.7,20-3.89l10,4.48Z"/></g></g></g></g></svg>