<svg xmlns="http://www.w3.org/2000/svg" viewBox="0 0 62.34 35.6"><defs><style>.cls-1{fill:#fff;}.cls-2{fill:#f7f7f7;}</style></defs><title>oblak</title><g id="Layer_2" data-name="Layer 2"><g id="Layer_4" data-name="Layer 4"><path class="cls-1" d="M50.82,12.55H45.08a14,14,0,0,0-27.81,0H11.52a11.53,11.53,0,0,0,0,23.05h39.3a11.53,11.53,0,0,0,0-23Z"/><path class="cls-2" d="M57.46,14.68a11.39,11.39,0,0,1,.88,4.42A11.55,11.55,0,0,1,46.82,30.62H7.52A11.39,11.39,0,0,1,.89,28.49,11.56,11.56,0,0,0,11.52,35.6h39.3a11.51,11.51,0,0,0,6.64-20.92Z"/></g></g></svg>