<?xml version="1.0" encoding="utf-8"?>
<!-- Generator: Adobe Illustrator 23.0.0, SVG Export Plug-In . SVG Version: 6.00 Build 0)  -->
<svg version="1.1" id="Layer_1" xmlns="http://www.w3.org/2000/svg" xmlns:xlink="http://www.w3.org/1999/xlink" x="0px" y="0px"
	 viewBox="0 0 1920 1080" style="enable-background:new 0 0 1920 1080;" xml:space="preserve">
<style type="text/css">
	.st0{fill:#9DF9F9;}
	.st1{fill:url(#SVGID_1_);}
	.st2{opacity:0.15;fill:#FFFFFF;}
	.st3{fill:#FFBF8A;}
	.st4{fill:#EFA67D;}
	.st5{fill:#F97E69;}
	.st6{fill:url(#SVGID_2_);}
	.st7{fill:#EE6C4F;}
	.st8{fill:url(#SVGID_3_);}
	.st9{fill:url(#SVGID_4_);}
	.st10{fill:url(#SVGID_5_);}
	.st11{opacity:0.5;}
	.st12{fill:#992D35;}
	.st13{fill:url(#SVGID_6_);}
	.st14{opacity:0.5;fill:#D04644;}
	.st15{opacity:0.4;}
	.st16{opacity:0.2;}
	.st17{fill:#D14C4C;}
	.st18{opacity:0.7;fill:#D14C4C;}
	.st19{fill:#FFC885;}
	.st20{display:none;}
	.st21{display:inline;fill:none;}
	.st22{display:inline;fill:#888693;}
	.st23{display:inline;fill:#5C546A;}
	.st24{display:inline;fill:#B6B8BE;}
	.st25{display:inline;fill:#D5D9DE;}
	.st26{display:inline;}
	.st27{fill:#5C546A;}
	.st28{display:inline;fill:#FFCF00;}
	.st29{display:inline;fill:#FF9300;}
</style>
<g>
	<rect x="0.5" y="0.5" class="st0" width="1919" height="1079"/>
	<path d="M1919,1v1078H1V1H1919 M1920,0H0v1080h1920V0L1920,0z"/>
</g>
<linearGradient id="SVGID_1_" gradientUnits="userSpaceOnUse" x1="960.11" y1="-33.648" x2="960.11" y2="704.1607">
	<stop  offset="0" style="stop-color:#FFC885"/>
	<stop  offset="1" style="stop-color:#FEEAB3"/>
</linearGradient>
<rect x="2.6" y="-84" class="st1" width="1915.1" height="1280.1"/>
<g>
	<path class="st2" d="M1726.7,455.3c-28.9-1.8-56.2-3.6-84.8-7.5c-16.6-2.2-126.5,0.1-123.2-19.9c4.6-28.3,108.7-27.9,61.7-53.4
		c-24.5-13.3-64-12.9-91.6-15.9c-24.7-2.7-49.2-6.7-74.1-5.2c8.5,11.6,111.3,31,52.2,43.6c-53.9,11.5-113.4,4.3-168.5,11.1
		c-76.4,9.4-150.9,12.7-227.3,18.1c-58.5,4.2-115.6,15.6-174.7,16.2c-31.2,0.3-110.4,1.7-129.1-28.9c23,2.1,50.5-17.8,74.7-20.7
		c-0.3-30.4-114.6,0.4-122.1-23.3c-5.3-16.9,131.5-29.6,148.2-47.6c-21-22.8-75.4-14.5-104.1-14.5c-50.8,0-101.6,1.3-152.3,3.6
		c-37.1,1.7-73.5,0.2-110.6,0.1c-17.8,0-55.9-4.5-68.8,9.1c21,19.1,88.7,6.2,115.5,7.6c-19.8,21.1-65.9,19.7-93.3,19.7
		c-49.4,0-98.8,1.4-148.1,5.9c-58.1,5.3-115.8,6.2-174,8.8c-30.1,1.3-97.2-3.6-132.4,17.6v123.7c0.1,0.4,0.2,0.8,0.4,1.2
		c25.2,84.7,105.5,93.7,179.8,69.9c20.4-6.5,41.1-13.2,61.3-20.2c12.4-4.3,34.9-8.6,45.4-15.3c25.3-16-6.2-22.3-22.7-27.8
		c26-30.2,87.5,0,115.5-21.4c-5.8-7.6-14.5-7.9-21.7-14.4c57.8-3,122.4-7.7,179.7,0c42.8,5.7,86.8,16.3,130.1,14.3
		c-31,37.4-92.5,29.5-127.3,58.1c45.9,2.9,92.6-6.9,138.9-6.9c40.8,0,91.9,12.7,131.6,1.5c-9.7-7-27.6-10.2-39.8-12.9
		c14-13.7,56.5-8.7,74.8-8.6c39.5,0.1,76.3,2.8,115.2,8.2c32.2,4.5,64.2,10.3,96.7,11.9c23,1.1,45.8,2.3,68.8,4.5
		c9.9,1,36.1-0.5,44.2,6.3c31.3,26.4-68.1,40.8-78,42.4c-26.2,4.3-62.2,8.1-85.6,21c-27,14.9,0.1,22.1,17.9,30
		c36.3,16.2,73.3,23.5,113.1,28.9c31.4,4.2,68.9,12.4,100.1,8.9c42.2-4.6,84-15.7,126-22.1c108.6-16.5,217-36.1,325.7-50.8
		c20.6-2.8,75.8,1.1,91.1-15.1c7-7.4,2.9-27,2.9-36.7C1784,506.6,1791.9,459.4,1726.7,455.3z"/>
	<g>
		<path class="st2" d="M1427.2,342.5c-49.6-10.6-107.9-23.9-158.7-14.7c2.1,5.6,3.2,11.5,3.1,17.7c-27.4,3.8-52.6,13.7-82,14.9
			c-55.5,2.2-110.5,14.7-166.3,14.6c-69.6-0.1-139.2,0-208.7,0c-44.1,0-86.5,1.1-129.1-10.4c27.1-17.5,70,2.2,98.5-12.8
			c16.3-8.6,10.6-10.7-4.9-15.8c-23.7-7.8-51-4.1-75.4-5.2c-47.3-2.1-94.2,0.4-141.4,0.4c-31,0-91.5,3.3-117.1-18.2
			c8.5-8.6,25.5-9,37.2-10.9c8.9-1.4,47.9-2.4,54.3-10.8c12.2-16-71.7-30.1-85.5-32.9c-90.8-18.3-188.7-33.1-281.1-39.1
			c-39.1-2.5-78.3-3.7-117.4-6.8c-17.7-1.4-37.1-7.1-52.6-1.6v150.8c23.9,13.9,69-2.2,93-6.6c48.7-9,102-15.7,151.2-18.2
			c12.8-0.6,79.7-3.9,43.6-17c-32.2-11.6-74.2,2.8-105.8-9.1c13.8-25.9,67.8-20.3,91.3-17.9c33.5,3.4,69.5,2.1,102.5,7.5
			c15.7,2.5,33.3,24.1,27.4,41.8c-4.9,14.7-51.4,16.8-67.4,18.6c6.6,14.2,104.8,3.3,122.3,3.3c52.2,0,116.4-10,166.4,5.9
			c-12.3,10.6-65.1-12.1-67.6,11.4c-3.6,34.3,174.7,24.6,191.7,24.6c94.1,0,188.1-1.6,282.2-1.8c48.1-0.1,95.4,0.1,143-7.3
			c13.8-2.1,82.8-2.5,87.5-16.3c4.6-13.7-17.4-13.5,1.2-27.6c14.7-11.1,51.4-6.8,66.3,0.7c-6.9-0.7-12.5,1.2-14.6,6.4
			c26-0.3,53.3,3.2,79,7.6c18.9,3.3,37.8,4.2,56.7,4c-21.3-1.8-41.4-5.8-50.2-15C1406.5,351,1419.7,348.7,1427.2,342.5z"/>
		<path class="st2" d="M1920.2,308.4v-28.5c-3.2,0.1-6.4,0.2-9.5,0.2c-32.1,0-63.9,1.6-95.9,1.9c-43.6,0.4-96.2-5.2-138.4,7.6
			c-0.2,19.5,43.7,22.1,39.6,41.4c-3.1,14.6-57.6,24.7-69.3,27.7c-13.2,3.5-26.8,6.2-40.6,8.4c18.6,2.3,36.5,6.6,55.4,2.9
			c28-5.5,63.2-18,89.1-30c-6.2-5.7-13.7-11.9-12.1-21.3c18.6-1,37.5,0,56.1,1.6c23.8,2.1,52.6,16,75.6,7.3
			c-16-17.1-58.4-7.5-75.2-27.1c34-0.4,65.9,4.9,100.4,7.1C1899.3,307.9,1908.9,308.4,1920.2,308.4z"/>
		<path class="st2" d="M1531.8,367.8c-27.5,1.2-54.8,3.7-82,4c23.3,2,47.9,1.2,60.8,1.5c31.2,0.6,63.8-1.2,95.4-6.2
			c-2.7-0.3-5.4-0.6-8.2-0.8C1575.7,364.5,1553.8,366.8,1531.8,367.8z"/>
	</g>
	<path class="st2" d="M1449.3,205.3c-40.3,0-80.6,7.2-120.5,7.1c16,3.3,25.9,12.5,42.9,14.8c12.4,1.7,25.6,2.4,35.8,9.1
		c-15.7,12.9-57.7,5.4-77.4,3.8c-43-3.6-86.9,1.7-130.4,1.7c-40,0-79.9,0-119.9,0c-24,0-66.2-4.9-85.9,8.8
		c77.1,5.7,155.2,4.4,232.2,7.7c44.9,2,88.5,7.2,133.5,7.2c19.5,0,86.4,12.2,100.5-6.9c-8.7-2.8-18.8-5-25.9-9.5
		c24.2-8,59.5-3.7,85.5-3.7c34.8,0,69.7-0.7,104.5,0.1c-53.8-29.8-128.1,1.1-185-19.8c101.4-8.1,203.2,9.9,304.5,2.9
		c-15.9-20.1-58.4-16.4-80.8-16.9c-35.5-0.7-72.4,3.8-107.7,0.3C1520.1,208.6,1485,205.3,1449.3,205.3z"/>
	<path class="st2" d="M426.2,40.3c-46.1,1.8-92.1,3.9-138.3,4.8c-36.1,0.7-84.2-7.9-118.8,2.4c40.3,10.6,83.4,8.4,124.7,10.2
		c61.3,2.7,124.2-1.4,185.8-2c-8.6,1.6-21.4,2.5-26.8,7c28.2,12.5,65.1-3.5,93,9C521.6,90.5,468.9,87,440,86.8
		c36,0,70.2-3,105.9-5.3c37.6-2.4,84.9,10.5,120.6,0.4c-19.8-9.8-48.3-2.9-65.9-13.3c31.5-13.8,93.2-3.6,127.2-3.6
		c33.5,0,66.7,0.8,100.1,2.2c24.2,1.1,80,11.5,100.2-1.8c-21-10.7-54-9-76.8-9.5c-36.6-0.8-73.2-1.1-109.7-2.7
		c-61.9-2.8-124-2.7-186.1-2.7c18.4,0.9,55,1.5,69.6-9.1c-11.7-13.4-68.6-5.3-85.4-4.6C501.9,38.3,464,38.8,426.2,40.3z"/>
	<path class="st2" d="M1284.7,95.9c-35.3-10.8-79.2-12.4-116.2-16.2c-29.7-3-57.7-5.5-87.7-5.7c82.8,0.8,163.4,16.9,246.1,10
		c25.7-2.1,73.5-10.5,93.1,12c-28.6,9.9-69.2,0.2-99.7-0.1c-23.5-0.2-46.9,0-70.4,0"/>
	<path class="st2" d="M1107.3,194.4c93.2,14.5,188.9-14.6,281.6-18.2c37.3-1.5,70.2-3.3,108,1.4c45.2,5.6,87.2-5.5,131.7-5.4
		c-17.4-10.2-55.7-8.8-76.5-10.7c-20.4-1.8-40.6-3.6-61.2-3.6c-25.3,0-50.5,0-75.8,0c6.6-0.3,11.4,1.6,15.8,5.1
		c-46.6,7.7-97.4-9.2-142.5,6.2c2.5,2,4.3,7.4,5.3,8.6c-13.5,4.5-29.5,2.1-43.6,3.5c-22.2,2.2-44.5,5.2-66.7,8.7
		c-33.1,5.2-66.3,10.1-99.9,10C1098.8,199.8,1113.9,202.1,1107.3,194.4z"/>
</g>
<g>
	<path class="st3" d="M628.1,657.6c0,0-223.6-99-254.3-105.8c-30.7-6.8-88.8-15.4-95.6-20.5c-6.8-5.1-37.6-20.5-37.6-20.5
		l-107.5-42.7l-47.8-27.3L0,485.2v227c0,0,547.9,71.7,556.4,64.9C565,770.3,628.1,657.6,628.1,657.6z"/>
	<path class="st4" d="M204.8,626.9c0,0,122.9-47.8,140-58c17.1-10.2,34.1-17.1,34.1-17.1l27.3-20.5l49.5-23.9l47.8-23l92.2,81.1
		l61.4,56.3l32.4,25.6l68.3-32.4c0,0,29-13.7,41-34.1c11.9-20.5,41-23.9,41-23.9l20.5-17.1l138.7,77.7l35.4,116.9l-157,81.9
		c0,0-674.2-109.2-675.9-114.4C199.7,696.9,204.8,626.9,204.8,626.9z"/>
	<path class="st5" d="M781.7,696.9c0,0-128-5.1-194.6-32.4c-66.6-27.3-92.2-46.1-92.2-46.1L472.8,603l-70-35.8l-99,27.3
		c0,0-59.7,29-66.6,29c-6.8,0-54.6-20.5-54.6-20.5s-64.9-27.3-71.7-32.4C104.1,565.5,0,604.7,0,604.7v66.6
		c0,0,583.7,126.3,587.2,116.1c3.4-10.2,204.8-42.7,204.8-42.7L781.7,696.9z"/>
</g>
<g>
	<g>
		<linearGradient id="SVGID_2_" gradientUnits="userSpaceOnUse" x1="1324" y1="688.2056" x2="1468.4939" y2="688.2056">
			<stop  offset="0" style="stop-color:#D04644"/>
			<stop  offset="1" style="stop-color:#B53B42"/>
		</linearGradient>
		<path class="st6" d="M1451.7,654.6c-2.9,0-90.5-2.9-92.7-2.9s-35,73-35,73l94.9-0.7l49.6-59.1L1451.7,654.6z"/>
		<path class="st7" d="M1445.1,651c0,0-51.8-1.5-64.9-1.5c-13.1,0-19.7-0.7-21.2,2.2c-1.5,2.9,32.1,5.1,32.1,5.1l-8.8,4.4l56.2,2.9
			L1445.1,651z"/>
		<linearGradient id="SVGID_3_" gradientUnits="userSpaceOnUse" x1="1405.734" y1="658.65" x2="1754.5627" y2="658.65">
			<stop  offset="0" style="stop-color:#D04644"/>
			<stop  offset="1" style="stop-color:#B53B42"/>
		</linearGradient>
		<polygon class="st8" points="1754.6,603.6 1597.7,597 1469.2,593.3 1405.7,724 1587.4,721.8 1725.4,718.1 		"/>
		<path class="st7" d="M1747.3,595.5c0,0-74.4-2.2-90.5-1.5c-16.1,0.7-13.9,0.7-16.1,0.7c-2.2,0-29.9,0-29.9,0l-27-2.9
			c0,0-32.1-2.2-45.2-2.2c-13.1,0-65.7-0.7-69.3,3.6c-3.6,4.4,53.3,5.1,53.3,5.1s43.1,0,53.3,1.5c10.2,1.5-46,1.5-8,4.4
			s64.2,2.2,64.2,2.2s14.6-4.4-7.3-4.4s16.8,2.2,41.6,2.2c24.8,0,21.9,2.2,21.9,2.2s-16.8,5.1-19,5.1c-2.2,0,36.5,2.9,36.5,2.9
			l19.7,5.8l23.4,0.7L1747.3,595.5z"/>
		<linearGradient id="SVGID_4_" gradientUnits="userSpaceOnUse" x1="1714.4255" y1="637.8516" x2="1920.22" y2="637.8516">
			<stop  offset="0" style="stop-color:#D04644"/>
			<stop  offset="1" style="stop-color:#CD3B42"/>
		</linearGradient>
		<path class="st9" d="M1920.2,550.5c-2.9,0-122.6,2.4-122.6,2.4l-6.3,22.9h-46.7l-30.2,149.4h205.8V550.5z"/>
		<linearGradient id="SVGID_5_" gradientUnits="userSpaceOnUse" x1="1566.5261" y1="677.9888" x2="1795.1864" y2="677.9888">
			<stop  offset="0" style="stop-color:#D04644"/>
			<stop  offset="1" style="stop-color:#B53B42"/>
		</linearGradient>
		<path class="st10" d="M1772.8,639.1c-2.9,0-54.5-7.8-54.5-7.8l-81.7-2.9l-17.5,53.5l-34.1,1.9l-18.5,43.8l77.8-1.9l150.8,1.9
			l-8.8-43.8l-19.5-1.9L1772.8,639.1z"/>
		<g class="st11">
			<g>
				<g>
					<path class="st12" d="M1483.8,624c-2.4,4.1-4.6,8.4-6.5,12.7c-2,4.3-3.8,8.7-5.6,13.1c-1.8,4.4-3.6,8.8-5.5,13.2
						c-1,2.2-2,4.3-3,6.5l-1.7,3.2l-1.8,3.1l1.5-3.2l1.5-3.3l1.4-3.3l1.4-3.3l5.3-13.3c1.8-4.4,3.7-8.8,5.8-13.1l1.6-3.2l1.7-3.1
						l1.9-3.1L1483.8,624z"/>
				</g>
				<g>
					<path class="st12" d="M1475.8,669.2c-1.3,3.5-2.6,6.9-4,10.4c-1.3,3.4-2.7,6.9-4,10.3c-1.3,3.5-2.6,6.9-3.8,10.4
						c-0.6,1.7-1.2,3.5-1.8,5.2l-1.8,5.3c0.4-1.8,0.8-3.6,1.3-5.4c0.5-1.8,1-3.6,1.5-5.3c1.1-3.5,2.3-7,3.6-10.5
						c1.3-3.5,2.7-6.9,4.2-10.3C1472.6,675.9,1474.1,672.5,1475.8,669.2z"/>
				</g>
				<g>
					<path class="st12" d="M1508.6,637.9c-1.7,3.2-3.7,6.3-5.6,9.4c-1.9,3.1-3.9,6.1-5.8,9.3c-1.9,3.1-3.6,6.3-5.1,9.6
						c-0.7,1.7-1.4,3.3-1.9,5.1c-0.3,0.9-0.5,1.7-0.7,2.6c-0.2,0.9-0.3,1.8-0.5,2.7c0.1-3.7,1.1-7.3,2.4-10.7c1.4-3.4,3.1-6.7,5-9.8
						c1.9-3.1,3.9-6.2,6-9.2l3.1-4.5C1506.6,640.9,1507.6,639.4,1508.6,637.9z"/>
				</g>
				<g>
					<path class="st12" d="M1549.5,615.2c-0.4,3-1.4,6-2.5,8.9c-1.1,2.9-2.5,5.7-3.8,8.4c-2.6,5.5-5.1,11.2-7.3,16.9
						c-2.3,5.7-4.5,11.5-6.6,17.2l-3.3,8.6c-1.1,2.9-2.2,5.7-3.4,8.6c2-5.8,4-11.6,6-17.5c2-5.8,4.2-11.6,6.4-17.3
						c2.3-5.7,4.8-11.4,7.6-16.9c1.4-2.7,2.8-5.5,4-8.3C1547.8,621.1,1548.8,618.2,1549.5,615.2z"/>
				</g>
				<g>
					<path class="st12" d="M1591.8,605c-2.2,5.3-4.4,10.6-6.5,16c-2,5.4-4,10.8-5.9,16.2c-1.9,5.4-3.7,10.9-5.5,16.3l-2.7,8.2
						l-2.8,8.2c0.7-2.8,1.5-5.5,2.3-8.3l2.5-8.3c1.7-5.5,3.5-11,5.3-16.4c1.9-5.4,3.9-10.8,6.1-16.2
						C1586.9,615.4,1589.2,610.1,1591.8,605z"/>
				</g>
				<g>
					<path class="st12" d="M1588.9,656.1c-0.8,3.2-1.9,6.4-3,9.5c-1.2,3.1-2.5,6.2-3.8,9.3l-4,9.2c-0.7,1.5-1.3,3.1-1.9,4.6
						l-0.9,2.3c-0.3,0.8-0.6,1.6-0.9,2.3c0.4-1.6,0.9-3.2,1.4-4.8c0.5-1.6,1.1-3.2,1.7-4.7c1.2-3.1,2.5-6.2,3.8-9.3l4-9.1
						C1586.5,662.3,1587.7,659.2,1588.9,656.1z"/>
				</g>
				<g>
					<path class="st12" d="M1615.9,640c-0.6,2.7-1.6,5.2-2.5,7.7c-0.9,2.5-1.8,5-2.6,7.6c0.1-2.7,0.8-5.4,1.7-8
						C1613.4,644.9,1614.5,642.4,1615.9,640z"/>
				</g>
				<g>
					<path class="st12" d="M1645.1,637.1c-0.3,1.2-0.5,2.3-0.8,3.5l-1,3.4l-1.2,3.3l-1.3,3.3c-1.8,4.4-4,8.6-6,12.8
						c-2.1,4.2-4.2,8.4-6,12.8c-1.8,4.3-3.2,8.8-4.2,13.5l0.5-3.5l0.8-3.5l1-3.4l1.2-3.4c1.6-4.4,3.7-8.7,5.8-12.9
						c2.1-4.2,4.3-8.4,6.2-12.7C1642.1,646,1643.8,641.7,1645.1,637.1z"/>
				</g>
				<g>
					<path class="st12" d="M1672.1,654.6c0,0.9,0.1,1.8,0.1,2.8l-0.1,2.8c-0.1,0.9-0.2,1.8-0.3,2.8l-0.5,2.7
						c-0.7,3.6-1.8,7.2-2.9,10.7c-1.2,3.5-2.3,7-3.4,10.5l-0.7,2.7l-0.6,2.7l-0.6,2.7l-0.4,2.7c0-0.9,0.1-1.8,0.1-2.8l0.3-2.8
						l0.5-2.7l0.6-2.7c0.9-3.6,2.1-7.1,3.2-10.6c1.1-3.5,2.3-7,3.2-10.6C1671.4,662,1672,658.3,1672.1,654.6z"/>
				</g>
				<g>
					<path class="st12" d="M1692.5,672.2c-0.8,2-1.6,4-2.4,6l-2.4,6c-0.8,2-1.6,4-2.4,6c-0.4,1-0.8,2-1.1,3l-1.1,3
						c0.2-1.1,0.4-2.1,0.7-3.2c0.3-1,0.6-2.1,0.9-3.1c0.6-2.1,1.4-4.1,2.2-6.1c0.8-2,1.7-4,2.7-5.9
						C1690.4,675.9,1691.4,674,1692.5,672.2z"/>
				</g>
				<g>
					<path class="st12" d="M1713,668.5c-0.6,3.2-1.8,6.2-2.9,9.2c-1.1,3-2.1,6-2.9,9.1c0-3.2,0.9-6.4,2-9.4
						C1710.3,674.3,1711.6,671.4,1713,668.5z"/>
				</g>
				<g>
					<path class="st12" d="M1732.7,654.6c0.4,0.1,0.5,0.2,0.5,0.4c0,0.1-0.1,0.2-0.5,0.4c-0.4-0.1-0.5-0.2-0.5-0.4
						C1732.2,654.9,1732.3,654.8,1732.7,654.6z"/>
				</g>
				<g>
					<path class="st12" d="M1723.9,688.2c-0.7,2.1-1.4,4.1-2.1,6.2l-2,6.3c-0.7,2.1-1.3,4.2-2.1,6.2c-0.4,1-0.8,2.1-1.2,3.1
						c-0.4,1-0.9,2-1.4,3l1.8-6.3c0.6-2.1,1.2-4.2,1.9-6.3c0.7-2.1,1.4-4.2,2.2-6.2C1721.9,692.1,1722.8,690.1,1723.9,688.2z"/>
				</g>
				<g>
					<path class="st12" d="M1746.5,653.9c-0.9,3.4-2.5,6.6-3.8,9.8c-0.7,1.6-1.4,3.2-2,4.8c-0.6,1.6-1.1,3.3-1.4,5
						c-0.1-1.8,0.2-3.6,0.7-5.3c0.5-1.7,1.1-3.4,1.8-5C1743.2,660.1,1744.9,657,1746.5,653.9z"/>
				</g>
				<g>
					<path class="st12" d="M1738.5,702.8c-0.7,2.4-1.5,4.6-2.2,6.9c-0.7,2.3-1.4,4.6-2.2,6.9c0-2.5,0.5-4.9,1.3-7.2
						C1736.1,707.1,1737.1,704.8,1738.5,702.8z"/>
				</g>
				<g>
					<path class="st12" d="M1818.1,588.2c0.4,3.4,0.2,6.9-0.4,10.3c-0.6,3.4-1.5,6.7-2.6,10c-2.1,6.5-4.9,12.8-6.7,19.4
						c-1.9,6.6-3,13.3-3.8,20.1c-0.4,3.4-0.6,6.8-0.8,10.2c-0.2,3.4-0.3,6.8-0.4,10.3c-0.1-3.4-0.1-6.9-0.1-10.3
						c0.1-3.4,0.2-6.9,0.5-10.3c0.6-6.8,1.7-13.7,3.6-20.3c1.9-6.6,4.7-12.9,6.9-19.4c1.1-3.2,2.2-6.5,2.8-9.8
						C1817.9,595.1,1818.2,591.7,1818.1,588.2z"/>
				</g>
				<g>
					<path class="st12" d="M1823.9,627.6c-1.4,5.2-2.7,10.3-3.9,15.5c-1.2,5.2-2.4,10.4-3.6,15.6c-1.2,5.2-2.4,10.4-3.8,15.6
						c-0.7,2.6-1.4,5.2-2.2,7.7c-0.8,2.5-1.6,5.1-2.5,7.6l1.1-3.9l1-3.9c0.7-2.6,1.3-5.2,1.9-7.8c1.2-5.2,2.4-10.4,3.6-15.6
						c1.2-5.2,2.4-10.4,3.8-15.6C1820.6,637.8,1822.1,632.7,1823.9,627.6z"/>
				</g>
				<g>
					<path class="st12" d="M1840.7,647.3c-0.5,3.2-1.3,6.4-2.1,9.5c-0.8,3.1-1.5,6.3-2.3,9.5c-0.1-3.3,0.5-6.5,1.3-9.7
						C1838.4,653.4,1839.4,650.4,1840.7,647.3z"/>
				</g>
				<g>
					<path class="st12" d="M1858.9,607.2c0.4,1.7,0.4,3.5,0.3,5.3c-0.2,1.8-0.5,3.5-1,5.2c-1,3.4-2.3,6.6-3.6,9.9
						c0.6-3.5,1.8-6.8,2.7-10.2C1858.2,614.1,1858.9,610.7,1858.9,607.2z"/>
				</g>
				<g>
					<path class="st12" d="M1875,599.9c0.1,7.1-1.7,14-3.8,20.7c-2.1,6.7-4.6,13.3-6.6,20c-1.8,6.7-3.7,13.5-5.3,20.3
						c-0.8,3.4-1.6,6.8-2.1,10.3c-0.6,3.5-1,6.9-1.1,10.4c-0.1-7,1-14,2.5-20.9c0.7-3.4,1.6-6.8,2.5-10.2c0.9-3.4,1.7-6.8,2.7-10.2
						c2-6.8,4.6-13.3,6.8-19.9c1.1-3.3,2.2-6.7,3-10.1C1874.3,606.9,1874.8,603.4,1875,599.9z"/>
				</g>
				<g>
					<path class="st12" d="M1887.4,612.3c-1.2,4.4-2.7,8.7-4.2,13c-1.5,4.3-3.2,8.5-4.7,12.8c-1.6,4.2-3.1,8.5-4.5,12.9l-1,3.3
						l-0.9,3.3l-0.8,3.3l-0.7,3.3c0.1-1.1,0.3-2.3,0.5-3.4l0.6-3.4l0.8-3.3l0.9-3.3c1.2-4.4,2.7-8.7,4.3-13c1.6-4.3,3.3-8.5,5-12.7
						C1884.2,620.8,1885.8,616.6,1887.4,612.3z"/>
				</g>
				<g>
					<path class="st12" d="M1879.4,671.4c-0.3,2.4-1.1,4.7-1.8,7c-0.7,2.3-1.4,4.5-1.9,6.9c-0.2-1.2-0.1-2.4,0.1-3.6
						c0.2-1.2,0.5-2.4,0.8-3.5C1877.4,675.8,1878.3,673.6,1879.4,671.4z"/>
				</g>
				<g>
					<path class="st12" d="M1898.3,617.4c-1,3.3-1.9,6.5-2.8,9.8c-0.8,3.3-1.6,6.6-2.4,9.9c-0.8,3.3-1.5,6.6-2.4,9.9l-1.3,4.9
						c-0.5,1.6-0.9,3.3-1.4,4.9l0.9-5l1-5c0.7-3.3,1.4-6.7,2.1-10c0.8-3.3,1.6-6.6,2.7-9.9C1895.8,623.8,1897,620.5,1898.3,617.4z"
						/>
				</g>
				<g>
					<path class="st12" d="M1899.1,655.4c0.2,0.9,0.2,1.8,0.1,2.6c-0.1,0.8-0.3,1.7-0.8,2.5c-0.3-0.9-0.3-1.8-0.2-2.6
						C1898.3,657,1898.5,656.1,1899.1,655.4z"/>
				</g>
				<g>
					<path class="st12" d="M1915.8,595.5l-2.4,8.2c-0.8,2.7-1.5,5.4-2.3,8.2c-0.7,2.7-1.4,5.5-2.1,8.2c-0.3,1.4-0.7,2.7-1,4.1
						l-1,4.1c0.1-1.4,0.3-2.8,0.5-4.2c0.2-1.4,0.5-2.8,0.7-4.2c0.5-2.8,1.2-5.6,1.9-8.3c0.8-2.7,1.6-5.5,2.5-8.2
						C1913.7,600.8,1914.7,598.1,1915.8,595.5z"/>
				</g>
				<g>
					<path class="st12" d="M1916.6,629.8c0,1.1,0.1,2.2,0,3.3c-0.1,1.1-0.1,2.2-0.3,3.3c-0.2,1.1-0.3,2.2-0.6,3.3
						c-0.3,1.1-0.5,2.2-0.8,3.2c-1.2,4.3-2.9,8.4-4.6,12.5c-1.8,4.1-3.6,8.1-5.4,12.1l-1.3,3.1l-1.2,3.1c-0.4,1-0.7,2.1-1.1,3.1
						l-0.9,3.2c0.7-4.4,2.1-8.6,3.7-12.8c1.6-4.1,3.5-8.2,5.2-12.3c1.8-4,3.5-8.1,4.8-12.3c0.4-1,0.6-2.1,0.9-3.2
						c0.3-1.1,0.5-2.1,0.7-3.2c0.2-1.1,0.3-2.2,0.5-3.3C1916.4,632,1916.5,630.9,1916.6,629.8z"/>
				</g>
				<g>
					<path class="st12" d="M1755.3,588.2c0.3,2.6,0.3,5.3,0.2,7.9c-0.1,2.6-0.4,5.3-0.7,7.9c-0.4,2.6-0.7,5.2-1.2,7.8
						c-0.2,1.3-0.4,2.6-0.6,3.9l-0.6,3.9c0-1.3,0-2.6,0.1-4c0.1-1.3,0.2-2.6,0.3-3.9c0.2-2.6,0.6-5.2,0.9-7.8c0.4-2.6,0.7-5.2,1-7.8
						C1755,593.5,1755.2,590.9,1755.3,588.2z"/>
				</g>
				<g>
					<path class="st12" d="M1513,703.5c0,2.5-0.6,4.9-1.3,7.2c-0.8,2.3-1.7,4.6-3,6.7c0.6-2.4,1.3-4.7,2.1-7
						C1511.5,708.1,1512.2,705.9,1513,703.5z"/>
				</g>
				<g>
					<path class="st12" d="M1534.9,698.4c-0.2,2-0.6,3.9-1,5.9c-0.4,1.9-0.7,3.8-1.2,5.8c-0.3-2-0.2-4,0.2-6
						C1533.3,702.1,1533.9,700.2,1534.9,698.4z"/>
				</g>
				<g>
					<path class="st12" d="M1585.3,709.4c0.1,1.8,0,3.5-0.3,5.3c-0.3,1.7-0.8,3.5-1.9,4.9c0.4-1.7,0.7-3.4,1-5.1
						C1584.3,712.8,1584.6,711,1585.3,709.4z"/>
				</g>
				<g>
					<path class="st12" d="M1599.1,709.4c-0.3,1.7-0.8,3.2-1.1,4.7c-0.4,1.6-0.7,3.1-1.1,4.7c-0.4-1.6-0.3-3.4,0.1-5
						C1597.4,712.3,1598.1,710.7,1599.1,709.4z"/>
				</g>
				<g>
					<path class="st12" d="M1368.5,666.3c-1,3.2-2.2,6.3-3.3,9.5l-3.5,9.4c-1.2,3.1-2.3,6.3-3.4,9.5c-0.5,1.6-1.1,3.2-1.5,4.8
						l-0.7,2.4c-0.2,0.8-0.5,1.6-0.7,2.4c0.3-1.7,0.6-3.3,1-4.9c0.4-1.6,0.8-3.3,1.3-4.9c0.9-3.2,2-6.4,3.1-9.6
						c1.2-3.1,2.4-6.3,3.7-9.4C1365.8,672.4,1367.1,669.4,1368.5,666.3z"/>
				</g>
				<g>
					<path class="st12" d="M1375.8,686c-0.7,3.5-2.1,6.9-3.3,10.3c-1.2,3.4-2.5,6.7-3.3,10.2c0-3.6,1.1-7.2,2.3-10.5
						C1372.9,692.5,1374.3,689.3,1375.8,686z"/>
				</g>
				<g>
					<path class="st12" d="M1393.3,667c0.2,2.3-0.1,4.5-0.5,6.8c-0.5,2.2-1.1,4.4-1.8,6.6c-1.4,4.3-3.2,8.5-4.3,12.8
						c-1.2,4.3-2.1,8.8-3,13.2l-1.4,6.6c-0.5,2.2-0.9,4.4-1.5,6.6l1-6.7l1.1-6.7c0.8-4.5,1.7-8.9,2.8-13.3c1.2-4.4,2.9-8.6,4.5-12.8
						c0.8-2.1,1.5-4.2,2.1-6.4C1392.9,671.5,1393.3,669.3,1393.3,667z"/>
				</g>
				<g>
					<path class="st12" d="M1380.2,666.3c0.1,1.1,0,2.1-0.2,3c-0.3,1-0.6,1.9-1.2,2.8c-0.1-1.1,0-2.1,0.2-3
						C1379.2,668.1,1379.6,667.2,1380.2,666.3z"/>
				</g>
				<g>
					<path class="st12" d="M1358.3,713c0,1.3-0.3,2.5-0.8,3.6c-0.5,1.1-1.2,2.2-2.1,3c0.3-1.2,0.7-2.3,1.2-3.4
						C1357.1,715.1,1357.6,714,1358.3,713z"/>
				</g>
				<g>
					<path class="st12" d="M1340.8,715.2c0.4,0.6,0.4,1.3,0.3,2c-0.1,0.6-0.4,1.3-1,1.7c-0.1-0.7-0.1-1.3,0-1.9
						C1340.2,716.4,1340.4,715.8,1340.8,715.2z"/>
				</g>
				<g>
					<path class="st12" d="M1413.8,672.2c-0.1,4-1.5,7.9-2.9,11.6c-1.5,3.7-3.1,7.3-4.4,11.1c0.5-4,2-7.7,3.5-11.4
						C1411.4,679.7,1412.8,676,1413.8,672.2z"/>
				</g>
				<g>
					<path class="st12" d="M1398.4,715.9c-0.2,1.5-0.8,2.8-1.5,4.1c-0.7,1.2-1.6,2.4-2.9,3.2c0.6-1.3,1.3-2.5,2-3.8
						C1396.8,718.3,1397.5,717.1,1398.4,715.9z"/>
				</g>
				<g>
					<path class="st12" d="M1399.9,727.6c-0.2-4.6-0.3-9.2-0.4-13.9c-0.1-4.6-0.1-9.2-0.1-13.9c0-4.6,0-9.2,0.1-13.9l0.1-6.9
						c0.1-2.3,0.1-4.6,0.2-6.9c0.1,2.3,0.2,4.6,0.2,6.9l0.1,6.9c0.1,4.6,0.1,9.2,0.1,13.9c0,4.6,0,9.2-0.1,13.9
						C1400.2,718.4,1400.1,723,1399.9,727.6z"/>
				</g>
				<g>
					<path class="st12" d="M1594.7,617.4c-0.1,1.9-0.7,3.8-1.2,5.6c-0.6,1.8-1.2,3.5-1.7,5.4c-0.3-1.9,0.2-3.9,0.7-5.7
						C1593.2,620.9,1593.9,619.1,1594.7,617.4z"/>
				</g>
				<g>
					<path class="st12" d="M1632.7,613c-0.1,1.6-0.4,3-0.8,4.5c-0.4,1.4-0.8,2.9-1.4,4.3c-0.1-1.6,0.1-3.1,0.5-4.5
						C1631.3,615.8,1631.9,614.4,1632.7,613z"/>
				</g>
				<g>
					<path class="st12" d="M1625.4,640.8c0,0.7,0,1.3,0,2l-0.2,2l-0.4,2l-0.5,1.9c-0.8,2.6-1.8,5-2.9,7.4l-3.4,7.2l-0.8,1.8
						l-0.7,1.8l-0.7,1.9c-0.2,0.6-0.4,1.3-0.6,1.9c0.1-0.7,0.2-1.3,0.3-2l0.5-1.9l0.6-1.9l0.7-1.9c0.9-2.5,2.1-4.9,3.2-7.3
						c1.1-2.4,2.2-4.8,3.1-7.3C1624.4,646,1625.1,643.4,1625.4,640.8z"/>
				</g>
				<g>
					<path class="st12" d="M1552.4,650.3c-1.2,3.4-2.8,6.6-4.4,9.8c-1.6,3.2-3.3,6.3-4.9,9.5c-1.6,3.2-3,6.4-4.2,9.8
						c-0.6,1.7-1,3.4-1.4,5.1c-0.2,0.9-0.3,1.7-0.4,2.6c-0.1,0.9-0.1,1.8-0.1,2.7c-0.1-0.9-0.2-1.8-0.2-2.7c0.1-0.9,0-1.8,0.2-2.7
						c0.2-1.8,0.6-3.5,1.1-5.3c1-3.5,2.5-6.8,4-10c1.6-3.2,3.3-6.3,5.1-9.4c0.9-1.5,1.8-3.1,2.6-4.7c0.4-0.8,0.8-1.6,1.3-2.3
						L1552.4,650.3z"/>
				</g>
				<g>
					<path class="st12" d="M1548,699.9c0.4,0.1,0.5,0.2,0.5,0.4c0,0.1-0.1,0.2-0.5,0.4c-0.4-0.1-0.5-0.2-0.5-0.4
						C1547.6,700.1,1547.6,700,1548,699.9z"/>
				</g>
				<g>
					<path class="st12" d="M1556.1,673.6c0.1,1.3-0.2,2.6-0.5,3.8c-0.4,1.2-0.9,2.4-1.7,3.5c0.1-1.3,0.4-2.5,0.7-3.8
						C1555,675.9,1555.4,674.8,1556.1,673.6z"/>
				</g>
				<g>
					<path class="st12" d="M1555.3,702.8c-0.2,1.7-0.8,3.3-1.4,4.9c-0.6,1.6-1.3,3.1-2.3,4.6c0.2-1.7,0.8-3.3,1.4-4.9
						C1553.7,705.8,1554.4,704.2,1555.3,702.8z"/>
				</g>
				<g>
					<path class="st12" d="M1513,638.6c-0.8,5.3-2.4,10.4-4.3,15.4c-1.9,5-4,9.8-6.1,14.7c-1.1,2.4-2.1,4.9-3.1,7.3
						c-1,2.5-1.9,5-2.9,7.4c-2,4.9-4.1,9.9-7.1,14.3c1.3-2.3,2.5-4.7,3.5-7.1c1-2.4,2-4.9,2.9-7.4c1.8-5,3.6-10,5.7-14.9
						c2.1-4.9,4.3-9.7,6.3-14.6c1-2.5,1.9-4.9,2.8-7.4C1511.7,643.7,1512.4,641.2,1513,638.6z"/>
				</g>
				<g>
					<path class="st12" d="M1499.1,619.6c0.1,1.8-0.2,3.5-0.5,5.2c-0.3,1.7-0.6,3.3-1,5.1c-0.4-1.7-0.3-3.5,0-5.2
						C1498,622.9,1498.4,621.2,1499.1,619.6z"/>
				</g>
				<g>
					<path class="st12" d="M1564.8,621.8c-0.7,2.7-1.6,5.3-2.7,7.9c-1.1,2.6-2.3,5.1-3.9,7.4c0.9-2.7,1.9-5.2,3-7.8
						C1562.3,626.8,1563.4,624.2,1564.8,621.8z"/>
				</g>
				<g>
					<path class="st12" d="M1525.4,604.3c0,1.4-0.5,2.8-1.1,4c-0.6,1.2-1.4,2.4-2.6,3.3c0.5-1.3,1.1-2.5,1.7-3.7
						C1524,606.7,1524.6,605.5,1525.4,604.3z"/>
				</g>
				<g>
					<path class="st12" d="M1522.5,649.5c-1.5,4.4-2.9,8.8-4.2,13.2c-1.3,4.4-2.6,8.9-3.8,13.3c-1.3,4.4-2.6,8.9-4.1,13.2l-1.2,3.3
						l-1.3,3.2l-1.4,3.2c-0.5,1-1,2.1-1.5,3.1l1.2-3.2l1.2-3.3l1.1-3.3l1.1-3.3c1.4-4.4,2.7-8.8,3.9-13.3c1.3-4.4,2.6-8.9,4-13.3
						C1519,658.1,1520.6,653.7,1522.5,649.5z"/>
				</g>
				<g>
					<path class="st12" d="M1473.6,700.6c0.1,1.2-0.1,2.4-0.5,3.5c-0.4,1.1-0.9,2.2-1.7,3.1c0.1-1.2,0.4-2.3,0.8-3.4
						C1472.6,702.7,1473,701.6,1473.6,700.6z"/>
				</g>
				<g>
					<path class="st12" d="M1453.2,680.2c0.3,0.8,0.2,1.5,0.1,2.3c-0.1,0.7-0.3,1.5-0.9,2.1c-0.3-0.8-0.2-1.5-0.1-2.3
						C1452.4,681.6,1452.7,680.9,1453.2,680.2z"/>
				</g>
				<g>
					<path class="st12" d="M1457.5,640c-1.7,4.3-3.6,8.6-5.6,12.8c-2,4.2-4.1,8.3-6.2,12.5c-2.1,4.1-4.2,8.3-6.3,12.4
						c-1,2.1-2,4.2-3,6.3l-1.5,3.2l-1.5,3.2c0.8-2.2,1.6-4.4,2.5-6.5c0.9-2.1,1.8-4.3,2.8-6.4c1.9-4.2,4-8.4,6.1-12.6l6.4-12.4
						C1453.4,648.4,1455.5,644.2,1457.5,640z"/>
				</g>
				<g>
					<path class="st12" d="M1429.1,710.8c0.4,0.2,0.5,0.5,0.5,0.7c0,0.2-0.1,0.5-0.5,0.7c-0.4-0.2-0.5-0.5-0.5-0.7
						C1428.6,711.3,1428.7,711.1,1429.1,710.8z"/>
				</g>
				<g>
					<path class="st12" d="M1464.8,616.7c0.1,1.4-0.2,2.8-0.8,4.1c-0.6,1.3-1.6,2.4-2.8,3.2c0.7-1.3,1.3-2.4,1.9-3.6
						C1463.7,619.2,1464.2,618,1464.8,616.7z"/>
				</g>
				<g>
					<path class="st12" d="M1482.4,610.9c0.4,0.5,0.5,1.1,0.3,1.6c-0.1,0.5-0.5,1-1.1,1.3c-0.1-0.6,0-1.1,0.1-1.5
						C1481.9,611.8,1482,611.4,1482.4,610.9z"/>
				</g>
				<g>
					<path class="st12" d="M1698.4,654.6c0,1.6-0.5,3.1-1,4.6c-0.6,1.4-1.2,2.8-1.9,4.2c0-1.6,0.5-3.1,1-4.6
						C1697,657.4,1697.6,656,1698.4,654.6z"/>
				</g>
				<g>
					<path class="st12" d="M1783,651.7c-0.8,3.3-1.9,6.4-3,9.6c-1.1,3.1-2.3,6.3-3.5,9.4c0.5-3.3,1.5-6.6,2.6-9.7
						C1780.2,657.8,1781.5,654.7,1783,651.7z"/>
				</g>
				<g>
					<path class="st12" d="M1791.1,596.3c-0.2,3.6-1.2,7.1-2.3,10.5c-1.2,3.4-2.6,6.7-4.2,9.9c0.9-3.5,2.1-6.9,3.3-10.2
						C1789,603.1,1790.1,599.7,1791.1,596.3z"/>
				</g>
				<g>
					<path class="st12" d="M1802.7,594.8c-0.3,2.4-0.8,4.8-1.4,7.1c-0.6,2.3-1.4,4.6-2.1,6.9c-1.5,4.6-3.1,9.1-4,13.8
						c-1,4.7-1.8,9.4-2.7,14.2l-1.4,7.1c-0.5,2.4-1,4.7-1.6,7.1c0.4-2.4,0.8-4.8,1.1-7.1l1.1-7.1c0.7-4.8,1.5-9.5,2.5-14.3
						c1-4.8,2.6-9.4,4.2-13.9c0.8-2.3,1.6-4.5,2.4-6.8C1801.6,599.5,1802.2,597.2,1802.7,594.8z"/>
				</g>
				<g>
					<path class="st12" d="M1767,607.9c0.6,2.4,0.4,4.9,0.1,7.4c-0.3,2.4-0.7,4.8-0.9,7.2c-0.6-2.4-0.4-4.9-0.1-7.4
						C1766.4,612.7,1766.8,610.4,1767,607.9z"/>
				</g>
				<g>
					<path class="st12" d="M1780.1,634.9c0.4,1.2,0.4,2.5,0.3,3.7c-0.1,1.2-0.4,2.5-1,3.6c-0.1-1.3-0.1-2.5,0-3.7
						C1779.6,637.3,1779.7,636.2,1780.1,634.9z"/>
				</g>
				<g>
					<path class="st12" d="M1792.5,687.5c0.4,2.4,0.5,4.9,0.5,7.3c0,2.4-0.1,4.9-0.5,7.3c-0.4-2.4-0.5-4.9-0.5-7.3
						C1792,692.3,1792.1,689.9,1792.5,687.5z"/>
				</g>
				<g>
					<path class="st12" d="M1837.8,594.1c-0.7,4.2-1.7,8.3-2.8,12.4l-3.4,12.3c-1.2,4.1-2.2,8.2-3,12.3l-0.6,3.1l-0.5,3.1l-0.4,3.2
						l-0.3,3.2c0-1.1,0-2.1,0-3.2l0.2-3.2l0.3-3.2l0.5-3.2c0.7-4.2,1.7-8.3,2.8-12.5c1.2-4.1,2.4-8.2,3.6-12.2
						c0.6-2,1.2-4.1,1.8-6.1l0.9-3.1L1837.8,594.1z"/>
				</g>
				<g>
					<path class="st12" d="M1821.7,677.3c-0.6,2.8-1.4,5.5-2.2,8.1c-0.9,2.7-1.7,5.3-2.9,7.9c0.4-2.8,1.1-5.5,1.9-8.2
						C1819.4,682.4,1820.4,679.8,1821.7,677.3z"/>
				</g>
				<g>
					<path class="st12" d="M1842.1,683.1c-0.2,2.5-0.9,4.8-1.7,7.1c-0.8,2.3-1.7,4.5-2.7,6.8c0.2-2.5,0.9-4.8,1.7-7.1
						C1840.3,687.6,1841.2,685.4,1842.1,683.1z"/>
				</g>
				<g>
					<path class="st12" d="M1853.1,691.1c0.4,0.4,0.5,0.7,0.5,1.1c0,0.4-0.1,0.7-0.5,1.1c-0.4-0.4-0.5-0.7-0.5-1.1
						C1852.6,691.9,1852.7,691.5,1853.1,691.1z"/>
				</g>
				<g>
					<path class="st12" d="M1693.3,691.1c-0.4,2.8-1.7,5.4-2.9,7.9c-1.3,2.5-2.6,4.9-3.7,7.5c0.3-2.8,1.5-5.4,2.8-7.9
						C1690.7,696.1,1692.1,693.7,1693.3,691.1z"/>
				</g>
				<g>
					<path class="st12" d="M1657.5,668.5c-0.7,3.6-1.9,7-3.1,10.5c-1.2,3.4-2.6,6.8-3.9,10.2c-1.3,3.4-2.5,6.8-3.5,10.3
						c-1,3.5-1.6,7.1-1.9,10.7c0-0.9,0-1.8,0-2.7l0.2-2.7l0.4-2.7l0.5-2.7c0.8-3.6,2-7,3.3-10.4c1.3-3.4,2.7-6.7,4.1-10.1
						C1655,675.3,1656.4,672,1657.5,668.5z"/>
				</g>
				<g>
					<path class="st12" d="M1629,710.8c0.3,0.9,0.2,1.9-0.1,2.7c-0.3,0.9-0.7,1.7-1.4,2.4c0-1,0.2-1.8,0.4-2.6
						C1628.3,712.5,1628.5,711.6,1629,710.8z"/>
				</g>
				<g>
					<path class="st12" d="M1613,696.2c-0.2,1.9-0.9,3.7-1.6,5.4c-0.8,1.7-1.6,3.3-2.8,4.9c0.4-1.8,1.1-3.6,1.9-5.3
						C1611.2,699.5,1612,697.8,1613,696.2z"/>
				</g>
				<g>
					<path class="st12" d="M1656.8,646.6c-0.1,1.4-0.4,2.8-0.7,4.1c-0.4,1.3-0.8,2.6-1.5,3.9c-0.1-1.4,0.2-2.8,0.5-4.2
						C1655.5,649.1,1656,647.8,1656.8,646.6z"/>
				</g>
				<g>
					<path class="st12" d="M1717.3,653.2c0.4,1.3,0.5,2.7,0.5,4c0,1.3-0.1,2.7-0.5,4c-0.4-1.3-0.5-2.7-0.5-4
						C1716.9,655.9,1717,654.5,1717.3,653.2z"/>
				</g>
				<g>
					<path class="st12" d="M1756.8,673.6c0,0.8,0.1,1.7,0.1,2.5c0,0.8-0.1,1.7-0.1,2.5c-0.1,0.8-0.2,1.7-0.3,2.5
						c-0.2,0.8-0.3,1.7-0.5,2.5c-0.7,3.3-1.7,6.5-2.8,9.8c-1,3.2-2.1,6.4-2.9,9.6c-0.8,3.2-1.4,6.6-1.5,9.9c0-0.8-0.1-1.7-0.1-2.5
						l0.1-2.5l0.3-2.5l0.4-2.5c0.7-3.3,1.7-6.6,2.7-9.8c1-3.2,2.1-6.4,3-9.6C1756,680.3,1756.6,677,1756.8,673.6z"/>
				</g>
				<g>
					<path class="st12" d="M1764,702.1c-0.3,2.3-0.8,4.4-1.3,6.6c-0.5,2.2-1,4.3-1.7,6.5c-0.1-2.3,0.2-4.5,0.7-6.7
						C1762.3,706.3,1763,704.1,1764,702.1z"/>
				</g>
				<g>
					<path class="st12" d="M1748.7,647.3c-0.1,1.7-0.5,3.4-1.1,5c-0.6,1.6-1.4,3.2-2.6,4.5c0.5-1.7,1.1-3.2,1.7-4.8
						C1747.3,650.5,1747.9,648.9,1748.7,647.3z"/>
				</g>
				<g>
					<path class="st12" d="M1438.6,705.7c0.3,0.9,0.2,1.8,0.1,2.6c-0.1,0.8-0.3,1.7-0.9,2.5c-0.3-0.9-0.2-1.8-0.1-2.6
						C1437.9,707.4,1438.1,706.5,1438.6,705.7z"/>
				</g>
			</g>
		</g>
		<path class="st7" d="M1920.2,545.2c0,0-25.3,1-32.1,1.9c-6.8,1-24.3,1.9-32.6,1s-39.4,0-47.7,0.5c-8.3,0.5-17,5.8-2.4,6.3
			c14.6,0.5,30.7,1,43.3,0.5c12.6-0.5,29.7,6.8,9.7,7.8c-19.9,1-39.9,0-50.1,1c-10.2,1-20.9,2.9-20.9,2.9l-3.9,2.9l-9.7-0.5
			c0,0-27.2,1.5-29.2,6.3c-1.9,4.9,37,4.4,37,4.4h79.3c0,0,11.7,2.9-4.9,3.4c-16.5,0.5,3.4,4.4,8.3,4.4s20.4,0,20.4,0l35.5,2.9
			V545.2z"/>
		<path class="st5" d="M1772.8,639.1c0,0-17.5-4.1-24.1-5.6c-6.6-1.5,8-3.6,8-3.6s-23.4-4.4-37.2-4.4s-44.5,2.2-44.5,2.2l-27.7-2.2
			c0,0-8.3,1.5-10.7,2.9c-2.4,1.5,20.9,6.6,37.7,6.6s40.9,1.5,40.9,1.5s10.2,2.9-10.2,2.9s30.7,5.8,35,5.8
			C1744.3,645.1,1768.4,646.1,1772.8,639.1z"/>
	</g>
	<path class="st5" d="M1626.9,681.6c-12-0.1-30.2-4.3-41.5,0.1c0,6.1,25,5.5,29.9,7.2c-1.6,0.5-5,1.5-6.6,2
		c9.8,0.7,19.7,2.2,29.8,1.5c-2.8-1.4-6.6-3-9.4-5c5.1-2,13.6-0.5,19.6-0.8C1648.7,679.2,1624.3,683.4,1626.9,681.6z"/>
	<path class="st7" d="M1760.4,680.9c0.5-0.1,0.8,0.2,0.7,0.7c-1.1-0.4-1.9-1.1-2.2-2.1c10.7-0.3,21.6,0.1,31.4,3
		c-2.3,2.7-9,0.6-12.3,2.6c3.1,0.7,5.8,1.7,8.7,3.1c-6,2.7-40.1,3.6-45.2-1.3c4.5,0.2,13.7-0.1,14.6-5.1
		C1758.3,681.6,1758.9,681.1,1760.4,680.9z"/>
	<path class="st7" d="M1536.4,627.6c7,0,15.5,0.5,21.1,3.5c-9.8,0.7-26.7,2.7-34.9-1.9c6-0.5,12.2-0.2,18.2-0.2"/>
</g>
<g>
	<linearGradient id="SVGID_6_" gradientUnits="userSpaceOnUse" x1="960.5367" y1="1156.0355" x2="960.5367" y2="705.3078">
		<stop  offset="0" style="stop-color:#EE6C4F"/>
		<stop  offset="1" style="stop-color:#E4644D"/>
	</linearGradient>
	<path class="st13" d="M1920.6,1197V655.1c-45,7.2-93.2,26.5-129,29c-48.1,3.3-98.8,9.2-145.4,21c-88.3,22.2-194.1,9.8-286.7,9.8
		c-49.3,0-98.3-1-147.1-3.3c-53.7-2.5-109.1,6.2-163.2,1.6c-28.5-2.4-51.6-9.1-80.9-3.5c-25.4,4.8-44.4,7-69.4,2.7
		c-31.2-5.4-65.4-3.1-96.9,0.4c-51.3,5.8-97.4,11.2-147.6,0.6c-25.3-5.3-54.2-12.1-79.4-15.8c-24.5-3.6-45.3-10.7-69.6-16.6
		c-45.3-11-91.9-8.2-138-15.1c-87.7-13-176-11.5-263.4-22.8c-34.1-4.4-69-8.9-103.6-7.9V1197H1920.6z"/>
	<path class="st14" d="M1920.6,878.3c-23.7-4-48.5-3.9-72.7-3.8c-42.1,0.2-84.2-5.2-126.4-5.3c-62.5-0.2-124.9,1.8-187.3,1.7
		c-42.3,0-84.6-0.3-126.8,1.6c-23.4,1-65.9,0.3-85.8,10.8c16.7,5.2,31,12.3,46.9,18.8c-12.5,7.3-38.9,3.5-54.3,5.9
		c-26.9,4.2-53.4,9.2-80.4,12.8c-60.1,8.2-120.9,9.8-181.5,15c-66.4,5.7-133.1,7.5-199.7,8.2c-28.2,0.3-53.8-1.2-81-4.9
		c-27.3-3.7-55.6,5.2-83.1,5.2c-30.5-0.1-61,0-91.5,0c-55.1,0-116.4,2-169.7,13.9c4.9,5.9,32.9,16.4,31.1,23.7
		c-1.5,6.1-41.4,6-48.6,6.7c-48,4.2-97.8-0.6-145.4,7c-38.6,6.2-76.8,2.4-115.1,7.2c-29,3.6-53.5,15.4-83.1,16.7
		c-19.5,0.8-43.9-0.6-65.8,3.4V1197h1920.2V878.3z"/>
	<g class="st15">
		<g>
			<g>
				<g class="st16">
					<path class="st17" d="M1114.6,850.5c11.1,0.1,29.9,2.4,46.1,1.8C1145.1,850.8,1129.8,849.9,1114.6,850.5z"/>
				</g>
				<g class="st16">
					<path class="st17" d="M1919.7,756.3c-13.1,2.2-25.4,4.8-36.1,7.2c-14.3,3.2-39.6,4.5-45,18.4c18.1,4.5,36.8,5.3,54.4,10.8
						c-2.5,11.8-131.9,4.4-155.1,4.9c14.5-2.8,60.7,3.2,63.5-16.9c0.6-4.7-152.5,12.7-163.9,13.4c-34.2,2.1-81-3.4-113.3,9
						c12,10.5,41.9,9.8,57.9,13.3c-36.9-0.2-70.9,1.9-107.4,6.4c-43.5,5.3-89.1,2.1-133,2.1c-39.3,0-78-1.7-117.2-1.7
						c-39.6,0-95-1.7-131.6,13.3c21.8,0.6,42.5,5.5,64.5,5.5c9.7,0,21.2-1.7,28.7,3.4c-5.3,4.7-14.8,6.5-25.5,6.9
						c39.6,3.8,79.8,11.8,119.2,11.9c52.6,0.2,107,4.1,158.1-7.2c-15.2-12.2-36.6-13.2-56.1-13.3c41.6,0,83.2,0,124.8,0
						c29.7,0,59.3,0,89,0c14.8,0,44.3-4.7,57.2,3c-11.8,5-24.6,3.3-37,4.2c38.5,8,84.4,4.7,124.4,4.7c31.1,0,62.3,0.2,91.8-4.9
						c29.3-5.1,58.5-5.6,87.7-6.2V756.3z"/>
				</g>
			</g>
			<g class="st16">
				<path class="st17" d="M589.9,857.3c74.3,0,147.9,14.1,222.2,16.9c29.1,1.1,58.2,2.5,87.2,3.6c20.2,0.7,47.5-1.8,65.1,8.5
					c-14.9,10.5-44.6-0.1-61.4,7.3c25,10.5,65.7,8,92.7,8.1c22,0.1,90.4-8.6,104.2,8.2c-55.5,3.2-112.2-3.1-168.1-3.1
					c-29,0-83.3,6.7-108.1-8.1c13.4-3.9,29.2-1.3,40.6-8.6c-57-2.2-119.4,0-173.8-8.5c6.6-0.4,12.5-2.1,17.7-5.5
					c-27.6-7.2-66.5-4.9-94.9-5.1c-42.3-0.4-82.9-6.3-122.1-15c49.8-3.6,99.7,1.3,149.8,1.3"/>
			</g>
			<g class="st16">
				<path class="st17" d="M604.6,975.1c-30.2,0-72.9-5.1-100.6,3c61.5,4.6,125.8-1.3,187.9-1.3c-34,0-61.1-7.6-92.2-11.6
					c4.4,2.6,2.8,3.7,5.2,6.6c-14.2,6.9-29.6,6.7-46,6.7"/>
			</g>
			<g class="st16">
				<path class="st17" d="M1169.4,980.2c79.9-11.9,162.6,2.9,242.7,5.2c30.2,0.8,59.9-3.5,90.1-3.5c18,0,46.4-4.7,62,3
					c-38.1,3.6-77.5-0.1-115.6,3.4c-24.2,2.2-46.1,3-70.9,2.1c-48.4-1.9-95.2-10.2-144.4-10.2c-23,0-54.8,8.7-76.2,1.6
					C1166.1,982,1175,981.9,1169.4,980.2z"/>
			</g>
			<g class="st16">
				<path class="st17" d="M933.6,1051.9c13.4-5.1,39.2-2,55.1-1.3c19.2,0.9,46.5-0.8,63.6,4.4c-29.1,2.9-65.4,0.6-93,9.3
					c33.6,11.8,90.5-8.2,120.5,9.4c-58.4-0.6-118.1,7.7-176.9,3.4c5.9-1.4,30.5,1.7,35.4-3.8c8.1-9.1-9.5-11.2-17.2-11.4
					c0.1-0.4,0.1-4.2,0-4.6C929.4,1055.3,937.4,1051.9,933.6,1051.9z"/>
			</g>
			<g class="st16">
				<path class="st17" d="M266.5,727.5c-45.2-3.6-87.3-1.4-132-2c-24.8-0.4-49.6-1-74.3-0.9c-13.5,0-45.6,7.5-55.1,1.7
					c22,13.3,51.4,6.4,77.2,6.4c31.3,0,65.2-3.1,95.8,2c3,21.2-56,15.3-65.1,15.1c39.9,0,81.1,2.6,120.8-0.4
					c-7.7-4.2-18.5-4.1-27.9-6.1c15.6-2.6,31.4-3.8,48.1-3.8c1.4,0,1.3-0.1-0.2-0.1c-1.4-0.1-2,0.3-1.8,1.4
					c10.3-0.7,11.6,7.1,5.3,13c-5.6,5.3-15.7,1.8-23.3,4.9c39.5,6,81,8.3,122.2,6.4c27.9-1.3,55.4-5.6,83.4-6.8
					c41.7-1.7,98.3,7.6,137.8-3.5c-8.3-4.7-31,0-41.9,0c-16.9,0-33.8,0-50.7,0c-28.8,0-57.6,0.7-86.4,0
					c-36.6-0.9-75.2-3.9-111.8-8.9c25.3-13.4,77.9,3.4,98.5-16.4C345.7,727.4,305.6,730.7,266.5,727.5z"/>
			</g>
			<path class="st18" d="M776.4,785.6c22.5-14,61.9,1.5,87.2,0c-35.1,4.9-70.8,6.7-106.4,6.8c-20,0-53.3,2.6-70.2-4.7
				C720.6,785.3,755.6,785.9,776.4,785.6z"/>
			<path class="st18" d="M982.9,824.9c18.8-0.4,38.6,0.5,56.7,5.5c-11.2,10.3-48.2,1-64,0c-12.9-0.8-29.9,2.6-40.4-3.8
				c11.1-9.5,49.1-3.5,64.2-3.5"/>
			<path class="st18" d="M1567.9,913.7c25.9-9.8,72.6-4.2,100.7-5.5c24.4-1.1,48.6-4.5,73-2.7c-30.5,10.8-68.3,1.9-100.7,5.1
				c-17.4,1.7-33.8,4.7-51.8,4.7c-13.4,0-28.1,1.6-41.4,0c-11.7-1.4-21.8-7.1-34-6.8C1538.7,908.5,1567.8,905.4,1567.9,913.7z"/>
			<path class="st18" d="M1752.5,1060.5c-23.9-9.8-62.9-13.9-89.1-12c18.9,5.7,57.1,0,68.8,15.1c-48.7,8.8-100.8-1.5-149.6,7.4
				c4.2,13.4,120.4,2.1,142.4,3c19.9,0.8,74.4,8.4,89.8-3.2c-9-8.4-34-5.4-47.5-9.9c15.5,0.8,29.3-5.2,43.5-7.2
				C1782.5,1053.6,1755,1055.2,1752.5,1060.5z"/>
			<path class="st18" d="M1412.5,1125.3c28.2-5.4,64.8-0.1,90.9,10.3c-20.2-0.3-106.8,11.2-118.2-5.3
				C1395.1,1127.1,1408.6,1124.7,1412.5,1125.3z"/>
			<path class="st18" d="M1180.3,1077.5c10-2.9,36.2-5.7,41.9,3.5c-7.4,4.5-16.8,3.6-25.5,3.4"/>
			<path class="st18" d="M451,1111.7c20.5,0,59.6-7.1,76.9,6.4c-35,12.5-81.5,15.9-118.9,14.1c-9.7-0.5-22.8-0.1-17.2-11.1
				c11.6-22.6,98.2-12.8,115.9-12.8"/>
		</g>
	</g>
	<g class="st11">
		<g>
			<g>
				<path class="st19" d="M138.4,927.3c10.4-0.3,20.7-0.3,31.1-0.1c5.2,0.1,10.4,0.4,15.5,0.5c5.2,0.2,10.4,0.2,15.5,0.2
					c5.2,0,10.4,0,15.5,0.1c5.2,0.1,10.4,0.1,15.5,0.2c10.4,0.2,20.7,0.4,31.1,0.7v0.1c-10.4,0.3-20.7,0.4-31.1,0.2
					c-5.2,0-10.4-0.2-15.5-0.3c-5.2-0.1-10.4-0.3-15.5-0.5c-5.2-0.2-10.4-0.4-15.5-0.4c-5.2-0.1-10.4,0-15.5,0
					c-10.4-0.1-20.7-0.3-31.1-0.6V927.3z"/>
			</g>
			<g>
				<path class="st19" d="M324.9,993.8c20.3-0.5,40.6-1.5,60.9-2c10.2-0.2,20.3-0.3,30.5-0.3c10.2,0.1,20.3,0.2,30.5,0.7
					c20.3,0.9,40.5,4.2,60.6,6.9c10.1,1.3,20.1,2.6,30.3,3.3c10.1,0.7,20.3,0.9,30.4,0l0,0.1c-10.1,1.2-20.3,1.2-30.5,0.7
					c-10.2-0.5-20.3-1.6-30.4-2.9c-20.2-2.6-40.2-6.1-60.5-7.4c-10.1-0.7-20.3-1-30.4-0.9c-10.2,0-20.3,0.4-30.5,0.8
					c-20.3,0.7-40.6,1.5-60.9,1.3L324.9,993.8z"/>
			</g>
			<g>
				<path class="st19" d="M619.2,1041.6c1.5-0.5,3.1-0.6,4.6-0.5c0.8,0.1,1.5,0.3,2.3,0.3c0.8,0.1,1.5,0.1,2.3,0
					c0.8,0,1.6,0,2.3,0.1c0.8,0.1,1.5,0.2,2.3,0.3c1.5,0.3,3,0.8,4.4,1.5l0,0.1c-1.6-0.1-3.1-0.3-4.6-0.5c-0.8-0.1-1.5-0.3-2.2-0.4
					c-0.8-0.1-1.5-0.3-2.3-0.5c-0.8-0.2-1.5-0.3-2.3-0.3c-0.8,0-1.5,0.1-2.3,0.2c-1.5,0.1-3,0-4.6-0.2L619.2,1041.6z"/>
			</g>
			<g>
				<path class="st19" d="M811.1,981.9c15.4-1.7,30.7-3.5,46.2-4.5c7.7-0.5,15.5-0.8,23.2-1c7.7-0.2,15.5-0.2,23.2,0
					c7.7,0.2,15.5,0.8,23.2,1.8c7.7,1,15.3,2.3,22.9,3.7c7.6,1.3,15.2,2.7,22.9,3.6c7.7,1,15.4,1.6,23.1,1.6l0,0.1
					c-7.7,0.3-15.5-0.1-23.2-0.9c-7.7-0.8-15.4-2-23-3.3c-7.6-1.3-15.2-2.7-22.9-3.7c-1.9-0.3-3.8-0.5-5.7-0.8
					c-1.9-0.3-3.8-0.5-5.8-0.6c-1.9-0.2-3.8-0.3-5.8-0.5c-1.9-0.2-3.9-0.3-5.8-0.3c-7.7-0.4-15.4-0.5-23.2-0.2
					c-7.7,0.2-15.4,0.9-23.1,1.5c-15.4,1.2-30.8,2.7-46.2,3.8L811.1,981.9z"/>
			</g>
			<g>
				<path class="st19" d="M1021.3,949.5c3-0.3,6.1-0.5,9.1-0.4c1.5,0.1,3,0.2,4.6,0.3c1.5,0,3,0,4.6-0.1c3-0.2,6.1-0.3,9.1-0.3
					c3,0.1,6.1,0.2,9.1,0.5v0.1c-3,0.3-6.1,0.4-9.1,0.5c-3,0-6.1-0.1-9.1-0.3c-1.5-0.1-3-0.1-4.6-0.1c-1.5,0-3,0.2-4.6,0.3
					c-3,0.1-6.1,0-9.1-0.4V949.5z"/>
			</g>
			<g>
				<path class="st19" d="M1350.3,925.6c5.3-0.3,10.7-0.5,16-0.6c2.7,0,5.3,0.1,8,0c2.7-0.1,5.3-0.2,8-0.4c5.3-0.4,10.6-0.7,16-0.8
					c5.3-0.1,10.7-0.2,16,0.1l0,0.1c-5.3,0.4-10.6,0.7-16,0.9c-5.3,0.2-10.7,0.3-16,0.3c-2.7,0-5.3,0-8,0.2c-2.7,0.1-5.3,0.3-8,0.5
					c-5.3,0.2-10.7,0.2-16-0.2V925.6z"/>
			</g>
			<g>
				<path class="st19" d="M1602.6,951.2c6.6-0.3,13.1-0.5,19.7-0.4l4.9,0.2c1.6,0.1,3.3,0.1,4.9,0.2c1.6,0.1,3.3,0.1,4.9,0.1
					c1.6,0,3.3,0,4.9,0c6.6,0,13.1,0.2,19.7,0.7c6.5,0.6,13.1,1.4,19.5,2.6l0,0.1c-6.5-0.6-13.1-1.2-19.6-1.7
					c-6.5-0.5-13.1-0.9-19.6-1.3c-3.3-0.2-6.6-0.3-9.8-0.3c-3.3,0-6.6,0.1-9.8,0.2c-6.6,0.1-13.1,0-19.7-0.4V951.2z"/>
			</g>
			<g>
				<path class="st19" d="M1801.8,997.2c0.9-0.4,1.8-0.5,2.7-0.4c0.5,0.1,0.9,0.2,1.4,0.3c0.5,0,0.9,0,1.4-0.1
					c0.9-0.2,1.8-0.3,2.7-0.3c0.9,0,1.8,0.2,2.7,0.5v0.1c-0.9,0.3-1.8,0.5-2.7,0.5c-0.9,0-1.8-0.1-2.7-0.3c-0.5-0.1-0.9-0.2-1.4-0.1
					c-0.5,0-0.9,0.2-1.4,0.3c-0.9,0.1-1.8,0-2.7-0.4V997.2z"/>
			</g>
			<g>
				<path class="st19" d="M1388.7,1043.3c5.3-0.4,10.7-0.6,16-0.7c2.7,0,5.3,0,8,0c2.7-0.1,5.3-0.2,8-0.4c5.3-0.4,10.7-0.7,16-0.8
					c5.3-0.1,10.7-0.1,16,0.2v0.1c-5.3,0.3-10.7,0.5-16,0.8c-5.3,0.2-10.7,0.3-16,0.3c-2.7,0-5.3,0.1-8,0.2c-2.7,0.1-5.3,0.4-8,0.5
					c-5.3,0.2-10.7,0.2-16-0.1L1388.7,1043.3z"/>
			</g>
			<g>
				<path class="st19" d="M1163.9,1116.7c1.8-0.4,3.7-0.5,5.5-0.4c0.9,0.1,1.8,0.2,2.7,0.3c0.9,0,1.8,0,2.7-0.1
					c0.9-0.1,1.8-0.2,2.7-0.2c0.9,0,1.8-0.1,2.7-0.1c1.8,0,3.7,0.2,5.5,0.5v0.1c-1.8,0.3-3.7,0.5-5.5,0.5c-0.9,0-1.8,0-2.7-0.1
					c-0.9,0-1.8-0.1-2.7-0.2c-0.9-0.1-1.8-0.2-2.7-0.1c-0.9,0-1.8,0.2-2.7,0.3c-1.8,0.1-3.7,0-5.5-0.4V1116.7z"/>
			</g>
			<g>
				<path class="st19" d="M1589.8,1128.7c11.3-0.2,22.6-0.3,33.9-0.2c5.6,0.1,11.3,0.3,16.9,0.3c2.8,0.1,5.6,0.1,8.5,0.1
					c2.8,0,5.6,0,8.5,0l8.5,0.1l8.5,0.2l8.5,0.3c2.8,0.1,5.6,0.3,8.5,0.5c11.3,0.7,22.5,1.9,33.7,3.9l0,0.1
					c-11.2-1.3-22.5-2.2-33.7-2.9l-8.4-0.5l-8.5-0.4l-16.9-0.7c-5.6-0.2-11.3-0.3-16.9-0.3c-5.6,0-11.3,0.1-16.9,0.2
					c-11.3,0.1-22.6-0.1-33.9-0.6L1589.8,1128.7z"/>
			</g>
			<g>
				<path class="st19" d="M659.4,1109.9c15.2-2.8,30.5-4.4,45.9-5.4l11.6-0.5c3.9-0.1,7.7-0.2,11.6-0.4l23.1-0.6
					c15.4-0.3,30.8-0.4,46.2-0.3c7.7,0,15.4,0.1,23.1,0.2l23.1,0.1l0,0.1c-3.9,0.1-7.7,0.3-11.6,0.4l-11.6,0.2l-11.6,0.1
					c-3.9,0-7.7,0-11.6,0l-46.2-0.2l-11.6,0.1c-3.9,0.1-7.7,0.2-11.6,0.3c-3.8,0.2-7.7,0.4-11.5,0.6l-11.5,0.8
					c-15.4,1.1-30.7,2.5-46,4.6L659.4,1109.9z"/>
			</g>
			<g>
				<path class="st19" d="M783.7,1041.6c1.4-0.4,2.7-0.5,4.1-0.4c0.7,0.1,1.4,0.2,2.1,0.3c0.7,0,1.4,0,2.1-0.1
					c0.7-0.1,1.4-0.2,2.1-0.2c0.7,0,1.4-0.1,2.1-0.1c1.4,0,2.7,0.2,4.1,0.5v0.1c-1.4,0.3-2.7,0.5-4.1,0.5c-0.7,0-1.4,0-2.1-0.1
					c-0.7,0-1.4-0.1-2.1-0.2c-0.7-0.1-1.4-0.2-2.1-0.1c-0.7,0-1.4,0.2-2.1,0.3c-1.4,0.1-2.7,0-4.1-0.4V1041.6z"/>
			</g>
			<g>
				<path class="st19" d="M169.5,1091.1c0.3-0.4,0.6-0.5,0.9-0.4c0.2,0.1,0.3,0.2,0.5,0.3c0.2,0,0.3,0,0.5-0.1
					c0.3-0.2,0.6-0.3,0.9-0.3c0.3,0,0.6,0.2,0.9,0.5v0.1c-0.3,0.3-0.6,0.5-0.9,0.5c-0.3,0-0.6-0.1-0.9-0.3c-0.2-0.1-0.3-0.2-0.5-0.1
					c-0.2,0-0.3,0.2-0.5,0.3c-0.3,0.1-0.6,0-0.9-0.4V1091.1z"/>
			</g>
			<g>
				<path class="st19" d="M302.9,1079.2c9-0.3,18-0.5,27-0.5l6.8,0.1c2.3,0.1,4.5,0.1,6.8,0.1c2.3,0.1,4.5,0.1,6.8,0.1
					c2.3,0,4.5,0,6.8,0l6.8,0.1l6.8,0.2l6.8,0.4l6.7,0.5c9,0.8,17.9,2.1,26.8,3.9l0,0.1c-8.9-1.3-17.9-2.2-26.8-3l-6.7-0.5l-6.7-0.5
					l-13.5-0.7c-4.5-0.2-9-0.3-13.5-0.3c-4.5,0-9,0.1-13.5,0.2c-9,0.1-18,0.1-27-0.3V1079.2z"/>
			</g>
			<g>
				<path class="st19" d="M306.6,1145.7c2.2-0.3,4.3-0.3,6.4-0.2c1.1,0.1,2.1,0.3,3.2,0.3c1.1,0,2.1,0,3.2-0.2l6.4-0.8
					c2.1-0.2,4.2-0.5,6.4-0.8l0,0.1c-2,0.9-4.1,1.5-6.2,1.8c-2.1,0.3-4.3,0.4-6.5,0.3c-1.1-0.1-2.2-0.1-3.2-0.1
					c-1.1,0-2.2,0.2-3.2,0.2c-2.2,0-4.3-0.1-6.4-0.5L306.6,1145.7z"/>
			</g>
			<g>
				<path class="st19" d="M105.5,1022.8c16.1-2.6,32.4-4,48.8-4.5l12.2-0.2c4.1,0,8.2,0,12.2,0l24.5,0.2c16.3,0.2,32.6,0.7,48.9,1.3
					l24.5,0.9l12.2,0.3l12.2,0.3v0.1l-12.2,0.1l-12.2-0.1l-12.2-0.2l-12.2-0.4c-16.3-0.5-32.6-1.3-48.9-1.8l-12.2-0.3
					c-4.1,0-8.2-0.1-12.2-0.1c-4.1,0-8.2,0.1-12.2,0.2l-12.2,0.5c-16.3,0.7-32.6,1.8-48.8,3.8L105.5,1022.8z"/>
			</g>
			<g>
				<path class="st19" d="M129.3,882.9c1.7-0.4,3.4-0.5,5-0.4c0.8,0.1,1.7,0.2,2.5,0.3c0.8,0,1.7,0,2.5-0.1c0.8-0.1,1.7-0.2,2.5-0.2
					c0.8,0,1.7-0.1,2.5-0.1c1.7,0,3.4,0.2,5,0.5v0.1c-1.7,0.3-3.4,0.5-5,0.5c-0.8,0-1.7,0-2.5-0.1c-0.8,0-1.7-0.1-2.5-0.2
					c-0.8-0.1-1.7-0.2-2.5-0.1c-0.8,0-1.7,0.2-2.5,0.3c-1.7,0.1-3.4,0-5-0.4V882.9z"/>
			</g>
			<g>
				<path class="st19" d="M324.9,891.4c8.2-0.3,16.4-0.5,24.7-0.6c4.1,0,8.2,0.1,12.3,0c4.1,0,8.2-0.2,12.3-0.4
					c4.1-0.2,8.2-0.4,12.3-0.5c4.1-0.1,8.2-0.3,12.3-0.3c8.2-0.2,16.5-0.2,24.7,0l0,0.1c-8.2,0.4-16.4,0.8-24.7,1
					c-4.1,0.1-8.2,0.2-12.3,0.2c-4.1,0.1-8.2,0.1-12.3,0.1c-4.1,0-8.2,0-12.3,0.2c-4.1,0.1-8.2,0.3-12.3,0.5
					c-8.2,0.2-16.5,0.2-24.7-0.2V891.4z"/>
			</g>
			<g>
				<path class="st19" d="M463.8,812.9c18-0.3,36-0.4,53.9-0.5c9,0,18,0.1,27,0c9,0,18-0.2,27-0.5l53.9-1.3l53.9-1.2l0,0.1
					l-13.5,0.7l-13.5,0.5l-13.5,0.5l-13.5,0.4c-18,0.5-36,0.7-53.9,0.8c-9,0.1-18,0.1-27,0.2l-27,0.5c-18,0.2-36,0.1-53.9-0.3
					L463.8,812.9z"/>
			</g>
			<g>
				<path class="st19" d="M398,836.8c2.6-0.4,5.2-0.5,7.8-0.4c1.3,0.1,2.6,0.2,3.9,0.3c1.3,0,2.6,0,3.9-0.1c2.6-0.2,5.2-0.3,7.8-0.3
					c2.6,0.1,5.2,0.2,7.8,0.5v0.1c-2.6,0.3-5.2,0.4-7.8,0.5c-2.6,0-5.2-0.1-7.8-0.3c-1.3-0.1-2.6-0.2-3.9-0.1
					c-1.3,0-2.6,0.2-3.9,0.3c-2.6,0.1-5.2,0-7.8-0.4V836.8z"/>
			</g>
			<g>
				<path class="st19" d="M187.8,783.9c3.3-0.5,6.7-0.5,10.1-0.3c1.7,0.1,3.3,0.4,5,0.5c1.7,0.1,3.4,0.2,5,0.2
					c3.4,0,6.7,0.2,10.1,0.4c3.3,0.3,6.7,0.5,10,0.9l0,0.1c-3.4,0.3-6.7,0.3-10.1,0.1c-3.4-0.2-6.7-0.5-10-1c-1.7-0.2-3.3-0.4-5-0.4
					c-1.7-0.1-3.4,0-5,0c-3.3,0-6.7-0.2-10-0.4L187.8,783.9z"/>
			</g>
			<g>
				<path class="st19" d="M270,823.1c1.2-0.4,2.4-0.5,3.7-0.4c0.6,0.1,1.2,0.2,1.8,0.3c0.6,0,1.2,0,1.8-0.1c1.2-0.2,2.4-0.3,3.7-0.3
					c1.2,0,2.4,0.2,3.7,0.5v0.1c-1.2,0.3-2.4,0.5-3.7,0.5c-1.2,0-2.4-0.1-3.7-0.3c-0.6-0.1-1.2-0.2-1.8-0.1c-0.6,0-1.2,0.2-1.8,0.3
					c-1.2,0.1-2.4,0-3.7-0.4V823.1z"/>
			</g>
			<g>
				<path class="st19" d="M765.4,828.3c8.7-0.3,17.4-0.4,26.1-0.3c4.3,0.1,8.7,0.3,13,0.3c4.3,0,8.7-0.1,13-0.2l13-0.5l13-0.7
					c8.7-0.5,17.3-1.2,26-2l0,0.1c-8.6,1.5-17.2,2.4-25.9,3l-6.5,0.4l-6.5,0.2c-4.3,0.1-8.7,0.2-13.1,0.1c-2.2,0-4.3,0-6.5,0
					c-2.2,0-4.3,0-6.5,0c-2.2,0-4.3,0.1-6.5,0.1l-6.5,0.1c-8.7,0-17.4-0.1-26.1-0.5V828.3z"/>
			</g>
			<g>
				<path class="st19" d="M1023.1,760c18.6-2.4,37.4-4.1,56.1-5.1l14.1-0.6c4.7-0.1,9.4-0.3,14.1-0.4c4.7-0.1,9.4-0.2,14.1-0.3
					l14.1-0.3c18.8-0.2,37.6,0.1,56.3,1.2l14.1,0.9l14,1.2l14,1.5l14,1.8l0,0.1l-14-1.4l-14-1.2l-14-1l-14-0.9
					c-18.7-1-37.5-1.6-56.3-1.7l-14.1,0c-4.7,0.1-9.4,0.2-14.1,0.3c-4.7,0.2-9.4,0.4-14.1,0.6l-14.1,0.9
					c-18.7,1.2-37.4,2.6-56.1,4.3L1023.1,760z"/>
			</g>
			<g>
				<path class="st19" d="M1209.6,783.9c3-0.3,6.1-0.5,9.1-0.4c1.5,0.1,3,0.2,4.6,0.3c1.5,0,3,0,4.6-0.1c3-0.2,6.1-0.3,9.1-0.3
					c3,0.1,6.1,0.2,9.1,0.5v0.1c-3,0.3-6.1,0.4-9.1,0.5c-3,0-6.1-0.1-9.1-0.3c-1.5-0.1-3-0.1-4.6-0.1c-1.5,0-3,0.2-4.6,0.3
					c-3,0.1-6.1,0-9.1-0.4V783.9z"/>
			</g>
			<g>
				<path class="st19" d="M1416.1,760l9.2-0.4c1.5,0,3.1,0,4.6-0.2c1.5-0.1,3-0.4,4.5-0.7c3-0.6,6-1.2,9.1-1.6
					c3-0.4,6.1-0.6,9.2-0.6l0,0.1c-3,0.6-6,1.1-9.1,1.6c-3,0.4-6.1,0.8-9.1,1.1c-1.5,0.1-3.1,0.3-4.6,0.5c-0.8,0.1-1.5,0.2-2.3,0.4
					l-2.3,0.3c-3.1,0.3-6.2,0.2-9.2-0.3L1416.1,760z"/>
			</g>
			<g>
				<path class="st19" d="M1509.4,777.1c2.7-0.4,5.5-0.5,8.2-0.4c1.4,0.1,2.7,0.2,4.1,0.3c1.4,0,2.7,0,4.1-0.1
					c2.7-0.2,5.5-0.3,8.2-0.3c2.7,0.1,5.5,0.2,8.2,0.5v0.1c-2.7,0.3-5.5,0.4-8.2,0.5c-2.7,0-5.5-0.1-8.2-0.3
					c-1.4-0.1-2.7-0.2-4.1-0.1c-1.4,0-2.7,0.2-4.1,0.3c-2.7,0.1-5.5,0-8.2-0.4V777.1z"/>
			</g>
			<g>
				<path class="st19" d="M1684.8,734.4c3.4-0.3,6.7-0.5,10.1-0.4c1.7,0.1,3.4,0.2,5,0.3c1.7,0,3.4,0,5-0.1
					c3.4-0.2,6.7-0.3,10.1-0.3c3.4,0.1,6.7,0.2,10.1,0.5v0.1c-3.4,0.3-6.7,0.4-10.1,0.5c-3.4,0-6.7-0.1-10.1-0.3
					c-1.7-0.1-3.4-0.1-5-0.1c-1.7,0-3.4,0.2-5,0.3c-3.4,0.1-6.7,0-10.1-0.4V734.4z"/>
			</g>
			<g>
				<path class="st19" d="M1706.8,888c9.4-0.3,18.9-0.6,28.3-0.6c4.7,0,9.4,0.1,14.2,0c4.7,0,9.4-0.2,14.2-0.4
					c4.7-0.2,9.4-0.4,14.2-0.5c4.7-0.1,9.4-0.3,14.2-0.3c9.4-0.1,18.9-0.1,28.3,0.2l0,0.1c-9.4,0.3-18.9,0.6-28.3,0.8
					c-4.7,0.1-9.4,0.2-14.2,0.2c-4.7,0.1-9.4,0.1-14.2,0.1c-4.7,0-9.4,0-14.2,0.2c-4.7,0.1-9.4,0.4-14.2,0.5
					c-9.4,0.2-18.9,0.2-28.3-0.1V888z"/>
			</g>
			<g>
				<path class="st19" d="M1705,952.9c10.8-0.3,21.6-0.3,32.5-0.1c5.4,0.1,10.8,0.4,16.2,0.5c5.4,0.2,10.8,0.2,16.2,0.2
					c5.4,0,10.8,0,16.2,0.1c5.4,0.1,10.8,0.1,16.2,0.2c10.8,0.2,21.6,0.4,32.4,0.8l0,0.1c-10.8,0.3-21.6,0.3-32.5,0.2
					c-5.4,0-10.8-0.2-16.2-0.3c-5.4-0.1-10.8-0.3-16.2-0.5c-5.4-0.2-10.8-0.4-16.2-0.4c-5.4-0.1-10.8,0-16.2,0
					c-10.8-0.1-21.6-0.3-32.4-0.7L1705,952.9z"/>
			</g>
		</g>
	</g>
</g>
<g class="st20">
	<path class="st21" d="M2126.8,784.8c2,1.3,4.4,2.1,7,2.1c0.3,0,0.5,0,0.8,0l-2.1-7.7L2126.8,784.8z"/>
	<polygon class="st21" points="2130.2,770.7 2129.8,769.2 2124.6,769.2 	"/>
	<path class="st21" d="M2139.4,785.6c2.4-1.2,4.4-3.2,5.7-5.7l-7.7-2.1L2139.4,785.6z"/>
	<path class="st21" d="M2168.4,769.2h-5.8c-0.4,0.8-0.6,1.7-0.8,2.5h8L2168.4,769.2z"/>
	<path class="st21" d="M2178.6,771.8h8c-0.2-0.9-0.4-1.7-0.8-2.5h-5.8L2178.6,771.8z"/>
	<path class="st21" d="M2138.6,773l7.7,2.1c0-0.3,0-0.5,0-0.8c0-1.8-0.4-3.5-1.1-5.1h-3L2138.6,773z"/>
	<path class="st21" d="M2182.6,783.8c0.2-0.2,0.4-0.3,0.6-0.5c1.8-1.8,3-4,3.5-6.4h-8L2182.6,783.8z"/>
	<path class="st21" d="M2121.1,773.5c0,0.3,0,0.5,0,0.8c0,2.6,0.8,5,2.1,7l5.7-5.7L2121.1,773.5z"/>
	<path class="st21" d="M2105.7,771.8c-0.5-2.4-1.7-4.6-3.5-6.4c-0.2-0.2-0.4-0.4-0.6-0.5l-4,6.9H2105.7z"/>
	<path class="st21" d="M2101.6,783.8c0.2-0.2,0.4-0.3,0.6-0.5c1.8-1.8,3-4,3.5-6.4h-8L2101.6,783.8z"/>
	<polygon class="st21" points="2135.1,769.4 2135.2,769.2 2135,769.2 	"/>
	<path class="st21" d="M2084.9,764.8c-0.2,0.2-0.4,0.3-0.6,0.5c-1.8,1.8-3,4-3.5,6.4h8L2084.9,764.8z"/>
	<path class="st21" d="M2093.3,779.3l-4,6.9c1.3,0.4,2.6,0.6,4,0.6c1.4,0,2.7-0.2,4-0.6L2093.3,779.3z"/>
	<path class="st21" d="M2080.8,776.8c0.5,2.4,1.7,4.6,3.5,6.4c0.2,0.2,0.4,0.4,0.6,0.5l4-6.9H2080.8z"/>
	<path class="st21" d="M2088.8,727.4l-0.6,1l5.2,5.2l0,0l6.5,6.5c1.1,1.1,1.7,2.8,1.4,4.4c-0.3,1.6-1.3,3-2.7,3.7l-10.4,5.2v3.9
		c1.6-0.5,3.3-0.7,5.1-0.7c3.3,0,6.4,0.9,9.1,2.5h6.4l-9.1-32.9h-8.6C2090.1,726.2,2089.3,726.6,2088.8,727.4z"/>
	<path class="st21" d="M2097.3,762.3c-1.3-0.4-2.6-0.6-4-0.6c-1.4,0-2.7,0.2-4,0.6l4,6.9L2097.3,762.3z"/>
	<path class="st21" d="M2161.8,776.8c0.5,2.4,1.7,4.6,3.5,6.4c0.2,0.2,0.4,0.4,0.6,0.5l4-6.9H2161.8z"/>
	<path class="st21" d="M2220.4,785.6c2.4-1.2,4.4-3.2,5.7-5.7l-7.7-2.1L2220.4,785.6z"/>
	<path class="st21" d="M2209.1,763c-2.4,1.2-4.4,3.2-5.7,5.7l7.7,2.1L2209.1,763z"/>
	<path class="st21" d="M2202.1,773.5c0,0.3,0,0.5,0,0.8c0,2.6,0.8,5,2.1,7l5.7-5.7L2202.1,773.5z"/>
	<path class="st21" d="M2207.8,784.8c2,1.3,4.4,2.1,7,2.1c0.3,0,0.5,0,0.8,0l-2.1-7.7L2207.8,784.8z"/>
	<path class="st21" d="M2227.4,775c0-0.3,0-0.5,0-0.8c0-2.6-0.8-5-2.1-7l-5.7,5.7L2227.4,775z"/>
	<path class="st21" d="M2216.1,769.4l5.7-5.7c-2-1.3-4.4-2.1-7-2.1c-0.3,0-0.5,0-0.8,0L2216.1,769.4z"/>
	<path class="st21" d="M2174.3,779.3l-4,6.9c1.3,0.4,2.6,0.6,4,0.6c1.4,0,2.7-0.2,4-0.6L2174.3,779.3z"/>
	<path class="st22" d="M2088.2,753.4l-0.8,0.4c-0.4,0.2-0.7,0.3-1.1,0.3c-0.7,0-1.3-0.3-1.8-0.7l-1.4-1.4v7.2c0,0.2,0,0.4,0.1,0.6
		c1.5-1.1,3.2-1.9,5-2.4L2088.2,753.4L2088.2,753.4z"/>
	<path class="st22" d="M2088.2,728.4l0.6-1c0.5-0.7,1.3-1.2,2.1-1.2h8.6l-1.2-4.3c-0.1-0.2-0.2-0.5-0.3-0.7h-7.2
		c-2.6,0-5,1.3-6.4,3.6l-0.6,1c1.1,0.1,2.2,0.6,3,1.5L2088.2,728.4z"/>
	<path class="st23" d="M2204.6,739.9l29.7-29.7c0.5-0.5,0.7-1.1,0.7-1.8c0-0.7-0.3-1.3-0.7-1.8l-5.1-5.1c0,0,0,0-0.1-0.1
		c-0.2,0.8-0.7,1.6-1.3,2.3l0,0c-0.7,0.7-1.4,1.1-2.3,1.3c0,0,0,0,0.1,0.1l3.3,3.3l-21.6,21.6L2204.6,739.9
		C2204.6,739.9,2204.6,739.9,2204.6,739.9z"/>
	<path class="st22" d="M2116,693.3h-2.5h-2.5v9c1.7-0.5,3.3-1.1,5.1-1.5V693.3z"/>
	<path class="st24" d="M2098.4,721.8c-0.1-0.2,0-0.5,0-0.7h2.5h45.6c0,3.3,2.1,6.1,5.1,7.2c0,0.1,0,0.3,0,0.4v5.1
		c0,1.4,1.1,2.5,2.5,2.5s2.5-1.1,2.5-2.5v-5.1c0-0.1,0-0.3,0-0.4c3-1,5.1-3.9,5.1-7.2h48c0,0.2,0,0.5,0,0.7l0,0.1
		c1-2.8,2.8-5.8,5.2-5.8h-35.4h-5.1h-17.7h-5.1h-17.7h-5.1h-35.4c2.2,0,3.9,2.5,4.9,5.1C2098.2,721.4,2098.3,721.6,2098.4,721.8
		L2098.4,721.8z"/>
	<path class="st25" d="M2207.3,730.1l2.3-8.2l0-0.1c0.1-0.2,0-0.5,0-0.7h-48c0,3.3-2.1,6.1-5.1,7.2c0,0.1,0,0.3,0,0.4v5.1
		c0,1.4-1.1,2.5-2.5,2.5s-2.5-1.1-2.5-2.5v-5.1c0-0.1,0-0.3,0-0.4c-3-1-5.1-3.9-5.1-7.2h-45.6h-2.5c0,0.2,0,0.5,0,0.7l0,0.1l1.2,4.3
		l9.1,32.9l0,0l-1.4-5.1h93.3l-1.4,5.1l0,0l5.3-19.1L2207.3,730.1z"/>
	<path class="st24" d="M2185.9,769.2c-0.6-1.4-1.5-2.7-2.7-3.9c-0.2-0.2-0.4-0.4-0.6-0.5l-2.5,4.4H2185.9z"/>
	<path class="st24" d="M2178.3,762.3c-1.3-0.4-2.6-0.6-4-0.6c-1.4,0-2.7,0.2-4,0.6l4,6.9L2178.3,762.3z"/>
	<path class="st24" d="M2129.8,769.2l-1.7-6.3c-2.4,1.2-4.4,3.2-5.7,5.7l2.2,0.6H2129.8z"/>
	<path class="st24" d="M2142.4,769.2h3c-0.3-0.7-0.6-1.3-1-1.9L2142.4,769.2z"/>
	<path class="st24" d="M2165.9,764.8c-0.2,0.2-0.4,0.3-0.6,0.5c-1.1,1.1-2,2.5-2.7,3.9h5.8L2165.9,764.8z"/>
	<path class="st24" d="M2135.2,769.2l5.5-5.5c-2-1.3-4.4-2.1-7-2.1c-0.3,0-0.5,0-0.8,0l2,7.6H2135.2z"/>
	<path class="st24" d="M2194.5,761.6c0-1.4,1.1-2.5,2.5-2.5h2.2l1.4-5.1h-93.3l1.4,5.1h2.2c1.4,0,2.5,1.1,2.5,2.5
		c0,1.4-1.1,2.5-2.5,2.5h-0.5c1.4,2.4,3.7,4.1,6.4,4.8c2.3-7.2,9-12.4,16.9-12.4c8,0,14.8,5.3,17,12.7h6.5c0.8-2.8,2.3-5.3,4.5-7.5
		c3.3-3.3,7.8-5.2,12.5-5.2c4.7,0,9.2,1.8,12.5,5.2c2,2,3.5,4.5,4.4,7.2c2.7-0.7,5-2.4,6.3-4.8h-0.5
		C2195.6,764.2,2194.5,763,2194.5,761.6z"/>
	<path class="st22" d="M2113.5,761.6c0-1.4-1.1-2.5-2.5-2.5h-2.2l0,0h-6.4c1.2,0.7,2.4,1.6,3.4,2.7c0.7,0.7,1.4,1.6,2,2.4h2.7h0.5
		C2112.4,764.2,2113.5,763,2113.5,761.6z"/>
	<path class="st22" d="M2197,759.1c-1.4,0-2.5,1.1-2.5,2.5c0,1.4,1.1,2.5,2.5,2.5h0.5h2.7c1.4-2,3.2-3.7,5.2-4.9
		c-0.3-0.1-0.5-0.1-0.8-0.1h-5.4l0,0H2197z"/>
	<g class="st26">
		<path class="st27" d="M2156.5,716.1h17.7v-18.9c-5.7-0.8-11.7-1.2-17.7-1.3V716.1z"/>
		<path class="st27" d="M2217.1,711.4c-10.6-6.4-23.6-10.9-37.8-13.4v18.1h35.4h1c1.1,0,2.1-0.8,2.4-1.9
			C2218.5,713.1,2218,712,2217.1,711.4z"/>
	</g>
	<g class="st26">
		<path class="st27" d="M2111,702.3c-7.3,2.4-14.1,5.4-20,9c-1,0.6-1.4,1.8-1.1,2.8c0.3,1.1,1.3,1.9,2.4,1.9h1h35.4V698
			c-4.3,0.8-8.6,1.7-12.7,2.8C2114.3,701.3,2112.6,701.8,2111,702.3z"/>
		<path class="st27" d="M2133.8,697.2v18.9h17.7v-20.2C2145.4,695.9,2139.5,696.4,2133.8,697.2z"/>
	</g>
	<path class="st28" d="M2113.5,693.3h2.5h2.5c0.8,0,1.5-0.3,1.9-0.9c0.5-0.6,0.7-1.3,0.5-2.1l-5.1-27.8c-0.2-1.2-1.3-2.1-2.5-2.1
		L2113.5,693.3L2113.5,693.3z"/>
	
		<rect x="2195.8" y="673.2" transform="matrix(0.7071 -0.7071 0.7071 0.7071 167.0651 1751.927)" class="st29" width="5.1" height="2.1"/>
	
		<rect x="2190.7" y="668.2" transform="matrix(0.7071 -0.7071 0.7071 0.7071 169.162 1746.8646)" class="st29" width="5.1" height="2.1"/>
	
		<rect x="2185.6" y="663.1" transform="matrix(0.7071 -0.7071 0.7071 0.7071 171.259 1741.8022)" class="st29" width="5.1" height="2.1"/>
	
		<rect x="2200.8" y="678.3" transform="matrix(0.7071 -0.7071 0.7071 0.7071 164.9678 1756.9894)" class="st29" width="5.1" height="2.1"/>
	
		<rect x="2205.9" y="683.4" transform="matrix(0.7071 -0.7071 0.7071 0.7071 162.8708 1762.0518)" class="st29" width="5.1" height="2.1"/>
	
		<rect x="2211.6" y="688.2" transform="matrix(0.7071 -0.7071 0.7071 0.7071 160.5117 1767.7471)" class="st29" width="5.1" height="3.9"/>
	<path class="st23" d="M2222.5,691.4l0.1,0.1l1.5-1.5c1-1,1-2.6,0-3.6c-1-1-2.6-1-3.6,0l-3.3,3.3l-3.6,3.6l-3.3,3.3
		c-1,1-1,2.6,0,3.6c0.5,0.5,1.1,0.7,1.8,0.7s1.3-0.2,1.8-0.7l1.5-1.5l-0.1-0.1L2222.5,691.4z"/>
	<path class="st22" d="M2227.8,703.8c0.7-0.7,1.1-1.4,1.3-2.3c0.5-1.7,0-3.6-1.3-4.9l-5.2-5.2l-0.1-0.1l-7.2,7.2l0.1,0.1l5.2,5.2
		c1.3,1.3,3.2,1.8,4.9,1.3C2226.4,704.9,2227.2,704.5,2227.8,703.8L2227.8,703.8z"/>
	<path class="st28" d="M2216.5,684.9c1-1,1-2.6,0-3.6s-2.6-1-3.6,0l-2,2l-3.6,3.6l-2,2c-1,1-1,2.6,0,3.6c0.5,0.5,1.1,0.7,1.8,0.7
		s1.3-0.2,1.8-0.7l2-2l3.6-3.6L2216.5,684.9z"/>
	<path class="st28" d="M2211.5,679.9c1-1,1-2.6,0-3.6s-2.6-1-3.6,0l-2,2l-3.6,3.6l-2,2c-1,1-1,2.6,0,3.6c0.5,0.5,1.1,0.7,1.8,0.7
		s1.3-0.2,1.8-0.7l2-2l3.6-3.6L2211.5,679.9z"/>
	<path class="st28" d="M2206.4,674.8c1-1,1-2.6,0-3.6c-1-1-2.6-1-3.6,0l-2,2l-3.6,3.6l-2,2c-1,1-1,2.6,0,3.6
		c0.5,0.5,1.1,0.7,1.8,0.7s1.3-0.2,1.8-0.7l2-2l3.6-3.6L2206.4,674.8z"/>
	<path class="st28" d="M2201.4,669.8c1-1,1-2.6,0-3.6s-2.6-1-3.6,0l-2,2l-3.6,3.6l-2,2c-1,1-1,2.6,0,3.6c0.5,0.5,1.1,0.7,1.8,0.7
		s1.3-0.2,1.8-0.7l2-2l3.6-3.6L2201.4,669.8z"/>
	<path class="st28" d="M2196.3,664.7c1-1,1-2.6,0-3.6s-2.6-1-3.6,0l-2,2l-3.6,3.6l-2,2c-1,1-1,2.6,0,3.6c0.5,0.5,1.1,0.7,1.8,0.7
		s1.3-0.2,1.8-0.7l2-2l3.6-3.6L2196.3,664.7z"/>
	<path class="st28" d="M2191.2,659.6c1-1,1-2.6,0-3.6s-2.6-1-3.6,0l-7.6,7.6c-1,1-1,2.6,0,3.6c0.5,0.5,1.1,0.7,1.8,0.7
		s1.3-0.2,1.8-0.7l2-2l3.6-3.6L2191.2,659.6z"/>
	<path class="st25" d="M2088.2,728.4l-1.3-1.3c-0.8-0.8-1.9-1.3-3-1.5c-0.4,0-0.9,0-1.4,0c-1.6,0.3-3,1.3-3.7,2.7l-5.6,11.2
		c-0.5,1-0.3,2.2,0.5,2.9l5.4,5.4l14.3-14.3L2088.2,728.4z"/>
	<path class="st22" d="M2097.3,786.3c1.6-0.5,3.1-1.4,4.4-2.5l-4-6.9h8c0.2-0.8,0.3-1.7,0.3-2.5c0-0.9-0.1-1.7-0.3-2.5h-8l4-6.9
		c-1.3-1.1-2.8-2-4.4-2.5l-4,6.9l-4-6.9c-1.6,0.5-3.1,1.4-4.4,2.5l4,6.9h-8c-0.2,0.8-0.3,1.7-0.3,2.5c0,0.9,0.1,1.7,0.3,2.5h8
		l-4,6.9c1.3,1.1,2.8,2,4.4,2.5l4-6.9L2097.3,786.3z"/>
	<path class="st23" d="M2102.4,759.1c-2.7-1.6-5.9-2.5-9.1-2.5c-1.7,0-3.4,0.3-5.1,0.7c-1.8,0.5-3.5,1.3-5,2.4
		c-0.9,0.6-1.7,1.3-2.5,2.1c-3.3,3.3-5.2,7.8-5.2,12.5s1.8,9.2,5.2,12.5s7.8,5.2,12.5,5.2c4.7,0,9.2-1.8,12.5-5.2s5.2-7.8,5.2-12.5
		c0-3.7-1.1-7.2-3.2-10.1c-0.6-0.8-1.3-1.7-2-2.4C2104.7,760.7,2103.6,759.8,2102.4,759.1z M2089.2,786.3c-1.6-0.5-3.1-1.4-4.4-2.5
		c-0.2-0.2-0.4-0.3-0.6-0.5c-1.8-1.8-3-4-3.5-6.4c-0.2-0.8-0.3-1.7-0.3-2.5c0-0.9,0.1-1.7,0.3-2.5c0.5-2.4,1.7-4.6,3.5-6.4
		c0.2-0.2,0.4-0.4,0.6-0.5c1.3-1.1,2.8-2,4.4-2.5c1.3-0.4,2.6-0.6,4-0.6c1.4,0,2.7,0.2,4,0.6c1.6,0.5,3.1,1.4,4.4,2.5
		c0.2,0.2,0.4,0.3,0.6,0.5c1.8,1.8,3,4,3.5,6.4c0.2,0.8,0.3,1.7,0.3,2.5c0,0.9-0.1,1.7-0.3,2.5c-0.5,2.4-1.7,4.6-3.5,6.4
		c-0.2,0.2-0.4,0.4-0.6,0.5c-1.3,1.1-2.8,2-4.4,2.5c-1.3,0.4-2.6,0.6-4,0.6C2091.9,786.9,2090.5,786.7,2089.2,786.3z"/>
	<path class="st22" d="M2178.3,786.3c1.6-0.5,3.1-1.4,4.4-2.5l-4-6.9h8c0.2-0.8,0.3-1.7,0.3-2.5c0-0.9-0.1-1.7-0.3-2.5h-8l1.5-2.5
		l2.5-4.4c-1.3-1.1-2.8-2-4.4-2.5l-4,6.9l-4-6.9c-1.6,0.5-3.1,1.4-4.4,2.5l2.5,4.4l1.5,2.5h-8c-0.2,0.8-0.3,1.7-0.3,2.5
		c0,0.9,0.1,1.7,0.3,2.5h8l-4,6.9c1.3,1.1,2.8,2,4.4,2.5l4-6.9L2178.3,786.3z"/>
	<path class="st23" d="M2174.3,756.6c-4.7,0-9.2,1.8-12.5,5.2c-2.1,2.1-3.6,4.7-4.5,7.5c-0.5,1.6-0.7,3.3-0.7,5.1
		c0,4.7,1.8,9.2,5.2,12.5s7.8,5.2,12.5,5.2c4.7,0,9.2-1.8,12.5-5.2s5.2-7.8,5.2-12.5c0-1.8-0.3-3.6-0.8-5.4
		c-0.8-2.7-2.3-5.1-4.4-7.2C2183.4,758.4,2179,756.6,2174.3,756.6z M2170.2,786.3c-1.6-0.5-3.1-1.4-4.4-2.5
		c-0.2-0.2-0.4-0.3-0.6-0.5c-1.8-1.8-3-4-3.5-6.4c-0.2-0.8-0.3-1.7-0.3-2.5c0-0.9,0.1-1.7,0.3-2.5c0.2-0.9,0.4-1.7,0.8-2.5
		c0.6-1.4,1.5-2.7,2.7-3.9c0.2-0.2,0.4-0.4,0.6-0.5c1.3-1.1,2.8-2,4.4-2.5c1.3-0.4,2.6-0.6,4-0.6c1.4,0,2.7,0.2,4,0.6
		c1.6,0.5,3.1,1.4,4.4,2.5c0.2,0.2,0.4,0.3,0.6,0.5c1.1,1.1,2,2.5,2.7,3.9c0.4,0.8,0.6,1.7,0.8,2.5c0.2,0.8,0.3,1.7,0.3,2.5
		c0,0.9-0.1,1.7-0.3,2.5c-0.5,2.4-1.7,4.6-3.5,6.4c-0.2,0.2-0.4,0.4-0.6,0.5c-1.3,1.1-2.8,2-4.4,2.5c-1.3,0.4-2.6,0.6-4,0.6
		C2172.9,786.9,2171.5,786.7,2170.2,786.3z"/>
	<path class="st22" d="M2142.4,769.2l1.9-1.9c-0.9-1.4-2.2-2.6-3.6-3.6l-5.5,5.5l-0.2,0.2l0-0.2l-2-7.6c-1.7,0.1-3.4,0.6-4.9,1.3
		l1.7,6.3l0.4,1.5l-5.5-1.5l-2.2-0.6c-0.7,1.5-1.2,3.1-1.3,4.9l7.7,2.1l-5.7,5.7c0.9,1.4,2.2,2.6,3.6,3.6l5.7-5.7l2.1,7.7
		c1.7-0.1,3.4-0.6,4.9-1.3l-2.1-7.7l7.7,2.1c0.7-1.5,1.2-3.1,1.3-4.9l-7.7-2.1L2142.4,769.2z"/>
	<path class="st23" d="M2133.8,756.6c-7.9,0-14.6,5.2-16.9,12.4c-0.5,1.7-0.8,3.5-0.8,5.4c0,9.8,7.9,17.7,17.7,17.7
		s17.7-7.9,17.7-17.7c0-1.8-0.3-3.5-0.7-5.1C2148.5,761.9,2141.8,756.6,2133.8,756.6z M2146.4,774.3c0,0.3,0,0.5,0,0.8
		c-0.1,1.7-0.6,3.4-1.3,4.9c-1.2,2.4-3.2,4.4-5.7,5.7c-1.5,0.7-3.1,1.2-4.9,1.3c-0.3,0-0.5,0-0.8,0c-2.6,0-5-0.8-7-2.1
		c-1.4-0.9-2.6-2.2-3.6-3.6c-1.3-2-2.1-4.4-2.1-7c0-0.3,0-0.5,0-0.8c0.1-1.7,0.6-3.4,1.3-4.9c1.2-2.4,3.2-4.4,5.7-5.7
		c1.5-0.7,3.1-1.2,4.9-1.3c0.3,0,0.5,0,0.8,0c2.6,0,5,0.8,7,2.1c1.4,0.9,2.6,2.2,3.6,3.6c0.4,0.6,0.7,1.2,1,1.9
		C2146,770.8,2146.4,772.5,2146.4,774.3z"/>
	<path class="st22" d="M2214,761.7c-1.7,0.1-3.4,0.6-4.9,1.3l2.1,7.7l-7.7-2.1c-0.7,1.5-1.2,3.1-1.3,4.9l7.7,2.1l-5.7,5.7
		c0.9,1.4,2.2,2.6,3.6,3.6l5.7-5.7l2.1,7.7c1.7-0.1,3.4-0.6,4.9-1.3l-2.1-7.7l7.7,2.1c0.7-1.5,1.2-3.1,1.3-4.9l-7.7-2.1l5.7-5.7
		c-0.9-1.4-2.2-2.6-3.6-3.6l-5.7,5.7L2214,761.7z"/>
	<path class="st23" d="M2200.2,764.2c-2,2.9-3.2,6.4-3.2,10.1c0,9.8,7.9,17.7,17.7,17.7s17.7-7.9,17.7-17.7s-7.9-17.7-17.7-17.7
		c-3.4,0-6.6,1-9.3,2.7C2203.4,760.5,2201.6,762.2,2200.2,764.2z M2221.7,763.7c1.4,0.9,2.6,2.2,3.6,3.6c1.3,2,2.1,4.4,2.1,7
		c0,0.3,0,0.5,0,0.8c-0.1,1.7-0.6,3.4-1.3,4.9c-1.2,2.4-3.2,4.4-5.7,5.7c-1.5,0.7-3.1,1.2-4.9,1.3c-0.3,0-0.5,0-0.8,0
		c-2.6,0-5-0.8-7-2.1c-1.4-0.9-2.6-2.2-3.6-3.6c-1.3-2-2.1-4.4-2.1-7c0-0.3,0-0.5,0-0.8c0.1-1.7,0.6-3.4,1.3-4.9
		c1.2-2.4,3.2-4.4,5.7-5.7c1.5-0.7,3.1-1.2,4.9-1.3c0.3,0,0.5,0,0.8,0C2217.3,761.6,2219.7,762.4,2221.7,763.7z"/>
	<path class="st22" d="M2133.8,697.2c-1.7,0.2-3.4,0.5-5.1,0.8v18.1h5.1V697.2z"/>
	<path class="st22" d="M2151.5,716.1h5.1v-20.2c-0.8,0-1.7-0.1-2.5-0.1s-1.7,0.1-2.5,0.1V716.1z"/>
	<path class="st22" d="M2179.3,698c-1.7-0.3-3.4-0.5-5.1-0.8v18.8h5.1V698z"/>
	<path class="st29" d="M2113.5,660.4c-1.2,0-2.3,0.9-2.5,2.1l-5.1,27.8c-0.1,0.7,0.1,1.5,0.5,2.1c0.5,0.6,1.2,0.9,1.9,0.9h2.5h2.5
		L2113.5,660.4L2113.5,660.4z"/>
	<path class="st24" d="M2086.3,754c0.4,0,0.8-0.1,1.1-0.3l0.8-0.4l10.4-5.2c1.5-0.7,2.5-2.1,2.7-3.7c0.3-1.6-0.3-3.2-1.4-4.4
		l-6.5-6.5l0,0l-14.3,14.3l0,0l4,4l1.4,1.4C2085,753.8,2085.6,754,2086.3,754z"/>
</g>
</svg>
