<svg xmlns="http://www.w3.org/2000/svg" viewBox="0 0 162 136.69"><defs><style>.cls-1{fill:none;}.cls-2{fill:#888693;}.cls-3{fill:#5c546a;}.cls-4{fill:#b6b8be;}.cls-5{fill:#d5d9de;}.cls-6{fill:#ffcf00;}.cls-7{fill:#ff9300;}</style></defs><title>rover</title><g id="Layer_2" data-name="Layer 2"><g id="Layer_1-2" data-name="Layer 1"><path class="cls-1" d="M53.78,129.52a12.53,12.53,0,0,0,7,2.1l.76,0-2.07-7.74Z"/><polygon class="cls-1" points="57.17 115.39 56.77 113.91 51.63 113.91 57.17 115.39"/><path class="cls-1" d="M66.4,130.29a12.75,12.75,0,0,0,5.67-5.67l-7.74-2.07Z"/><path class="cls-1" d="M95.4,113.91H89.65a11.64,11.64,0,0,0-.8,2.53h8Z"/><path class="cls-1" d="M105.63,116.44h8a11.64,11.64,0,0,0-.8-2.53H107.1Z"/><path class="cls-1" d="M65.64,117.66l7.74,2.07c0-.25,0-.51,0-.76a12.56,12.56,0,0,0-1.06-5.06h-3Z"/><path class="cls-1" d="M109.64,128.44c.19-.17.38-.34.56-.52a12.5,12.5,0,0,0,3.45-6.42h-8Z"/><path class="cls-1" d="M48.12,118.2c0,.26,0,.51,0,.77a12.56,12.56,0,0,0,2.11,7l5.66-5.66Z"/><path class="cls-1" d="M32.65,116.44A12.5,12.5,0,0,0,29.2,110c-.18-.18-.37-.35-.56-.52l-4,6.94Z"/><path class="cls-1" d="M28.64,128.44c.19-.17.38-.34.56-.52a12.5,12.5,0,0,0,3.45-6.42h-8Z"/><polygon class="cls-1" points="62.06 114.08 62.23 113.91 62.01 113.91 62.06 114.08"/><path class="cls-1" d="M11.86,109.5c-.19.17-.38.34-.56.52a12.5,12.5,0,0,0-3.45,6.42h8Z"/><path class="cls-1" d="M20.25,124l-4,6.95a12.88,12.88,0,0,0,8,0Z"/><path class="cls-1" d="M7.85,121.5a12.54,12.54,0,0,0,3.45,6.42c.18.18.37.35.56.52l4-6.94Z"/><path class="cls-1" d="M15.85,72.07l-.63,1,5.21,5.22h0l6.46,6.46a5.06,5.06,0,0,1-1.31,8.11l-10.39,5.2V102a17.79,17.79,0,0,1,5.06-.73,17.61,17.61,0,0,1,9.14,2.53h6.37L26.62,70.87H18A2.51,2.51,0,0,0,15.85,72.07Z"/><path class="cls-1" d="M24.26,107a12.69,12.69,0,0,0-8,0l4,6.94Z"/><path class="cls-1" d="M88.85,121.5a12.54,12.54,0,0,0,3.45,6.42c.18.18.37.35.56.52l4-6.94Z"/><path class="cls-1" d="M147.4,130.29a12.75,12.75,0,0,0,5.67-5.67l-7.74-2.07Z"/><path class="cls-1" d="M136.1,107.65a12.75,12.75,0,0,0-5.67,5.67l7.74,2.07Z"/><path class="cls-1" d="M129.12,118.2c0,.26,0,.51,0,.77a12.56,12.56,0,0,0,2.11,7l5.66-5.66Z"/><path class="cls-1" d="M134.78,129.52a12.53,12.53,0,0,0,7,2.1l.76,0-2.07-7.74Z"/><path class="cls-1" d="M154.38,119.73c0-.25,0-.51,0-.76a12.59,12.59,0,0,0-2.11-7l-5.66,5.67Z"/><path class="cls-1" d="M143.06,114.08l5.66-5.67a12.61,12.61,0,0,0-7-2.1c-.26,0-.51,0-.76,0Z"/><path class="cls-1" d="M101.25,124l-4,6.95a12.88,12.88,0,0,0,8,0Z"/><path class="cls-2" d="M15.19,98.06l-.79.39a2.51,2.51,0,0,1-1.13.27A2.55,2.55,0,0,1,11.48,98l-1.35-1.36v7.16a2.35,2.35,0,0,0,.07.6,17.55,17.55,0,0,1,5-2.4V98.06Z"/><path class="cls-2" d="M15.22,73.07l.63-1A2.51,2.51,0,0,1,18,70.87h8.63l-1.2-4.33c-.08-.24-.17-.48-.27-.73H18a7.57,7.57,0,0,0-6.44,3.57l-.61,1a5.09,5.09,0,0,1,3,1.45Z"/><path class="cls-3" d="M131.6,84.61,161.26,55a2.53,2.53,0,0,0,0-3.58l-5.07-5.07-.06-.06a5.13,5.13,0,0,1-1.31,2.27h0a5.13,5.13,0,0,1-2.27,1.31l.06.06,3.28,3.28L134.3,74.74l-2.75,9.91Z"/><path class="cls-2" d="M43,38H38v9q2.49-.81,5.06-1.53Z"/><path class="cls-4" d="M25.4,66.49a2.57,2.57,0,0,1,0-.68h48A7.59,7.59,0,0,0,78.51,73a2,2,0,0,0,0,.43v5.06a2.53,2.53,0,0,0,5.06,0V73.41a2,2,0,0,0,0-.43,7.59,7.59,0,0,0,5.1-7.17h48a2.57,2.57,0,0,1,0,.68l0,.05c.95-2.81,2.8-5.79,5.17-5.79H20.25c2.16,0,3.89,2.49,4.9,5.06.1.25.19.49.27.73Z"/><path class="cls-5" d="M134.3,74.74l2.28-8.2,0-.05a2.57,2.57,0,0,0,0-.68h-48A7.59,7.59,0,0,1,83.49,73a2,2,0,0,1,0,.43v5.06a2.53,2.53,0,0,1-5.06,0V73.41a2,2,0,0,1,0-.43,7.59,7.59,0,0,1-5.1-7.17h-48a2.57,2.57,0,0,0,0,.68l0,.05,1.2,4.33,9.14,32.91h0l-1.4-5.06h93.28l-1.4,5.06h0l5.31-19.13Z"/><path class="cls-4" d="M112.85,113.91A12.45,12.45,0,0,0,110.2,110c-.18-.18-.37-.35-.56-.52l-2.54,4.41Z"/><path class="cls-4" d="M105.26,107a12.69,12.69,0,0,0-8,0l4,6.94Z"/><path class="cls-4" d="M56.77,113.91l-1.67-6.26a12.75,12.75,0,0,0-5.67,5.67l2.2.59Z"/><path class="cls-4" d="M69.39,113.91h3a13.72,13.72,0,0,0-1-1.92Z"/><path class="cls-4" d="M92.86,109.5c-.19.17-.38.34-.56.52a12.45,12.45,0,0,0-2.65,3.89H95.4Z"/><path class="cls-4" d="M62.23,113.91l5.49-5.5a12.61,12.61,0,0,0-7-2.1c-.26,0-.51,0-.76,0l2,7.57Z"/><path class="cls-4" d="M121.5,106.31a2.53,2.53,0,0,1,2.53-2.53h2.21l1.4-5.06H34.36l1.4,5.06H38a2.53,2.53,0,0,1,0,5.06h-.46a10.18,10.18,0,0,0,6.35,4.77,17.72,17.72,0,0,1,33.87.3h6.53a17.72,17.72,0,0,1,33.88-.3,10.16,10.16,0,0,0,6.35-4.77H124A2.53,2.53,0,0,1,121.5,106.31Z"/><path class="cls-2" d="M40.5,106.31A2.53,2.53,0,0,0,38,103.78H29.39a18.31,18.31,0,0,1,3.39,2.66,17.52,17.52,0,0,1,2,2.4H38A2.53,2.53,0,0,0,40.5,106.31Z"/><path class="cls-2" d="M124,103.78a2.53,2.53,0,0,0,0,5.06h3.19a18,18,0,0,1,5.2-4.93,2.63,2.63,0,0,0-.8-.13H124Z"/><path class="cls-3" d="M83.53,60.75h17.72V41.85a150.52,150.52,0,0,0-17.72-1.33Z"/><path class="cls-3" d="M144.08,56.05c-10.61-6.39-23.55-10.95-37.77-13.41V60.75h36.46a2.53,2.53,0,0,0,1.31-4.7Z"/><path class="cls-3" d="M38,47a98.73,98.73,0,0,0-20,9,2.53,2.53,0,0,0,1.31,4.7H55.69V42.64A127.7,127.7,0,0,0,43,45.48Q40.47,46.2,38,47Z"/><path class="cls-3" d="M60.75,41.85v18.9H78.47V40.52A150.52,150.52,0,0,0,60.75,41.85Z"/><path class="cls-6" d="M40.5,38h5.06a2.57,2.57,0,0,0,1.95-.91A2.52,2.52,0,0,0,48.05,35L43,7.14A2.54,2.54,0,0,0,40.5,5.06V38Z"/><rect class="cls-7" x="122.76" y="17.94" width="5.06" height="2.1" transform="translate(23.27 94.16) rotate(-45)"/><rect class="cls-7" x="117.7" y="12.87" width="5.06" height="2.1" transform="translate(25.37 89.1) rotate(-45)"/><rect class="cls-7" x="112.64" y="7.81" width="5.06" height="2.1" transform="translate(27.47 84.03) rotate(-45)"/><rect class="cls-7" x="127.83" y="23" width="5.06" height="2.1" transform="translate(21.18 99.22) rotate(-45)"/><rect class="cls-7" x="132.89" y="28.06" width="5.06" height="2.1" transform="translate(19.08 104.28) rotate(-45)"/><rect class="cls-7" x="138.58" y="32.86" width="5.06" height="3.89" transform="translate(16.72 109.98) rotate(-45)"/><path class="cls-3" d="M149.54,36.07l.11.11,1.48-1.48a2.53,2.53,0,0,0-3.58-3.58l-3.27,3.27L140.7,38l-3.27,3.27a2.53,2.53,0,0,0,0,3.58,2.53,2.53,0,0,0,3.58,0l1.48-1.48-.11-.11Z"/><path class="cls-2" d="M154.82,48.51a5.13,5.13,0,0,0,1.31-2.27,5.05,5.05,0,0,0-1.31-4.89l-5.17-5.17-.11-.11-7.16,7.16.11.11,5.17,5.17a5.08,5.08,0,0,0,4.89,1.31,5.13,5.13,0,0,0,2.27-1.31Z"/><path class="cls-6" d="M143.54,29.63A2.53,2.53,0,1,0,140,26.05l-2,2-3.58,3.58-2,2A2.53,2.53,0,0,0,134.16,38a2.56,2.56,0,0,0,1.79-.74l2-2,3.58-3.58Z"/><path class="cls-6" d="M138.48,24.57A2.53,2.53,0,0,0,134.9,21l-2,2-3.58,3.58-2,2a2.53,2.53,0,0,0,0,3.58,2.56,2.56,0,0,0,1.79.74,2.53,2.53,0,0,0,1.79-.74l2-2,3.58-3.58Z"/><path class="cls-6" d="M133.41,19.51a2.53,2.53,0,1,0-3.58-3.58l-2,2-3.58,3.58-2,2A2.53,2.53,0,0,0,124,27.84a2.49,2.49,0,0,0,1.79-.74l2-2,3.58-3.58Z"/><path class="cls-6" d="M128.35,14.45a2.53,2.53,0,1,0-3.58-3.58l-2,2-3.58,3.58-2,2A2.53,2.53,0,0,0,120.76,22l2-2,3.58-3.58Z"/><path class="cls-6" d="M123.29,9.38a2.53,2.53,0,1,0-3.58-3.58l-2,2-3.58,3.58-2,2a2.53,2.53,0,0,0,1.79,4.32A2.56,2.56,0,0,0,115.7,17l2-2,3.58-3.58Z"/><path class="cls-6" d="M118.23,4.32A2.53,2.53,0,0,0,114.65.74l-7.6,7.6a2.53,2.53,0,1,0,3.58,3.57l2-2,3.58-3.58Z"/><path class="cls-5" d="M15.22,73.07,14,71.82a5.09,5.09,0,0,0-3-1.45,4.77,4.77,0,0,0-1.36,0,5,5,0,0,0-3.72,2.73L.27,84.32a2.52,2.52,0,0,0,.47,2.92l5.37,5.37L20.43,78.29Z"/><path class="cls-2" d="M24.26,131a12.64,12.64,0,0,0,4.38-2.54l-4-6.94h8a12.44,12.44,0,0,0,0-5.06h-8l4-6.94A12.64,12.64,0,0,0,24.26,107l-4,6.94-4-6.94a12.64,12.64,0,0,0-4.38,2.54l4,6.94h-8a12.44,12.44,0,0,0,0,5.06h8l-4,6.94A12.64,12.64,0,0,0,16.24,131l4-6.95Z"/><path class="cls-3" d="M29.39,103.78a17.61,17.61,0,0,0-9.14-2.53,17.79,17.79,0,0,0-5.06.73,17.55,17.55,0,0,0-5,2.4,17.27,17.27,0,0,0-2.48,2.06,17.72,17.72,0,1,0,27.07,2.4,17.52,17.52,0,0,0-2-2.4A18.31,18.31,0,0,0,29.39,103.78ZM16.24,131a12.64,12.64,0,0,1-4.38-2.54c-.19-.17-.38-.34-.56-.52a12.66,12.66,0,0,1,0-17.9c.18-.18.37-.35.56-.52A12.64,12.64,0,0,1,16.24,107a12.69,12.69,0,0,1,8,0,12.64,12.64,0,0,1,4.38,2.54c.19.17.38.34.56.52a12.66,12.66,0,0,1,0,17.9c-.18.18-.37.35-.56.52A12.64,12.64,0,0,1,24.26,131a12.88,12.88,0,0,1-8,0Z"/><path class="cls-2" d="M105.26,131a12.64,12.64,0,0,0,4.38-2.54l-4-6.94h8a12.44,12.44,0,0,0,0-5.06h-8l1.47-2.53,2.54-4.41a12.64,12.64,0,0,0-4.38-2.54l-4,6.94-4-6.94a12.64,12.64,0,0,0-4.38,2.54l2.54,4.41,1.47,2.53h-8a12.44,12.44,0,0,0,0,5.06h8l-4,6.94A12.64,12.64,0,0,0,97.24,131l4-6.95Z"/><path class="cls-3" d="M101.25,101.25a17.74,17.74,0,0,0-17,12.66,17.72,17.72,0,1,0,33.88-.3,17.72,17.72,0,0,0-16.89-12.36Zm-4,29.73a12.64,12.64,0,0,1-4.38-2.54c-.19-.17-.38-.34-.56-.52a12.61,12.61,0,0,1-3.45-11.48,11.64,11.64,0,0,1,.8-2.53A12.45,12.45,0,0,1,92.3,110c.18-.18.37-.35.56-.52A12.64,12.64,0,0,1,97.24,107a12.69,12.69,0,0,1,8,0,12.64,12.64,0,0,1,4.38,2.54c.19.17.38.34.56.52a12.45,12.45,0,0,1,2.65,3.89,11.64,11.64,0,0,1,.8,2.53,12.66,12.66,0,0,1-3.45,11.48c-.18.18-.37.35-.56.52a12.64,12.64,0,0,1-4.38,2.54,12.88,12.88,0,0,1-8,0Z"/><path class="cls-2" d="M69.39,113.91,71.3,112a12.85,12.85,0,0,0-3.58-3.58l-5.49,5.5-.17.17-.05-.17-2-7.57a12.37,12.37,0,0,0-4.89,1.31l1.67,6.26.4,1.48-5.54-1.48-2.2-.59a12.54,12.54,0,0,0-1.31,4.88l7.74,2.08-5.66,5.66a12.71,12.71,0,0,0,3.58,3.58l5.66-5.66,2.07,7.74a12.72,12.72,0,0,0,4.89-1.31l-2.07-7.74,7.74,2.07a12.42,12.42,0,0,0,1.31-4.89l-7.74-2.07Z"/><path class="cls-3" d="M60.75,101.25a17.75,17.75,0,0,0-16.89,12.36,17.72,17.72,0,1,0,33.87.3A17.76,17.76,0,0,0,60.75,101.25ZM73.41,119c0,.25,0,.51,0,.76a12.59,12.59,0,0,1-1.31,4.89,12.66,12.66,0,0,1-10.56,7l-.76,0a12.53,12.53,0,0,1-7-2.1,12.71,12.71,0,0,1-3.58-3.58,12.56,12.56,0,0,1-2.11-7c0-.26,0-.51,0-.77a12.54,12.54,0,0,1,1.31-4.88,12.75,12.75,0,0,1,5.67-5.67A12.37,12.37,0,0,1,60,106.34c.25,0,.5,0,.76,0a12.61,12.61,0,0,1,7,2.1A12.85,12.85,0,0,1,71.3,112a13.72,13.72,0,0,1,1,1.92A12.56,12.56,0,0,1,73.41,119Z"/><path class="cls-2" d="M141,106.34a12.37,12.37,0,0,0-4.89,1.31l2.07,7.74-7.74-2.07a12.37,12.37,0,0,0-1.31,4.88l7.74,2.08-5.66,5.66a12.81,12.81,0,0,0,3.57,3.58l5.67-5.66,2.07,7.74a12.77,12.77,0,0,0,4.89-1.31l-2.07-7.74,7.74,2.07a12.59,12.59,0,0,0,1.31-4.89l-7.74-2.07L152.3,112a12.85,12.85,0,0,0-3.58-3.58l-5.66,5.67Z"/><path class="cls-3" d="M127.22,108.84a17.72,17.72,0,1,0,5.2-4.93A18,18,0,0,0,127.22,108.84Zm21.5-.43A12.85,12.85,0,0,1,152.3,112a12.59,12.59,0,0,1,2.11,7c0,.26,0,.51,0,.76a12.59,12.59,0,0,1-1.31,4.89,12.66,12.66,0,0,1-10.56,7l-.76,0a12.53,12.53,0,0,1-7-2.1,12.71,12.71,0,0,1-3.58-3.58,12.56,12.56,0,0,1-2.11-7c0-.26,0-.51,0-.77a12.37,12.37,0,0,1,1.31-4.88,12.75,12.75,0,0,1,5.67-5.67,12.37,12.37,0,0,1,4.89-1.31c.25,0,.5,0,.76,0A12.61,12.61,0,0,1,148.72,108.41Z"/><path class="cls-2" d="M60.75,41.9c-1.7.24-3.4.47-5.06.75v18.1h5.06Z"/><path class="cls-2" d="M78.47,60.75h5.06V40.57c-.85,0-1.68-.07-2.53-.07s-1.68.06-2.53.07Z"/><path class="cls-2" d="M106.31,42.65c-1.66-.28-3.36-.51-5.06-.75V60.75h5.06Z"/><path class="cls-7" d="M40.5,5.06A2.54,2.54,0,0,0,38,7.14L33,35a2.52,2.52,0,0,0,.54,2.08,2.57,2.57,0,0,0,1.95.91H40.5V5.06Z"/><path class="cls-4" d="M13.27,98.72a2.51,2.51,0,0,0,1.13-.27l.79-.39,10.39-5.2a5.06,5.06,0,0,0,1.31-8.11l-6.46-6.46h0L6.11,92.61h0l4,4L11.48,98A2.55,2.55,0,0,0,13.27,98.72Z"/></g></g></svg>