<svg xmlns="http://www.w3.org/2000/svg" xmlns:xlink="http://www.w3.org/1999/xlink" viewBox="0 0 880.32 43.4"><defs><style>.cls-1{fill:url(#linear-gradient);}.cls-2{fill:#54acb4;}.cls-3{opacity:0.3;fill:url(#linear-gradient-2);}.cls-4{fill:#d3a17f;opacity:0.51;}.cls-5{fill:#6590a0;}.cls-6{fill:#ba9b82;}.cls-7{fill:#b98b6a;}</style><linearGradient id="linear-gradient" y1="25.79" x2="880.32" y2="25.79" gradientUnits="userSpaceOnUse"><stop offset="0" stop-color="#578fa5"/><stop offset="0.22" stop-color="#5b92a6"/><stop offset="0.41" stop-color="#659aab"/><stop offset="0.6" stop-color="#77a9b3"/><stop offset="0.78" stop-color="#91bdbe"/><stop offset="0.95" stop-color="#b1d6cb"/><stop offset="0.97" stop-color="#b5d9cd"/></linearGradient><linearGradient id="linear-gradient-2" x1="4.49" y1="21.7" x2="801.43" y2="21.7" gradientUnits="userSpaceOnUse"><stop offset="0.42" stop-color="#c5ab80"/><stop offset="0.51" stop-color="#c5ac81" stop-opacity="0.98"/><stop offset="0.59" stop-color="#c4ae86" stop-opacity="0.93"/><stop offset="0.66" stop-color="#c2b38d" stop-opacity="0.84"/><stop offset="0.73" stop-color="#c0b997" stop-opacity="0.71"/><stop offset="0.8" stop-color="#bec0a4" stop-opacity="0.54"/><stop offset="0.87" stop-color="#bacab3" stop-opacity="0.33"/><stop offset="0.94" stop-color="#b7d5c6" stop-opacity="0.1"/><stop offset="0.97" stop-color="#b5d9cd" stop-opacity="0"/></linearGradient></defs><title>sea</title><g id="Layer_2" data-name="Layer 2"><g id="Layer_4" data-name="Layer 4"><path class="cls-1" d="M123.75,8.17H875.8S882,43.4,879.9,43.4L0,42.09Z"/><path class="cls-2" d="M173.1,16.53S625.53,26,631.15,28.09s-228.77-2.3-228.77-2.3S180.22,21.65,173.1,16.53Z"/><path class="cls-3" d="M125.66,8.17,343.54,0H511.47L797.39,8.17s5.49,35.23,3.66,35.23L4.49,43.26Z"/><path class="cls-4" d="M136.34,11.23s291.57-.25,321.19,2.3,107.24,4.54,131.24,3.68-34.72,6.19-229.28,0S136.34,11.23,136.34,11.23Z"/><path class="cls-5" d="M128.68,17.21s23,11.39,131.75,15.47,229.78.91,229.78.91-155.72-2.87-202.72-3.46C199.25,29,128.68,17.21,128.68,17.21Z"/><path class="cls-6" d="M103.15,22S172.6,32.68,183.83,43.4h-95Z"/><path class="cls-7" d="M99.15,22s50,10.72,58.13,21.44H88.85Z"/></g></g></svg>