<svg xmlns="http://www.w3.org/2000/svg" viewBox="0 0 71.46 35.97"><defs><style>.cls-1{fill:#d0d2d3;}.cls-1,.cls-2,.cls-3,.cls-4,.cls-5,.cls-6{fill-rule:evenodd;}.cls-2{fill:#fdccaa;}.cls-3{fill:#414142;}.cls-4{fill:#e6e7e7;}.cls-5{fill:#bc8569;}.cls-6{fill:#fff;}</style></defs><title>sheep2</title><g id="Layer_2" data-name="Layer 2"><g id="Layer_9" data-name="Layer 9"><path class="cls-1" d="M56.57,12.8a4.66,4.66,0,0,0,1.25-.61c.18-.2.44-.27.37.15s-.14,1-.88,1.09A.61.61,0,0,1,56.57,12.8Z"/><path class="cls-2" d="M54.71,16.61a8.47,8.47,0,0,1,.37,1.69A13.66,13.66,0,0,1,55,19.86a1.3,1.3,0,0,1,0,.27c-.08.41.41.49.4.11,0,0,.15-.14.11-.25s.09-.92.13-1.65a3.09,3.09,0,0,0-.32-1.8S54.73,16.69,54.71,16.61Z"/><path class="cls-3" d="M55,19.86s-.26.31-.27.33c-.29.46.16.28.32.35s0,.13.11.13c.41,0,.44-.44.33-.74a1,1,0,0,1-.36.08C55,20,55,19.92,55,19.86Z"/><path class="cls-2" d="M53.46,16.36a8.2,8.2,0,0,1,.36,1.7,12.64,12.64,0,0,1-.08,1.56s0,.24,0,.26c-.08.41.41.49.4.12,0,0,.15-.15.11-.26s.09-.92.13-1.64a3.09,3.09,0,0,0-.32-1.8S53.48,16.44,53.46,16.36Z"/><path class="cls-3" d="M53.73,19.62a4.19,4.19,0,0,1-.26.33c-.29.46.16.28.32.35s0,.13.11.13c.41,0,.44-.45.33-.74a1,1,0,0,1-.36.08C53.74,19.75,53.74,19.67,53.73,19.62Z"/><path class="cls-2" d="M50,16.54a7.93,7.93,0,0,1,.36,1.69,12.64,12.64,0,0,1-.08,1.56s0,.24,0,.27c-.08.41.41.49.4.11,0,0,.15-.14.11-.25s.09-.92.13-1.64a3.22,3.22,0,0,0-.32-1.81S50,16.62,50,16.54Z"/><path class="cls-3" d="M50.24,19.79a4.19,4.19,0,0,1-.26.33c-.29.46.16.28.32.36s0,.12.11.12c.41,0,.44-.44.33-.74a.83.83,0,0,1-.36.08C50.25,19.93,50.25,19.85,50.24,19.79Z"/><path class="cls-2" d="M48.72,16.29a8.2,8.2,0,0,1,.36,1.7A12.64,12.64,0,0,1,49,19.55s0,.24,0,.26c-.08.41.41.49.4.12,0,0,.14-.15.11-.26s.09-.92.13-1.64a3.19,3.19,0,0,0-.32-1.8S48.74,16.37,48.72,16.29Z"/><path class="cls-3" d="M49,19.55a4.19,4.19,0,0,1-.26.33c-.29.46.16.28.32.35s0,.13.11.13c.41,0,.44-.45.33-.74a1.07,1.07,0,0,1-.36.08C49,19.68,49,19.6,49,19.55Z"/><path class="cls-4" d="M48.37,12.34c.1-.36-.19-.66.44-.8a.83.83,0,0,1,.66-.61,1,1,0,0,1,.82.4c.09-.11.59-1,1.6.09.06-.43.9-.52,1.13.13.22-.91,1.1-.06,1.13-.1.27-.42.74-.22,1,.09.58-.52,1.76.23,1.49,1,.38,0,.68.33.44.89a.83.83,0,0,1,0,1.34.82.82,0,0,1-.16,1.41c-.08,0,.36,1.76-1.4,1.35.09.24-.74.92-1.41,0-.25.65-1.71.63-1.91.2-.07,0-.43.63-1.45-.46-.13-.14-.36.85-1.32-.28-.49,0-1.37.71-1.69-1,0,0-.66-.46-.7-.9-.09-1.09.19-.18.12-1.14,0-.76.57-.57.56-1S48.36,12.36,48.37,12.34Z"/><path class="cls-5" d="M46.13,15.71c-.27,0-.36,0-1,.33s-.78.51-.62.63A1,1,0,0,0,46.13,15.71Z"/><path class="cls-2" d="M45.21,17.89c0,1.64,1.86,1.6,2.7,1.06.54-.36.15-1.17.37-1.68.56-1.28.89-2.41-.58-2.43s-1.74.95-2,2.1C45.62,17.28,45.2,17.53,45.21,17.89Z"/><path class="cls-5" d="M48.4,15.81c.25.13.35.14.73.75s.51.81.32.85A1.07,1.07,0,0,1,48.4,15.81Z"/><path class="cls-3" d="M47.25,16.25a.39.39,0,0,1,.37.35.33.33,0,0,1-.33.35.38.38,0,0,1-.36-.35A.33.33,0,0,1,47.25,16.25Z"/><path class="cls-6" d="M47.16,16.3a.14.14,0,0,1,.13.13.12.12,0,0,1-.12.12.14.14,0,0,1-.13-.12A.12.12,0,0,1,47.16,16.3Z"/><path class="cls-4" d="M48.13,14.63a.56.56,0,0,0-.6-.54c-.45,0-.43.34-.43.34s-.11-.14-.53-.1a.36.36,0,0,0-.35.44s-.9.12-.27.81c0,0-.08.26.29.35a.47.47,0,0,0,.53-.18.47.47,0,0,0,.37.27c.27,0,.46-.26.46-.26a.32.32,0,0,0,.48.24c.41-.17.39-.44.39-.44s.23.39.46.21a.46.46,0,0,0-.19-.81s.08-.22-.15-.39l-.08,0A.39.39,0,0,0,48.13,14.63Z"/><path class="cls-3" d="M45.71,17.92c0,.14.11.53.4.59s.87-.79.5-.37C45.92,18.93,45.7,17.71,45.71,17.92Z"/><path class="cls-3" d="M46.08,16.08a.37.37,0,0,1,.36.35.32.32,0,0,1-.32.34.37.37,0,0,1-.36-.34A.32.32,0,0,1,46.08,16.08Z"/><path class="cls-6" d="M46,16.13a.15.15,0,0,1,.13.12.12.12,0,0,1-.12.13.14.14,0,0,1-.13-.13A.12.12,0,0,1,46,16.13Z"/><path class="cls-4" d="M48.71,17.38a.27.27,0,0,0,.08.52c.15,0,.2.29.27.34.34.24.22,0,.4-.09.48-.17.33-.33.41-.37A.45.45,0,0,0,50,17.3c0-.14.44-.31,0-.7-.29-.24-.42,0-.61,0s-.38-.14-.45,0-.12-.2-.39.05C48.14,17,48.72,17.37,48.71,17.38Z"/><path class="cls-4" d="M51.26,17.54c.2.45-.13.21-.12.4s.06.44-.17.35c0,0,0,.23-.32.18-.16,0,0-.13-.18,0s-.33-.52-.35-.54a1.9,1.9,0,0,1-.4-.85c0-.25.42-.38.65-.28a.52.52,0,0,1,.84,0c.11.11,0-.05.17,0s0,.13.08.2S51.1,17.2,51.26,17.54Z"/><path class="cls-4" d="M53.31,17.19a.41.41,0,0,0,.16.65s-.27.5.14.49c.2,0,0-.08.21.08a2,2,0,0,0,.32.22c.24.07.24-.27.34-.27a.38.38,0,0,0,.33-.49c0-.08.25-.28-.09-.54s-.37,0-.3-.14-.69-.57-.84-.13c0,.09-.18.08-.25.13Z"/><path class="cls-4" d="M56.09,17.27c0,.12-.12.15-.09.53s-.28.2-.3.26c-.08.21,0,.17-.2.26.23.2-.4.47-.57,0,0-.1,0,0-.09-.09a.47.47,0,0,1-.09-.41c0-.13-.53-.19-.11-.62.09-.08-.16-.47.4-.47.39,0,.31.26.44.19s.53,0,.52.21c-.06,0,0-.16.06.11C56.06,17.23,56.09,17.29,56.09,17.27Z"/><path class="cls-3" d="M46,18.41a.85.85,0,0,0,.2.72c-.19-.47-.06-.66-.06-.66A1,1,0,0,1,46,18.41Z"/><path class="cls-1" d="M37,22.59A4.88,4.88,0,0,0,38.22,22c.17-.2.44-.27.37.15s-.14,1-.88,1.08A.61.61,0,0,1,37,22.59Z"/><path class="cls-2" d="M35.1,26.39a7.49,7.49,0,0,1,.37,1.7,12.64,12.64,0,0,1-.08,1.56s0,.24,0,.26c-.08.41.4.5.4.12,0,0,.14-.14.11-.26s.09-.92.13-1.64a3.19,3.19,0,0,0-.32-1.8S35.13,26.47,35.1,26.39Z"/><path class="cls-3" d="M35.38,29.65a2.78,2.78,0,0,1-.27.33c-.28.46.16.28.33.35s0,.13.1.13c.41,0,.45-.45.34-.74a1.07,1.07,0,0,1-.36.08C35.39,29.78,35.39,29.7,35.38,29.65Z"/><path class="cls-2" d="M33.85,26.15a7.36,7.36,0,0,1,.37,1.7,12.64,12.64,0,0,1-.08,1.56s0,.23,0,.26c-.08.41.4.49.4.12,0,0,.14-.15.11-.26s.09-.92.13-1.64a3.19,3.19,0,0,0-.32-1.8S33.88,26.23,33.85,26.15Z"/><path class="cls-3" d="M34.13,29.41l-.27.33c-.28.45.16.28.33.35s0,.13.1.13c.41,0,.45-.45.34-.74a1.07,1.07,0,0,1-.36.08C34.14,29.54,34.14,29.46,34.13,29.41Z"/><path class="cls-2" d="M30.36,26.32a7.49,7.49,0,0,1,.37,1.7,12.64,12.64,0,0,1-.08,1.56s0,.24,0,.27c-.08.41.4.49.4.11,0,0,.14-.14.11-.26a15.2,15.2,0,0,1,.13-1.64,3.19,3.19,0,0,0-.32-1.8S30.39,26.4,30.36,26.32Z"/><path class="cls-3" d="M30.64,29.58s-.25.31-.27.33c-.28.46.16.28.32.35s0,.13.11.13c.41,0,.45-.44.34-.74a1.07,1.07,0,0,1-.36.08C30.64,29.71,30.65,29.63,30.64,29.58Z"/><path class="cls-2" d="M29.11,26.08a7.93,7.93,0,0,1,.37,1.7,12.64,12.64,0,0,1-.08,1.56s0,.24,0,.26c-.08.41.4.49.4.12,0,0,.14-.15.11-.26s.09-.92.12-1.64a3.15,3.15,0,0,0-.31-1.8S29.14,26.16,29.11,26.08Z"/><path class="cls-3" d="M29.39,29.34s-.25.31-.27.33c-.28.45.16.28.32.35s0,.13.11.13c.41,0,.45-.45.34-.74a1.07,1.07,0,0,1-.36.08C29.39,29.47,29.4,29.39,29.39,29.34Z"/><path class="cls-4" d="M28.76,22.13c.1-.36-.19-.66.45-.8a.82.82,0,0,1,.66-.61,1,1,0,0,1,.82.4c.08-.11.58-1,1.59.09.07-.43.9-.52,1.14.13.22-.91,1.1-.06,1.12-.1a.55.55,0,0,1,1,.08c.58-.51,1.77.23,1.49,1,.39.05.68.33.45.9a.83.83,0,0,1,0,1.34A.82.82,0,0,1,37.31,26c-.08,0,.37,1.76-1.39,1.35.08.24-.74.92-1.42,0-.24.65-1.7.63-1.91.2-.06,0-.43.63-1.44-.47-.13-.13-.37.86-1.32-.28-.5,0-1.38.72-1.7-1,0,0-.66-.47-.7-.9-.08-1.09.2-.19.13-1.14-.06-.76.56-.57.56-1S28.76,22.14,28.76,22.13Z"/><path class="cls-5" d="M27,22.52c-.27,0-.36,0-1,.33s-.78.5-.62.62A1,1,0,0,0,27,22.52Z"/><path class="cls-2" d="M26.11,24.7c0,1.63,1.86,1.59,2.7,1.05.54-.35.15-1.17.37-1.68.56-1.28.89-2.4-.58-2.42s-1.74,1-2,2.1C26.52,24.08,26.1,24.33,26.11,24.7Z"/><path class="cls-5" d="M29.3,22.62c.25.13.35.13.73.74s.51.82.32.85A1.06,1.06,0,0,1,29.3,22.62Z"/><path class="cls-3" d="M28.15,23.06a.38.38,0,0,1,.37.35.32.32,0,0,1-.32.34.38.38,0,0,1-.37-.34A.32.32,0,0,1,28.15,23.06Z"/><path class="cls-6" d="M28.06,23.11a.13.13,0,0,1,.13.12.12.12,0,0,1-.12.13.15.15,0,0,1-.13-.13A.12.12,0,0,1,28.06,23.11Z"/><path class="cls-4" d="M29,21.43a.56.56,0,0,0-.6-.53c-.45,0-.43.34-.43.34s-.11-.14-.53-.11a.36.36,0,0,0-.35.44s-.9.13-.27.81c0,0-.08.26.29.36a.47.47,0,0,0,.53-.18.52.52,0,0,0,.37.27.56.56,0,0,0,.46-.26.31.31,0,0,0,.48.23c.41-.17.39-.44.39-.44s.23.4.46.21a.46.46,0,0,0-.19-.81s.08-.22-.15-.39l-.08,0A.39.39,0,0,0,29,21.43Z"/><path class="cls-3" d="M26.61,24.72c0,.15.11.54.4.6s.87-.79.5-.37C26.82,25.73,26.6,24.52,26.61,24.72Z"/><path class="cls-3" d="M27,22.89a.36.36,0,0,1,.36.34.32.32,0,0,1-.32.35.38.38,0,0,1-.36-.35A.32.32,0,0,1,27,22.89Z"/><path class="cls-6" d="M26.89,22.94a.14.14,0,0,1,.13.12.12.12,0,0,1-.12.12.13.13,0,0,1-.13-.12A.12.12,0,0,1,26.89,22.94Z"/><path class="cls-4" d="M29.1,27.16c-.23.14-.2.52.09.53s.2.29.27.33c.34.25.21,0,.39-.08.49-.17.34-.33.41-.38a.42.42,0,0,0,.17-.47c0-.15.45-.31,0-.7-.29-.24-.42,0-.62,0s-.37-.14-.45,0-.12-.2-.39,0S29.11,27.16,29.1,27.16Z"/><path class="cls-4" d="M31.65,27.33c.21.45-.12.21-.11.4s.05.43-.18.35c0,0,0,.22-.31.18-.16,0,0-.13-.18,0s-.33-.52-.35-.54a1.84,1.84,0,0,1-.4-.86c0-.24.41-.37.64-.27a.52.52,0,0,1,.84,0c.11.11,0-.05.17,0s0,.14.09.21A.47.47,0,0,0,31.65,27.33Z"/><path class="cls-4" d="M33.71,27a.41.41,0,0,0,.15.65s-.26.5.15.48c.2,0,0-.07.2.09a2.1,2.1,0,0,0,.33.22c.24.07.23-.27.33-.27a.37.37,0,0,0,.33-.49c0-.08.25-.28-.09-.54s-.36,0-.29-.14-.7-.57-.85-.13c0,.09-.17.07-.25.13Z"/><path class="cls-4" d="M36.48,27.05c0,.13-.11.16-.08.54s-.29.2-.31.26,0,.17-.19.26c.23.2-.4.47-.58,0,0-.1,0,0-.08-.1a.42.42,0,0,1-.09-.4c0-.13-.53-.19-.11-.62.08-.08-.16-.47.39-.47.39,0,.31.25.45.18s.53,0,.51.22c-.06,0,0-.16.06.11C36.46,27,36.48,27.08,36.48,27.05Z"/><path class="cls-3" d="M26.91,25.21a.87.87,0,0,0,.2.73c-.19-.47-.06-.67-.06-.67Z"/><path class="cls-1" d="M2.72,28.11a4.91,4.91,0,0,1-1.26-.62c-.17-.19-.43-.26-.36.15s.13,1,.88,1.09A.61.61,0,0,0,2.72,28.11Z"/><path class="cls-2" d="M4.58,31.91a7.79,7.79,0,0,0-.37,1.7,12.36,12.36,0,0,0,.08,1.55s0,.24,0,.27c.08.41-.41.49-.4.11,0,0-.15-.14-.12-.25a14.16,14.16,0,0,0-.12-1.64A3.12,3.12,0,0,1,4,31.85S4.56,32,4.58,31.91Z"/><path class="cls-3" d="M4.3,35.16s.26.31.27.34c.28.45-.16.28-.32.35s0,.12-.11.12c-.41,0-.45-.44-.34-.74a.73.73,0,0,0,.36.08C4.3,35.3,4.29,35.22,4.3,35.16Z"/><path class="cls-2" d="M5.83,31.67a7.79,7.79,0,0,0-.37,1.7,13.58,13.58,0,0,0,.09,1.55,1.3,1.3,0,0,0,0,.27c.08.41-.41.49-.4.11,0,0-.15-.14-.11-.25s-.09-.92-.13-1.64a3.17,3.17,0,0,1,.31-1.81S5.81,31.75,5.83,31.67Z"/><path class="cls-3" d="M5.55,34.92s.26.31.27.33c.29.46-.16.28-.32.36s0,.12-.11.12c-.41,0-.44-.44-.34-.74a.88.88,0,0,0,.37.08C5.55,35.06,5.54,35,5.55,34.92Z"/><path class="cls-2" d="M9.32,31.84A7.93,7.93,0,0,0,9,33.54,13.1,13.1,0,0,0,9,35.09a1.3,1.3,0,0,0,0,.27c.08.41-.41.49-.4.11,0,0-.15-.14-.11-.25s-.09-.92-.13-1.64a3.12,3.12,0,0,1,.31-1.8S9.3,31.92,9.32,31.84Z"/><path class="cls-3" d="M9,35.1s.26.3.27.33c.29.45-.16.28-.32.35s0,.12-.11.12c-.41,0-.44-.44-.33-.73a.82.82,0,0,0,.36.07C9,35.23,9,35.15,9,35.1Z"/><path class="cls-2" d="M10.57,31.6a8.43,8.43,0,0,0-.37,1.7,13.34,13.34,0,0,0,.09,1.55,1.3,1.3,0,0,0,0,.27c.08.41-.41.49-.4.11,0,0-.15-.14-.11-.25s-.09-.92-.13-1.64A3.11,3.11,0,0,1,10,31.53S10.55,31.68,10.57,31.6Z"/><path class="cls-3" d="M10.3,34.85a4.19,4.19,0,0,0,.26.33c.29.46-.16.28-.32.36s0,.12-.11.12c-.41,0-.44-.44-.33-.74a.79.79,0,0,0,.36.08C10.29,35,10.29,34.91,10.3,34.85Z"/><path class="cls-4" d="M10.92,27.65c-.1-.37.19-.67-.44-.81a.83.83,0,0,0-.66-.61,1,1,0,0,0-.82.4c-.09-.1-.59-1-1.6.09-.06-.43-.9-.51-1.14.13-.21-.91-1.09-.05-1.12-.09-.27-.43-.74-.23-.95.08-.58-.51-1.76.23-1.49,1-.38,0-.68.33-.44.9a.83.83,0,0,0,0,1.34.81.81,0,0,0,.16,1.4c.08,0-.36,1.76,1.4,1.35-.09.25.73.92,1.41,0,.25.65,1.71.64,1.91.21.07,0,.43.63,1.45-.47.12-.14.36.85,1.32-.28.49,0,1.37.71,1.69-1,0,0,.66-.47.7-.91.09-1.08-.2-.18-.13-1.14.06-.75-.56-.57-.55-1C11.57,28,10.92,27.66,10.92,27.65Z"/><path class="cls-5" d="M13.45,30.88c.27,0,.36,0,1,.33s.78.51.62.63A1,1,0,0,1,13.45,30.88Z"/><path class="cls-2" d="M14.37,33.06c0,1.64-1.86,1.6-2.7,1.06-.54-.36-.15-1.17-.37-1.68-.56-1.28-.89-2.41.58-2.43s1.74.95,2,2.1C14,32.45,14.38,32.7,14.37,33.06Z"/><path class="cls-5" d="M11.18,31c-.25.13-.35.14-.73.75s-.51.81-.32.85A1.07,1.07,0,0,0,11.18,31Z"/><path class="cls-3" d="M12.33,31.42a.39.39,0,0,0-.37.35.33.33,0,0,0,.32.35.39.39,0,0,0,.37-.35A.33.33,0,0,0,12.33,31.42Z"/><path class="cls-6" d="M12.42,31.47a.14.14,0,0,0-.13.13.12.12,0,0,0,.12.12.12.12,0,0,0,.12-.12A.11.11,0,0,0,12.42,31.47Z"/><path class="cls-4" d="M11.45,29.8a.56.56,0,0,1,.6-.54c.45,0,.43.34.43.34s.11-.14.53-.1a.35.35,0,0,1,.34.44s.91.12.28.81c0,0,.08.26-.29.35a.47.47,0,0,1-.53-.18.5.5,0,0,1-.37.27c-.27,0-.46-.26-.46-.26a.32.32,0,0,1-.48.24c-.42-.17-.39-.44-.39-.44s-.23.39-.46.21a.46.46,0,0,1,.19-.81s-.08-.22.15-.39l.07,0A.4.4,0,0,1,11.45,29.8Z"/><path class="cls-3" d="M13.87,33.09c0,.14-.11.53-.4.59s-.87-.79-.5-.37C13.66,34.1,13.88,32.88,13.87,33.09Z"/><path class="cls-3" d="M13.5,31.25a.37.37,0,0,0-.36.35.31.31,0,0,0,.32.34.37.37,0,0,0,.36-.34A.32.32,0,0,0,13.5,31.25Z"/><path class="cls-6" d="M13.59,31.3a.15.15,0,0,0-.13.12.12.12,0,0,0,.12.13.15.15,0,0,0,.13-.13A.12.12,0,0,0,13.59,31.3Z"/><path class="cls-4" d="M10.58,32.68c.23.13.2.52-.09.52s-.2.29-.26.34c-.35.24-.22,0-.4-.08-.48-.17-.34-.34-.41-.38a.43.43,0,0,1-.17-.47c0-.15-.45-.31,0-.71.28-.23.42.05.61,0s.38-.13.45,0,.12-.19.39.05C11.15,32.28,10.57,32.68,10.58,32.68Z"/><path class="cls-4" d="M8,32.85c-.21.44.12.21.12.39s-.06.44.17.35c0,0,0,.23.32.18.16,0,0-.13.17,0s.33-.51.36-.54a2,2,0,0,0,.4-.85c0-.25-.42-.38-.65-.27a.51.51,0,0,0-.84,0c-.11.11,0,0-.17,0s0,.14-.09.2S8.19,32.51,8,32.85Z"/><path class="cls-4" d="M6,32.5a.4.4,0,0,1-.16.64s.27.5-.14.49c-.2,0,0-.07-.21.09a2.64,2.64,0,0,1-.32.22c-.25.07-.24-.28-.34-.28a.37.37,0,0,1-.33-.49c0-.08-.25-.28.09-.53s.37,0,.3-.15.69-.57.84-.13c0,.1.17.08.25.13Z"/><path class="cls-4" d="M3.2,32.57c0,.12.11.15.08.54s.29.19.31.25c.08.22,0,.17.2.26-.24.21.4.47.57,0,0-.1,0,0,.08-.1a.45.45,0,0,0,.1-.41c0-.12.52-.18.1-.61-.08-.09.17-.48-.39-.48-.39,0-.31.26-.44.19s-.54,0-.52.21,0-.16-.06.12C3.23,32.53,3.2,32.6,3.2,32.57Z"/><path class="cls-3" d="M13.57,33.58a.85.85,0,0,1-.2.72c.19-.47.06-.66.06-.66A1,1,0,0,0,13.57,33.58Z"/><path class="cls-1" d="M13.52,8.83a3.72,3.72,0,0,1-1-.47c-.13-.15-.33-.2-.28.12s.1.74.67.83A.47.47,0,0,0,13.52,8.83Z"/><path class="cls-2" d="M14.94,11.74a6.22,6.22,0,0,0-.28,1.3,8.38,8.38,0,0,0,.07,1.19,1.46,1.46,0,0,0,0,.21c.07.31-.31.37-.3.08,0,0-.11-.11-.09-.19s-.07-.71-.09-1.26a2.46,2.46,0,0,1,.24-1.38S14.93,11.8,14.94,11.74Z"/><path class="cls-3" d="M14.73,14.23l.21.26c.21.35-.13.21-.25.27s0,.09-.08.09c-.32,0-.34-.34-.26-.56a.73.73,0,0,0,.28.06C14.73,14.34,14.72,14.28,14.73,14.23Z"/><path class="cls-2" d="M15.9,11.56a5.93,5.93,0,0,0-.28,1.3,9.76,9.76,0,0,0,.06,1.19s0,.18,0,.2c.06.31-.31.38-.3.09,0,0-.11-.11-.09-.2s-.07-.7-.1-1.25a2.36,2.36,0,0,1,.25-1.38S15.88,11.62,15.9,11.56Z"/><path class="cls-3" d="M15.69,14.05s.19.23.2.25c.22.35-.12.22-.24.27s0,.1-.08.1c-.32,0-.35-.34-.26-.57a.67.67,0,0,0,.27.06C15.69,14.15,15.68,14.09,15.69,14.05Z"/><path class="cls-2" d="M18.57,11.69a6.08,6.08,0,0,0-.28,1.3,8.38,8.38,0,0,0,.07,1.19,1.32,1.32,0,0,0,0,.2c.06.32-.31.38-.3.09,0,0-.11-.11-.09-.19s-.07-.71-.09-1.26a2.42,2.42,0,0,1,.24-1.38S18.56,11.75,18.57,11.69Z"/><path class="cls-3" d="M18.36,14.18l.21.25c.21.35-.13.22-.25.27s0,.1-.08.1c-.32,0-.34-.34-.26-.57a.55.55,0,0,0,.28.06C18.36,14.28,18.35,14.22,18.36,14.18Z"/><path class="cls-2" d="M19.53,11.5a6.22,6.22,0,0,0-.28,1.3A9.76,9.76,0,0,0,19.31,14s0,.19,0,.21c.06.31-.31.37-.3.08,0,0-.12-.1-.09-.19s-.07-.7-.1-1.26a2.46,2.46,0,0,1,.24-1.38S19.51,11.56,19.53,11.5Z"/><path class="cls-3" d="M19.32,14a2.56,2.56,0,0,0,.2.26c.22.35-.12.21-.24.27s0,.09-.09.09c-.31,0-.34-.34-.25-.56a.67.67,0,0,0,.27.06C19.32,14.1,19.31,14,19.32,14Z"/><path class="cls-4" d="M19.8,8.48c-.08-.28.14-.51-.34-.62A.64.64,0,0,0,19,7.4a.8.8,0,0,0-.63.3c-.06-.08-.44-.76-1.22.07-.05-.33-.69-.39-.87.1-.16-.7-.84,0-.86-.07-.21-.33-.57-.17-.72.06-.45-.39-1.35.18-1.14.77-.3,0-.53.26-.34.69a.64.64,0,0,0,0,1,.62.62,0,0,0,.12,1.07c.06,0-.28,1.35,1.07,1-.06.18.57.7,1.08,0,.19.5,1.31.49,1.47.16.05,0,.33.48,1.1-.36.1-.11.28.65,1-.22.38,0,1.06.55,1.3-.76,0,0,.51-.36.53-.69.07-.84-.14-.15-.09-.88,0-.58-.43-.43-.43-.73S19.8,8.49,19.8,8.48Z"/><path class="cls-5" d="M21.12,8.78c.21,0,.28,0,.73.25s.6.38.47.47A.76.76,0,0,1,21.12,8.78Z"/><path class="cls-2" d="M21.83,10.44c0,1.25-1.43,1.22-2.07.81-.41-.27-.11-.89-.28-1.29-.43-1-.68-1.84.45-1.85s1.32.73,1.53,1.61C21.52,10,21.83,10.16,21.83,10.44Z"/><path class="cls-5" d="M19.39,8.85c-.19.1-.27.1-.56.57s-.39.63-.24.65A.82.82,0,0,0,19.39,8.85Z"/><path class="cls-3" d="M20.26,9.19a.28.28,0,0,0-.27.26.25.25,0,0,0,.24.27.28.28,0,0,0,.28-.27A.24.24,0,0,0,20.26,9.19Z"/><path class="cls-6" d="M20.34,9.23a.1.1,0,0,0-.1.09.09.09,0,0,0,.09.1.1.1,0,0,0,.09-.1A.08.08,0,0,0,20.34,9.23Z"/><path class="cls-4" d="M19.59,8a.44.44,0,0,1,.46-.42c.35,0,.33.26.33.26s.08-.1.41-.07a.26.26,0,0,1,.26.33s.7.1.21.62c0,0,.06.2-.22.27a.35.35,0,0,1-.4-.13.42.42,0,0,1-.29.2c-.21,0-.35-.2-.35-.2a.24.24,0,0,1-.37.18c-.32-.13-.29-.33-.29-.33s-.18.3-.36.16a.36.36,0,0,1,.15-.63s-.07-.16.11-.29l.06,0A.27.27,0,0,1,19.59,8Z"/><path class="cls-3" d="M21.44,10.46c0,.11-.08.41-.3.46s-.66-.61-.38-.29C21.28,11.24,21.45,10.31,21.44,10.46Z"/><path class="cls-3" d="M21.16,9.06a.28.28,0,0,0-.28.26.26.26,0,0,0,.25.27.29.29,0,0,0,.28-.27A.24.24,0,0,0,21.16,9.06Z"/><path class="cls-6" d="M21.23,9.09a.1.1,0,0,0-.09.1.08.08,0,0,0,.08.09.1.1,0,0,0,.1-.09A.09.09,0,0,0,21.23,9.09Z"/><path class="cls-4" d="M19.54,12.33c.18.1.15.4-.07.4s-.15.22-.2.26c-.26.19-.17,0-.31-.06-.37-.13-.25-.26-.31-.29a.33.33,0,0,1-.13-.36c0-.12-.34-.24,0-.54s.32,0,.47,0,.29-.1.34,0,.1-.15.3,0S19.53,12.33,19.54,12.33Z"/><path class="cls-4" d="M17.59,12.46c-.16.34.09.16.08.3s0,.34.14.27,0,.17.24.14,0-.1.13,0,.26-.4.28-.42a1.49,1.49,0,0,0,.3-.65c0-.19-.32-.29-.49-.21a.39.39,0,0,0-.64,0c-.09.09,0,0-.14,0s0,.11-.06.16S17.71,12.2,17.59,12.46Z"/><path class="cls-4" d="M16,12.19a.3.3,0,0,1-.11.49s.2.39-.12.38c-.15,0,0-.06-.15.06a1.59,1.59,0,0,1-.25.17c-.19.06-.18-.21-.26-.21a.27.27,0,0,1-.25-.37c0-.06-.19-.22.07-.41s.28,0,.22-.11.54-.44.65-.1c0,.07.13.06.19.1Z"/><path class="cls-4" d="M13.89,12.25c0,.09.09.11.06.41s.22.15.24.19,0,.13.15.2c-.18.16.3.36.44,0,0-.07,0,0,.06-.07a.36.36,0,0,0,.07-.31c0-.1.41-.14.08-.47-.06-.07.13-.37-.3-.37s-.24.2-.34.15-.41,0-.39.16,0-.12-.05.09C13.91,12.22,13.89,12.27,13.89,12.25Z"/><path class="cls-3" d="M21.22,10.84a.7.7,0,0,1-.15.55c.14-.36,0-.51,0-.51Z"/><path class="cls-1" d="M1.12,1.31A3.42,3.42,0,0,1,.26.89C.14.75,0,.71,0,1s.09.66.6.74A.41.41,0,0,0,1.12,1.31Z"/><path class="cls-2" d="M2.39,3.9a5.21,5.21,0,0,0-.26,1.16,7.54,7.54,0,0,0,.06,1.06,1.21,1.21,0,0,0,0,.18c0,.28-.28.34-.28.08,0,0-.09-.1-.07-.17a9.84,9.84,0,0,0-.09-1.12A2.16,2.16,0,0,1,2,3.86S2.37,4,2.39,3.9Z"/><path class="cls-3" d="M2.2,6.12s.17.21.18.23c.19.31-.11.19-.22.24s0,.09-.08.09c-.28,0-.3-.31-.22-.51a.51.51,0,0,0,.24.06C2.19,6.22,2.19,6.16,2.2,6.12Z"/><path class="cls-2" d="M3.24,3.74A5,5,0,0,0,3,4.9,9.46,9.46,0,0,0,3,6s0,.16,0,.18c.06.28-.28.33-.27.08,0,0-.1-.1-.08-.18s-.06-.62-.08-1.12a2.15,2.15,0,0,1,.21-1.23S3.22,3.79,3.24,3.74Z"/><path class="cls-3" d="M3.05,6a1.92,1.92,0,0,0,.18.22c.2.31-.11.19-.22.24s0,.09-.07.09c-.28,0-.31-.3-.23-.5a.89.89,0,0,0,.25,0C3.05,6.05,3,6,3.05,6Z"/><path class="cls-2" d="M5.62,3.85A5.32,5.32,0,0,0,5.37,5a8,8,0,0,0,.06,1.07,1.07,1.07,0,0,0,0,.18c.06.28-.27.33-.27.07,0,0-.1-.09-.07-.17S5,5.53,5,5a2.15,2.15,0,0,1,.21-1.23S5.6,3.91,5.62,3.85Z"/><path class="cls-3" d="M5.43,6.08l.18.22c.2.31-.11.19-.22.24s0,.09-.07.09c-.28,0-.3-.3-.23-.51a.6.6,0,0,0,.25.06C5.43,6.17,5.42,6.11,5.43,6.08Z"/><path class="cls-2" d="M6.47,3.69a6,6,0,0,0-.25,1.16,7.9,7.9,0,0,0,.06,1.06,1.28,1.28,0,0,0,0,.18c0,.28-.28.34-.28.08,0,0-.09-.1-.07-.17s-.06-.63-.09-1.12a2.16,2.16,0,0,1,.22-1.23S6.46,3.74,6.47,3.69Z"/><path class="cls-3" d="M6.29,5.91s.17.21.18.23c.19.31-.11.19-.22.24s0,.08-.08.08c-.28,0-.3-.3-.22-.5a.54.54,0,0,0,.24,0C6.28,6,6.28,6,6.29,5.91Z"/><path class="cls-4" d="M6.71,1c-.07-.25.13-.45-.3-.55A.56.56,0,0,0,6,0,.71.71,0,0,0,5.4.3C5.34.23,5-.38,4.31.36c0-.29-.61-.35-.78.09-.14-.62-.74,0-.76-.06a.38.38,0,0,0-.65,0c-.4-.35-1.2.16-1,.69-.26,0-.46.23-.3.61a.58.58,0,0,0,0,.92.56.56,0,0,0,.12,1c.05,0-.25,1.2,1,.92-.06.17.5.63,1,0C3,5,4,5,4.1,4.66c0,0,.29.44,1-.31.08-.1.24.58.9-.2.33,0,.93.49,1.15-.68,0,0,.45-.32.48-.62.06-.74-.13-.12-.09-.78,0-.51-.38-.38-.38-.65S6.71,1,6.71,1Z"/><path class="cls-5" d="M7.89,1.26c.19,0,.25,0,.65.22s.53.35.42.43A.68.68,0,0,1,7.89,1.26Z"/><path class="cls-2" d="M8.52,2.75c0,1.11-1.27,1.08-1.84.71-.37-.24-.1-.79-.25-1.14-.38-.88-.61-1.64.4-1.66S8,1.31,8.19,2.1C8.25,2.32,8.53,2.49,8.52,2.75Z"/><path class="cls-5" d="M6.34,1.32c-.16.09-.23.1-.49.51s-.35.56-.22.58A.72.72,0,0,0,6.34,1.32Z"/><path class="cls-3" d="M7.13,1.63a.25.25,0,0,0-.25.23.22.22,0,0,0,.22.24.26.26,0,0,0,.25-.24A.22.22,0,0,0,7.13,1.63Z"/><path class="cls-6" d="M7.19,1.66a.11.11,0,0,0-.09.08.09.09,0,0,0,.08.09.09.09,0,0,0,.09-.09A.08.08,0,0,0,7.19,1.66Z"/><path class="cls-4" d="M6.53.52A.38.38,0,0,1,6.94.15c.31,0,.29.23.29.23S7.31.29,7.6.31a.24.24,0,0,1,.23.3s.62.09.19.56c0,0,.05.17-.2.24a.32.32,0,0,1-.36-.13.35.35,0,0,1-.26.19c-.18,0-.31-.18-.31-.18a.22.22,0,0,1-.33.16c-.28-.12-.26-.3-.26-.3s-.16.27-.32.14A.31.31,0,0,1,6.12.74s-.06-.15.1-.26,0,0,0,0A.25.25,0,0,1,6.53.52Z"/><path class="cls-3" d="M8.18,2.76c0,.1-.07.37-.27.41s-.59-.54-.34-.26C8,3.45,8.19,2.62,8.18,2.76Z"/><path class="cls-3" d="M7.93,1.51a.25.25,0,0,0-.25.23A.22.22,0,0,0,7.9,2a.25.25,0,0,0,.25-.24A.22.22,0,0,0,7.93,1.51Z"/><path class="cls-6" d="M8,1.54a.11.11,0,0,0-.09.09A.09.09,0,0,0,8,1.71a.09.09,0,0,0,.09-.08A.08.08,0,0,0,8,1.54Z"/><path class="cls-4" d="M6.48,4.43c.16.09.14.35-.06.35S6.28,5,6.24,5C6,5.18,6.09,5,6,5c-.33-.12-.23-.23-.28-.26a.3.3,0,0,1-.12-.32c0-.1-.3-.21,0-.48s.29,0,.42,0,.26-.1.31,0,.08-.13.26,0S6.47,4.43,6.48,4.43Z"/><path class="cls-4" d="M4.74,4.54c-.14.3.08.15.08.27s0,.3.12.24,0,.16.21.12,0-.09.12,0,.23-.35.25-.36a1.38,1.38,0,0,0,.27-.59C5.77,4,5.5,4,5.35,4a.36.36,0,0,0-.57,0c-.08.08,0,0-.12,0s0,.09-.06.14S4.85,4.31,4.74,4.54Z"/><path class="cls-4" d="M3.34,4.3a.28.28,0,0,1-.11.44s.18.35-.1.34c-.13,0,0,0-.14,0a1.53,1.53,0,0,1-.22.16c-.16,0-.16-.19-.23-.19a.25.25,0,0,1-.22-.34s-.17-.19.06-.36.25,0,.2-.1.47-.39.58-.09c0,.06.11,0,.17.09Z"/><path class="cls-4" d="M1.44,4.35c0,.09.08.11.06.37s.2.13.21.17,0,.12.13.18c-.15.14.28.32.4,0,0-.07,0,0,0-.07a.33.33,0,0,0,.07-.28c0-.08.36-.12.07-.42-.06,0,.11-.32-.27-.32s-.21.17-.3.13-.37,0-.35.14,0-.11-.05.08C1.46,4.33,1.44,4.37,1.44,4.35Z"/><path class="cls-3" d="M8,3.1a.57.57,0,0,1-.14.49c.13-.32,0-.45,0-.45Z"/><path class="cls-1" d="M69.82,25.68a4.31,4.31,0,0,0,1.26-.61c.17-.19.43-.26.37.15s-.14,1-.89,1.09A.61.61,0,0,1,69.82,25.68Z"/><path class="cls-2" d="M68,29.49a7.23,7.23,0,0,1,.37,1.7,12.36,12.36,0,0,1-.08,1.55s0,.24,0,.27c-.08.41.4.49.4.11,0,0,.14-.14.11-.25s.09-.92.13-1.64a3.22,3.22,0,0,0-.32-1.81S68,29.57,68,29.49Z"/><path class="cls-3" d="M68.24,32.74s-.25.31-.27.34c-.28.45.16.27.33.35s0,.12.1.12c.41,0,.45-.44.34-.74a.73.73,0,0,1-.36.08C68.25,32.88,68.25,32.8,68.24,32.74Z"/><path class="cls-2" d="M66.71,29.25a7.25,7.25,0,0,1,.37,1.69A12.64,12.64,0,0,1,67,32.5s0,.24,0,.27c-.08.41.4.49.4.11,0,0,.14-.14.11-.25A15.15,15.15,0,0,1,67.63,31a3.19,3.19,0,0,0-.32-1.8S66.74,29.33,66.71,29.25Z"/><path class="cls-3" d="M67,32.5s-.25.31-.27.33c-.28.46.16.28.32.35s0,.13.11.13c.41,0,.45-.44.34-.74a1.07,1.07,0,0,1-.36.08C67,32.64,67,32.56,67,32.5Z"/><path class="cls-2" d="M63.22,29.42a7.23,7.23,0,0,1,.37,1.7,12.36,12.36,0,0,1-.08,1.55s0,.24,0,.27c-.08.41.4.49.4.11,0,0,.14-.14.11-.25s.09-.92.12-1.64a3.12,3.12,0,0,0-.31-1.8S63.25,29.5,63.22,29.42Z"/><path class="cls-3" d="M63.5,32.67s-.25.31-.27.34c-.28.45.16.27.32.35s0,.12.11.12c.41,0,.45-.44.34-.74a.73.73,0,0,1-.36.08C63.5,32.81,63.51,32.73,63.5,32.67Z"/><path class="cls-2" d="M62,29.18a7.81,7.81,0,0,1,.37,1.69,12.64,12.64,0,0,1-.08,1.56s0,.24,0,.27c-.07.41.41.49.4.11,0,0,.15-.14.12-.25s.09-.92.12-1.64a3.17,3.17,0,0,0-.31-1.81S62,29.26,62,29.18Z"/><path class="cls-3" d="M62.25,32.43s-.26.31-.27.33c-.28.46.16.28.32.36s0,.12.11.12c.41,0,.45-.44.34-.74a.87.87,0,0,1-.36.08C62.25,32.57,62.26,32.49,62.25,32.43Z"/><path class="cls-4" d="M61.62,25.23c.1-.37-.19-.67.45-.81a.82.82,0,0,1,.66-.61,1.05,1.05,0,0,1,.82.4c.08-.1.58-1,1.59.09.07-.43.9-.51,1.14.13.22-.91,1.09-.05,1.12-.09.28-.43.75-.23.95.08.58-.52,1.77.23,1.49,1,.39.05.68.33.45.89a.84.84,0,0,1,0,1.35.81.81,0,0,1-.17,1.4c-.08,0,.37,1.76-1.39,1.35.08.25-.74.92-1.42,0-.24.65-1.7.64-1.91.21-.06,0-.43.63-1.44-.47-.13-.14-.37.85-1.32-.28-.5,0-1.38.71-1.7-1,0,0-.66-.47-.7-.91-.09-1.08.2-.18.13-1.14-.06-.75.56-.57.56-1S61.62,25.24,61.62,25.23Z"/><path class="cls-5" d="M59.89,25.61c-.28,0-.36,0-1,.33s-.78.51-.62.63A1,1,0,0,0,59.89,25.61Z"/><path class="cls-2" d="M59,27.79c0,1.63,1.86,1.6,2.7,1.05.54-.35.15-1.16.37-1.67.56-1.28.89-2.41-.58-2.43s-1.74,1-2,2.1C59.38,27.17,59,27.43,59,27.79Z"/><path class="cls-5" d="M62.16,25.71c.25.13.35.14.73.74s.51.82.32.86A1.07,1.07,0,0,1,62.16,25.71Z"/><path class="cls-3" d="M61,26.15a.37.37,0,0,1,.36.35.32.32,0,0,1-.32.35.38.38,0,0,1-.36-.35A.32.32,0,0,1,61,26.15Z"/><path class="cls-6" d="M60.92,26.2a.14.14,0,0,1,.13.13.12.12,0,0,1-.12.12.15.15,0,0,1-.13-.12A.12.12,0,0,1,60.92,26.2Z"/><path class="cls-4" d="M61.89,24.53a.56.56,0,0,0-.6-.54c-.45,0-.43.34-.43.34s-.11-.14-.53-.1a.36.36,0,0,0-.35.44s-.9.12-.27.81c0,0-.08.26.29.35a.47.47,0,0,0,.53-.18.47.47,0,0,0,.37.27c.27,0,.46-.26.46-.26a.32.32,0,0,0,.48.24c.41-.18.39-.44.39-.44s.23.39.46.21a.46.46,0,0,0-.19-.81s.08-.22-.15-.39l-.08,0A.39.39,0,0,0,61.89,24.53Z"/><path class="cls-3" d="M59.47,27.82c0,.14.11.53.4.59s.87-.79.5-.37C59.68,28.83,59.46,27.61,59.47,27.82Z"/><path class="cls-3" d="M59.84,26a.37.37,0,0,1,.36.35.32.32,0,0,1-.32.34.36.36,0,0,1-.36-.34A.32.32,0,0,1,59.84,26Z"/><path class="cls-6" d="M59.75,26a.15.15,0,0,1,.13.12.12.12,0,0,1-.12.13.14.14,0,0,1-.13-.13A.12.12,0,0,1,59.75,26Z"/><path class="cls-4" d="M62,30.26c-.23.13-.2.52.09.52s.2.29.26.34c.35.24.22,0,.4-.08.49-.17.34-.34.41-.38a.43.43,0,0,0,.17-.47c0-.15.45-.31,0-.71-.29-.24-.42.05-.62,0s-.37-.14-.45,0-.12-.19-.39,0S62,30.25,62,30.26Z"/><path class="cls-4" d="M64.51,30.43c.21.44-.12.21-.11.39s0,.44-.18.35c0,0,0,.23-.31.18-.17,0,0-.13-.18,0s-.33-.51-.36-.54a1.88,1.88,0,0,1-.39-.85c0-.25.41-.38.64-.28a.52.52,0,0,1,.84,0c.11.11,0,0,.17,0s0,.14.09.2S64.35,30.09,64.51,30.43Z"/><path class="cls-4" d="M66.57,30.08a.4.4,0,0,0,.15.64s-.26.5.15.49c.2,0,0-.07.2.08a2.19,2.19,0,0,0,.33.23c.24.07.23-.28.33-.28a.37.37,0,0,0,.33-.49c0-.08.25-.28-.09-.54s-.37,0-.29-.14-.7-.57-.85-.13c0,.09-.17.08-.25.13Z"/><path class="cls-4" d="M69.34,30.15c0,.12-.11.15-.08.54s-.29.19-.31.25c-.07.22,0,.17-.19.26.23.2-.4.47-.58,0,0-.09,0,0-.08-.09a.48.48,0,0,1-.1-.41c0-.13-.52-.19-.1-.61.08-.09-.16-.48.39-.48.39,0,.31.26.44.19s.54,0,.52.21,0-.16.06.11C69.32,30.11,69.34,30.18,69.34,30.15Z"/><path class="cls-3" d="M59.77,28.31A.85.85,0,0,0,60,29c-.19-.47-.06-.66-.06-.66A1,1,0,0,1,59.77,28.31Z"/><path class="cls-1" d="M42.07,3.92a3.06,3.06,0,0,0,.85-.42c.12-.13.3-.18.25.11s-.09.66-.6.73A.41.41,0,0,1,42.07,3.92Z"/><path class="cls-2" d="M40.8,6.5a4.78,4.78,0,0,1,.25,1.16,8.93,8.93,0,0,1,0,1.05s0,.17,0,.19c-.05.27.28.33.27.07,0,0,.1-.09.08-.17s.06-.62.08-1.11a2.12,2.12,0,0,0-.21-1.23S40.82,6.56,40.8,6.5Z"/><path class="cls-3" d="M41,8.72l-.18.22c-.19.31.11.19.22.24s0,.09.07.09c.28,0,.31-.31.23-.51a.55.55,0,0,1-.24.06C41,8.81,41,8.75,41,8.72Z"/><path class="cls-2" d="M40,6.34a4.68,4.68,0,0,1,.25,1.15,9.24,9.24,0,0,1-.05,1.06s0,.16,0,.18c0,.28.28.33.27.08,0,0,.1-.1.08-.17s.06-.63.08-1.12a2.1,2.1,0,0,0-.21-1.22S40,6.39,40,6.34Z"/><path class="cls-3" d="M40.14,8.55s-.17.21-.18.23c-.19.31.11.19.22.24s0,.08.07.08c.28,0,.31-.3.23-.5a.58.58,0,0,1-.24.05C40.15,8.64,40.15,8.59,40.14,8.55Z"/><path class="cls-2" d="M37.58,6.46a5.07,5.07,0,0,1,.25,1.15,9.46,9.46,0,0,1,0,1.06s0,.16,0,.18c-.05.28.27.33.27.08,0,0,.1-.1.08-.18s.06-.62.08-1.11A2.15,2.15,0,0,0,38,6.41S37.6,6.51,37.58,6.46Z"/><path class="cls-3" d="M37.77,8.67a1.92,1.92,0,0,1-.18.22c-.19.31.11.19.22.24s0,.09.07.09c.28,0,.3-.3.23-.5a.89.89,0,0,1-.25,0C37.77,8.76,37.78,8.71,37.77,8.67Z"/><path class="cls-2" d="M36.73,6.29A4.78,4.78,0,0,1,37,7.45a8.93,8.93,0,0,1,0,1v.18c-.05.28.27.34.27.08,0,0,.1-.1.08-.17s.06-.63.08-1.12a2.1,2.1,0,0,0-.21-1.22S36.75,6.35,36.73,6.29Z"/><path class="cls-3" d="M36.92,8.5s-.17.21-.18.23c-.19.31.11.19.22.24s0,.08.07.08c.28,0,.3-.3.23-.5a.58.58,0,0,1-.24,0C36.93,8.6,36.93,8.54,36.92,8.5Z"/><path class="cls-4" d="M36.5,3.61c.07-.25-.13-.45.3-.55a.54.54,0,0,1,.45-.41.7.7,0,0,1,.55.27c.06-.07.4-.67,1.09.06,0-.29.61-.35.77.09.15-.62.74,0,.76-.07a.38.38,0,0,1,.65.06c.39-.35,1.2.16,1,.69.26,0,.46.22.3.6a.58.58,0,0,1,0,.92.55.55,0,0,1-.11,1c-.06,0,.24,1.2-1,.92,0,.16-.5.62-1,0-.17.45-1.16.44-1.3.14-.05,0-.29.43-1-.31-.09-.1-.25.58-.9-.19-.34,0-.93.48-1.15-.69,0,0-.45-.31-.48-.61-.06-.74.14-.12.09-.78,0-.51.38-.38.38-.65S36.49,3.62,36.5,3.61Z"/><path class="cls-5" d="M35.32,3.87c-.19,0-.25,0-.65.23s-.52.34-.42.42A.68.68,0,0,0,35.32,3.87Z"/><path class="cls-2" d="M34.69,5.35c0,1.11,1.27,1.09,1.84.72.36-.24.1-.79.25-1.14.38-.87.61-1.64-.4-1.65S35.21,3.93,35,4.71C35,4.93,34.69,5.1,34.69,5.35Z"/><path class="cls-5" d="M36.86,3.94c.17.09.24.09.5.5s.34.56.21.58A.72.72,0,0,1,36.86,3.94Z"/><path class="cls-3" d="M36.08,4.24a.25.25,0,0,1,.25.23.22.22,0,0,1-.22.24.24.24,0,0,1-.24-.24A.21.21,0,0,1,36.08,4.24Z"/><path class="cls-6" d="M36,4.27a.11.11,0,0,1,.09.09.09.09,0,0,1-.08.08.09.09,0,0,1-.09-.08A.08.08,0,0,1,36,4.27Z"/><path class="cls-4" d="M36.68,3.14a.38.38,0,0,0-.41-.37C36,2.78,36,3,36,3s-.07-.09-.36-.07a.25.25,0,0,0-.24.3s-.61.08-.18.55c0,0-.06.18.19.24a.32.32,0,0,0,.36-.12.35.35,0,0,0,.26.18c.18,0,.31-.18.31-.18a.23.23,0,0,0,.33.17c.28-.12.26-.3.26-.3s.15.26.31.14a.31.31,0,0,0-.13-.55s.06-.15-.1-.27l-.05,0A.25.25,0,0,0,36.68,3.14Z"/><path class="cls-3" d="M35,5.37c0,.1.07.36.27.4s.59-.53.34-.25C35.18,6.06,35,5.23,35,5.37Z"/><path class="cls-3" d="M35.29,4.12a.26.26,0,0,1,.24.24.21.21,0,0,1-.21.23.25.25,0,0,1-.25-.23A.22.22,0,0,1,35.29,4.12Z"/><path class="cls-6" d="M35.22,4.16a.08.08,0,0,1,.09.08.07.07,0,0,1-.08.08.09.09,0,0,1-.09-.08A.08.08,0,0,1,35.22,4.16Z"/><path class="cls-4" d="M36.73,7c-.16.09-.14.35.06.35s.13.2.18.23c.23.17.14,0,.27-.05.33-.12.23-.23.27-.26A.28.28,0,0,0,37.63,7c0-.1.3-.21,0-.48s-.28,0-.42,0-.25-.09-.3,0-.08-.13-.26,0S36.73,7,36.73,7Z"/><path class="cls-4" d="M38.46,7.14c.14.3-.08.14-.08.27s0,.3-.12.24,0,.15-.21.12,0-.09-.12,0-.23-.35-.24-.37a1.19,1.19,0,0,1-.27-.58c0-.17.28-.25.43-.18a.35.35,0,0,1,.57,0c.08.08,0,0,.12,0s0,.09.06.14S38.35,6.91,38.46,7.14Z"/><path class="cls-4" d="M39.85,6.9a.28.28,0,0,0,.11.44s-.18.34.1.33c.13,0,0,0,.14.06a1.43,1.43,0,0,0,.22.15c.16,0,.16-.18.23-.19a.25.25,0,0,0,.22-.33c0-.05.17-.19-.06-.36s-.25,0-.2-.1-.47-.39-.58-.09c0,.07-.11.05-.16.09Z"/><path class="cls-4" d="M41.74,7c0,.09-.08.11-.06.37s-.19.13-.21.17,0,.12-.13.18c.16.14-.27.32-.39,0,0-.06,0,0-.05-.06a.3.3,0,0,1-.07-.28c0-.09-.36-.13-.07-.42.06,0-.11-.32.27-.32s.21.18.3.13.36,0,.35.14,0-.1,0,.08C41.72,6.93,41.74,7,41.74,7Z"/><path class="cls-3" d="M35.24,5.7a.65.65,0,0,0,.13.5c-.12-.33,0-.46,0-.46Z"/></g></g></svg>