<svg xmlns="http://www.w3.org/2000/svg" viewBox="0 0 77.66 67.36"><defs><style>.cls-1{fill:#514737;}.cls-2{fill:#3d352a;}.cls-3{fill:#27244f;}.cls-4{fill:#5f2d59;}.cls-5,.cls-6,.cls-7{fill:#d6a2ca;}.cls-6{opacity:0.06;}.cls-7{opacity:0.05;}</style></defs><title>tree3</title><g id="Layer_2" data-name="Layer 2"><g id="Layer_8" data-name="Layer 8"><path class="cls-1" d="M31.32,64.68l5.11-2.37s3.4-12.44,3.4-13-1.36-9.42-1.36-9.42l-7.15-5.13-6.71-4.26-3-10.23,4.64,9.13,7.48,5.36,6.09,2.81L45,34.81l2.3-4.26L43.83,17.83l-.43-7.55,5.79,21.21L47.79,37l.44,2.8,4.92-2.55,3.7-3.32,2-6.63.77-12.94.51,15.11-1.91,5.36-4.35,4.34L48.55,42.6l-1,5-.89,7.92,1.27,5.45,5,3.74,2.71.79H51.74l-5.1-.79-2.17,2-2.94.64,1.66-1.27-.8-1.54-3.28,2.17-.51.64-.9-.64.39-2.55-6.52,1.66H29.4Z"/><polygon class="cls-2" points="25.32 31 39.86 38.29 41.53 38.77 43.32 42.6 44.09 45.53 42.39 44.26 44.09 50.72 42.39 51.28 42.94 53.96 43.45 56.26 43.32 59.32 46.64 63.53 44.09 65.06 43.19 66.08 42.39 64.55 41.15 65.06 38.6 67.36 37.7 66.72 38.09 64.17 31.57 65.83 29.4 65.83 31.32 64.68 36.43 62.31 39.83 49.36 38.31 39.97 25.32 31"/><polygon class="cls-3" points="31.06 25.11 22.13 25.11 14.47 26.46 5.25 27.32 7.66 29.77 12.04 30.47 17.02 31.62 20.72 31 28.42 31 39.32 31 43.83 31 52.51 31.87 56.85 33.91 63.49 34.43 67.96 32.77 71.66 32.64 74.08 31.75 72.17 29.19 66.94 27.91 62.98 27.53 54.17 25.87 50.09 26.77 43.7 26.51 37.96 25.11 31.06 25.11"/><polygon class="cls-3" points="38.47 16.3 26.98 17.83 21.75 16.81 15.62 19.49 9.08 20 18.38 21.96 21.99 21.61 25.32 21.61 34 22.81 37.83 21.15 48.68 23.72 53.27 22.67 60.17 24.34 67.06 24.34 70.64 23.32 76.77 23.54 75.99 21.75 72.43 20.38 70 17.83 64.77 17.83 59.02 18.6 54.94 19.49 48.55 19.23 42.81 17.83 38.47 16.3"/><polygon class="cls-3" points="58.24 36.81 55.94 35.83 53.81 36.32 47.43 36.81 46.32 37.7 44.02 38.39 44.69 39.23 46.64 40.17 49.22 38.81 51.13 38.59 53.47 38.47 57.05 39.23 60.03 39.23 62.75 38.82 64.86 35.83 60.62 37.53 58.24 36.81"/><polygon class="cls-4" points="53.71 9.74 48.81 9.74 44.33 11.65 37.19 12.35 41.38 14.15 43.27 13.76 46.01 14.62 48.04 14.15 52.66 13.47 58.34 15.38 60.72 14.15 65.48 14.81 67.86 16.34 71.51 16.72 73.96 15.48 75.99 15.38 77.32 14.71 76.27 12.8 73.4 11.84 71.23 11.56 66.39 10.31 64.15 10.98 60.65 10.79 57.5 9.74 53.71 9.74"/><path class="cls-4" d="M74.09,29.45l-5.15.32-12.77,0L47,29.45l-3.75-.77-2.34.6-9.83-1.71-1.22-2.73,3.78-1.27,6.72.77L43.49,24l7.21,2,3-.85h3.41s7.91.59,8.17.59l8.81-.17,2.09,1.15L76.26,29l-2.17-.51Z"/><path class="cls-4" d="M32.9,16.85l6.3-1.23,8.36.41,14.95,1.31,4.08.59,2.56-.36,6.94,1.64L76,21.75l-2.47.07L69.7,21l-3.44.18L58.4,19.67l-3.28.53-3.72-.07s-8.64-.55-8.92-.55l-9.62,0L29,18.13l1.55-1,2.36.38Z"/><polygon class="cls-5" points="60.78 26.46 59.66 27.96 58.89 27.82 59.53 28.42 59.53 28.94 60.68 28.48 60.17 28.11 60.78 26.46"/><polygon class="cls-5" points="74.47 12.9 73.96 13.59 72.07 13.23 73.83 14.04 73.83 14.56 74.98 14.1 74.47 13.73 74.47 12.9"/><polygon class="cls-5" points="51.45 17.55 50.94 18.24 50.17 18.1 49.02 18.61 50.81 19.21 51.96 18.75 51.45 18.38 51.45 17.55"/><polygon class="cls-5" points="42.98 27.01 42.3 26.38 42.6 25.68 41.81 26.16 41.81 26.16 41.55 27.24 42.05 26.83 42.98 27.01"/><polygon class="cls-5" points="55.65 11.88 54.97 11.26 55.27 10.56 54.48 11.04 53.91 10.93 54.22 12.12 54.72 11.71 55.65 11.88"/><polygon class="cls-5" points="70.97 18.94 70.31 19.19 69.87 18.76 70.02 19.46 69.78 19.82 70.76 20 70.76 20 70.97 18.94"/><polygon class="cls-5" points="36.57 17.11 35.92 17.37 35.47 16.93 35.62 17.63 35.39 17.99 36.36 18.17 36.19 17.69 36.57 17.11"/><polygon class="cls-6" points="0 0 0 3.69 2.04 3.69 0 0"/><path class="cls-7" d="M77.66,64.68l-.89,2.68Z"/></g></g></svg>