<svg xmlns="http://www.w3.org/2000/svg" xmlns:xlink="http://www.w3.org/1999/xlink" viewBox="0 0 309.4 338.32"><defs><style>.cls-1{fill:url(#linear-gradient);}.cls-2{fill:#9ad4d6;}.cls-3{fill:#fead90;}.cls-4{fill:#d8d8d8;}.cls-5{fill:#fcfcfc;}.cls-6{fill:#bff0f7;}.cls-7{fill:#fef699;}.cls-8{fill:#767676;}</style><linearGradient id="linear-gradient" x1="157.73" y1="78.39" x2="157.73" y2="314.99" gradientTransform="translate(-50.25 81.56) rotate(-25.14)" gradientUnits="userSpaceOnUse"><stop offset="0.1" stop-color="#c2cc56"/><stop offset="1" stop-color="#fff" stop-opacity="0"/></linearGradient></defs><title>ufo2</title><g id="Layer_2" data-name="Layer 2"><g id="Layer_1-2" data-name="Layer 1"><polygon class="cls-1" points="309.4 260.7 143.17 338.32 87.51 103.49 162.78 68.61 309.4 260.7"/><path class="cls-2" d="M115.93,88.72a1,1,0,0,0-.83-1.78,1,1,0,0,0,.83,1.78Z"/><path class="cls-3" d="M145.56,122.5a87.45,87.45,0,0,0-3.9-7.88,68.16,68.16,0,0,0-6.15-11,1,1,0,0,0-1.7.85c1,4.57,3,8.85,4.83,13.13,1,2.23,1.71,4.57,2.84,6.68,0,.06-.11.11-.16.18a5,5,0,0,0-.23,6,4.87,4.87,0,0,0,4.35,2.18,4.87,4.87,0,0,0,5.36-6.45A5.48,5.48,0,0,0,145.56,122.5Z"/><path class="cls-3" d="M73.7,144.6a71.52,71.52,0,0,0-2.13-7A56.73,56.73,0,0,0,68,127.8a.8.8,0,0,0-1.51.48,64.28,64.28,0,0,0,2.19,11.4c.48,1.95.79,4,1.43,5.85l-.16.13a4.14,4.14,0,0,0-1,4.85,4,4,0,0,0,3.27,2.37,4,4,0,0,0,5.26-4.56A4.54,4.54,0,0,0,73.7,144.6Z"/><path class="cls-3" d="M204.61,83.16a72.7,72.7,0,0,1-4-6.1,56.93,56.93,0,0,1-5.28-9,.8.8,0,0,1,1.33-.86,64.24,64.24,0,0,1,7.38,9c1.19,1.62,2.55,3.14,3.58,4.84l.2,0a4.14,4.14,0,0,1,4.36,2.34,4,4,0,0,1-.26,4,4,4,0,0,1-6.86,1.13A4.53,4.53,0,0,1,204.61,83.16Z"/><path class="cls-4" d="M231.35,10.69C219.56-1.4,162,3.92,103.58,31.33,53.66,54.77-8.68,100.8,1,121.11c8.15,17.07,59.42,17.12,117-8.51C232.64,61.54,244.51,24.17,231.35,10.69Z"/><path class="cls-5" d="M3.63,115.07C5.2,128,25.37,130.48,35.45,130.62c7.4.1,15-1.65,22.21-3.16,9.4-2,18.68-4.52,27.84-7.42a413.43,413.43,0,0,0,61.75-25.41C166,85.16,184.6,74.52,201,61.33c10-8.06,20.21-17.46,27.38-28.24,4.4-6.62,7.05-18.52-2.5-22.11A1,1,0,0,0,225,12.8c11.62,8.43-1,22.06-7.48,29.19a164.09,164.09,0,0,1-23.35,21c-15,11.2-31.42,20.6-48.07,29.07-31.92,16.25-66.67,30.33-102.27,35.71a56.73,56.73,0,0,1-19.19-.27c-7.21-1.33-18.41-4.12-19.86-12.65a.56.56,0,0,0-1.11.19Z"/><path class="cls-6" d="M52.38,94.37S35.26,39.07,77.05,13.56s81.84-12,99.94,15.55c0,0-6.88,15.94-50.41,40.32C108.61,79.49,72,93.05,52.38,94.37Z"/><path class="cls-2" d="M125.47,4.53c13.73,5.23,27.13,8.74,37.17,20.18,1.44,1.64,4.57-.15,3.36-2.17-3.68-6.14-10-9.78-16.46-12.47-7.24-3-15.9-6.49-23.81-6.72a.61.61,0,0,0-.26,1.18Z"/><path class="cls-2" d="M169.3,29.74c2.67-1.26.72-5.42-2-4.16s-.72,5.42,2,4.16Z"/><path class="cls-7" d="M29.65,95.94a3.25,3.25,0,0,0-3.66.39c-4.87-.47-9.87,2.53-13.4,6-4.36,4.22-.27,9.74,5.1,9.36,4.94-.34,13.68-4.56,14.79-10A5.15,5.15,0,0,0,29.65,95.94Z"/><path class="cls-7" d="M63,100.13A3.24,3.24,0,0,0,60,102.36c-4.42,2.11-7.15,7.25-8.42,12-1.55,5.86,4.79,8.48,9.2,5.39,4.06-2.85,9.37-11,7.52-16.19A5.15,5.15,0,0,0,63,100.13Z"/><path class="cls-7" d="M115,80.13a3,3,0,0,0,.3,3.33c-.51,4.43,2.14,9,5.2,12.29,3.77,4,8.85.4,8.6-4.49-.24-4.5-3.93-12.51-8.85-13.61A4.67,4.67,0,0,0,115,80.13Z"/><path class="cls-7" d="M162.87,60.83a3.26,3.26,0,0,0,3.19,1.83c3.68,3.24,9.48,3.74,14.35,3,6-.85,5.93-7.72,1.36-10.57-4.2-2.62-13.75-4.33-17.83-.59A5.14,5.14,0,0,0,162.87,60.83Z"/><path class="cls-7" d="M187.81,24.39a3.26,3.26,0,0,0,3.67.21c4.73,1.26,10.15-.88,14.19-3.68,5-3.45,1.86-9.56-3.5-10.07-4.93-.47-14.24,2.26-16.22,7.43A5.14,5.14,0,0,0,187.81,24.39Z"/><path class="cls-8" d="M49.67,95.13c22.33.07,44.53-7.07,64.77-16a280,280,0,0,0,38.22-20.66c11.77-7.57,21.53-16.78,28-29.34,1.47-2.86-3.25-4.53-4.7-1.7-6.55,12.77-17.26,21.49-29.23,28.94a274.57,274.57,0,0,1-35.93,18.91C91.82,83.48,71,90.22,50.12,90.15c-3.2,0-3.67,5-.45,5Z"/></g></g></svg>