<svg xmlns="http://www.w3.org/2000/svg" viewBox="0 0 38.56 33.06"><defs><style>.cls-1{fill:#527a42;}.cls-2{fill:#eaae41;}.cls-3{fill:#e92739;}.cls-4{fill:#fff;}.cls-5{fill:#785f3a;}.cls-6{fill:#e45a26;}.cls-7{fill:#82311a;}.cls-8{fill:#f8d3c7;}</style></defs><title>yoga1</title><g id="Layer_2" data-name="Layer 2"><g id="Layer_5" data-name="Layer 5"><path class="cls-1" d="M14.31,28.32c-1.82,0-6.64,3-6.64,3l25,1.78s4.51-3.06,5.87-3C38.56,30.09,18.46,28.31,14.31,28.32Z"/><path class="cls-2" d="M24.77,30.69h.86s.44-.47.42-.59-.51.1-.51,0c-.06-1.72.51-6.84.51-6.84l.1-3.45H22.73l-1.22,1.91-1,1.54a2.61,2.61,0,0,0,.06.67c.43.9,3.22,1.49,3.58,2.42.43,1.15.59,1.05.59,1.05l-.21-2.05-.75-.26-1.91-1.35,1.46-1.49.82-.83.53,4.5A33.74,33.74,0,0,1,25,30.09,5.29,5.29,0,0,1,24.77,30.69Z"/><polygon class="cls-3" points="24.27 22.36 26.37 22.51 26.15 19.84 22.73 19.84 21.43 21.88 23.34 22.29 24.16 21.45 24.27 22.36"/><path class="cls-2" d="M22.91,13.17s-2.51.3-2.73.84,1.15,1.4,3.32,1.66.94-.38.94-.38l-3.21-1,1.54-.22Z"/><path class="cls-2" d="M26,13.17s2.5.3,2.73.84-1.15,1.4-3.32,1.66-.94-.38-.94-.38l3.2-1-1.5-.21Z"/><path class="cls-4" d="M22.82,13.32a6.84,6.84,0,0,0-.12,2.22c.19.73.73,1.47,0,4.3h3.42s-.65-3.51-.23-4.11a5.79,5.79,0,0,0,.26-2.54A2.33,2.33,0,0,0,25,13H23.9C23.32,13,22.92,13,22.82,13.32Z"/><polygon class="cls-2" points="23.9 12.99 24.96 13.07 24.83 12.18 24.08 12.18 23.9 12.99"/><path class="cls-5" d="M24.44,12.51s-1.32-.35-1.32-.67-.32-1.21,0-1.53.21-.83,1-.8h.62c.37,0,.52,0,.63.16a1.41,1.41,0,0,1,0,1.5c-.38.7.26.7-.19,1A2.4,2.4,0,0,1,24.44,12.51Z"/><path class="cls-5" d="M24.78,8.46c.35-.23,1-.13.84,0s.21.57-.14.64l-.35.06L25,9.51h-.42l.2-.38s-.26-.26-.2-.39A2.81,2.81,0,0,1,24.78,8.46Z"/><path class="cls-2" d="M25,14.17c.47.1.88-1.08.88-1.08s-.4-.06-.92-.16a8,8,0,0,0-1.6.05s.22,1.15.57,1.22A4.52,4.52,0,0,0,25,14.17Z"/><path class="cls-6" d="M1,28.79s-1.66.93-.77,1.9,3.26.91,3.26.91A12.49,12.49,0,0,0,6.14,31c.51-.32.57-2.58,0-3s-.9-1.79-1-2A2,2,0,0,0,3.77,25c-.51.07-1.85.34-1.85.34a4.55,4.55,0,0,0-.61,1.41C1.22,27.38,1,28.79,1,28.79Z"/><path class="cls-7" d="M5.37,28.32s.81,1.56.45,2.23-3.51.79-3.77.47-.51-2-.25-2.23A27.69,27.69,0,0,1,5.37,28.32Z"/><path class="cls-6" d="M2.37,25.55s-.64-1.26.32-1.63A1.08,1.08,0,0,1,4,25.55s-.15-1.48-.81-1.23C2.16,24.7,2.63,24.41,2.37,25.55Z"/><polygon class="cls-8" points="3.8 0 3.16 0.38 3.48 0.64 3.8 0"/></g></g></svg>