<svg xmlns="http://www.w3.org/2000/svg" xmlns:xlink="http://www.w3.org/1999/xlink" viewBox="0 0 33.53 14.95"><defs><style>.cls-1{fill:url(#radial-gradient);}.cls-2{fill:#939598;}.cls-3{fill:#6d6e71;}.cls-4{fill:#754c29;}.cls-5{fill:#fbb040;}.cls-6{fill:#f15a29;}.cls-7{fill:#f7941d;}.cls-8{fill:#d7df23;}</style><radialGradient id="radial-gradient" cx="16.76" cy="7.48" r="15.05" gradientTransform="translate(0.13 2.99) rotate(1.8) scale(1 0.53)" gradientUnits="userSpaceOnUse"><stop offset="0" stop-color="#ffdb94"/><stop offset="0.15" stop-color="#c4a679"/><stop offset="0.3" stop-color="#907862"/><stop offset="0.45" stop-color="#66524e"/><stop offset="0.59" stop-color="#45343f"/><stop offset="0.72" stop-color="#2e1f35"/><stop offset="0.85" stop-color="#20122e"/><stop offset="0.96" stop-color="#1b0e2c"/></radialGradient></defs><title>f2</title><g id="Layer_2" data-name="Layer 2"><g id="Layer_3" data-name="Layer 3"><ellipse class="cls-1" cx="16.76" cy="7.48" rx="16.77" ry="7.46" transform="translate(-0.23 0.53) rotate(-1.8)"/><path class="cls-2" d="M13.56,3.05s-1.92.74-1.92.81v.8l.77.73,1.91-.32,1.15-.41Z"/><polygon class="cls-2" points="11.15 5.64 9.98 6.54 10.56 7.37 11.64 8 12.45 7.62 13.77 6.82 12.85 5.64 11.15 5.64"/><polygon class="cls-2" points="12.85 8 12.41 8.83 12.85 9.41 13.77 9.79 14.96 9.41 16.05 8.9 15.47 8.58 13.77 8 12.85 8"/><path class="cls-2" d="M16.05,8h1.21l1.15-.38v.83h.83l-.64.7a.68.68,0,0,1-.45.64,6.89,6.89,0,0,1-1.67,0Z"/><path class="cls-2" d="M19.24,8l1.15.73.83-.36,1-.75-.58-.8-.92-.6a5.15,5.15,0,0,0-.8.6,5.35,5.35,0,0,1-1,.66Z"/><path class="cls-2" d="M20.32,4.66l.77-.44a1.09,1.09,0,0,1,1.15.22,12.24,12.24,0,0,0,1,.95l.32.83s-.7.44-.89.32l-1.28-.9-1,.26Z"/><polygon class="cls-2" points="14.71 3.05 15.79 2.54 17 2.79 17.64 3.05 17.9 4.22 17.19 4.66 16.05 4.66 14.71 3.6 14.71 3.05"/><polygon class="cls-2" points="18.34 3.34 19.24 3.05 20.32 3.6 20.61 3.86 20.96 4.66 19.65 5.35 18.34 4.66 17.9 3.86 18.34 3.34"/><polygon class="cls-3" points="21.06 7.5 20.23 7.94 19.71 8.39 20.42 8.64 21.06 8.64 22.2 8.23 22.14 7.11 21.06 7.5"/><polygon class="cls-3" points="12.25 3.6 12.6 3.69 12.95 3.6 12.77 4.06 12.41 4.33 12.6 4.75 12.25 5.02 12.16 5.16 11.64 4.66 11.64 3.86 12.25 3.6"/><path class="cls-3" d="M11.15,5.64l.49.11s.42.32.24.34a1,1,0,0,0-.45.24l-.12.23.23.12v.21l-.17.17.62.42-.22.2-.53.09-.6-.36L10,6.54Z"/><polygon class="cls-3" points="12.85 8 13.06 8.26 13.06 8.39 13.25 8.45 13.13 8.9 13.49 8.9 13.49 9.23 13.77 9.5 13.94 9.74 13.7 9.79 12.85 9.41 12.41 8.83 12.85 8"/><polygon class="cls-3" points="17.37 9.07 16.78 8.9 16.3 9.07 16.48 9.79 17.9 9.83 18.54 9.79 19.32 9.37 18.98 8.73 18.49 8.9 17.9 8.55 17.37 9.07"/><polygon class="cls-4" points="14.83 7.48 16.3 6.12 16.76 6.22 15.47 7.88 14.83 7.48"/><polygon class="cls-4" points="17.08 7.48 16.48 6.22 16.94 5.93 17.64 7.3 17.08 7.48"/><polygon class="cls-4" points="17.31 5.64 19.43 5.79 19.43 6.22 17.18 6.03 17.31 5.64"/><polygon class="cls-4" points="19.06 6.7 18.69 7 17.06 6.16 17.37 5.93 19.06 6.63 19.06 6.7"/><polygon class="cls-4" points="16.3 5.64 14.1 6.22 14.32 6.56 16.48 6.03 16.3 5.64"/><polygon class="cls-4" points="16.48 5.28 14.71 5.16 14.51 5.53 16.48 5.77 16.48 5.28"/><path class="cls-4" d="M17.35,5.39l1.33-.24s.44.32.38.31-1.8.31-1.8.31Z"/><path class="cls-5" d="M15.73,3.05,15.09,4.8l.71,1.51.4.17.28.11L18,6.22l.57-1.28-.21-1.6s-.49,1-.53.8,0-3.6,0-3.6l-.79,3L16.65.58,16.14,3,15.8,1.6Z"/><polygon class="cls-6" points="15.49 4.92 15.98 3.17 15.89 5.08 16.48 6.33 16.76 5 16.48 2.12 17.06 4.66 17.39 3.6 17.74 4.66 18.06 4.38 17.81 5.93 17.06 6.44 16.41 6.46 15.49 4.92"/><path class="cls-7" d="M16.05,6.28l-.32-1.21.57-2.19.24,2.27.52-1.55.12,2,.27-1.09s-.19,1.57-.08,1.44.8-1.18.8-1.18l-.53,1.47-.58.22Z"/><polygon class="cls-8" points="18.3 1.24 18.16 2.12 18.3 2.54 18.55 2.12 18.3 1.24"/><polygon class="cls-8" points="14.71 0.92 14.51 1.62 14.83 2.12 15.09 1.52 14.71 0.92"/><polygon class="cls-8" points="16.05 4.66 15.84 5.51 16.2 6.48 16.78 5.49 16.3 4.2 16.05 4.66"/></g></g></svg>