<svg xmlns="http://www.w3.org/2000/svg" viewBox="0 0 25.35 22.43"><defs><style>.cls-1{fill:#c49a6c;}.cls-2{fill:#754c29;}.cls-3{fill:#3c2415;}.cls-4{fill:#a97c50;}.cls-5{fill:#1b75bc;}.cls-6{fill:#231f20;}.cls-7{fill:#2b3990;}.cls-8{fill:#9a1c23;}.cls-9{fill:#be1e2d;}.cls-10{fill:#fbb040;}.cls-11{fill:#fff;}.cls-12{fill:#603913;}.cls-13{fill:#262262;}</style></defs><title>h3</title><g id="Layer_2" data-name="Layer 2"><g id="Layer_3" data-name="Layer 3"><path class="cls-1" d="M24.05,16.91s-1.79-.14-2,2.19,1.28,2.2,1.28,2.2,1.72-.29,2-3C25.5,16.69,24.05,16.91,24.05,16.91Z"/><path class="cls-2" d="M13,13.24,24.49,16.9a2.7,2.7,0,0,0-2,1.42,2.42,2.42,0,0,0-.18,2.46,1,1,0,0,0,.64.47L11,16.51a2.07,2.07,0,0,1-.38-2.07A2.27,2.27,0,0,1,13,13.24Z"/><polygon class="cls-3" points="12.62 14.44 16.64 15.72 22.52 17.17 18.38 15.72 12.62 14.44"/><polygon class="cls-3" points="21.94 17.83 17.46 16.65 19.32 17.55 21.94 17.83"/><polygon class="cls-3" points="21.11 18.92 15.37 16.65 13.45 15.17 14.6 16.39 11.03 15.17 13.45 16.51 18.38 18.32 21.62 19.68 21.11 18.92"/><path class="cls-4" d="M23.52,17.83s-1.76,1-.61,2.4,1.72-1.06,1.72-1.06-.46,1.65-1.43.87C22.6,19.56,22.59,19.25,23.52,17.83Z"/><path class="cls-4" d="M23.43,18.76s.3-1.36.94-1.17.55,1.54-.3,1.88c0,0,.81-.74.42-1.45S23.43,18.76,23.43,18.76Z"/><path class="cls-5" d="M19.7,14.44s1,1.06.39,1.36a7.7,7.7,0,0,1-2.63,1.1c-1.09.14-.59,2.35-.59,2.35l-.12.95h-.87l-.16-.73a10.13,10.13,0,0,1,0-2.82,8.59,8.59,0,0,1,2.07-1.24s-2.49.57-2.76,1a26.86,26.86,0,0,0-1,2.87l-.57.43-.32-.58L14,15.73l.4-.56s2.81-.9,2.9-.9.8-.2.8-.2Z"/><path class="cls-6" d="M15.62,19.68h1.2l-.15,1.86s-1.05.9-1.21.86-1.05.19-.87-.3.49-.43.49-.43l.8-.52Z"/><path class="cls-6" d="M13.12,18.65l1.08.51-.92,1.62a6.14,6.14,0,0,1-1.47.26c-.13-.09-1-.28-.66-.65s.63-.17.63-.17l.94-.13Z"/><path class="cls-7" d="M19.7,14.44a.94.94,0,0,1-.38,1c-.51.29-1.21.92-1.59,1a2.05,2.05,0,0,0-1,.52,5,5,0,0,0-.37,1.42l.16,1.36h.34v-.16l-.07-1.2.06-.71a.72.72,0,0,1,.64-.71,9.61,9.61,0,0,0,1.83-.66l.8-.44s.33-.14.2-.63a2.26,2.26,0,0,0-.33-.73Z"/><path class="cls-7" d="M17.57,15.46l-2,.62s-.31-.12-.51.3-.88,2.37-.88,2.37l-.05.17h-.26l.86-2.27s.25-.81.76-.85a13.42,13.42,0,0,0,2.11-.63Z"/><path class="cls-8" d="M17.22,10.09a3.79,3.79,0,0,0-.55,1.72l0,1.21s-2.15.48-2.4.46-.54.55-.34.75,3.94-.7,3.94-.7.61-2.83.24-3.33,0-.84-.16-.77S17.22,10.09,17.22,10.09Z"/><path class="cls-9" d="M17.46,9.72s-.92,1.32-.64,1.87a5.12,5.12,0,0,1,.75,1.65,4.25,4.25,0,0,1,.16,1.2l.65.27.68.46,1.26-.23a8.92,8.92,0,0,1-.45-2.24,19.18,19.18,0,0,0,.42-2.52c-.07-.51-.21-1-.59-.92a9.7,9.7,0,0,1-1.38,0Z"/><path class="cls-9" d="M19,10.27a8.74,8.74,0,0,0-1.08,1.64c-.33.73-.65.78-.65.78s-2.14-.49-2.35-.62-.73.27-.64.54,3.66,1,3.66,1,2.24-2.91,2.12-3.52-.37-.13-.51-.12A2.46,2.46,0,0,0,19,10.27Z"/><path class="cls-10" d="M14,13.66s-.91-.61-1.16,0-.41.66,0,.75,1.07-.38,1.07-.38Z"/><path class="cls-10" d="M14.79,12.31s-.24-1.07-.85-.78l-.15.06c-.49.21-.59.16-.39.45s1,.46,1,.46Z"/><polygon class="cls-2" points="13.29 19.17 13.57 6.77 13.46 5.35 13.24 6.71 13.14 19.18 13.29 19.17"/><polygon class="cls-11" points="14.13 5.95 14.1 5.57 12.96 5.66 12.73 5.88 12.77 6.36 13.55 6.43 14.35 6.23 14.13 5.95"/><path class="cls-12" d="M19.12,6.59s-1.28.36-1.24.59a3.1,3.1,0,0,1-.66,1.39C17,8.8,16,9.46,16,9.46L17.84,9l.52.09c-.05,0,.37.64.43.56.32-.41-1.31,1.46-1.31,1.46l1.22-1L20,9l-.08-1.32Z"/><path class="cls-10" d="M19.29,6.82a1.54,1.54,0,0,0-.38.06,1.19,1.19,0,0,0-.66.43,3.08,3.08,0,0,0-.38,1.24l.16.56.62.42a2.85,2.85,0,0,0,1-.65c.23-.35.82-.76.75-1.12s-.95-1.18-.95-1.18Z"/><path class="cls-12" d="M19.31,10c.06,0,1.27-1.44,1.18-1.74s.16-.55-.2-1.1.29.05-.55-.52a.91.91,0,0,0-1.33.18,4.38,4.38,0,0,1,1,.27.85.85,0,0,1,.22.61c0,.21-.09,1.33-.09,1.33Z"/><polygon class="cls-13" points="0.29 0 0 0.32 0.14 0.45 0.69 0.22 0.29 0"/></g></g></svg>