<svg xmlns="http://www.w3.org/2000/svg" xmlns:xlink="http://www.w3.org/1999/xlink" viewBox="0 0 855.21 298.16"><defs><style>.cls-1{fill:url(#linear-gradient);}.cls-2{fill:url(#linear-gradient-2);}.cls-3{fill:#fff;opacity:0.64;}.cls-4,.cls-6{opacity:0.3;}.cls-4{fill:url(#linear-gradient-3);}.cls-5{fill:url(#linear-gradient-4);}.cls-6{fill:url(#linear-gradient-5);}</style><linearGradient id="linear-gradient" x1="427.61" y1="258.16" x2="427.61" y2="48.05" gradientUnits="userSpaceOnUse"><stop offset="0" stop-color="#254955"/><stop offset="0.23" stop-color="#22394a"/><stop offset="0.69" stop-color="#1c1d36"/><stop offset="0.96" stop-color="#1a132f"/></linearGradient><linearGradient id="linear-gradient-2" x1="202.67" y1="263.97" x2="202.67" y2="84.37" gradientUnits="userSpaceOnUse"><stop offset="0" stop-color="#254955"/><stop offset="0.06" stop-color="#233e4d"/><stop offset="0.2" stop-color="#1f2b40"/><stop offset="0.36" stop-color="#1c1d36"/><stop offset="0.57" stop-color="#1a1531"/><stop offset="0.96" stop-color="#1a132f"/></linearGradient><linearGradient id="linear-gradient-3" x1="202.67" y1="263.89" x2="202.67" y2="83.9" xlink:href="#linear-gradient-2"/><linearGradient id="linear-gradient-4" x1="586.87" y1="258.27" x2="586.87" y2="48.75" gradientUnits="userSpaceOnUse"><stop offset="0" stop-color="#254955"/><stop offset="0.07" stop-color="#223b4b"/><stop offset="0.19" stop-color="#1e293e"/><stop offset="0.33" stop-color="#1c1c36"/><stop offset="0.52" stop-color="#1a1530"/><stop offset="0.96" stop-color="#1a132f"/></linearGradient><linearGradient id="linear-gradient-5" x1="586.87" y1="258.1" x2="586.87" y2="47.69" xlink:href="#linear-gradient-4"/></defs><title>mountains</title><g id="Layer_2" data-name="Layer 2"><g id="Layer_1-2" data-name="Layer 1"><path class="cls-1" d="M0,220.65,239.56,45.39c4-2.93,10.12-3,13.72.42l96.17,91.37L486.83,3.86a12.14,12.14,0,0,1,16.27-.58L791.38,245.42l63.83,52.74H0Z"/><path class="cls-2" d="M243.83,44.28,188.06,129.5l14.56,7.66-29.11,23-10.72,16.08-41.36,37.54-6.9,19.15L55.88,298.16H197l152.45-161L255.55,48S250.06,41.73,243.83,44.28Z"/><path class="cls-3" d="M255.55,48s-7.36-9.75-18.46-.77C223.72,58,176,91.87,176,91.87l21.18-9.45L204.32,88l2.38,13,17.7-13.39-.34,6.13,9.88-9.54.68,22.13,11.23-16.68,4.43,4.09,9.53-1.71,15,16.68,5.1-21.44V79.8l18.26,8.64Z"/><path class="cls-4" d="M244.05,43.67l-56,85.83,14.56,7.66-29.11,23-10.72,16.08-41.36,37.54-6.9,19.15L55.88,298.16H197l152.45-161L255.55,48S250.28,41.12,244.05,43.67Z"/><path class="cls-5" d="M491,3.36,472.23,36.05l4.6,4.09L463.55,75.37,478.11,82,462,106.52,446.19,130l9.7,10.21L412,189.76l-11.75,33.7-81.7,72,536.68,2.7L503.1,3.28S493.67-1.33,491,3.36Z"/><path class="cls-3" d="M503.1,3.28s-8.56-6.89-16.27.58l-94.49,91.7,35.27-12,23.69,6.13,26,17.87,4.6-19.91,18.89-16.85,11.23,7.15,8.68,14.29L523.81,81l28.59,33.19V70.78L559,77.42V72.31l27.83,22-19.29-37Z"/><path class="cls-6" d="M491.91,1.75l-19.68,34.3L455.38,67.71l18,11.33L461,102.44,446.19,130l9.7,10.21L412,189.76l-11.75,33.7-81.7,72,536.68,2.7L503.1,3.28S494.59-2.94,491.91,1.75Z"/></g></g></svg>