<svg xmlns="http://www.w3.org/2000/svg" xmlns:xlink="http://www.w3.org/1999/xlink" viewBox="0 0 64.77 40.73"><defs><style>.cls-1{fill:url(#linear-gradient);}.cls-2{fill:#1a2515;}.cls-3{fill:#1b3319;}.cls-4{fill:url(#linear-gradient-2);}.cls-5{fill:url(#linear-gradient-3);}.cls-6{fill:url(#linear-gradient-4);}.cls-7{fill:url(#linear-gradient-5);}.cls-8{fill:#351111;}.cls-9{fill:url(#linear-gradient-6);}.cls-10{fill:url(#linear-gradient-7);}.cls-11{fill:#0d0d0d;}.cls-12{fill:#232323;}.cls-13{fill:#1e1e1e;}</style><linearGradient id="linear-gradient" x1="49.43" y1="21.86" x2="50.13" y2="21.86" gradientUnits="userSpaceOnUse"><stop offset="0" stop-color="#254955"/><stop offset="0.01" stop-color="#264853"/><stop offset="0.12" stop-color="#2e3a3b"/><stop offset="0.25" stop-color="#352f28"/><stop offset="0.4" stop-color="#39271a"/><stop offset="0.59" stop-color="#3c2212"/><stop offset="0.96" stop-color="#3d2110"/></linearGradient><linearGradient id="linear-gradient-2" x1="36.34" y1="4.37" x2="37.04" y2="4.37" xlink:href="#linear-gradient"/><linearGradient id="linear-gradient-3" x1="16.25" y1="30.97" x2="16.95" y2="30.97" xlink:href="#linear-gradient"/><linearGradient id="linear-gradient-4" x1="0" y1="17.94" x2="0.52" y2="17.94" xlink:href="#linear-gradient"/><linearGradient id="linear-gradient-5" x1="18.47" y1="0.59" x2="18.98" y2="0.59" xlink:href="#linear-gradient"/><linearGradient id="linear-gradient-6" x1="60.95" y1="26.09" x2="61.68" y2="23.52" gradientUnits="userSpaceOnUse"><stop offset="0.66" stop-color="#7c1315"/><stop offset="0.66" stop-color="#781315"/><stop offset="0.7" stop-color="#601213"/><stop offset="0.74" stop-color="#4d1212"/><stop offset="0.78" stop-color="#3f1112"/><stop offset="0.84" stop-color="#371111"/><stop offset="0.96" stop-color="#351111"/></linearGradient><linearGradient id="linear-gradient-7" x1="60.22" y1="26.26" x2="60.98" y2="24.16" gradientUnits="userSpaceOnUse"><stop offset="0" stop-color="#7c1315"/><stop offset="0.01" stop-color="#781315"/><stop offset="0.13" stop-color="#601213"/><stop offset="0.26" stop-color="#4d1212"/><stop offset="0.41" stop-color="#3f1112"/><stop offset="0.6" stop-color="#371111"/><stop offset="0.96" stop-color="#351111"/></linearGradient></defs><title>tent2</title><g id="Layer_2" data-name="Layer 2"><g id="Layer_3" data-name="Layer 3"><polygon class="cls-1" points="49.43 22.67 49.43 21.05 50.13 21.05 50.13 22.5 49.43 22.67"/><path class="cls-2" d="M16.77,31.78,36.86,4.88l13.27,17.7L42,25.65s-1.7-8.17-5.44-7.32S31.41,28,31.41,28Z"/><path class="cls-3" d="M.09,18.33,18.64.8S28,7.26,36.86,4.88L16.77,31.78Z"/><polygon class="cls-4" points="36.34 5.18 36.34 3.56 37.04 3.56 37.04 5.01 36.34 5.18"/><polygon class="cls-5" points="16.25 31.77 16.25 30.16 16.95 30.16 16.95 31.61 16.25 31.77"/><polygon class="cls-6" points="0 18.54 0 17.34 0.52 17.34 0.52 18.42 0 18.54"/><polygon class="cls-7" points="18.47 1.18 18.47 0 18.98 0 18.98 1.05 18.47 1.18"/><path class="cls-8" d="M64.22,24.25s-2,0-1.69,1.72c.18,1.13,2.09-.32,2.18-.58C64.86,25,64.72,24.24,64.22,24.25Z"/><path class="cls-9" d="M64.22,24.25A6,6,0,0,1,60,23.71s-2,.67-1.2,1.57a11.12,11.12,0,0,0,4.14,1.11S61.56,24.59,64.22,24.25Z"/><path class="cls-10" d="M58.76,25.28l-.8.14,3.73,1.44,1.17-.54-.23.05a12.88,12.88,0,0,1-3.87-1.09h0"/><polygon class="cls-8" points="57.97 25.5 57.97 25.41 61.69 26.86 62.86 26.32 62.9 26.39 61.68 26.99 57.97 25.5"/><path class="cls-11" d="M31.12,39.44l1-.74L31.83,38l-1.34-.65-1.55,1.24.42,1s.61,1,.64.71S31.12,39.44,31.12,39.44Z"/><polygon class="cls-12" points="27.51 40.09 26.43 39.2 27.51 37.92 29.43 37.54 28.66 38.82 29.75 40.48 28.34 40.73 27.51 40.09"/><path class="cls-13" d="M30.58,38.38,30,37.29l-.71.25-.76,1.28,1.08,1.66,1-.32s1.09-.51.77-.58S30.58,38.38,30.58,38.38Z"/></g></g></svg>