<svg xmlns="http://www.w3.org/2000/svg" viewBox="0 0 1920 1080"><defs><style>.cls-1{fill:#f74424;}</style></defs><title>atd2</title><g id="Layer_2" data-name="Layer 2"><g id="Layer_1-2" data-name="Layer 1"><path d="M0,0V1080H1920V0ZM473.34,292.11h20.19V374a5.68,5.68,0,0,0,1.59,4.31,6.32,6.32,0,0,0,4.53,1.51H503v19.45H492.72q-9.21,0-14.29-5.31T473.34,379Zm8.4,149.66V421.58h20.19v20.19Zm20.19,10.46v76.48H481.74V452.23ZM437.5,292.11h20.19V374a5.67,5.67,0,0,0,1.58,4.31,6.35,6.35,0,0,0,4.53,1.51h3.39v19.45H456.88q-9.22,0-14.3-5.31T437.5,379Zm-33.93,50.47q-3.54-2.88-10-2.88a26.76,26.76,0,0,0-8.47,1.4,25.11,25.11,0,0,0-7.44,3.91L365.1,332.7a30.25,30.25,0,0,1,12.09-8.14,45.76,45.76,0,0,1,16.65-2.91q10,0,17.09,3.35a24.09,24.09,0,0,1,10.8,9.73,30,30,0,0,1,3.72,15.36v49.15H407.1v-7.19a11.65,11.65,0,0,1-2.25,2.55,22,22,0,0,1-8.39,4.31,38.69,38.69,0,0,1-10.65,1.43q-12.31,0-18.39-5.85t-6.07-17.8q0-11.34,6.81-17T388.61,354H407.1v-3.24A9.94,9.94,0,0,0,403.57,342.58ZM359.14,452.23H367V430h20.19v22.25h9.36v17.24h-9.36v34.34a7.28,7.28,0,0,0,1.1,4.31,3.79,3.79,0,0,0,3.25,1.51h5v19.45H386.4q-10,0-14.7-5.12T367,508.82V469.47h-7.88Zm67.34,205.95H406.29v-9.64a18.92,18.92,0,0,1-17.76,10.75,23,23,0,0,1-22.69-15.22,47.37,47.37,0,0,1-3-17.87V614a48.46,48.46,0,0,1,3-18.05,23,23,0,0,1,22.69-15.33,18.67,18.67,0,0,1,11.17,3.65,24,24,0,0,1,6.59,7.4V551.05h20.19Zm.11-175.67v46.2H406.4V421.58h20.19v41.06a26.17,26.17,0,0,1,6.74-7.91,19.73,19.73,0,0,1,12.12-3.61q12.09,0,18.72,8.14t6.63,23v46.42H450.61V482.36q0-5.6-3.2-8.69t-9.1-3.1c-3.74,0-6.62,1.05-8.66,3.14S426.59,478.73,426.59,482.51Zm31,175.67H437.42V581.7h20.19Zm0-86.94H437.42V551.05h20.19ZM530,655.9q0,10.53-4,18.05a26.62,26.62,0,0,1-11.72,11.42q-7.69,3.9-18.6,3.9h-9.14l-7.18-3.2a25.94,25.94,0,0,1-11.16-9l13.55-12.45a17.44,17.44,0,0,0,6.19,4.31,19.24,19.24,0,0,0,7.52,1.51A15.29,15.29,0,0,0,505.8,667q4-3.47,4-9.58v-8.85a18.89,18.89,0,0,1-17.76,10.77,23,23,0,0,1-22.7-15.22,47.37,47.37,0,0,1-3-17.87V614a48.46,48.46,0,0,1,3-18.05,23,23,0,0,1,22.7-15.33,18.64,18.64,0,0,1,11.16,3.65,24.15,24.15,0,0,1,6.6,7.41V581.7H530Zm3.06-173.39v46.2H512.87V452.23h20.19v10.41a26.17,26.17,0,0,1,6.74-7.91,19.73,19.73,0,0,1,12.12-3.61q12.09,0,18.72,8.14t6.63,23v46.42H557.08V482.36q0-5.6-3.2-8.69t-9.1-3.1c-3.74,0-6.62,1.05-8.66,3.14S533.06,478.73,533.06,482.51Zm28.07,175.67H541V581.7h20.18Zm0-86.94H541V551.05h20.18Zm42.48,27.7h-9.36v34.34a7.21,7.21,0,0,0,1.11,4.31,3.79,3.79,0,0,0,3.24,1.51h5v19.45H593.44q-10,0-14.7-5.12t-4.67-15.14V598.94h-7.89V581.7h7.89V559.45h20.18V581.7h9.36Zm-3.5-42.34a25.94,25.94,0,0,1-11.16-9l13.56-12.45a17.44,17.44,0,0,0,6.19,4.31,19.19,19.19,0,0,0,7.51,1.51,15.25,15.25,0,0,0,10.35-3.46q4-3.47,4-9.58v-8.83a18.89,18.89,0,0,1-17.76,10.74,23,23,0,0,1-22.69-15.21q-3-7.41-3-17.87V484.5a48.26,48.26,0,0,1,3-18.05,22.93,22.93,0,0,1,22.69-15.33A18.67,18.67,0,0,1,624,454.77a24.16,24.16,0,0,1,6.59,7.39v-9.93h20.19v74.2q0,10.53-4,18.05A26.6,26.6,0,0,1,635,555.9q-7.71,3.9-18.61,3.9H607.3Zm73.76,101.58H655.52V651a11.65,11.65,0,0,1-2.25,2.55,22,22,0,0,1-8.4,4.31,38.57,38.57,0,0,1-10.64,1.44q-12.32,0-18.39-5.86t-6.07-17.8q0-11.34,6.81-17T637,612.94h18.49V609.7a9.92,9.92,0,0,0-3.54-8.18q-3.53-2.88-10-2.88a26.71,26.71,0,0,0-8.47,1.4,25.11,25.11,0,0,0-7.44,3.91l-12.53-12.3a30.17,30.17,0,0,1,12.09-8.15,45.76,45.76,0,0,1,16.65-2.91q10,0,17.09,3.36a24,24,0,0,1,10.8,9.72A30,30,0,0,1,673.87,609Zm4.86-129.58A61.09,61.09,0,0,1,666.57,525a45.17,45.17,0,0,1-10-5.68L669,503.81a48.94,48.94,0,0,0,11.56,5.45,38,38,0,0,0,11.5,1.91q7.06,0,11-1.58t3.9-4.38a4.66,4.66,0,0,0-1.69-3.91,10.47,10.47,0,0,0-4.35-1.88,69.11,69.11,0,0,0-7.44-1l-2.69-.3-2.76-.29a4.14,4.14,0,0,0-.63-.11,4.64,4.64,0,0,0-.63,0,83,83,0,0,1-13.7-2.73,17.54,17.54,0,0,1-8.73-6.22q-3.58-4.61-3.58-13.38A21.69,21.69,0,0,1,675.12,454a45.19,45.19,0,0,1,17-2.84,58.32,58.32,0,0,1,11.6,1.18,60.4,60.4,0,0,1,11.09,3.39,52.91,52.91,0,0,1,9.8,5.31l-12,14.66a48.4,48.4,0,0,0-10.46-4.35,38.38,38.38,0,0,0-10.46-1.55,25.78,25.78,0,0,0-9.51,1.4q-3.39,1.41-3.39,3.91a3.29,3.29,0,0,0,1.81,3A13.23,13.23,0,0,0,685,479.6q2.69.48,7.85,1.07l1.32.15,1.33.14a2.71,2.71,0,0,0,.66.08,2.76,2.76,0,0,1,.67.07,92,92,0,0,1,14.51,2.65,18.86,18.86,0,0,1,9.54,6.49q3.95,4.86,4,14.29a22.57,22.57,0,0,1-15,22.29,47.26,47.26,0,0,1-17.75,3h-6.85Zm36.88,129.58H705.29q-9.21,0-14.29-5.3t-5.08-15V551.05H706.1v81.86a5.68,5.68,0,0,0,1.59,4.31,6.32,6.32,0,0,0,4.53,1.51h3.39Zm23,0H718.45V638h20.18Z"/><path d="M407.1,369.4v7.07c0,2.61-1.31,4.52-3.94,5.75s-6.64,1.84-12.05,1.84q-5.82,0-8.69-1.8a6.11,6.11,0,0,1-2.87-5.57,6.59,6.59,0,0,1,2.28-5.49c1.52-1.2,3.81-1.8,6.85-1.8Z"/><path d="M406.29,611.54v17.17a14.28,14.28,0,0,1-1.32,6.41,9.24,9.24,0,0,1-3.87,4,12.66,12.66,0,0,1-6.16,1.4q-5.67,0-8.8-3.76T383,626.2V614c0-4.66,1-8.29,3.13-10.86a10.68,10.68,0,0,1,8.8-3.87,12.34,12.34,0,0,1,6.16,1.44,9.35,9.35,0,0,1,3.87,4.16A15.13,15.13,0,0,1,406.29,611.54Z"/><path d="M509.82,611.54v17.17a14.28,14.28,0,0,1-1.33,6.41,9.19,9.19,0,0,1-3.87,4,12.62,12.62,0,0,1-6.15,1.4q-5.67,0-8.81-3.76t-3.13-10.61V614c0-4.66,1.05-8.29,3.13-10.86a10.7,10.7,0,0,1,8.81-3.87,12.3,12.3,0,0,1,6.15,1.44,9.3,9.3,0,0,1,3.87,4.16A15.13,15.13,0,0,1,509.82,611.54Z"/><path d="M630.58,482.07v17.17a14.15,14.15,0,0,1-1.33,6.41,9.17,9.17,0,0,1-3.86,4.05,12.66,12.66,0,0,1-6.16,1.4q-5.67,0-8.8-3.76t-3.13-10.61V484.57q0-7,3.13-10.86a10.68,10.68,0,0,1,8.8-3.87,12.44,12.44,0,0,1,6.16,1.43,9.35,9.35,0,0,1,3.86,4.17A15,15,0,0,1,630.58,482.07Z"/><path d="M655.52,628.34v7.07c0,2.61-1.31,4.52-3.94,5.75S644.94,643,639.53,643q-5.82,0-8.69-1.8a6.12,6.12,0,0,1-2.88-5.57,6.6,6.6,0,0,1,2.29-5.49q2.28-1.8,6.85-1.8Z"/><rect class="cls-1" x="718" y="638" width="21" height="21"/></g></g></svg>