<?xml version="1.0" encoding="utf-8"?>
<!-- Generator: Adobe Illustrator 23.0.6, SVG Export Plug-In . SVG Version: 6.00 Build 0)  -->
<svg version="1.1" id="Layer_1" xmlns="http://www.w3.org/2000/svg" xmlns:xlink="http://www.w3.org/1999/xlink" x="0px" y="0px"
	 viewBox="0 0 1920 1080" style="enable-background:new 0 0 1920 1080;" xml:space="preserve">
<style type="text/css">
	.st0{fill:#F74424;}
</style>
<title>atd2</title>
<polygon points="310.8,437.6 295.1,437.6 303.1,387.2 303.4,387.2 "/>
<path d="M300,645.1h-5v73.3h7.1c8.8,0,10-9.6,10-18.8v-35.8C312,651.5,310.6,645.1,300,645.1z M300,645.1h-5v73.3h7.1
	c8.8,0,10-9.6,10-18.8v-35.8C312,651.5,310.6,645.1,300,645.1z M300,645.1h-5v73.3h7.1c8.8,0,10-9.6,10-18.8v-35.8
	C312,651.5,310.6,645.1,300,645.1z M300,645.1h-5v73.3h7.1c8.8,0,10-9.6,10-18.8v-35.8C312,651.5,310.6,645.1,300,645.1z M300,645.1
	h-5v73.3h7.1c8.8,0,10-9.6,10-18.8v-35.8C312,651.5,310.6,645.1,300,645.1z M652.6,647.2h-0.3l-7.9,50.4H660L652.6,647.2z
	 M652.6,647.2h-0.3l-7.9,50.4H660L652.6,647.2z M300,645.1h-5v73.3h7.1c8.8,0,10-9.6,10-18.8v-35.8C312,651.5,310.6,645.1,300,645.1
	z M0,0v1080h1920V0H0z M673.4,576.4h33.4v5.7c0,6,2.6,10.8,8.6,10.8c6.4,0,8.4-5.5,8.4-10.8c0-7.7-3.1-9.6-7.4-12.2
	c-4.6-2.6-10.8-4.8-17-8.1c-18.8-9.1-24.8-16-24.8-34.2c0-17.2,5-26.3,13.1-32c6-4.1,14.5-7.6,28-7.6c34.7,0,40.6,17.2,40.6,37.7
	h-32.3v-5c0-5.3-2.1-10-8.1-10c-5.3,0-7.9,4.3-7.9,9.3c0,24.6,51.3,11.7,51.3,55.7c0,28.4-13.2,39.9-45.1,39.9
	c-26.3,0-40.8-8.9-40.8-36V576.4z M623.8,488c33.9,0,41.5,16.9,41.5,41.6h-32.3v-5c0-9.1-2.1-13.9-8.8-13.9c-8.3,0-8.8,7.6-8.8,15.1
	v50.6c0,7.6,0.7,16.5,8.9,16.5c8.3,0,9.6-6.4,9.6-15.5V569h-9.8v-22.7h42.1v66.9h-23.9l-0.9-10h-0.3c-5.9,10.8-15.3,12.4-25.3,12.4
	c-34.9,0-36-30.6-36-63.6C580,516.9,581.9,488,623.8,488z M437.2,360.4h34.4v94.9h37.5v27.9h-71.9V360.4z M435.7,490.4h34.4v122.8
	h-34.4V490.4z M358.4,360.4h34.4v94.9h37.5v27.9h-71.9V360.4z M373.9,563.6v49.5h-34.4V490.4h34.4v44.4h16.5v-44.4h34.4v122.8h-34.4
	v-49.5H373.9z M281.7,360.4h43.2l28.9,122.8h-35.4l-3.8-18.7h-23l-3.4,18.7h-35.4L281.7,360.4z M253.2,490.4h81.2v28.9H311v93.9
	h-34.4v-93.9h-23.4V490.4z M310.6,743.2h-50V620.4h49.5c15.3,0,25.3,5.8,30.8,16c5.5,9.5,6.5,16.3,6.5,45.4
	C347.4,708.6,346.4,743.2,310.6,743.2z M391.1,743.2h-34.4V620.4h34.4V743.2z M486.2,743.2h-23.9l-0.9-10h-0.3
	c-5.8,10.8-15.3,12.4-25.3,12.4c-34.9,0-36-30.6-36-63.6c0-35.1,1.9-64,43.9-64c33.9,0,41.5,16.9,41.5,41.6h-32.3v-5
	c0-9.1-2.1-13.9-8.8-13.9c-8.3,0-8.8,7.6-8.8,15.1v50.6c0,7.6,0.7,16.5,9,16.5c8.3,0,9.6-6.4,9.6-15.5V699h-9.8v-22.7h42.1V743.2z
	 M529.4,743.2H495V620.4h34.4V743.2z M513.1,537.5h-0.3v75.7h-31.3V490.4h37.3l17.5,75h0.3v-75H569v122.8h-36.8L513.1,537.5z
	 M590.6,743.2h-34.4v-93.9h-23.4v-28.9H614v28.9h-23.4V743.2z M667.5,743.2l-3.8-18.7h-23l-3.4,18.7h-35.4l29.1-122.8h43.2
	L703,743.2H667.5z M779.5,743.2h-71.9V620.4H742v94.9h37.5V743.2z M652.2,647.2l-7.9,50.4H660l-7.4-50.4H652.2z M300,645.1h-5v73.3
	h7.1c8.8,0,10-9.6,10-18.8v-35.8C312,651.5,310.6,645.1,300,645.1z M300,645.1h-5v73.3h7.1c8.8,0,10-9.6,10-18.8v-35.8
	C312,651.5,310.6,645.1,300,645.1z M300,645.1h-5v73.3h7.1c8.8,0,10-9.6,10-18.8v-35.8C312,651.5,310.6,645.1,300,645.1z M300,645.1
	h-5v73.3h7.1c8.8,0,10-9.6,10-18.8v-35.8C312,651.5,310.6,645.1,300,645.1z M300,645.1h-5v73.3h7.1c8.8,0,10-9.6,10-18.8v-35.8
	C312,651.5,310.6,645.1,300,645.1z M300,645.1h-5v73.3h7.1c8.8,0,10-9.6,10-18.8v-35.8C312,651.5,310.6,645.1,300,645.1z M300,645.1
	h-5v73.3h7.1c8.8,0,10-9.6,10-18.8v-35.8C312,651.5,310.6,645.1,300,645.1z"/>
<path class="st0" d="M786.9,706.7h35.4v36.5h-35.4V706.7z"/>
</svg>
