<svg xmlns="http://www.w3.org/2000/svg" viewBox="0 0 544.66 309.26"><defs><style>.cls-1{fill:#5b9fff;}.cls-2,.cls-3{fill:#d71a61;}.cls-3{opacity:0.65;}.cls-4{font-size:137px;fill:#231f20;font-family:MasterOfBreak, Master Of Break;}.cls-5{letter-spacing:0.02em;}</style></defs><title>logo</title><g id="Layer_2" data-name="Layer 2"><g id="Layer_1-2" data-name="Layer 1"><path class="cls-1" d="M0,237C11.13,159.3,22.15,82.26,33.32,4.25l71.52,78.31c-.8,3.29-3.64,4.9-5.87,7q-12.34,11.33-24.62,22.73c-2,1.86-2.25,3.57-1.14,6.09,6.87,15.61,13.44,31.35,20,47.08.68,1.6,2,3.19,1.1,5.19L0,237"/><path class="cls-1" d="M105.38,82.57c0,1.34,1.05,2,1.81,2.8,11.29,12.23,22.66,24.39,33.82,36.74,2.31,2.55,4.55,5.18,7,7.55,1.52,1.44,1.38,2.22-.3,3.39-10.27,7.13-20.47,14.35-30.7,21.53-7,4.94-14.11,9.85-21.14,14.8a5.79,5.79,0,0,0-1,1.33l-.52-.11Q86.58,152,78.79,133.36c-2.27-5.41-4.45-10.87-7-16.17-1-2.22-.55-3.39,1.14-4.93,9.81-8.92,19.51-18,29.24-27,.92-.86,1.75-1.82,2.62-2.73A3.25,3.25,0,0,1,105.38,82.57Z"/><path class="cls-2" d="M105.38,82.57Q127.7,61.86,150,41.14q21-19.41,42-38.73c.89-.82,1.83-1.61,2.74-2.41l.92.47c-19.43,89.83-38.87,179.67-58.5,270.44-9.72-22.88-19.06-44.78-28.35-66.72-4.71-11.13-9.33-22.31-14-33.48-.43-1.84,1.15-2.33,2.19-3.06,15.62-10.86,31.06-22,46.69-32.79,6-4.19,4.48-3.44.75-7.57-8.65-9.57-17.4-19-26.07-28.58C114.64,94.53,111,90.2,107,86.26,106,85.32,104.33,84.46,105.38,82.57Z"/><path class="cls-3" d="M105.38,82.57c0,1.34,1.05,2,1.81,2.8,11.29,12.23,22.66,24.39,33.82,36.74,2.31,2.55,4.55,5.18,7,7.55,1.52,1.44,1.38,2.22-.3,3.39-10.27,7.13-20.47,14.35-30.7,21.53-7,4.94-14.11,9.85-21.14,14.8a5.79,5.79,0,0,0-1,1.33l-.52-.11Q86.58,152,78.79,133.36c-2.27-5.41-4.45-10.87-7-16.17-1-2.22-.55-3.39,1.14-4.93,9.81-8.92,19.51-18,29.24-27,.92-.86,1.75-1.82,2.62-2.73A3.25,3.25,0,0,1,105.38,82.57Z"/><text class="cls-4" transform="translate(166.49 224.05)">Hu<tspan class="cls-5" x="165.5" y="0">d</tspan><tspan x="240.71" y="0">ri</tspan></text></g></g></svg>