<svg xmlns="http://www.w3.org/2000/svg" xmlns:xlink="http://www.w3.org/1999/xlink" viewBox="0 0 522.2 270.9"><defs><style>.cls-1{isolation:isolate;}.cls-2{fill:#fff;}.cls-3,.cls-4{mix-blend-mode:lighten;}.cls-3{fill:url(#linear-gradient);}.cls-4{fill:url(#linear-gradient-2);}</style><linearGradient id="linear-gradient" x1="49.8" y1="49.5" x2="77.59" y2="206.13" gradientUnits="userSpaceOnUse"><stop offset="0" stop-color="#68e0cf"/><stop offset="1" stop-color="#209cff"/></linearGradient><linearGradient id="linear-gradient-2" x1="168.7" y1="151.8" x2="125.63" y2="36.12" gradientUnits="userSpaceOnUse"><stop offset="0" stop-color="#fc6076"/><stop offset="1" stop-color="#ff9a44"/></linearGradient></defs><title>logo-grad</title><g class="cls-1"><g id="Layer_2" data-name="Layer 2"><g id="Layer_2-2" data-name="Layer 2"><g id="Layer_1-2" data-name="Layer 1-2"><g id="Layer_1-2-2" data-name="Layer 1-2-2"><path class="cls-2" d="M287.9,154.7a2.45,2.45,0,0,1,2.5,1.4,2.29,2.29,0,0,1-.3,2.5,19.51,19.51,0,0,1-5.2,4.3,46,46,0,0,1-7.7,3.8,73,73,0,0,1-9,2.9,44.32,44.32,0,0,1-9.5,1.3q-3.9,6.15-7.8,13.5c-2.7,4.9-5,9.7-7.2,14.5s-3.9,9.2-5.3,13.2a32,32,0,0,0-2.1,9.7c0,1.8-.7,2.7-2,2.7s-2.8-.8-4.4-2.3a20.56,20.56,0,0,1-4.4-6.2,20.19,20.19,0,0,1-2-9,25.63,25.63,0,0,1,1.4-7.3c.9-2.8,2.1-5.8,3.4-9s2.9-6.5,4.5-9.8,3.2-6.5,4.7-9.5c-4.9.2-10.2.4-15.9.8s-11.4.8-17.1,1.6c-2.9,4.8-5.9,10-9,15.5s-5.8,10.8-8.3,16-4.5,9.7-6.1,13.8-2.4,7.2-2.4,9.2a2.1,2.1,0,0,1-2.1,2.3,7.06,7.06,0,0,1-4.7-1.4,16,16,0,0,1-4.7-5.4c-1.5-2.5-2.1-5.7-2.1-9.7a18.86,18.86,0,0,1,1.6-6.4,95.41,95.41,0,0,1,4-9.2c1.6-3.4,3.4-6.9,5.3-10.5s3.7-7,5.5-10.2c-3.7.3-7.1.5-10.2.8s-5.7.6-7.9,1a20.12,20.12,0,0,0-5.2,1.6,3.12,3.12,0,0,0-1.8,2.8c0,1.6-.5,2.4-1.5,2.5a5,5,0,0,1-3.3-1,12.44,12.44,0,0,1-3.3-3.2,7.6,7.6,0,0,1-1.5-4.5c0-3.7,1.2-6.6,3.5-8.6s5.5-3.4,9.6-4.5a87.8,87.8,0,0,1,14.1-2.1c5.3-.4,11-.9,17.1-1.6,3.1-5.2,6.5-10.8,10.1-16.9L212,125.8c3.6-6.1,7-12.1,10.3-18s6.2-11.3,8.8-16.2,4.6-9.2,6.1-12.7,2.3-6.1,2.3-7.7a12.59,12.59,0,0,0-7-10.6c-2.3-1.3-5.6-2-9.9-2a33.62,33.62,0,0,0-13.4,3.1,73.07,73.07,0,0,0-14.3,8.4,99.34,99.34,0,0,0-13.7,12.5,84.11,84.11,0,0,0-11.3,15.5,71,71,0,0,0-7.1,17.2,44.26,44.26,0,0,0-1.2,17.7,34.49,34.49,0,0,0,1.2,5.5,20.47,20.47,0,0,0,2.7,5.8,15.11,15.11,0,0,0,4.8,4.6,13.86,13.86,0,0,0,7.3,1.8,15.14,15.14,0,0,0,7.3-1.7,27,27,0,0,0,5-3.4c1.3-1.1,2.2-1.9,2.8-2.4s.9-.1.9,1.3a6.8,6.8,0,0,1-1.8,4.5,14.73,14.73,0,0,1-4.8,3.4,31.11,31.11,0,0,1-6.5,2.3,34,34,0,0,1-6.9.8,32.86,32.86,0,0,1-7.2-1,27.4,27.4,0,0,1-9-4,31.33,31.33,0,0,1-8.2-8.4c-2.4-3.7-4-8.4-4.9-14.4a51.34,51.34,0,0,1,1.8-22.3,60,60,0,0,1,9.7-18.6,74.74,74.74,0,0,1,15.1-14.6,108.29,108.29,0,0,1,17.7-10.5,100.13,100.13,0,0,1,17.7-6.4,61,61,0,0,1,15.1-2.2,46.14,46.14,0,0,1,12.3,1.6,33.45,33.45,0,0,1,10.6,5,25.26,25.26,0,0,1,7.5,8.4,23.07,23.07,0,0,1,2.9,11.7l-.1-1.1c.3,1.9-.2,4.6-1.4,8.2A115.63,115.63,0,0,1,248.1,99c-2.2,4.5-4.8,9.4-7.7,14.7s-6,10.7-9.2,16.2-6.5,11-9.8,16.4-6.4,10.4-9.3,15.1c6.2-.1,11.7,0,16.4.1s9.4.2,14,.1c3.7-7.1,7.2-13.1,10.3-17.9s5.8-8.9,8-12.3a70.16,70.16,0,0,0,4.9-8.6,13.29,13.29,0,0,0,1.2-6.6c-.1-.7.5-1,1.7-.8a9.41,9.41,0,0,1,4.1,2.1,19.47,19.47,0,0,1,4.2,5,14.92,14.92,0,0,1,1.9,7.9c0,2.2-.1,4-.2,5.4a14.56,14.56,0,0,1-1.5,5,84.57,84.57,0,0,1-4.2,7.5q-3,4.65-8.4,13.2a49.33,49.33,0,0,0,11-1.4,38.16,38.16,0,0,0,6.6-2.3,18.52,18.52,0,0,0,3.7-2.3A4.56,4.56,0,0,1,287.9,154.7ZM308.3,224a8.38,8.38,0,0,1-6.2-2.6,15.57,15.57,0,0,1-3.7-6.2,17.22,17.22,0,0,1-.8-7.5,12,12,0,0,1,2.4-6.6c-3.1,4.3-6.2,8.1-9.2,11.5a53.34,53.34,0,0,1-4,4.2,44,44,0,0,1-4.1,3.6,20,20,0,0,1-4,2.5,8.54,8.54,0,0,1-3.4,1,12.6,12.6,0,0,1-4.3-.8,11,11,0,0,1-3.8-2.7,11.92,11.92,0,0,1-2.5-4.6,17.43,17.43,0,0,1-.6-6.7,17.64,17.64,0,0,1,2.1-6.3c1.3-2.6,2.9-5.6,4.7-8.8s3.9-6.6,6-10.1,4.2-7,6-10.4,3.4-6.6,4.7-9.5a25.42,25.42,0,0,0,2.2-7.7c.1-.8.8-1.1,2.1-1a9.67,9.67,0,0,1,4.2,1.9,14,14,0,0,1,4,4.6,11.69,11.69,0,0,1,1.5,7.1,24.58,24.58,0,0,1-2.7,7.5,114,114,0,0,1-5.9,10.2c-2.3,3.7-4.6,7.4-7.1,11.1s-4.5,7.1-6.2,10.2a42.3,42.3,0,0,0-3.5,7.5c-.6,1.9-.1,2.9,1.4,2.9.5,0,2.1-1.2,4.5-3.5s5.4-5.4,8.8-9.1,7-7.9,10.8-12.5,7.3-9.2,10.5-13.8a149.51,149.51,0,0,0,8.2-13c2.2-4.1,3.4-7.4,3.6-10.1.1-.8.8-1,2-.7a12.44,12.44,0,0,1,4,2.4,14.79,14.79,0,0,1,3.8,5.1,13.5,13.5,0,0,1,1.4,7.3c-.1,1.8-1,4.3-2.6,7.4s-3.6,6.4-5.8,10-4.5,7.2-6.8,10.8-4.4,6.9-6.2,9.9a38.15,38.15,0,0,0-3.5,7.2c-.6,1.9-.2,2.8,1.2,2.8.7,0,1.9-.6,3.5-1.8a55.89,55.89,0,0,0,5.7-5.1q3.3-3.15,7.2-7.5c2.6-2.8,5.3-5.8,7.9-9s5.3-6.3,7.8-9.6,4.8-6.4,6.8-9.5a3.24,3.24,0,0,1,1.7-1.4,2.36,2.36,0,0,1,1.7.1,1.84,1.84,0,0,1,.8,1.4,5.3,5.3,0,0,1-1,2.7c-.5.7-1.6,2.4-3.5,4.9s-4.1,5.5-6.8,8.8-5.6,6.9-8.8,10.5-6.4,7-9.6,10.1a73.57,73.57,0,0,1-9.2,7.7C312.9,223,310.4,224,308.3,224Zm75.9-7.1c1,0,3-1.3,6-3.8s6.3-5.8,10.1-9.8,7.7-8.4,11.6-13.2a164.55,164.55,0,0,0,10.5-14,3.44,3.44,0,0,1,1.8-1.4,2,2,0,0,1,1.7.1,1.65,1.65,0,0,1,.8,1.5,5.3,5.3,0,0,1-1,2.7c-.5.7-1.6,2.4-3.5,4.9s-4.2,5.4-6.8,8.8-5.7,6.8-8.9,10.5-6.5,7.1-9.7,10.2a73.57,73.57,0,0,1-9.2,7.7q-4.35,3-7.5,3a12.67,12.67,0,0,1-4.7-.9,11.09,11.09,0,0,1-4-2.9,16.65,16.65,0,0,1-2.8-5.5,29,29,0,0,1-1.1-8.4c-2.6,3.4-5.2,6.3-7.5,8.9a72.15,72.15,0,0,1-6.5,6c-2.2,1.8-4.1,2.7-5.5,2.7a13.91,13.91,0,0,1-4.7-.9,13.64,13.64,0,0,1-4.7-2.9,14.62,14.62,0,0,1-3.6-5.3,18.62,18.62,0,0,1-1.4-7.9,25.32,25.32,0,0,1,2.5-10.3,62.77,62.77,0,0,1,6.5-11.3,102,102,0,0,1,9.1-11,124.61,124.61,0,0,1,10.2-9.4,62.43,62.43,0,0,1,9.8-6.6c3.1-1.6,5.8-2.5,7.9-2.5a12.11,12.11,0,0,1,6,1.3,18.65,18.65,0,0,1,4,2.8,13.13,13.13,0,0,1,2.6,4c5.6-9,10.5-17.4,14.9-24.9,1.9-3.2,3.8-6.4,5.5-9.7s3.4-6.3,4.8-9,2.6-5.2,3.4-7.3a13.37,13.37,0,0,0,1.3-4.7,2.22,2.22,0,0,1,1.8-2.2,4.69,4.69,0,0,1,4,.8,13,13,0,0,1,4,4.9q1.8,3.6,1.8,10.2c0,2-.8,4.9-2.5,8.6s-3.9,8-6.6,12.8-5.7,9.9-9.1,15.4-6.8,10.9-10.1,16.4-6.6,10.6-9.7,15.6-5.6,9.4-7.7,13.2a62.2,62.2,0,0,0-4.3,9.2C382.8,215.8,383,216.9,384.2,216.9Zm-34,.4c1.4,0,3.4-1.2,6.2-3.7a99.53,99.53,0,0,0,8.9-9.2c3.2-3.7,6.4-7.7,9.7-12.1s6-8.4,8.3-12.1A47.09,47.09,0,0,0,388,171c.9-2.5.6-3.7-.9-3.7-1.1,0-2.8.8-5.1,2.5a78.64,78.64,0,0,0-7.7,6.6,116,116,0,0,0-8.6,9.4,132.42,132.42,0,0,0-8.2,10.7,63.43,63.43,0,0,0-6,10.5,21.74,21.74,0,0,0-2.3,9.1.75.75,0,0,0,.1.5A.78.78,0,0,0,350.2,217.3Zm127.6,35.4c.6-1.1,1.3-1.4,2.1-.8a2.26,2.26,0,0,1,.8,1.1,14.45,14.45,0,0,1-3.7,4.9,19.18,19.18,0,0,1-5.5,3.4,22.56,22.56,0,0,1-8.8,1.4,28.6,28.6,0,0,1-11.3-2.5,33.87,33.87,0,0,1-11-7.4,38.31,38.31,0,0,1-8.2-12.4,44.8,44.8,0,0,1-3.2-17.5,57,57,0,0,1,2-14.6,88.94,88.94,0,0,1,4.9-14A100.68,100.68,0,0,1,442,182c2.1-3.7,4-6.9,5.7-9.3a59.32,59.32,0,0,1-7.9,2.7,40.91,40.91,0,0,1-10.8,1.4,13.93,13.93,0,0,1-3.3-.5,8.21,8.21,0,0,1-3.4-2.4,13.81,13.81,0,0,1-2.7-5.3,31.49,31.49,0,0,1-1.1-9,39.38,39.38,0,0,1,2.7-14.8,46.25,46.25,0,0,1,6.6-11.6,34.67,34.67,0,0,1,8.4-7.6c3-1.8,5.6-2.7,8-2.7a10.19,10.19,0,0,1,6.6,2.3,8.24,8.24,0,0,1,2.7,6.6,17.77,17.77,0,0,1-.8,4.7,41.31,41.31,0,0,1-2.2,5.7c-.9,2-1.9,4-3.1,6.1s-2.3,4-3.5,6c-2.8,4.6-6,9.3-9.5,14.2,3.4-1.7,6.5-3.4,9.5-4.9l7.1-3.7a50.1,50.1,0,0,0,4.5-2.5c.9-.5,1.8-1.1,2.7-1.7s2-.4,3.2.5c.5.5,1.5,1.3,2.9,2.5a24.07,24.07,0,0,1,3.7,4.1,12.18,12.18,0,0,1,2.1,5,6.41,6.41,0,0,1-1.8,5.3c-1.6,1.8-3.7,4.7-6.5,8.5a107.57,107.57,0,0,0-8.2,13.4,110.79,110.79,0,0,0-7,16.4,54.69,54.69,0,0,0-2.9,17.7c0,5.9.7,10.8,2.2,14.7a26.44,26.44,0,0,0,5.3,9,18.25,18.25,0,0,0,6.8,4.6,19.74,19.74,0,0,0,6.7,1.3c4.1,0,7.2-.7,9.2-2A16.05,16.05,0,0,0,477.8,252.7ZM428.6,159a13.88,13.88,0,0,0,.3,3.2,7.89,7.89,0,0,0,.9,2.3,15.73,15.73,0,0,0,1.2,1.9c2-3.7,4-7.1,5.9-10.4s3.5-6.2,4.7-8.8a41,41,0,0,0,2.4-6.1c.4-1.5,0-2.3-1.2-2.3s-2.6.7-4.2,2.2a35.4,35.4,0,0,0-4.7,5.3,36.36,36.36,0,0,0-3.8,6.6A16.32,16.32,0,0,0,428.6,159Zm89.3,16.6a3.44,3.44,0,0,1,1.8-1.4,2.46,2.46,0,0,1,1.7.1,1.65,1.65,0,0,1,.8,1.5,5.3,5.3,0,0,1-1,2.7c-.5.7-1.6,2.4-3.5,4.9s-4.1,5.4-6.8,8.8-5.6,6.9-8.8,10.6-6.4,7.2-9.6,10.3a73.57,73.57,0,0,1-9.2,7.7q-4.35,3-7.5,3a10.35,10.35,0,0,1-6.4-1.8,12.55,12.55,0,0,1-3.8-4.7,20.54,20.54,0,0,1-1.8-6.1,24.36,24.36,0,0,1-.1-6,24.68,24.68,0,0,1,2.7-8.6c1.6-3.2,3.6-6.7,5.8-10.5s4.5-7.6,6.8-11.7a115.85,115.85,0,0,0,6-12.3,4.65,4.65,0,0,0,.5-2.1,11.8,11.8,0,0,1,.4-2,3.69,3.69,0,0,1,.8-1.4,2.43,2.43,0,0,1,1.8-.5,5.58,5.58,0,0,1,2.9,1,10.69,10.69,0,0,1,3,3,17.89,17.89,0,0,1,2.2,5,19.6,19.6,0,0,1,.4,7,22.3,22.3,0,0,1-2.6,7.1c-1.6,2.9-3.4,6-5.4,9.2s-4.1,6.6-6.2,9.9a69.86,69.86,0,0,0-4.9,9.1,15.15,15.15,0,0,0-1.6,6.6c.1,1.7,1.4,2.5,3.8,2.5,1,0,3-1.3,6-3.8a127.44,127.44,0,0,0,10-9.8c3.7-4,7.5-8.4,11.5-13.2A173.15,173.15,0,0,0,517.9,175.6Zm-13.8-23.5a4.76,4.76,0,0,1-2.7-1,10.55,10.55,0,0,1-2.7-3.1,16.33,16.33,0,0,1-2-5,17.93,17.93,0,0,1-.3-6.6,18.23,18.23,0,0,1,1.5-6.3,14.58,14.58,0,0,1,2.7-4.1,10.8,10.8,0,0,1,3.2-2.2,7.14,7.14,0,0,1,2.9-.7,12.16,12.16,0,0,1,3.4.8,26.67,26.67,0,0,1,4.2,2,16.55,16.55,0,0,1,3.5,2.8,4.34,4.34,0,0,1,1.3,3.4,5,5,0,0,1-1,2.9,11.27,11.27,0,0,1-2.1,2.4c-.8.8-1.7,1.8-2.7,2.9a26.42,26.42,0,0,0-3.2,4.5c-1.1,1.8-1.9,3.2-2.5,4.2a12.12,12.12,0,0,1-1.4,2.2,2.16,2.16,0,0,1-1,.8A3.11,3.11,0,0,1,504.1,152.1Z"/></g></g><polygon class="cls-3" points="33.3 4.3 0 237 147.7 133.1 33.3 4.3"/><polygon class="cls-4" points="194.7 0 137.1 270.9 71.26 111.7 194.7 0"/></g></g></g></svg>