<?xml version="1.0" encoding="utf-8"?>
<!-- Generator: Adobe Illustrator 23.0.0, SVG Export Plug-In . SVG Version: 6.00 Build 0)  -->
<svg version="1.1" id="Layer_1" xmlns="http://www.w3.org/2000/svg" xmlns:xlink="http://www.w3.org/1999/xlink" x="0px" y="0px"
	 viewBox="0 0 522.2 309.3" style="enable-background:new 0 0 522.2 309.3;" xml:space="preserve">
<style type="text/css">
	.st0{fill:#5B9FFF;}
	.st1{fill:#F74424;}
	.st2{opacity:0.65;fill:#F74424;enable-background:new    ;}
	.st3{fill:#FFFFFF;}
</style>
<title>logo-white</title>
<g>
	<g id="Layer_1-2">
		<g id="Layer_1-2-2">
			<path class="st0" d="M0,237C11.1,159.3,22.1,82.3,33.3,4.3l71.5,78.3c-0.8,3.3-3.6,4.9-5.9,7c-8.2,7.5-16.4,15.1-24.6,22.7
				c-2,1.9-2.3,3.6-1.1,6.1c6.9,15.6,13.4,31.4,20,47.1c0.7,1.6,2,3.2,1.1,5.2L0,237"/>
			<path class="st0" d="M105.4,82.6c0,1.3,1.1,2,1.8,2.8c11.3,12.2,22.7,24.4,33.8,36.7c2.3,2.6,4.6,5.2,7,7.6
				c1.5,1.4,1.4,2.2-0.3,3.4c-10.3,7.1-20.5,14.4-30.7,21.5c-7,4.9-14.1,9.9-21.1,14.8c-0.4,0.4-0.7,0.8-1,1.3l-0.5-0.1l-15.6-37.2
				c-2.3-5.4-4.4-10.9-7-16.2c-1-2.2-0.6-3.4,1.1-4.9c9.8-8.9,19.5-18,29.2-27c0.9-0.9,1.8-1.8,2.6-2.7
				C105,82.5,105.2,82.5,105.4,82.6z"/>
			<path class="st1" d="M105.4,82.6L150,41.1c14-12.9,28-25.8,42-38.7c0.9-0.8,1.8-1.6,2.7-2.4l0.9,0.5
				c-19.4,89.8-38.9,179.7-58.5,270.4c-9.7-22.9-19.1-44.8-28.3-66.7c-4.7-11.1-9.3-22.3-14-33.5c-0.4-1.8,1.2-2.3,2.2-3.1
				c15.6-10.9,31.1-22,46.7-32.8c6-4.2,4.5-3.4,0.8-7.6c-8.6-9.6-17.4-19-26.1-28.6c-3.7-4.2-7.4-8.5-11.4-12.5
				C106,85.3,104.3,84.5,105.4,82.6z"/>
			<path class="st2" d="M105.4,82.6c0,1.3,1.1,2,1.8,2.8c11.3,12.2,22.7,24.4,33.8,36.7c2.3,2.6,4.6,5.2,7,7.6
				c1.5,1.4,1.4,2.2-0.3,3.4c-10.3,7.1-20.5,14.4-30.7,21.5c-7,4.9-14.1,9.9-21.1,14.8c-0.4,0.4-0.7,0.8-1,1.3l-0.5-0.1l-15.6-37.2
				c-2.3-5.4-4.4-10.9-7-16.2c-1-2.2-0.6-3.4,1.1-4.9c9.8-8.9,19.5-18,29.2-27c0.9-0.9,1.8-1.8,2.6-2.7
				C105,82.5,105.2,82.5,105.4,82.6z"/>
			<path class="st3" d="M287.9,154.7c1.3,0,2.1,0.5,2.5,1.4c0.4,0.9,0.3,1.7-0.3,2.5c-1.2,1.5-2.9,2.9-5.2,4.3
				c-2.3,1.4-4.8,2.7-7.7,3.8c-2.8,1.1-5.8,2.1-9,2.9c-3.2,0.8-6.3,1.2-9.5,1.3c-2.6,4.1-5.2,8.6-7.8,13.5c-2.7,4.9-5,9.7-7.2,14.5
				c-2.1,4.8-3.9,9.2-5.3,13.2c-1.4,4.1-2.1,7.3-2.1,9.7c0,1.8-0.7,2.7-2,2.7c-1.3,0-2.8-0.8-4.4-2.3c-1.6-1.5-3.1-3.5-4.4-6.2
				c-1.3-2.6-2-5.7-2-9c0-2,0.5-4.4,1.4-7.3c0.9-2.8,2.1-5.8,3.4-9c1.4-3.2,2.9-6.5,4.5-9.8c1.6-3.3,3.2-6.5,4.7-9.5
				c-4.9,0.2-10.2,0.4-15.9,0.8c-5.7,0.3-11.4,0.8-17.1,1.6c-2.9,4.8-5.9,10-9,15.5c-3.1,5.5-5.8,10.8-8.3,16
				c-2.5,5.1-4.5,9.7-6.1,13.8c-1.6,4.1-2.4,7.2-2.4,9.2c0,1.4-0.7,2.1-2.1,2.3c-1.4,0.2-3-0.3-4.7-1.4c-1.7-1.1-3.2-2.9-4.7-5.4
				s-2.1-5.7-2.1-9.7c0-1.5,0.5-3.6,1.6-6.4c1-2.8,2.4-5.9,4-9.2c1.6-3.4,3.4-6.9,5.3-10.5c1.9-3.6,3.7-7,5.5-10.2
				c-3.7,0.3-7.1,0.5-10.2,0.8c-3.1,0.3-5.7,0.6-7.9,1c-2.2,0.4-4,1-5.2,1.6c-1.2,0.7-1.8,1.6-1.8,2.8c0,1.6-0.5,2.4-1.5,2.5
				c-1,0.1-2.1-0.2-3.3-1c-1.2-0.8-2.3-1.8-3.3-3.2c-1-1.4-1.5-2.9-1.5-4.5c0-3.7,1.2-6.6,3.5-8.6c2.3-2,5.5-3.4,9.6-4.5
				c4.1-1,8.8-1.7,14.1-2.1c5.3-0.4,11-0.9,17.1-1.6c3.1-5.2,6.5-10.8,10.1-16.9c3.6-6.1,7.2-12.2,10.8-18.3c3.6-6.1,7-12.1,10.3-18
				s6.2-11.3,8.8-16.2c2.6-4.9,4.6-9.2,6.1-12.7s2.3-6.1,2.3-7.7c-0.2-2.4-0.9-4.5-2.1-6.3c-1-1.6-2.6-3-4.9-4.3
				c-2.3-1.3-5.6-2-9.9-2c-4.1,0-8.6,1-13.4,3.1s-9.6,4.9-14.3,8.4c-4.8,3.6-9.3,7.7-13.7,12.5s-8.2,10-11.3,15.5
				c-3.2,5.5-5.5,11.3-7.1,17.2c-1.6,5.9-2,11.8-1.2,17.7c0.2,1.6,0.6,3.5,1.2,5.5c0.6,2.1,1.5,4,2.7,5.8c1.2,1.8,2.8,3.4,4.8,4.6
				c2,1.2,4.4,1.8,7.3,1.8c2.8,0,5.3-0.6,7.3-1.7c2.1-1.1,3.7-2.3,5-3.4c1.3-1.1,2.2-1.9,2.8-2.4c0.6-0.5,0.9-0.1,0.9,1.3
				c0,1.6-0.6,3.1-1.8,4.5c-1.2,1.3-2.8,2.5-4.8,3.4c-2,1-4.1,1.7-6.5,2.3c-2.4,0.5-4.7,0.8-6.9,0.8c-1.8,0-4.2-0.3-7.2-1
				c-3-0.7-6-2-9-4c-3-2-5.7-4.8-8.2-8.4c-2.4-3.7-4-8.4-4.9-14.4c-1-8-0.4-15.5,1.8-22.3c2.2-6.9,5.4-13,9.7-18.6
				c4.3-5.5,9.3-10.4,15.1-14.6c5.8-4.2,11.7-7.7,17.7-10.5c6.1-2.8,12-5,17.7-6.4c5.8-1.5,10.8-2.2,15.1-2.2
				c4.2,0,8.3,0.5,12.3,1.6c4,1.1,7.5,2.8,10.6,5c3.1,2.2,5.6,5,7.5,8.4c1.9,3.3,2.9,7.2,2.9,11.7l-0.1-1.1c0.3,1.9-0.2,4.6-1.4,8.2
				c-1.2,3.5-2.9,7.5-5.1,12.1c-2.2,4.5-4.8,9.4-7.7,14.7c-2.9,5.3-6,10.7-9.2,16.2c-3.2,5.5-6.5,11-9.8,16.4
				c-3.3,5.4-6.4,10.4-9.3,15.1c6.2-0.1,11.7,0,16.4,0.1c4.7,0.2,9.4,0.2,14,0.1c3.7-7.1,7.2-13.1,10.3-17.9c3.2-4.8,5.8-8.9,8-12.3
				c2.2-3.4,3.8-6.2,4.9-8.6c1-2.3,1.4-4.5,1.2-6.6c-0.1-0.7,0.5-1,1.7-0.8c1.2,0.2,2.6,0.9,4.1,2.1c1.5,1.2,2.9,2.9,4.2,5
				c1.3,2.1,1.9,4.8,1.9,7.9c0,2.2-0.1,4-0.2,5.4c-0.1,1.4-0.6,3.1-1.5,5c-0.9,1.9-2.3,4.4-4.2,7.5c-2,3.1-4.8,7.5-8.4,13.2
				c4.6-0.2,8.2-0.6,11-1.4c2.7-0.7,4.9-1.5,6.6-2.3c1.6-0.8,2.9-1.6,3.7-2.3C286.5,155.1,287.2,154.7,287.9,154.7z M308.3,224
				c-2.5,0-4.5-0.9-6.2-2.6c-1.7-1.7-2.9-3.8-3.7-6.2c-0.8-2.4-1.1-4.9-0.8-7.5c0.2-2.6,1-4.8,2.4-6.6c-3.1,4.3-6.2,8.1-9.2,11.5
				c-1.3,1.5-2.6,2.9-4,4.2s-2.7,2.6-4.1,3.6c-1.4,1.1-2.7,1.9-4,2.5c-1.3,0.6-2.4,1-3.4,1c-1.5,0-2.9-0.3-4.3-0.8
				c-1.4-0.6-2.7-1.5-3.8-2.7c-1.1-1.2-1.9-2.7-2.5-4.6c-0.6-1.8-0.8-4.1-0.6-6.7c0.1-1.6,0.8-3.7,2.1-6.3c1.3-2.6,2.9-5.6,4.7-8.8
				c1.9-3.2,3.9-6.6,6-10.1c2.1-3.6,4.2-7,6-10.4c1.9-3.4,3.4-6.6,4.7-9.5c1.3-3,2-5.5,2.2-7.7c0.1-0.8,0.8-1.1,2.1-1
				c1.3,0.2,2.7,0.8,4.2,1.9c1.5,1.1,2.9,2.6,4,4.6c1.2,2,1.7,4.3,1.5,7.1c-0.2,1.8-1.1,4.3-2.7,7.5c-1.6,3.2-3.6,6.6-5.9,10.2
				c-2.3,3.7-4.6,7.4-7.1,11.1c-2.4,3.7-4.5,7.1-6.2,10.2c-1.7,3.1-2.9,5.5-3.5,7.5c-0.6,1.9-0.1,2.9,1.4,2.9c0.5,0,2.1-1.2,4.5-3.5
				c2.5-2.3,5.4-5.4,8.8-9.1c3.4-3.7,7-7.9,10.8-12.5c3.8-4.6,7.3-9.2,10.5-13.8c3.2-4.6,6-9,8.2-13c2.2-4.1,3.4-7.4,3.6-10.1
				c0.1-0.8,0.8-1,2-0.7c1.2,0.4,2.6,1.2,4,2.4c1.5,1.2,2.7,2.9,3.8,5.1c1.1,2.1,1.6,4.6,1.4,7.3c-0.1,1.8-1,4.3-2.6,7.4
				c-1.6,3.1-3.6,6.4-5.8,10c-2.2,3.6-4.5,7.2-6.8,10.8c-2.4,3.7-4.4,6.9-6.2,9.9c-1.7,2.9-2.9,5.3-3.5,7.2
				c-0.6,1.9-0.2,2.8,1.2,2.8c0.7,0,1.9-0.6,3.5-1.8c1.6-1.2,3.5-2.9,5.7-5.1c2.2-2.1,4.6-4.6,7.2-7.5c2.6-2.8,5.3-5.8,7.9-9
				c2.7-3.2,5.3-6.3,7.8-9.6c2.5-3.2,4.8-6.4,6.8-9.5c0.5-0.7,1-1.2,1.7-1.4c0.7-0.2,1.3-0.1,1.7,0.1c0.5,0.3,0.7,0.8,0.8,1.4
				c0,0.7-0.3,1.6-1,2.7c-0.5,0.7-1.6,2.4-3.5,4.9c-1.9,2.5-4.1,5.5-6.8,8.8c-2.7,3.4-5.6,6.9-8.8,10.5c-3.2,3.7-6.4,7-9.6,10.1
				c-3.2,3.1-6.3,5.7-9.2,7.7C312.9,223,310.4,224,308.3,224z M384.2,216.9c1,0,3-1.3,6-3.8c3-2.6,6.3-5.8,10.1-9.8
				c3.8-4,7.7-8.4,11.6-13.2c4-4.8,7.5-9.5,10.5-14c0.5-0.7,1.1-1.2,1.8-1.4c0.6-0.2,1.2-0.2,1.7,0.1c0.5,0.3,0.8,0.8,0.8,1.5
				c0,0.7-0.3,1.6-1,2.7c-0.5,0.7-1.6,2.4-3.5,4.9c-1.9,2.5-4.2,5.4-6.8,8.8c-2.7,3.3-5.7,6.8-8.9,10.5c-3.2,3.7-6.5,7.1-9.7,10.2
				c-3.2,3.1-6.3,5.7-9.2,7.7c-2.9,2-5.4,3-7.5,3c-1.6,0-3.2-0.3-4.7-0.9c-1.5-0.6-2.8-1.6-4-2.9c-1.1-1.4-2.1-3.2-2.8-5.5
				c-0.7-2.3-1.1-5.1-1.1-8.4c-2.6,3.4-5.2,6.3-7.5,8.9c-2.1,2.2-4.3,4.2-6.5,6c-2.2,1.8-4.1,2.7-5.5,2.7c-1.5,0-3-0.3-4.7-0.9
				c-1.7-0.6-3.3-1.6-4.7-2.9c-1.5-1.4-2.7-3.1-3.6-5.3c-1-2.1-1.4-4.8-1.4-7.9c0-3.1,0.8-6.5,2.5-10.3c1.6-3.7,3.8-7.5,6.5-11.3
				c2.7-3.8,5.7-7.4,9.1-11c3.4-3.5,6.8-6.6,10.2-9.4s6.7-4.9,9.8-6.6c3.1-1.6,5.8-2.5,7.9-2.5c2.4,0,4.4,0.4,6,1.3
				c1.6,0.9,3,1.8,4,2.8c1.1,1.2,2,2.5,2.6,4c5.6-9,10.5-17.4,14.9-24.9c1.9-3.2,3.8-6.4,5.5-9.7c1.8-3.2,3.4-6.3,4.8-9
				c1.4-2.8,2.6-5.2,3.4-7.3c0.9-2.1,1.3-3.7,1.3-4.7c0-1.1,0.6-1.8,1.8-2.2c1.2-0.4,2.6-0.1,4,0.8c1.4,0.9,2.7,2.5,4,4.9
				c1.2,2.4,1.8,5.8,1.8,10.2c0,2-0.8,4.9-2.5,8.6c-1.7,3.7-3.9,8-6.6,12.8c-2.7,4.8-5.7,9.9-9.1,15.4c-3.4,5.5-6.8,10.9-10.1,16.4
				c-3.4,5.4-6.6,10.6-9.7,15.6c-3.1,5-5.6,9.4-7.7,13.2c-2.1,3.8-3.5,6.9-4.3,9.2C382.8,215.8,383,216.9,384.2,216.9z M350.2,217.3
				c1.4,0,3.4-1.2,6.2-3.7s5.7-5.5,8.9-9.2c3.2-3.7,6.4-7.7,9.7-12.1c3.2-4.3,6-8.4,8.3-12.1c2.3-3.7,3.9-6.8,4.7-9.2
				c0.9-2.5,0.6-3.7-0.9-3.7c-1.1,0-2.8,0.8-5.1,2.5c-2.3,1.7-4.9,3.9-7.7,6.6c-2.8,2.7-5.7,5.9-8.6,9.4c-3,3.5-5.7,7.1-8.2,10.7
				c-2.5,3.6-4.5,7.1-6,10.5c-1.6,3.4-2.3,6.5-2.3,9.1c0,0.2,0,0.4,0.1,0.5C349.4,217.2,349.8,217.3,350.2,217.3z M477.8,252.7
				c0.6-1.1,1.3-1.4,2.1-0.8c0.4,0.3,0.6,0.6,0.8,1.1c-0.8,1.8-2.1,3.5-3.7,4.9c-1.4,1.3-3.2,2.4-5.5,3.4s-5.3,1.4-8.8,1.4
				c-3.6,0-7.3-0.8-11.3-2.5c-4-1.6-7.6-4.1-11-7.4c-3.3-3.3-6.1-7.4-8.2-12.4c-2.1-5-3.2-10.8-3.2-17.5c0-4.8,0.7-9.7,2-14.6
				c1.3-4.9,2.9-9.6,4.9-14c1.9-4.5,3.9-8.6,6.1-12.3c2.1-3.7,4-6.9,5.7-9.3c-2,0.9-4.7,1.8-7.9,2.7c-3.3,0.9-6.9,1.4-10.8,1.4
				c-1,0-2.1-0.2-3.3-0.5c-1.2-0.4-2.3-1.2-3.4-2.4c-1.1-1.2-2-3-2.7-5.3c-0.7-2.3-1.1-5.3-1.1-9c0-5.4,0.9-10.3,2.7-14.8
				c1.8-4.5,4-8.3,6.6-11.6c2.6-3.2,5.5-5.8,8.4-7.6c3-1.8,5.6-2.7,8-2.7c2.6,0,4.7,0.8,6.6,2.3c1.8,1.6,2.7,3.7,2.7,6.6
				c0,1.4-0.3,2.9-0.8,4.7s-1.3,3.7-2.2,5.7c-0.9,2-1.9,4-3.1,6.1c-1.1,2.1-2.3,4-3.5,6c-2.8,4.6-6,9.3-9.5,14.2
				c3.4-1.7,6.5-3.4,9.5-4.9c2.5-1.3,4.8-2.5,7.1-3.7c2.3-1.2,3.8-2,4.5-2.5c0.9-0.5,1.8-1.1,2.7-1.7c0.9-0.6,2-0.4,3.2,0.5
				c0.5,0.5,1.5,1.3,2.9,2.5c1.4,1.2,2.6,2.6,3.7,4.1c1.1,1.6,1.8,3.2,2.1,5c0.3,1.8-0.3,3.5-1.8,5.3c-1.6,1.8-3.7,4.7-6.5,8.5
				c-2.8,3.8-5.5,8.3-8.2,13.4c-2.7,5.1-5,10.5-7,16.4c-2,5.9-2.9,11.8-2.9,17.7c0,5.9,0.7,10.8,2.2,14.7c1.5,3.8,3.2,6.9,5.3,9
				c2.1,2.2,4.4,3.7,6.8,4.6c2.5,0.9,4.7,1.3,6.7,1.3c4.1,0,7.2-0.7,9.2-2C475.7,255.3,477,254,477.8,252.7z M428.6,159
				c0,1.3,0.1,2.4,0.3,3.2c0.2,0.9,0.5,1.6,0.9,2.3c0.4,0.7,0.8,1.4,1.2,1.9c2-3.7,4-7.1,5.9-10.4s3.5-6.2,4.7-8.8
				c1.2-2.6,2-4.6,2.4-6.1c0.4-1.5,0-2.3-1.2-2.3c-1.2,0-2.6,0.7-4.2,2.2c-1.6,1.5-3.2,3.2-4.7,5.3c-1.5,2.1-2.8,4.3-3.8,6.6
				C429.1,155.3,428.6,157.3,428.6,159z M517.9,175.6c0.5-0.7,1.1-1.2,1.8-1.4c0.6-0.2,1.2-0.1,1.7,0.1c0.5,0.3,0.8,0.8,0.8,1.5
				c0,0.7-0.3,1.6-1,2.7c-0.5,0.7-1.6,2.4-3.5,4.9c-1.9,2.5-4.1,5.4-6.8,8.8c-2.7,3.3-5.6,6.9-8.8,10.6c-3.2,3.7-6.4,7.2-9.6,10.3
				c-3.2,3.1-6.3,5.7-9.2,7.7c-2.9,2-5.4,3-7.5,3c-2.7,0-4.8-0.6-6.4-1.8c-1.6-1.2-2.9-2.8-3.8-4.7c-0.9-1.9-1.5-3.9-1.8-6.1
				c-0.3-2.2-0.3-4.2-0.1-6c0.2-2.5,1.1-5.3,2.7-8.6c1.6-3.2,3.6-6.7,5.8-10.5c2.2-3.7,4.5-7.6,6.8-11.7c2.3-4.1,4.3-8.2,6-12.3
				c0.3-0.6,0.5-1.3,0.5-2.1c0.1-0.7,0.2-1.4,0.4-2c0.2-0.6,0.5-1.1,0.8-1.4c0.4-0.4,1-0.5,1.8-0.5c0.8,0,1.8,0.3,2.9,1
				c1.1,0.7,2.1,1.7,3,3c0.9,1.3,1.6,3,2.2,5c0.5,2,0.7,4.3,0.4,7c-0.2,1.8-1.1,4.2-2.6,7.1c-1.6,2.9-3.4,6-5.4,9.2
				c-2.1,3.3-4.1,6.6-6.2,9.9c-2.1,3.3-3.7,6.4-4.9,9.1c-1.2,2.7-1.7,5-1.6,6.6c0.1,1.7,1.4,2.5,3.8,2.5c1,0,3-1.3,6-3.8
				c3-2.6,6.3-5.8,10-9.8c3.7-4,7.5-8.4,11.5-13.2C511.4,185,514.9,180.2,517.9,175.6z M504.1,152.1c-0.8,0-1.7-0.3-2.7-1
				c-1-0.7-1.8-1.7-2.7-3.1s-1.5-3-2-5c-0.5-2-0.6-4.2-0.3-6.6c0.2-2.5,0.7-4.6,1.5-6.3c0.8-1.7,1.7-3.1,2.7-4.1
				c1-1,2.1-1.7,3.2-2.2c1.1-0.5,2.1-0.7,2.9-0.7s1.9,0.3,3.4,0.8c1.4,0.5,2.8,1.2,4.2,2c1.4,0.8,2.5,1.8,3.5,2.8
				c1,1.1,1.4,2.2,1.3,3.4c-0.1,1.2-0.4,2.2-1,2.9c-0.5,0.8-1.2,1.6-2.1,2.4c-0.8,0.8-1.7,1.8-2.7,2.9c-1,1.1-2.1,2.6-3.2,4.5
				c-1.1,1.8-1.9,3.2-2.5,4.2c-0.5,1-1,1.7-1.4,2.2c-0.4,0.5-0.7,0.7-1,0.8C505,152.1,504.6,152.1,504.1,152.1z"/>
		</g>
	</g>
</g>
</svg>
