<svg xmlns="http://www.w3.org/2000/svg" xmlns:xlink="http://www.w3.org/1999/xlink" viewBox="0 0 500 500"><defs><style>.cls-1,.cls-4,.cls-5{fill:none;}.cls-2{fill:#222221;}.cls-3{clip-path:url(#clip-path);}.cls-4{stroke:#a5a5a5;}.cls-4,.cls-5{stroke-linecap:round;stroke-linejoin:round;}.cls-5{stroke:#fff;stroke-width:3px;}.cls-6{fill:#fff;}</style><clipPath id="clip-path"><rect class="cls-1" width="500" height="500"/></clipPath></defs><title>map</title><g id="BACKGROUND"><rect class="cls-2" width="500" height="500"/></g><g id="OBJECTS"><g class="cls-3"><circle class="cls-4" cx="85.91" cy="31.7" r="19.73" transform="translate(-5.57 35.75) rotate(-22.79)"/><circle class="cls-4" cx="85.91" cy="31.7" r="13.54"/><polyline class="cls-4" points="13.07 259.48 2.21 250.65 -1.23 254.4"/><line class="cls-4" x1="-0.06" y1="256.26" x2="5.43" y2="260.91"/><polyline class="cls-4" points="2.69 267.23 -1.85 262.34 2.32 258.27"/><polygon class="cls-4" points="16.23 236.09 13.37 233.81 4.92 240.27 8 245.64 16.23 236.09"/><line class="cls-4" x1="13.86" y1="223.53" x2="23.51" y2="236.09"/><line class="cls-4" x1="23.51" y1="215.6" x2="33.18" y2="224.88"/><line class="cls-4" x1="19.22" y1="230.51" x2="28.34" y2="220.24"/><line class="cls-4" x1="18.43" y1="219.43" x2="4.67" y2="212.59"/><line class="cls-4" x1="27.2" y1="213.89" x2="8.73" y2="205.06"/><line class="cls-4" x1="5.61" y1="210.79" x2="-8.46" y2="205.06"/><line class="cls-4" x1="14.66" y1="189.25" x2="-8.46" y2="211.85"/><path class="cls-4" d="M9.65,185.38a11.52,11.52,0,0,0,1.9,6.33"/><polyline class="cls-4" points="-8.46 173.96 3.11 173.96 3.56 182.76 -8.63 193.22"/><polyline class="cls-4" points="8.72 175.6 3.38 179.18 -2.14 179.18 -2.98 172.38"/><path class="cls-4" d="M-8.46,160.25s11.07,4.81,11.33,9.53"/><line class="cls-4" x1="13.44" y1="167.99" x2="-8.46" y2="145.93"/><polyline class="cls-4" points="-8.46 139.82 14.66 145.41 75.03 147.87"/><path class="cls-4" d="M2.87,142.65l1.26-5.33s16.28-15.89,19.26-19.95S50.12,78.71,50.12,78.71L70.56,44.1"/><line class="cls-4" x1="42.9" y1="122.61" x2="3.77" y2="86.46"/><line class="cls-4" x1="-8.46" y1="72.99" x2="3.43" y2="84.44"/><line class="cls-4" x1="-8.46" y1="94.09" x2="3.43" y2="84.44"/><line class="cls-4" x1="-8.46" y1="111.17" x2="3.43" y2="84.44"/><polyline class="cls-4" points="-2.07 51.89 54.65 42.44 62.27 35.6"/><line class="cls-4" x1="60.06" y1="48.94" x2="54.65" y2="42.44"/><polyline class="cls-4" points="56.84 91.7 49.28 93.38 3.43 84.44 15.44 59.59"/><polyline class="cls-4" points="-8.46 121.11 11.19 130.32 39.42 130.32"/><line class="cls-4" x1="22.6" y1="118.36" x2="40.27" y2="128.49"/><line class="cls-4" x1="34.92" y1="100.8" x2="48.67" y2="108.92"/><line class="cls-4" x1="22.6" y1="88.18" x2="18.43" y2="100"/><polyline class="cls-4" points="3.56 50.95 15.44 59.59 22.6 72.99"/><line class="cls-4" x1="13.44" y1="58.14" x2="22.32" y2="51.89"/><polyline class="cls-4" points="26.19 70.69 32.74 79.22 40.27 73.97"/><polyline class="cls-4" points="36.86 45.69 38.57 47.6 37.72 50.95"/><polyline class="cls-4" points="42.2 45.24 41.8 48.94 38.23 48.94"/><line class="cls-4" x1="49.25" y1="55.88" x2="41.8" y2="48.94"/><polyline class="cls-4" points="11.61 113.17 15.03 113.17 15.03 108.18"/><polyline class="cls-4" points="-8.46 13.54 19.41 -0.57 25.09 34.32"/><polyline class="cls-4" points="-8.46 40.3 42.48 34.32 45.52 31.7 50.22 32.98 56.84 18.08"/><line class="cls-4" x1="-8.46" y1="14.49" x2="9.95" y2="38.09"/><polyline class="cls-4" points="-0.89 39.58 9.95 18.08 4.53 14.49 -8.46 17.76"/><line class="cls-4" x1="19.41" y1="-0.58" x2="9.95" y2="18.08"/><polyline class="cls-4" points="24.42 30.19 33.23 18.16 45.52 31.7"/><polyline class="cls-4" points="52.86 27.03 45.52 24.93 42.48 20.81 46.78 13.13"/><polyline class="cls-4" points="31.3 -8.52 33.23 6.38 57.37 -8.52"/><line class="cls-4" x1="41.47" y1="-8.52" x2="33.23" y2="6.38"/><polyline class="cls-4" points="52.55 15.97 66.17 -5.5 82.98 26.02 81.36 -8.52"/><polyline class="cls-4" points="72.36 6.11 81.36 -8.52 96.43 11.32"/><line class="cls-4" x1="99.45" y1="5.46" x2="86.81" y2="-8.52"/><polyline class="cls-4" points="42.9 0.75 48.67 4.12 52.55 0.75"/><polyline class="cls-4" points="32.01 146.12 46.02 160.58 65.2 137.32 55.08 95.38"/><polyline class="cls-4" points="43.65 120.87 65.2 137.32 90.27 113.17"/><polyline class="cls-4" points="73.08 129.72 69.52 106.35 71.82 100 89.95 88.18 123.94 49.61 136.5 23.51"/><polyline class="cls-4" points="44.69 118.36 65.2 103.86 89.81 115.05"/><polyline class="cls-4" points="90.88 108.42 67.76 99.19 87.85 57.41"/><polyline class="cls-4" points="87.37 50.95 64.03 97.2 56.04 93.38 19.41 48.31"/><line class="cls-4" x1="67.76" y1="99.2" x2="65.2" y2="103.86"/><polyline class="cls-4" points="69.52 64.26 80.06 68.57 89.26 77.56"/><line class="cls-4" x1="73.06" y1="88.18" x2="99.45" y2="66.08"/><polyline class="cls-4" points="88.47 66.08 106.3 66.08 124.44 68.41 131.27 86.45 118.95 100 94.14 136.42"/><line class="cls-4" x1="94.59" y1="82.92" x2="116.96" y2="102.92"/><line class="cls-4" x1="98.75" y1="78.19" x2="109.87" y2="88.18"/><polyline class="cls-4" points="90.27 111.11 112.21 85.21 115.46 81.39 128.27 61.97 132.66 53.81"/><line class="cls-4" x1="136.5" y1="80.56" x2="112.21" y2="85.21"/><polyline class="cls-4" points="89.26 37.13 108.3 70.91 122.94 119.17 127.39 145.14 129.6 159.61"/><polyline class="cls-4" points="89.26 116.92 109.87 134.98 119.95 145 124.36 160.58"/><polyline class="cls-4" points="125.54 134.3 113.61 120.15 108.7 115.05 93.86 106.88"/><polyline class="cls-4" points="106.81 145.61 106.81 135.64 121.61 126.47"/><line class="cls-4" x1="126.05" y1="137.32" x2="106.81" y2="135.64"/><polyline class="cls-4" points="96.88 50.64 101.98 48.94 144.08 72.99"/><polyline class="cls-4" points="140.29 78.19 145.58 71.9 150.49 62.42"/><line class="cls-4" x1="158.03" y1="66.08" x2="146.94" y2="84.44"/><polyline class="cls-4" points="64.25 178.38 92.82 155.46 96.88 165.79"/><line class="cls-4" x1="155.21" y1="196.26" x2="164.93" y2="223.2"/><polyline class="cls-4" points="174.31 179.19 174.31 196.26 181.94 217.17"/><polyline class="cls-4" points="195.67 213.63 187.6 196.26 181.16 178.8"/><polyline class="cls-4" points="144.24 185.09 174.31 188.26 185.11 189.5 207.86 188.26"/><line class="cls-4" x1="207.86" y1="177.31" x2="209.65" y2="211.09"/><line class="cls-4" x1="211.44" y1="177.31" x2="213.28" y2="196.26"/><line class="cls-4" x1="192.01" y1="189.13" x2="192.01" y2="178.2"/><line class="cls-4" x1="197.91" y1="177.88" x2="199.41" y2="188.72"/><polyline class="cls-4" points="226.79 175.78 225.14 210.79 222.43 230.51"/><line class="cls-4" x1="217.17" y1="178.8" x2="226.65" y2="178.8"/><polyline class="cls-4" points="157.64 226.32 141.08 215.6 153.18 212.59"/><line class="cls-4" x1="144.24" y1="232.83" x2="141.08" y2="215.6"/><line class="cls-4" x1="139.4" y1="235.44" x2="151.33" y2="258.34"/><line class="cls-4" x1="148.8" y1="230.5" x2="159.54" y2="254.17"/><line class="cls-4" x1="173.31" y1="245.64" x2="168.93" y2="238.37"/><polyline class="cls-4" points="171.57 220.24 179.6 241.92 189.41 271.57"/><line class="cls-4" x1="190.6" y1="214.79" x2="194.71" y2="236.52"/><line class="cls-4" x1="198.12" y1="236.02" x2="193.49" y2="214.11"/><line class="cls-4" x1="203.67" y1="212.18" x2="207.86" y2="235.44"/><line class="cls-4" x1="155.21" y1="264.9" x2="187.99" y2="251.75"/><line class="cls-4" x1="170.38" y1="265.52" x2="185.65" y2="260.2"/><line class="cls-4" x1="175.36" y1="244.4" x2="178.02" y2="255.44"/><line class="cls-4" x1="184.4" y1="239.31" x2="192.66" y2="267.95"/><polyline class="cls-4" points="190.6 237.32 192.01 246.89 194.71 253.63 196 264.21 201.48 267.95 190.6 286.94"/><polyline class="cls-4" points="200.51 235.73 202.45 246.23 201.48 251.84 202.45 257.01"/><polyline class="cls-4" points="212.36 245.94 212.36 255.44 209.65 288.86 210 295.79 217.11 311.26"/><line class="cls-4" x1="201.48" y1="267.95" x2="212.36" y2="255.44"/><line class="cls-4" x1="210.7" y1="275.97" x2="197.91" y2="274.18"/><line class="cls-4" x1="201.48" y1="288.04" x2="201.48" y2="274.68"/><line class="cls-4" x1="210.54" y1="277.95" x2="229.21" y2="277.95"/><line class="cls-4" x1="254.75" y1="281.36" x2="247.66" y2="280.29"/><line class="cls-4" x1="257.03" y1="260.2" x2="243.79" y2="260.2"/><polyline class="cls-4" points="238.63 231.49 237.35 247.69 249.96 247.69 249.28 255.44"/><line class="cls-4" x1="257.85" y1="252.62" x2="249.28" y2="251.75"/><polyline class="cls-4" points="249.96 247.69 252.01 233.93 254.75 211.79 255.81 199.93 257.85 186.78 257.03 171.67"/><polyline class="cls-4" points="258.5 235.73 259.23 226.32 253.03 225.66"/><line class="cls-4" x1="301.69" y1="193.57" x2="298.84" y2="203.15"/><line class="cls-4" x1="290.16" y1="198.18" x2="299.48" y2="200.99"/><line class="cls-4" x1="293.64" y1="190.05" x2="301.25" y2="195.05"/><polyline class="cls-4" points="371.51 317.12 378.99 304.81 387.73 281.36 399.32 256.5 413.14 231.49"/><polyline class="cls-4" points="407.65 242 339.35 210.79 303.13 195.34"/><polyline class="cls-4" points="335.01 195.34 325.01 215.12 318.07 232.83"/><polyline class="cls-4" points="343.34 200.35 331.8 218.74 325.37 230.69"/><polyline class="cls-4" points="353.57 217.29 350.56 225.06 402.95 249.92"/><polyline class="cls-4" points="358.28 252.19 371.51 249.99 387.09 220.24"/><line class="cls-4" x1="387.09" y1="242.4" x2="390.89" y2="238.37"/><polyline class="cls-4" points="387.79 249.92 382.93 269.14 376.17 275.97"/><line class="cls-4" x1="391.08" y1="274.18" x2="382.93" y2="269.14"/><line class="cls-4" x1="328.86" y1="236.09" x2="342.23" y2="224.42"/><path class="cls-4" d="M281.47,201.85s0,4.47,2.36,4.47,4.16-4.27,4.16-4.27l8-17"/><polyline class="cls-4" points="283.83 206.32 282.91 216.26 278.35 242.33 272.43 266.54 298.84 275.97 333.1 289.5 359.42 299.22"/><polyline class="cls-4" points="279.49 260.2 282.91 244.4 294.82 220.21"/><line class="cls-4" x1="282.22" y1="220.21" x2="292.14" y2="225.65"/><line class="cls-4" x1="300.07" y1="222.46" x2="287.94" y2="246.89"/><polyline class="cls-4" points="322.11 235.73 309.53 257.01 298.84 275.97 292.14 300.9 291.06 316.41 274.1 315.51 282.22 270.04"/><line class="cls-4" x1="338.85" y1="249.92" x2="327.35" y2="267.95"/><line class="cls-4" x1="297.44" y1="227.74" x2="319.47" y2="239.31"/><polyline class="cls-4" points="349.3 283.12 365.93 293.32 386.34 312.9"/><line class="cls-4" x1="356.38" y1="315.51" x2="362.11" y2="290.97"/><line class="cls-4" x1="364.92" y1="292.7" x2="378.99" y2="277.39"/><line class="cls-4" x1="339.14" y1="317.5" x2="355.12" y2="309.54"/><polyline class="cls-4" points="295.97 285.04 290.16 285.04 292.14 273.58"/><line class="cls-4" x1="292.14" y1="300.9" x2="277.01" y2="299.22"/><polyline class="cls-4" points="344.71 263.98 327.35 253.63 333.1 243.46"/><line class="cls-4" x1="348.37" y1="280.82" x2="357.43" y2="267.95"/><line class="cls-4" x1="441.61" y1="292.23" x2="415.48" y2="282.1"/><line class="cls-4" x1="443.24" y1="258" x2="420.37" y2="256.5"/><polyline class="cls-4" points="407.65 288.93 409.34 276.07 416.88 265.52 444.41 266.75"/><line class="cls-4" x1="440.63" y1="280.29" x2="430.46" y2="296.44"/><line class="cls-4" x1="436.59" y1="277.95" x2="432.85" y2="285.04"/><polyline class="cls-4" points="355.39 257.25 368.6 265.52 371.51 260.2"/><line class="cls-4" x1="363.45" y1="258" x2="358.28" y2="264.95"/><line class="cls-4" x1="384.11" y1="310.77" x2="398.31" y2="285.56"/><polyline class="cls-4" points="406.81 299.22 391.08 298.4 399.91 309.99"/><polyline class="cls-4" points="411.31 323.51 393.22 320.42 381.98 313.52 377.87 322.61 361.02 338.56 335.5 361.8 292.59 397.38 280.14 411.78 270.48 430 264.55 437.56 245.73 448.85"/><polyline class="cls-4" points="491.59 429.31 477.16 424.25 449.57 415.2 409.88 414.17 404.27 405.8 406.61 360.33"/><polyline class="cls-4" points="359.59 331.29 365.08 334.72 404.27 405.8 390.38 419.01 380.72 442.43"/><path class="cls-4" d="M481.17,275a44.11,44.11,0,0,0-9.73,20.6"/><line class="cls-4" x1="474.55" y1="285.56" x2="464.81" y2="280.29"/><line class="cls-4" x1="477.34" y1="280.29" x2="468.84" y2="271.66"/><line class="cls-4" x1="482.45" y1="297.19" x2="488.11" y2="285.32"/><line class="cls-4" x1="493.66" y1="288.93" x2="488.24" y2="298.01"/><polyline class="cls-4" points="503.95 292.7 496.76 299.22 483.37 309.54"/><polyline class="cls-4" points="484.58 308.6 492.21 313.52 498.41 317.12"/><line class="cls-4" x1="483.37" y1="302.2" x2="475.54" y2="303.24"/><path class="cls-4" d="M475.54,306.36s-.63-6.91.76-10.05"/><path class="cls-4" d="M473.09,307.87,458.5,293.79l38.26,5.43s3.49,4.44-1.71,10.77a162.94,162.94,0,0,0-14.11,19.85s-11.59-9.76-12.1-12.34,5-5,5-5"/><polyline class="cls-4" points="461.51 321.5 468.84 317.5 469.5 315.51 432.06 299.44"/><line class="cls-4" x1="416.17" y1="306.84" x2="416.17" y2="324.06"/><polyline class="cls-4" points="410.79 324.73 427.97 323.6 441.61 321.5 454.45 321.5"/><line class="cls-4" x1="434.72" y1="349.68" x2="432.85" y2="323.12"/><line class="cls-4" x1="426.03" y1="352.97" x2="424.15" y2="323.85"/><polyline class="cls-4" points="419.33 355.51 418.6 338.56 425.09 338.41"/><line class="cls-4" x1="447.27" y1="351.91" x2="444.57" y2="304.81"/><polyline class="cls-4" points="455.51 317.5 428.55 318.84 428.55 308.1 444.57 306.84"/><line class="cls-4" x1="435.54" y1="300.94" x2="435.54" y2="307.55"/><line class="cls-4" x1="428.55" y1="308.1" x2="428.31" y2="303.08"/><polyline class="cls-4" points="422.88 304.81 422.88 315.45 416.18 316.41"/><line class="cls-4" x1="447.93" y1="317.88" x2="449.57" y2="306.96"/><line class="cls-4" x1="458.5" y1="317.24" x2="458.5" y2="340.05"/><polyline class="cls-4" points="453.35 342.43 461.32 343.02 491.04 336.4"/><polyline class="cls-4" points="483.37 355.51 460.86 354.34 461.51 338.56 465.28 328.64"/><polyline class="cls-4" points="481.66 360.92 491.04 369.35 502.04 375.94"/><polyline class="cls-4" points="477.86 396.81 491.04 369.35 494.47 357.25 497.91 348.23"/><polyline class="cls-4" points="496.54 337.62 487.88 359.33 493.21 361.68"/><line class="cls-4" x1="494.3" y1="357.85" x2="489.13" y2="356.2"/><polyline class="cls-4" points="484.1 383.81 491.85 386.98 495.36 391.49"/><line class="cls-4" x1="497.45" y1="373.19" x2="491.85" y2="386.97"/><line class="cls-4" x1="508.52" y1="397.38" x2="496.54" y2="390.27"/><line class="cls-4" x1="508.52" y1="412.12" x2="490.14" y2="406.92"/><line class="cls-4" x1="493.51" y1="398.15" x2="484.1" y2="394.82"/><line class="cls-4" x1="474.09" y1="423.24" x2="477.86" y2="413.34"/><polyline class="cls-4" points="463.7 419.84 462.67 449.08 448.94 477.08 438.68 490.93"/><line class="cls-4" x1="450.33" y1="447.44" x2="477.34" y2="458.71"/><polyline class="cls-4" points="455.78 479.58 475.98 439.83 508.46 459.7"/><line class="cls-4" x1="469.69" y1="479.58" x2="458.03" y2="475.16"/><polyline class="cls-4" points="463.7 430 475.98 436.13 475.98 439.83"/><line class="cls-4" x1="478.56" y1="424.74" x2="469.69" y2="432.99"/><line class="cls-4" x1="463.53" y1="424.74" x2="473.65" y2="429.31"/><polyline class="cls-4" points="481.37 434.91 495.36 437.17 508.52 439.36"/><polyline class="cls-4" points="492.34 491.53 505.34 467.36 478.66 454.5"/><line class="cls-4" x1="498.4" y1="466.55" x2="503.95" y2="469.95"/><polyline class="cls-4" points="501.15 475.15 490.77 469.94 482.7 488.56"/><polyline class="cls-4" points="496.98 482.9 477.86 474.29 483.9 485.79"/><line class="cls-4" x1="495.43" y1="485.79" x2="485.8" y2="481.42"/><line class="cls-4" x1="492" y1="480.66" x2="495.43" y2="472.28"/><line class="cls-4" x1="488.88" y1="474.29" x2="498.95" y2="479.25"/><line class="cls-4" x1="458.03" y1="425.73" x2="449.1" y2="426.31"/><path class="cls-4" d="M449.57,415.2l-1.64,39s.39,5.49-4.93,5.5-4.32-7.5-4.32-7.5L439.76,415"/><polyline class="cls-4" points="354.53 345.92 356.49 348.35 357.94 375.44 366.79 399 375.69 405.8 390.38 419.01 397.09 430 398.71 435.78 406.69 448.85 423.57 436.91 453.7 437.94"/><line class="cls-4" x1="377.75" y1="430" x2="390.38" y2="419.01"/><line class="cls-4" x1="385" y1="414.17" x2="375.79" y2="421.39"/><polyline class="cls-4" points="383.44 435.83 386.1 436.36 395.27 427.02"/><line class="cls-4" x1="398.71" y1="435.78" x2="389.36" y2="442.03"/><line class="cls-4" x1="404.27" y1="444.9" x2="400.56" y2="450.82"/><line class="cls-4" x1="417.79" y1="446.54" x2="410.27" y2="453.07"/><line class="cls-4" x1="405.42" y1="427.02" x2="397.09" y2="430"/><polyline class="cls-4" points="402.42 419.84 409.88 414.17 423.57 436.91 425.89 439.83 443.54 466.57 442.47 469.61 410.27 453.07 406.69 448.85"/><line class="cls-4" x1="435.95" y1="414.95" x2="435.95" y2="422.25"/><line class="cls-4" x1="416.37" y1="462.8" x2="391.98" y2="486.67"/><line class="cls-4" x1="425.71" y1="467.38" x2="395.27" y2="499.11"/><polyline class="cls-4" points="401.49 477.37 404.72 480.04 393.26 491.53"/><line class="cls-4" x1="405.93" y1="473.01" x2="412.24" y2="481.42"/><polyline class="cls-4" points="417.79 475.63 431.67 485.79 438.68 488.56"/><polyline class="cls-4" points="430.87 485.2 426.44 491.99 415.02 485.05 419.96 477.21"/><line class="cls-4" x1="423.19" y1="479.58" x2="418.92" y2="487.42"/><line class="cls-4" x1="440.44" y1="488.56" x2="441.15" y2="508.99"/><line class="cls-4" x1="442.88" y1="508.96" x2="454.4" y2="479.08"/><line class="cls-4" x1="467.07" y1="508.96" x2="472.88" y2="485.41"/><line class="cls-4" x1="471.45" y1="508.96" x2="479.1" y2="487.42"/><line class="cls-4" x1="504.96" y1="508.96" x2="462.67" y2="491.99"/><line class="cls-4" x1="447.34" y1="508.99" x2="459.2" y2="480.04"/><line class="cls-4" x1="393.26" y1="467.38" x2="388.86" y2="474.74"/><line class="cls-4" x1="395.27" y1="452.05" x2="385.8" y2="462.8"/><polyline class="cls-4" points="401.25 309.72 401.45 321.82 397.09 392.77"/><polyline class="cls-4" points="371.51 399.25 384.11 388.72 394.86 388.72"/><polyline class="cls-4" points="405.6 380.08 388.76 377.66 369.07 382.58"/><polyline class="cls-4" points="380.4 370.26 386.34 378.27 384.11 388.72"/><polyline class="cls-4" points="392.32 378.17 393.83 365.17 390.89 324.06"/><line class="cls-4" x1="400.95" y1="329.84" x2="391.3" y2="329.84"/><line class="cls-4" x1="409.21" y1="338.41" x2="382.73" y2="336.78"/><line class="cls-4" x1="368.6" y1="341.1" x2="380.63" y2="340.05"/><line class="cls-4" x1="392.72" y1="349.68" x2="408.2" y2="346.96"/><line class="cls-4" x1="358.77" y1="377.66" x2="367.22" y2="371.85"/><line class="cls-4" x1="361.89" y1="385.96" x2="368.66" y2="380.12"/><polyline class="cls-4" points="381.3 444.8 340.37 454.5 336.24 422.25"/><polygon class="cls-4" points="339.71 455.74 323.3 446.62 313.21 454.5 315.18 462.8 335.94 462.8 339.71 455.74"/><line class="cls-4" x1="329.03" y1="449.81" x2="326.46" y2="462.8"/><line class="cls-4" x1="333.46" y1="462.8" x2="328.06" y2="454.71"/><polyline class="cls-4" points="360.18 449.81 364.28 466.57 382.78 450.82"/><line class="cls-4" x1="374.41" y1="414.95" x2="359.59" y2="433.4"/><line class="cls-4" x1="359.59" y1="418.6" x2="366.73" y2="424.5"/><polyline class="cls-4" points="363.51 428.51 367.78 431.69 364.09 435.78"/><line class="cls-4" x1="377.75" y1="431.69" x2="370.12" y2="438.95"/><polyline class="cls-4" points="339.71 455.74 385 479.58 371.87 508.96"/><polyline class="cls-4" points="362.94 508.96 377.75 479.08 347.01 462.8 323.99 506.21"/><line class="cls-4" x1="374.41" y1="485.89" x2="343.4" y2="469.61"/><line class="cls-4" x1="362.35" y1="471.06" x2="341.33" y2="508.99"/><line class="cls-4" x1="335.88" y1="483.79" x2="367" y2="501"/><polygon class="cls-4" points="361.06 489.14 348.37 482.09 340.96 495.18 354.1 502.17 361.06 489.14"/><polyline class="cls-4" points="314.08 471.06 284.74 507.21 320.08 492.49 369.07 400.75"/><polygon class="cls-4" points="278.92 498.23 302.48 468.47 289.44 458.75 269.07 483.79 278.92 498.23"/><line class="cls-4" x1="273.6" y1="490.43" x2="295.91" y2="463.57"/><polygon class="cls-4" points="288.76 465.26 295.91 471.06 289.78 478.49 282.81 472.39 288.76 465.26"/><line class="cls-4" x1="329.56" y1="474.74" x2="319.75" y2="477.37"/><line class="cls-4" x1="327.24" y1="479.08" x2="333.46" y2="478.49"/><line class="cls-4" x1="266.99" y1="461.49" x2="256.29" y2="442.51"/><polyline class="cls-4" points="285.87 452.52 270.48 430 284.75 433.4 304.53 427.02"/><line class="cls-4" x1="260.97" y1="450.82" x2="250.05" y2="456.3"/><line class="cls-4" x1="258.02" y1="421.55" x2="264.55" y2="437.56"/><line class="cls-4" x1="266.09" y1="418.01" x2="271.26" y2="428.51"/><line class="cls-4" x1="275.47" y1="420.59" x2="279.11" y2="428.51"/><line class="cls-4" x1="278.46" y1="414.95" x2="282.81" y2="424.55"/><line class="cls-4" x1="251.23" y1="445.55" x2="246.66" y2="435.32"/><polyline class="cls-4" points="241.38 441.19 252.7 436.36 248.95 425.52"/><polyline class="cls-4" points="303.79 403.52 356.38 378.17 345.19 352.97 335.25 338.41 328.86 317.12 331.48 288.86 339.14 274.68"/><line class="cls-4" x1="349.3" y1="349.23" x2="339.14" y2="335.65"/><polyline class="cls-4" points="327.74 343.86 338.15 359.38 351 380.77"/><polyline class="cls-4" points="344.22 396.85 336.95 394.82 334.5 388.72 323.3 371.92"/><polyline class="cls-4" points="331.43 365.17 336.24 373.31 344.14 369.35"/><line class="cls-4" x1="341.63" y1="365.17" x2="333.9" y2="369.35"/><line class="cls-4" x1="300.86" y1="363.97" x2="312.12" y2="381.19"/><line class="cls-4" x1="294.46" y1="368.66" x2="306.37" y2="385.96"/><line class="cls-4" x1="284.74" y1="375.29" x2="296.69" y2="393.98"/><line class="cls-4" x1="330.08" y1="390.85" x2="336.24" y2="409.29"/><polyline class="cls-4" points="269.07 483.79 252.7 487.78 227.79 488.96 211.44 478.49 163.96 377.9"/><line class="cls-4" x1="239.42" y1="465.26" x2="253.54" y2="474.74"/><polyline class="cls-4" points="255.08 464.63 252.7 487.78 240.13 508.99"/><line class="cls-4" x1="255.08" y1="498.23" x2="248.95" y2="493.89"/><polyline class="cls-4" points="219.17 483.44 215.99 486.76 223.76 497.18"/><polyline class="cls-4" points="222.46 499.83 211.44 500.98 199.35 493.89 177.81 458.75"/><line class="cls-4" x1="185.3" y1="455.27" x2="202.83" y2="488.96"/><line class="cls-4" x1="209.32" y1="473.99" x2="186.57" y2="488.17"/><line class="cls-4" x1="194.51" y1="500.98" x2="170.45" y2="462.15"/><polyline class="cls-4" points="178.25 474.74 168.65 481.48 159.53 488.96"/><line class="cls-4" x1="178.25" y1="504.32" x2="190.3" y2="494.18"/><line class="cls-4" x1="347.13" y1="294.68" x2="341.63" y2="309.54"/><line class="cls-4" x1="333.16" y1="304.81" x2="343.09" y2="305.59"/><line class="cls-4" x1="339.37" y1="300.06" x2="344.71" y2="300.9"/><line class="cls-4" x1="303.79" y1="361.78" x2="289.3" y2="316.32"/><line class="cls-4" x1="264.75" y1="315.82" x2="270.36" y2="342.44"/><polyline class="cls-4" points="294.71 333.28 282.81 336.78 257.29 348.32 236.44 354.57 225.6 355.36"/><line class="cls-4" x1="291.55" y1="370.74" x2="279.2" y2="338.41"/><line class="cls-4" x1="286.63" y1="335.65" x2="297.22" y2="366.66"/><line class="cls-4" x1="298.38" y1="344.79" x2="290.49" y2="346.96"/><line class="cls-4" x1="263.43" y1="367.26" x2="276" y2="362.82"/><line class="cls-4" x1="265.86" y1="374.76" x2="279.2" y2="369.35"/><polygon class="cls-4" points="281.28 343.86 276 345.88 279.9 356.15 285.38 354.28 281.28 343.86"/><line class="cls-4" x1="282.81" y1="347.75" x2="277.44" y2="349.68"/><polygon class="cls-4" points="299.47 334.33 302.8 334.33 304.28 337.93 307.46 335.03 311.77 334.33 311.77 335.32 319.62 333.28 320.97 332.91 322.11 333.69 322.11 337.58 325.49 336.31 326.06 341.1 317.22 348.32 316.87 343.86 313.61 344.23 313.61 346.96 311.14 346.96 308.88 348.32 306.05 349.23 302.8 348.32 299.47 334.33"/><line class="cls-4" x1="307.77" y1="319.89" x2="308.6" y2="331.29"/><line class="cls-4" x1="303.42" y1="319.89" x2="304.5" y2="332.91"/><line class="cls-4" x1="300.6" y1="327.11" x2="308.18" y2="325.13"/><line class="cls-4" x1="311.28" y1="320.4" x2="312.76" y2="322.96"/><path class="cls-4" d="M317.1,326.16a3.3,3.3,0,1,1-3.29-3.3A3.29,3.29,0,0,1,317.1,326.16Z"/><path class="cls-4" d="M301.3,290.11l-1.83,10.79h-2.92s-2,10.11-.58,11.51,5.13,3.22,6.23,1.11.63-3.91,1.76-3.51,5.48,1.7,6.55,1.4,5.78,5.24,8.68,3,3.7-11.17,1.3-11.87-7.62-3-9.21-1.61.79,8.87-2.6,8.64-3.77-3.13-3.48-7.23,2.29-10.9.9-12.2S302.5,288.41,301.3,290.11Z"/><path class="cls-4" d="M299.47,300.9s1.19,2,5.71,1.83"/><line class="cls-4" x1="316.44" y1="301.17" x2="315.93" y2="314.57"/><path class="cls-4" d="M310.09,308.87a23,23,0,0,0,11.35,1.23"/><line class="cls-4" x1="260.16" y1="387.62" x2="246.66" y2="351.51"/><line class="cls-4" x1="249.96" y1="392.32" x2="236.44" y2="354.57"/><line class="cls-4" x1="261.83" y1="362.31" x2="231.36" y2="374.76"/><line class="cls-4" x1="188" y1="334.52" x2="247.66" y2="393.37"/><line class="cls-4" x1="242.03" y1="395.93" x2="188" y2="334.52"/><polyline class="cls-4" points="203.52 389.89 198.17 373.45 215.99 366.29"/><line class="cls-4" x1="221.06" y1="372.05" x2="200.19" y2="379.64"/><line class="cls-4" x1="225.08" y1="376.64" x2="202.45" y2="384.99"/><line class="cls-4" x1="223.49" y1="383.81" x2="204.19" y2="390.68"/><line class="cls-4" x1="223.49" y1="390.68" x2="208.26" y2="395.49"/><line class="cls-4" x1="209.26" y1="368.99" x2="217.65" y2="392.32"/><polyline class="cls-4" points="203.51 371.3 204.19 355.95 193.09 367.26"/><line class="cls-4" x1="198.17" y1="373.45" x2="185.68" y2="358.57"/><path class="cls-4" d="M243.32,292.22a9.14,9.14,0,0,1-18.2-1.76"/><path class="cls-4" d="M186.7,320.17a11.13,11.13,0,1,1-15.61,15.88"/><line class="cls-4" x1="229.6" y1="299.22" x2="222.43" y2="400.07"/><line class="cls-4" x1="236.37" y1="300.23" x2="229.21" y2="400.07"/><polyline class="cls-4" points="205.24 329.13 215.02 335.65 206.92 352.96"/><polyline class="cls-4" points="191.92 377.31 178.86 384.64 163.96 358.57 169.05 355.36"/><line class="cls-4" x1="180.67" y1="366.11" x2="171.36" y2="371.3"/><polyline class="cls-4" points="198.64 414.95 184.4 387.14 145.37 401.04 144.24 395.93 130.94 401.04 129.16 396.85 130.94 395.49 120.42 387.24"/><polyline class="cls-4" points="167.95 429.56 159.53 409.29 176.02 403.44"/><polyline class="cls-4" points="165.93 393.72 158.13 379.64 159.53 375.29"/><polyline class="cls-4" points="153.83 373.31 151.33 380.66 144.24 385"/><path class="cls-4" d="M202.45,413.72s5.85,2.82-4.5,8.53S154,446.62,154,446.62L105.3,470,82.44,489s3,8.81-7.62,17.27"/><line class="cls-4" x1="196" y1="423.26" x2="205.24" y2="445.55"/><line class="cls-4" x1="180.4" y1="431.97" x2="190.03" y2="453.06"/><line class="cls-4" x1="166.34" y1="439.77" x2="174.31" y2="460.37"/><line class="cls-4" x1="154.01" y1="446.62" x2="146.05" y2="473.08"/><line class="cls-4" x1="130.94" y1="457.69" x2="139.46" y2="476.02"/><line class="cls-4" x1="124.09" y1="461.49" x2="132.19" y2="479.87"/><polyline class="cls-4" points="110.74 467.38 118.25 478.11 118.25 481.08 121.88 486.61"/><polyline class="cls-4" points="150.03 471.87 159.53 488.96 163.96 497.18 174.31 506.23"/><line class="cls-4" x1="129.16" y1="481.69" x2="150.62" y2="508.99"/><polyline class="cls-4" points="119.27 508.99 109.33 497.18 92.99 480.21"/><line class="cls-4" x1="132.19" y1="485.58" x2="113.51" y2="502.15"/><line class="cls-4" x1="128.14" y1="490.31" x2="139.01" y2="500.98"/><polyline class="cls-4" points="157.57 485.43 141.22 497.18 135.2 509.28"/><polyline class="cls-4" points="155.21 509.28 171.8 488.96 189 477"/><polyline class="cls-4" points="106.81 469.27 114.3 481.08 118.25 479.87"/><line class="cls-4" x1="102.97" y1="477.91" x2="109.33" y2="473.99"/><line class="cls-4" x1="108.67" y1="484.54" x2="114.3" y2="481.08"/><line class="cls-4" x1="114.3" y1="472.46" x2="126.45" y2="466.85"/><line class="cls-4" x1="130.94" y1="468.36" x2="117.48" y2="477"/><line class="cls-4" x1="84.21" y1="487.49" x2="101.54" y2="505.51"/><polyline class="cls-4" points="82.44 488.96 69.5 477 55.39 458.75 46.49 441.6 -8.46 409.14"/><polyline class="cls-4" points="58.81 455.27 69.78 467.38 65.2 471.44"/><line class="cls-4" x1="87.19" y1="467.38" x2="70.88" y2="445.44"/><line class="cls-4" x1="117.48" y1="464.15" x2="113.51" y2="454.37"/><polyline class="cls-4" points="123.02 461.49 120.42 451.13 116.81 429.56 114.3 422.34 114.3 403.44 108.67 399.86"/><polyline class="cls-4" points="137.84 454.38 129.86 434.88 124.09 416.5 121.88 403.44 116.31 391.48 17.94 334.45"/><polyline class="cls-4" points="149.72 434.41 116.31 422.34 92.99 423.26"/><polyline class="cls-4" points="102.97 459.44 99.35 451.59 85.02 433.43"/><polyline class="cls-4" points="106.81 402.2 112.53 446.44 99.35 451.59"/><line class="cls-4" x1="118.96" y1="442.43" x2="130.94" y2="437.53"/><polyline class="cls-4" points="133.57 428.58 136.16 423.26 148.02 423.26"/><line class="cls-4" x1="97.88" y1="423.07" x2="98.79" y2="432.52"/><polygon class="cls-4" points="55.39 482.39 62.27 494.19 66.48 491.62 60.62 480.2 55.39 482.39"/><polyline class="cls-4" points="44.84 486.61 58.81 505.51 76.65 491.11"/><line class="cls-4" x1="44.12" y1="504.92" x2="53.3" y2="498.04"/><polyline class="cls-4" points="34.37 490.31 5.15 464.15 -8.46 451.03"/><line class="cls-4" x1="29.88" y1="459.26" x2="12.44" y2="470.68"/><line class="cls-4" x1="17.45" y1="461.49" x2="23.04" y2="471.44"/><line class="cls-4" x1="21.9" y1="459.26" x2="26.48" y2="467.38"/><polyline class="cls-4" points="37.31 464.33 29.88 475.18 40.93 482.81"/><line class="cls-4" x1="6.91" y1="465.72" x2="-8.46" y2="474.83"/><line class="cls-4" x1="23.58" y1="494.45" x2="-0.61" y2="473.08"/><polyline class="cls-4" points="-8.46 477.23 3.26 485.43 8.73 481.33"/><polyline class="cls-4" points="4.74 489.05 7.56 493.02 6.15 494.19 9.53 499.25"/><line class="cls-4" x1="-8.46" y1="486.73" x2="4.26" y2="500.98"/><line class="cls-4" x1="28.83" y1="492.59" x2="23.58" y2="487.49"/><line class="cls-4" x1="29.64" y1="450.71" x2="36.66" y2="457.69"/><line class="cls-4" x1="33.15" y1="461.49" x2="48.71" y2="445.44"/><polyline class="cls-4" points="29.64 418.18 38.3 404.42 43.4 397.25 51.57 402.2"/><polyline class="cls-4" points="53.3 455.27 59.32 446.44 60.94 438.83 64.3 440.98 70.56 424.23 92.1 465.26 130.03 508.99"/><line class="cls-4" x1="10.56" y1="433.43" x2="32.04" y2="449.41"/><line class="cls-4" x1="11.48" y1="446.74" x2="17.45" y2="438.56"/><line class="cls-4" x1="8.09" y1="437.53" x2="14.63" y2="442.43"/><line class="cls-4" x1="38.68" y1="436.98" x2="33.71" y2="443.7"/><polyline class="cls-4" points="123.82 383.76 77.45 356.14 76.31 358.15 53.3 345.75 54.82 342.74 43.83 336.89 29.2 340.98"/><polygon class="cls-4" points="21.32 328.81 31.91 336.24 32.65 313.38 21.32 328.81"/><line class="cls-4" x1="-8.46" y1="369.97" x2="21.32" y2="328.81"/><line class="cls-4" x1="58.17" y1="327.49" x2="12.96" y2="302.58"/><line class="cls-4" x1="65.2" y1="377.88" x2="9.55" y2="345.2"/><line class="cls-4" x1="37.31" y1="377.3" x2="1.2" y2="356.82"/><line class="cls-4" x1="10.22" y1="374.21" x2="-5.19" y2="365.72"/><polyline class="cls-4" points="-3.56 398.35 17.94 411.25 53.87 432.52"/><line class="cls-4" x1="3.46" y1="416.17" x2="8.98" y2="405.88"/><line class="cls-4" x1="40.93" y1="347.78" x2="35.31" y2="360.33"/><polyline class="cls-4" points="43.83 336.89 52.15 334.45 105.47 359.74"/><line class="cls-4" x1="103.83" y1="371.85" x2="117.17" y2="356.55"/><polyline class="cls-4" points="72.48 344.1 70.21 349.68 77.89 354.34"/><polyline class="cls-4" points="65.2 306.9 74.05 315.51 64.35 330.28"/><polyline class="cls-4" points="57.03 321.28 85.58 326.28 93.73 318.59 100.47 306.19 100.47 301.05 78.75 291.58 36.66 274.18"/><polyline class="cls-4" points="67.77 260.63 62.27 269.14 38.12 270.32"/><line class="cls-4" x1="47.77" y1="307.93" x2="56.45" y2="293.28"/><line class="cls-4" x1="51.46" y1="313.38" x2="60.46" y2="302.58"/><polyline class="cls-4" points="74.65 295.06 90.43 311.26 89.26 314.09 99.03 322.98"/><polyline class="cls-4" points="122.56 311.94 97.17 324.81 90.57 331.59 85.58 341.71 47.17 409.87"/><line class="cls-4" x1="111.93" y1="349.68" x2="90.57" y2="331.59"/><line class="cls-4" x1="115.86" y1="346.55" x2="102.19" y2="331.59"/><line class="cls-4" x1="107.05" y1="319.8" x2="117.17" y2="332.3"/><polyline class="cls-4" points="92.87 345.2 98.35 338.17 106.44 336.24 118.67 332.3 130.94 319.79"/><line class="cls-4" x1="120.88" y1="341.53" x2="114.19" y2="333.75"/><line class="cls-4" x1="125.52" y1="336.89" x2="119.38" y2="331.59"/><line class="cls-4" x1="96.08" y1="314.26" x2="103.05" y2="321.83"/><line class="cls-4" x1="108.08" y1="319.28" x2="99.03" y2="308.83"/><line class="cls-4" x1="136.14" y1="326.28" x2="140.47" y2="367.23"/><polygon class="cls-4" points="128.67 333.75 137.84 342.43 133.26 347.78 123.34 339.07 128.67 333.75"/><line class="cls-4" x1="15.38" y1="303.91" x2="-8.63" y2="330.23"/><line class="cls-4" x1="35.31" y1="288.78" x2="18.74" y2="305.76"/><line class="cls-4" x1="22.85" y1="292.54" x2="27.52" y2="296.77"/><path class="cls-4" d="M2.52,318s-1.15,2.6,3.64,5.65,13.1,8.07,13.1,8.07"/><path class="cls-4" d="M16.25,335.86S2,328.09-1,328s-7.43,3.65-7.43,3.65"/><line class="cls-4" x1="55.44" y1="239.08" x2="141.87" y2="320.56"/><line class="cls-4" x1="84.13" y1="206.9" x2="172.33" y2="290.12"/><line class="cls-4" x1="66.27" y1="259.22" x2="104.75" y2="216.81"/><line class="cls-4" x1="116.19" y1="227.72" x2="105.93" y2="238.37"/><line class="cls-4" x1="76.37" y1="268.68" x2="88.15" y2="256.5"/><line class="cls-4" x1="109.68" y1="299.88" x2="148.8" y2="259.22"/><line class="cls-4" x1="160.89" y1="270.32" x2="150.2" y2="281.28"/><line class="cls-4" x1="121.47" y1="310.92" x2="128.28" y2="303.91"/><line class="cls-4" x1="100.96" y1="291.71" x2="111.06" y2="282.55"/><polyline class="cls-4" points="89.26 280.01 96.66 281.28 108.08 278.11"/><line class="cls-4" x1="141.08" y1="251.43" x2="131.46" y2="262.13"/><path class="cls-4" d="M72,236s-10.92,2-7.8,8c4.18,8,14.41-4.37,16.57-5.64a2.33,2.33,0,0,1,3.34.94"/><path class="cls-4" d="M62.5,234.69s4.44,1.4,3.81,4.06,1.07,6.5,10.06,9.34"/><line class="cls-4" x1="66.16" y1="237.32" x2="66.94" y2="230.5"/><polyline class="cls-4" points="61.79 418.85 69.78 407.71 89.53 418.85"/><line class="cls-4" x1="51.57" y1="402.2" x2="66.37" y2="412.46"/><line class="cls-4" x1="101.37" y1="409.87" x2="82.44" y2="399.03"/><line class="cls-4" x1="107.71" y1="401.04" x2="68.43" y2="380.03"/><line class="cls-4" x1="86.25" y1="171.51" x2="81.86" y2="164.25"/><line class="cls-4" x1="58.11" y1="65.19" x2="52.55" y2="59.59"/><line class="cls-4" x1="96.43" y1="10.44" x2="142.6" y2="18.08"/><polyline class="cls-4" points="103.67 40.3 119.51 26.65 129.6 15.93"/><line class="cls-4" x1="136.5" y1="17.07" x2="139.4" y2="0.75"/><line class="cls-4" x1="171.86" y1="14.49" x2="179.47" y2="0.75"/><line class="cls-4" x1="153.54" y1="5.46" x2="169.01" y2="18.41"/><polyline class="cls-4" points="138.19 56.48 177.16 17.49 192.01 1.67"/><line class="cls-4" x1="146.3" y1="21.8" x2="158.03" y2="35.6"/><line class="cls-4" x1="124.36" y1="25.74" x2="141.96" y2="38.09"/><polyline class="cls-4" points="110.63 28.3 136.5 42.44 145.39 35.37 152.16 42.44"/><line class="cls-4" x1="172.44" y1="22.21" x2="205.59" y2="52.41"/><polyline class="cls-4" points="149.24 60.97 192.01 26.02 201.99 15.37"/><line class="cls-4" x1="210.48" y1="20.08" x2="200.25" y2="31.33"/><polyline class="cls-4" points="205.81 34.76 197.72 45.24 181.16 57.41"/><line class="cls-4" x1="163.96" y1="48.94" x2="190.43" y2="61.97"/><line class="cls-4" x1="190.53" y1="38.69" x2="189.02" y2="51.64"/><line class="cls-4" x1="197.72" y1="45.24" x2="214.33" y2="44.56"/><line class="cls-4" x1="143.03" y1="97.2" x2="172.44" y2="127.73"/><line class="cls-4" x1="155.21" y1="92.23" x2="147.19" y2="101.53"/><line class="cls-4" x1="138.81" y1="112.46" x2="163.85" y2="134.3"/><polyline class="cls-4" points="139.4 123.42 155.21 104.53 160.15 96.88 185.11 79.22 204.57 68.41 253.88 92.98"/><line class="cls-4" x1="169.78" y1="105.94" x2="150.44" y2="122.61"/><line class="cls-4" x1="148.57" y1="112.46" x2="155.21" y2="118.36"/><line class="cls-4" x1="139.4" y1="129.72" x2="144.87" y2="126.47"/><line class="cls-4" x1="181.16" y1="116.64" x2="185.11" y2="79.22"/><line class="cls-4" x1="153.01" y1="142.65" x2="156.73" y2="147.87"/><line class="cls-4" x1="193.49" y1="129.72" x2="155.12" y2="145.61"/><line class="cls-4" x1="195.71" y1="130.32" x2="195.71" y2="146.67"/><circle class="cls-4" cx="215.48" cy="94.08" r="8.51" transform="translate(-3.42 179.92) rotate(-45)"/><polyline class="cls-4" points="218.08 85.82 234.93 52.13 233.03 51.43 214.33 61.97"/><line class="cls-4" x1="242.81" y1="87.46" x2="262.91" y2="64.26"/><polyline class="cls-4" points="250.59 15.93 213.62 25.74 227.29 41.44"/><line class="cls-4" x1="217.6" y1="42.44" x2="221.48" y2="34.76"/><path class="cls-4" d="M215.48,121.66s20.49-11.75,31.21-3.3"/><line class="cls-4" x1="233.74" y1="102.92" x2="226.79" y2="116.92"/><line class="cls-4" x1="243.79" y1="116.64" x2="241.1" y2="144.31"/><path class="cls-4" d="M218,139.61s5.16-1.44,8.82,4.7"/><path class="cls-4" d="M222.84,121.66s4.41,5.51,7.43,3.59-2.31-10.68,9.83-6.89"/><path class="cls-4" d="M261.57,144.31s-1.66-15.33,0-18.66,3.79-7.29,3.79-7.29"/><line class="cls-4" x1="260.85" y1="133.42" x2="280.54" y2="142.65"/><polyline class="cls-4" points="261.01 128.09 265.92 129.72 270.7 127.73 292.19 136.42"/><polyline class="cls-4" points="278.35 141.62 275.56 133.43 274.08 129.09"/><line class="cls-4" x1="283.04" y1="137.32" x2="275.56" y2="133.43"/><polyline class="cls-4" points="277.13 138.03 283.04 141.62 288.7 137.67"/><line class="cls-4" x1="285.87" y1="144.31" x2="287.15" y2="138.75"/><path class="cls-4" d="M253.14,94.56s.94,6.67,5.77,7.4,8.67-1.1,16.65,3.39c6.17,3.48,19.93,10.69,25.85,13.78l2.81,1.46"/><path class="cls-4" d="M241.8,97.25a3.57,3.57,0,1,1,3.57,3.57A3.57,3.57,0,0,1,241.8,97.25Z"/><line class="cls-4" x1="244.43" y1="88.27" x2="244.86" y2="93.68"/><polyline class="cls-4" points="242.06 95.92 238.2 95.27 235.59 83.87"/><line class="cls-4" x1="238.2" y1="95.27" x2="240.5" y2="103.67"/><polyline class="cls-4" points="230.51 90.16 228.17 94.99 236.77 99.11 238.2 95.27 230.51 90.16 231.25 81.95"/><line class="cls-4" x1="230.59" y1="89.25" x2="225.83" y2="88.53"/><circle class="cls-4" cx="281.77" cy="115.54" r="2.47"/><path class="cls-4" d="M294.81,121.54c-2.11-1.14-5.08.82-6.11,2.17s6,4.39,7.14,3.41S296.6,122.5,294.81,121.54Z"/><path class="cls-4" d="M259,111.75s1.63-4.23,4.77-4.17,15.56,8,15.56,8"/><line class="cls-4" x1="267.09" y1="115.54" x2="274.62" y2="106.6"/><path class="cls-4" d="M259,104.38s1.61,3.88,3.7,3.35,1.28-4.06,1.28-4.06"/><path class="cls-4" d="M252.53,101.19s-1.29,3.62,6.83,4"/><line class="cls-4" x1="253.88" y1="109.09" x2="255.9" y2="104.72"/><path class="cls-4" d="M283.67,117.1s5.29,3.8,7.76,4.56a6.14,6.14,0,0,0-3.17-4.25A5.74,5.74,0,0,0,283.67,117.1Z"/><path class="cls-4" d="M293.65,115.06s.68,5.38-2.57,6.48"/><line class="cls-4" x1="282.56" y1="113.21" x2="284.23" y2="110.07"/><path class="cls-4" d="M294.81,121.54a16.08,16.08,0,0,0,5.26-3.06"/><line class="cls-4" x1="288.7" y1="123.71" x2="279.94" y2="120.01"/><line class="cls-4" x1="280.79" y1="117.8" x2="279.3" y2="121.66"/><path class="cls-4" d="M296.48,125.39a8.67,8.67,0,0,0,2.61,4.06"/><path class="cls-4" d="M258.21,98.55c3.25,2.26,6.1-.19,8-2.54s9-10.83,3.68-13.83c-4.1-2.3-8.4,5.74-10,7.71C258.1,92.14,255.29,96.52,258.21,98.55Z"/><line class="cls-4" x1="259.36" y1="90.98" x2="266.21" y2="96.01"/><path class="cls-4" d="M278.68,75.21s-7.39,19.69-13.87,27"/><path class="cls-4" d="M261,138s-9.73,3.84-11,2.59-1-17.85.58-18S261,127.52,261,127.52"/><path class="cls-4" d="M262.14,124.52s-7.24-4.58-9-4.36a6,6,0,0,0-3.13,1.5"/><line class="cls-4" x1="252.79" y1="112.22" x2="253.88" y2="120.01"/><line class="cls-4" x1="253.88" y1="140.39" x2="259.63" y2="143.37"/><line class="cls-4" x1="220.16" y1="101.19" x2="231.62" y2="107.2"/><polyline class="cls-4" points="215.48 107.58 220.99 106.07 226.1 108.73 224.63 111.56 228.78 112.91"/><line class="cls-4" x1="226.79" y1="104.72" x2="224.63" y2="107.78"/><path class="cls-4" d="M302.1,119.49l12-22.29,7-24.44C311,73.81,289,62.14,285.32,59s-3.55-20.16-3.55-20.16l-3.42-12.72L268.11,14.49l-5.33-1-32-22"/><path class="cls-4" d="M269.14,67.87c17.27-4.92,18.41-12.41,18.41-12.41h5l20.24,10.09,5.63,1.13"/><polyline class="cls-4" points="312.78 53.2 312.78 65.55 301.44 91.7"/><line class="cls-4" x1="299.09" y1="66.68" x2="290.16" y2="84.16"/><line class="cls-4" x1="279.3" y1="63.86" x2="296.48" y2="71.79"/><line class="cls-4" x1="277.3" y1="74.11" x2="283.39" y2="65.75"/><polyline class="cls-4" points="294.62 21.38 294.81 36.71 292.54 55.46"/><line class="cls-4" x1="237.72" y1="13.29" x2="237.72" y2="-8.52"/><polyline class="cls-4" points="262.91 10.65 292.54 7.62 295.57 6.55 292.54 -8.52"/><polyline class="cls-4" points="296.56 16.17 295.57 6.55 323.9 5.66 333.55 9.36 332.62 26.16 325.13 61.66"/><polyline class="cls-4" points="311.68 -5.53 308 0.75 309.73 6.11"/><line class="cls-4" x1="294.47" y1="0.75" x2="308" y2="0.75"/><polyline class="cls-4" points="285.18 8.37 285.77 16.49 287.12 23.57"/><line class="cls-4" x1="293.04" y1="11.66" x2="285.46" y2="12.29"/><polyline class="cls-4" points="356.82 17.17 338.61 18.84 347.72 29.17 407.7 24.91 508.03 29.77"/><polyline class="cls-4" points="353.88 44.56 350.27 73.1 349.28 86.19"/><polyline class="cls-4" points="353.88 85.16 363.31 41.44 369.98 41.44 367.37 81.95"/><line class="cls-4" x1="382.13" y1="51.43" x2="369.33" y2="51.43"/><polyline class="cls-4" points="368.67 61.66 376.29 62.27 377.52 51.43"/><polyline class="cls-4" points="382.85 78.27 394.47 38.6 417.96 60.21"/><line class="cls-4" x1="343.37" y1="87.46" x2="348.28" y2="111.64"/><polyline class="cls-4" points="368.67 83.28 352.16 113.07 341.85 133.42"/><line class="cls-4" x1="379.29" y1="95.27" x2="388.85" y2="80.71"/><polyline class="cls-4" points="385 77.74 395.43 84.69 408.55 93.49 398.85 107.78"/><line class="cls-4" x1="350.27" y1="53.52" x2="333.55" y2="47.87"/><line class="cls-4" x1="319.83" y1="38.69" x2="329.4" y2="41.44"/><polyline class="cls-4" points="382.13 141.88 360.87 131.34 346.5 124.25"/><line class="cls-4" x1="350.27" y1="137.15" x2="353.88" y2="127.89"/><line class="cls-4" x1="385.83" y1="135.37" x2="377.52" y2="150.02"/><path class="cls-4" d="M385.83,154.08l5.48-14.44,4.12-8.3s2.16-4.93-1.52-7.09l4.94-11.35,16.65,3.3-20.07,42.61"/><line class="cls-4" x1="397.93" y1="144.74" x2="412.04" y2="115.51"/><line class="cls-4" x1="395.43" y1="131.34" x2="402.98" y2="134.28"/><polyline class="cls-4" points="411.17 125.39 415.5 137.15 417.96 141.88 417.96 150.38 419.46 160.32"/><polyline class="cls-4" points="401.47 161.8 416.35 132.52 422.4 138.75"/><line class="cls-4" x1="403.52" y1="109.09" x2="417.96" y2="87.99"/><polyline class="cls-4" points="414.15 112.22 425.75 82.83 425.18 63.3 428.91 46.28 428.91 13.13 432.07 -8.52"/><line class="cls-4" x1="408" y1="91.7" x2="423.32" y2="67.82"/><rect class="cls-4" x="423.32" y="103.67" width="6.53" height="9.54" transform="translate(56.66 -130.07) rotate(18.55)"/><line class="cls-4" x1="424.89" y1="112.9" x2="424.32" y2="115.51"/><polyline class="cls-4" points="427.36 103.67 433.88 84.99 435.05 65.12"/><polyline class="cls-4" points="412.98 95.27 456.45 96.19 468.69 94.56"/><polyline class="cls-4" points="420.27 96.71 417.96 78.67 434.27 78.27"/><polyline class="cls-4" points="434.27 47.51 444.17 62.27 459.04 3.16"/><polyline class="cls-4" points="438.05 31.88 438.05 38.42 449.41 41.44"/><line class="cls-4" x1="467.86" y1="19.65" x2="463.1" y2="54.08"/><line class="cls-4" x1="450.8" y1="35.92" x2="473.13" y2="44.09"/><line class="cls-4" x1="474.32" y1="37.88" x2="496.71" y2="43.16"/><polyline class="cls-4" points="467.65 14.77 404.04 12.33 386.59 19.65 406.58 21.05"/><polyline class="cls-4" points="393.57 0.1 396.22 15.61 395.62 25.77"/><line class="cls-4" x1="381.64" y1="26.76" x2="381.64" y2="35.92"/><line class="cls-4" x1="366.23" y1="8.01" x2="362.24" y2="-8.52"/><line class="cls-4" x1="444.75" y1="-8.52" x2="445.37" y2="26.73"/><line class="cls-4" x1="455.93" y1="2.68" x2="458.46" y2="-8.52"/><line class="cls-4" x1="461.96" y1="3.53" x2="463.55" y2="-8.52"/><line class="cls-4" x1="486.15" y1="6.6" x2="492.51" y2="-8.52"/><polyline class="cls-4" points="422.28 25.61 421.64 35.29 416.35 35.29 417.06 25.36"/><polyline class="cls-4" points="443.34 75.81 450.8 77.74 456.95 59.46"/><line class="cls-4" x1="450.14" y1="60.9" x2="446.65" y2="76.67"/><polyline class="cls-4" points="453.17 70.69 464.29 74.19 477.04 75.73 494.8 78.27"/><line class="cls-4" x1="455.22" y1="65.38" x2="466.22" y2="68.78"/><line class="cls-4" x1="495.01" y1="69.27" x2="508.52" y2="74.48"/><line class="cls-4" x1="460.02" y1="86.19" x2="472.82" y2="87.99"/><line class="cls-4" x1="465.48" y1="93.57" x2="464.99" y2="81.46"/><polyline class="cls-4" points="474.63 82.75 489.46 87.49 491.1 77.74 475.07 81.46 461.7 81.46"/><line class="cls-4" x1="485.34" y1="99.98" x2="489.46" y2="87.49"/><line class="cls-4" x1="495.01" y1="81.83" x2="508.52" y2="87.09"/><line class="cls-4" x1="472.82" y1="95.86" x2="459.09" y2="126.53"/><line class="cls-4" x1="453.79" y1="103.67" x2="467.19" y2="108.44"/><line class="cls-4" x1="481.06" y1="98.54" x2="469.69" y2="129.33"/><line class="cls-4" x1="486.7" y1="100.45" x2="477.96" y2="129.97"/><line class="cls-4" x1="500.99" y1="109.09" x2="483.52" y2="111.2"/><line class="cls-4" x1="440.38" y1="100.45" x2="453.17" y2="105.42"/><line class="cls-4" x1="438.53" y1="107.23" x2="451.11" y2="111.2"/><line class="cls-4" x1="440.84" y1="120.9" x2="444.44" y2="109.09"/><polyline class="cls-4" points="464.99 128.17 475.54 144.75 468 164.19 462.33 182.73"/><line class="cls-4" x1="464.06" y1="132.52" x2="447.78" y2="176.52"/><polyline class="cls-4" points="467.19 184.81 486.09 170.44 454.06 159.56"/><line class="cls-4" x1="478.41" y1="138.36" x2="475.54" y2="144.74"/><polyline class="cls-4" points="473.69 149.53 489.46 160.32 508.52 169.23"/><line class="cls-4" x1="497.44" y1="136.58" x2="476.66" y2="151.56"/><line class="cls-4" x1="491.72" y1="153.85" x2="473.69" y2="166.23"/><line class="cls-4" x1="494.14" y1="162.51" x2="508.52" y2="150.62"/><circle class="cls-4" cx="494.14" cy="175.43" r="4.89"/><line class="cls-4" x1="453.79" y1="179.04" x2="459.67" y2="161.47"/><line class="cls-4" x1="464.99" y1="172.18" x2="456.73" y2="170.25"/><line class="cls-4" x1="464.56" y1="175.43" x2="473.69" y2="179.87"/><line class="cls-4" x1="466.14" y1="170.25" x2="476.98" y2="177.37"/><line class="cls-4" x1="467.99" y1="164.19" x2="481.06" y2="174.26"/><polyline class="cls-4" points="508.52 187.94 499.03 210.31 496.76 214.6 489.76 229.11"/><line class="cls-4" x1="464.82" y1="183.8" x2="462.34" y2="192.08"/><line class="cls-4" x1="472.78" y1="187" x2="468.91" y2="195.34"/><polyline class="cls-4" points="483.86 227.07 487.7 212.06 490.19 205.92 491.59 182.73"/><line class="cls-4" x1="487.7" y1="212.06" x2="496.76" y2="214.6"/><line class="cls-4" x1="470.83" y1="217.29" x2="485.11" y2="222.2"/><polyline class="cls-4" points="488.15 204.9 477.96 208 475.06 218.74"/><line class="cls-4" x1="303.13" y1="149.96" x2="300.07" y2="157.5"/><line class="cls-4" x1="307.11" y1="149.74" x2="313.72" y2="156.73"/><line class="cls-4" x1="311.68" y1="140.87" x2="319.47" y2="144.74"/><polyline class="cls-4" points="315.55 133.42 324.35 132.52 329.4 128.84 338.16 107.58 344.95 95.27"/><line class="cls-4" x1="317.12" y1="124.25" x2="313.72" y2="130.13"/><line class="cls-4" x1="309.46" y1="128.84" x2="303.47" y2="121.54"/><path class="cls-5" d="M79.51,31.7a6.4,6.4,0,1,1,6.4,6.39A6.39,6.39,0,0,1,79.51,31.7Z"/><path class="cls-5" d="M91.73,34.32c38.3,17.68,212.36,103,212.36,103"/><path class="cls-5" d="M2.88-8.52s53.74,27,77.18,37.64"/><path class="cls-5" d="M303.19,150l-.12-.06a4,4,0,0,1-1.82-5.35l6.64-13.52a4,4,0,0,1,5.36-1.83l.12.06a4,4,0,0,1,1.82,5.36l-6.65,13.51A4,4,0,0,1,303.19,150Z"/><line class="cls-5" x1="88.84" y1="26.02" x2="106.54" y2="-8.52"/><path class="cls-5" d="M-4.41,230.51s9.55-2.54,14.77-4.69,10.76-11.68,20-12.6S52.77,204,54.62,194.17s4.91-20.9,10.14-28.89S90.88,122,90.88,108.42c0-10.88-3.22-53.93-4.48-70.33"/><path class="cls-5" d="M-8.63,238.94s10.39-20.8,13.77-27.26,10.14-17.51,9.52-22.43,2.49-11.76,2.49-11.76"/><path class="cls-5" d="M83,37.38S68.75,64.78,64.14,75.85s-15.36,31.65-19,41.49-23,49.3-23,49.3"/><circle class="cls-5" cx="18.43" cy="171.51" r="6.11"/><path class="cls-5" d="M12.32,171.51A197.37,197.37,0,0,0-8.46,169"/><path class="cls-5" d="M24.42,170.27s43-19.92,53.19-21.82,45.47-4.2,49.78-3.31,11.43,9,21.34.89S235,80.76,238.9,75,254.39,49,254.39,46s-3.85-19.88-3.09-32.83"/><path class="cls-5" d="M92.3,31.3c16.37-1.87,57.19-11.5,88.76-14.17s76.22-7,103.68-.87S391.51,37.57,412.3,42.44,508,64.26,508,64.26"/><path class="cls-5" d="M-8.46,47.09S53.22,36.8,79.64,33"/><line class="cls-5" x1="141.08" y1="149.55" x2="135.31" y2="55.09"/><path class="cls-5" d="M81.36,147.87S96.19,134,113.61,120.15s59.78-46.6,78.13-59.07,42.6-24.63,65-29.38,47.31-14.4,66.37-17S365.2,9.3,376,5.3,407.33-2,415.79-8.52"/><line class="cls-5" x1="397.78" y1="-8.52" x2="420.27" y2="68.14"/><path class="cls-5" d="M276.43-8.52s19.16,23,22.43,27.81,25.62,68.62,32.45,70S470.83,55.83,470.83,55.83s7.81-39.11,7.57-42.7"/><path class="cls-5" d="M462.76-8.52S475.81,11,480.05,16.36s22,16.26,16.05,45.2,9.6,58.82,9.6,58.82"/><polyline class="cls-5" points="508.52 2.18 412.3 42.44 402.41 73.41 431.13 167.29"/><line class="cls-5" x1="136.5" y1="74.63" x2="222.43" y2="155.46"/><circle class="cls-6" cx="195.71" cy="129.72" r="3.7"/><path class="cls-5" d="M192-8.52S205,14,207.89,17.1s6.23,7.07,6.23,11.84S216,155.46,216,155.46"/><path class="cls-5" d="M138.19,23.15l16.52-19S173,15.39,177.16,17.49s23.25,14,28.65,17.27,22,14.86,27.22,16.67,25.76,10.13,34.07,15.12,23.71,20.15,37,26.17S345.21,111,354.35,113.8s33,23.38,49.86,35.64,29.71,21.39,44.87,27.63,28.05,12.88,30.33,10.8,29.11-85.32,29.11-85.32"/><line class="cls-5" x1="508.52" y1="189.38" x2="482.93" y2="179.35"/><path class="cls-5" d="M290.16,157.33s9.55-35.11,15.37-37.81,13.92,9.5,21.19,8.7,83.93,38.25,101.59,47,80.21,39.86,80.21,39.86"/><path class="cls-5" d="M261.79-8.52s3.82,68.15,4.13,72.78-18,39.43-18.87,45.15,0,46.05,0,46.05"/><path class="cls-5" d="M358.87-8.52s-4.54,16.21-1.51,28.22S352,51.87,342.42,69.27"/><path class="cls-5" d="M508.52,112.81S483.64,129,476.86,130.25s-55.34-16-67.3-19.43-18.53-5-28.35-13.76-12-16.46-22.46-20.78-43.17-18.85-43.17-18.85,10.48-42.1,8.32-51.77L313.72-8.52"/><path class="cls-5" d="M508.52,108.44S473.09,94.83,444,87.56,402.89,76.4,402.41,73.1s-3.57-7.66-16.22-18.27S357.47,31.3,357.47,31.3"/><line class="cls-5" x1="482.93" y1="58.58" x2="470.38" y2="95.09"/><line class="cls-5" x1="470.83" y1="55.83" x2="428.31" y2="175.2"/><line class="cls-5" x1="402.41" y1="73.1" x2="360.87" y2="142.05"/><path class="cls-5" d="M416.35,169.23s9.54-20.85,13.94-35.58,11.1-32.67,12.34-45.17.61-20.55,0-25.32"/><line class="cls-5" x1="402.41" y1="-4.01" x2="508.52" y2="9.62"/><polyline class="cls-5" points="486.64 -8.52 470.83 4.12 454.06 60.21"/><path class="cls-5" d="M237.72,53.21S272.4,40.61,285,38.09s33-2.72,42.87-1.23,27.49,3.26,27.49,3.26"/><path class="cls-5" d="M327.63-8.52s4.29,17.7,8.6,21.65,4.28,21-13.21,63.7"/><line class="cls-5" x1="331.31" y1="89.32" x2="315.58" y2="123.16"/><path class="cls-5" d="M475.54,135.5a2.87,2.87,0,1,1,2.87,2.86A2.87,2.87,0,0,1,475.54,135.5Z"/><polyline class="cls-5" points="508.52 119.47 481.27 135.5 508.52 148.12"/><line class="cls-5" x1="-4.03" y1="40.3" x2="17.15" y2="165.54"/><line class="cls-5" x1="91.56" y1="28.72" x2="149.76" y2="-8.52"/><line class="cls-5" x1="3.56" y1="85.21" x2="80.84" y2="35.6"/><line class="cls-5" x1="502.54" y1="212.06" x2="492.34" y2="230.51"/><path class="cls-5" d="M504,236a150.6,150.6,0,0,0-15.79-7.53c-6.28-2.31-17.16-5-29.29-6.58S407.62,209.64,385,199.19s-68.28-32.2-83.4-40.78-18.68-16.69-32.91-8"/><path class="cls-5" d="M15,176.56s-1.24,9.77-23.44,17.83"/><path class="cls-5" d="M71.82,187.34S59.41,171.42,46,160.58"/><polyline class="cls-5" points="477.96 188.26 476.66 199.19 468.91 223.26"/><line class="cls-5" x1="508.52" y1="232.05" x2="500.89" y2="228.32"/><polyline class="cls-5" points="499.43 233.63 501.69 226.21 508.52 217.88"/><path class="cls-5" d="M-8.63,323.34S31,286.22,34.92,278.23s8.84-28.4,19-37.72,38.55-52.17,67.64-56.71,87.63-5.74,105.18-8,53.26-10.08,63.37,1.59,38.94,61,46,69.16,8.22,14.84,15.87,49,17,83.87,20.07,107S397.93,509,397.93,509"/><polyline class="cls-5" points="-8.46 407.03 42.48 317.73 46.02 306.19"/><path class="cls-5" d="M24.55,271.57S56.9,324.38,65.2,331s128,59.91,139.37,65.23,14,3.55,24.24,22.19,27.74,50.59,34.29,57.69S285.87,509,285.87,509"/><path class="cls-5" d="M-8.46,505.13s58.38-17.88,90.8-35.19,71.75-33.73,97.13-45.71S266.71,385.62,283,376.3s63.37-49.7,85.56-58.13,55.51-11.09,59.71-15.09,9.45-9.76,15-11.54-1.12-44-3.74-51.82"/><path class="cls-5" d="M55.69,319.42S82.85,282.67,89.26,280s34.76-35.3,39.9-38.51,49.07-31.14,93.22-30.71,72.45,1.39,108,31.53,42.23,36,103.68,55.25l74.45,28"/><polyline class="cls-5" points="377.87 217.17 368.6 239.07 351.97 260.2"/><polyline class="cls-5" points="89.26 202.05 176.89 285.56 253.46 293.28"/><path class="cls-5" d="M38.44,509s-4.35-12,4-29.73S57,455.29,75,442.43s22-30.62,38-47.49,72.24-72.78,80.5-81.65S216,289.5,216,289.5"/><path class="cls-5" d="M150.2,260.13s23.14-15,33.35-20.41,38.88-5,38.88-5v-4.18a121.21,121.21,0,0,1,37.2,5.58c18.89,6.2,47.55,18.42,59.84,26.73s20.2,12.46,28.9,16.16"/><path class="cls-5" d="M432.06,236.09s-15.88,24-15.71,33-9.74,91.19-9.74,91.19"/><path class="cls-5" d="M98.79,509a115,115,0,0,1,45.26-35.06c29.29-12.42,92.29-43,109.83-50.59s47-20.85,47-20.85"/><path class="cls-5" d="M508,496.12s-51.08-14.2-79.72-27.51-152.07-79.09-159.59-85L250,325.71l9.67-89.62"/><path class="cls-5" d="M367.78,375l66.94-25.36,26.14,4.66,24.25,60.57s-4.76,19.53-4.05,27.52S468,483.79,468,483.79"/><path class="cls-5" d="M508.52,290.77l-35.74,93.35L440.91,474s2.55,15.44-11.65,35"/><path class="cls-5" d="M453.79,353.08s-2.12-32.69,2.94-37.57c0,0,10.33,6.5,21.68,53.84"/><line class="cls-5" x1="482.7" y1="426.31" x2="508.03" y2="360.33"/><line class="cls-5" x1="508.03" y1="344.35" x2="491.59" y2="334.72"/><path class="cls-5" d="M240.13,439s-43,56.25-50.52,70"/><line class="cls-5" x1="246.66" y1="450.48" x2="217.97" y2="508.99"/><line class="cls-5" x1="256.29" y1="466.57" x2="307.11" y2="442.43"/><path class="cls-5" d="M300.86,402.49s5.11,36.07,7.8,48S324.78,509,324.78,509"/><line class="cls-5" x1="336.95" y1="421.39" x2="309.64" y2="454.5"/><line class="cls-5" x1="330.64" y1="418.01" x2="412.37" y2="290.54"/><line class="cls-5" x1="-8.46" y1="433.1" x2="102.86" y2="508.96"/><polyline class="cls-5" points="96.96 416.74 70.56 424.23 4.74 383.81 86.25 378.97 139.4 366.75 150.2 437.56 180.29 508.96"/><polyline class="cls-5" points="50.44 244.4 160.12 347.11 193.14 377.63 211.44 399.25"/><polyline class="cls-5" points="68.43 422.93 109.43 352.96 176.89 285.56 222.43 234.69"/><line class="cls-5" x1="213.28" y1="234.69" x2="217.97" y2="167.29"/><line class="cls-5" x1="243.79" y1="169.02" x2="240.13" y2="211.09"/><path class="cls-5" d="M445.49,283.12s-135-78.7-145.42-79.74-58.88-4.52-58.88-4.52"/><polyline class="cls-5" points="470.85 256.5 449.57 271.57 453.35 304.81 475.06 258.34"/><polyline class="cls-5" points="65.2 420.94 58.92 434.88 -8.46 471.44"/><polyline class="cls-5" points="129.16 241.5 143.03 181.36 176.89 285.56 247.66 349.68"/><polyline class="cls-5" points="5.15 442.43 11.61 431.68 12.32 420.94 34.92 382.02 62.27 328.03"/><polyline class="cls-5" points="230.59 290.97 180.67 366.11 174.31 382.58"/><polyline class="cls-5" points="368.6 318.17 251.06 315.51 179.6 327.49"/><polyline class="cls-5" points="98.75 211.09 139.4 197.07 148.57 196.26 215.96 196.26"/><path class="cls-6" d="M504,278.06c-.08,0-8.61-1-13.73-17.16a32,32,0,0,0-7-11.55c6.65.86,13.4,1.52,20.25,1.92a7.5,7.5,0,1,0,.88-15,292,292,0,0,1-55.5-8.9l-.22-.05c-49.2-12.68-91.06-35.58-121.47-52.23-21.5-11.77-35.7-19.54-45.39-20-20.11-.89-130.64-3.21-170.52,7.35-45.18,12-84.46,81-88.79,88.85-10.71,19.39-35.88,42.07-36.13,42.3a7.49,7.49,0,0,0-.58,10.59,7.49,7.49,0,0,0,5.59,2.49,7.48,7.48,0,0,0,5-1.91c1.11-1,27.3-24.59,39.25-46.21,14.56-26.35,47.69-73.19,79.49-81.61,34.72-9.19,135.28-8.23,166-6.86,6.21.28,21.34,8.56,38.85,18.15,31.15,17.05,74,40.47,124.79,53.57,17.24,7.6,28.86,16.39,31.14,23.58,8.66,27.32,27.24,27.63,28,27.63a7.5,7.5,0,0,0,0-15Z"/></g></g></svg>