<?xml version="1.0" encoding="UTF-8"?>
<!DOCTYPE svg PUBLIC "-//W3C//DTD SVG 1.1//EN" "http://www.w3.org/Graphics/SVG/1.1/DTD/svg11.dtd">
<svg version="1.1" xmlns="http://www.w3.org/2000/svg" xmlns:xlink="http://www.w3.org/1999/xlink" x="0" y="0" width="400" height="400" viewBox="0, 0, 400, 400">
  <defs>
    <clipPath id="Clip_1">
      <path d="M361.736,277.494 L361.735,277.493 C361.735,277.494 361.735,277.494 361.736,277.494 M361.697,277.47 C361.696,277.469 361.696,277.469 361.696,277.469 C361.696,277.469 361.696,277.469 361.697,277.47 M361.619,277.422 C361.617,277.421 361.615,277.42 361.614,277.418 C361.616,277.42 361.617,277.421 361.619,277.422 M361.581,277.399 C361.579,277.397 361.577,277.396 361.575,277.395 C361.577,277.396 361.579,277.398 361.581,277.399 M361.538,277.372 C361.537,277.372 361.535,277.371 361.534,277.37 C361.535,277.371 361.537,277.372 361.538,277.372 M361.502,277.35 C361.499,277.348 361.495,277.346 361.492,277.344 C361.495,277.346 361.498,277.348 361.502,277.35 M361.463,277.327 C361.461,277.326 361.457,277.323 361.455,277.322 C361.458,277.324 361.46,277.325 361.463,277.327 M361.419,277.301 C361.416,277.298 361.413,277.297 361.409,277.295 C361.413,277.297 361.416,277.299 361.419,277.301 M361.383,277.279 C361.379,277.276 361.375,277.274 361.371,277.271 C361.375,277.274 361.379,277.276 361.383,277.279 M361.343,277.255 C361.34,277.253 361.337,277.251 361.334,277.25 C361.337,277.252 361.34,277.253 361.343,277.255 M361.299,277.229 C361.295,277.226 361.292,277.224 361.288,277.222 C361.291,277.224 361.295,277.227 361.299,277.229 M361.263,277.207 C361.258,277.204 361.253,277.202 361.249,277.199 C361.254,277.202 361.258,277.204 361.263,277.207 M361.223,277.183 C361.219,277.181 361.216,277.18 361.212,277.177 C361.216,277.179 361.219,277.181 361.223,277.183 M361.178,277.157 C361.173,277.154 361.169,277.152 361.165,277.149 C361.169,277.152 361.174,277.154 361.178,277.157 M361.141,277.135 C361.136,277.133 361.132,277.13 361.127,277.127 C361.132,277.13 361.136,277.133 361.141,277.135 M361.099,277.111 C361.096,277.109 361.093,277.107 361.089,277.105 C361.093,277.107 361.096,277.109 361.099,277.111 M361.055,277.085 C361.051,277.083 361.047,277.081 361.044,277.078 C361.047,277.081 361.051,277.083 361.055,277.085 M361.016,277.063 C361.013,277.06 361.01,277.059 361.006,277.056 C361.009,277.058 361.013,277.061 361.016,277.063 M34.983,210.361 C34.983,210.361 34.984,210.36 34.985,210.359 C34.984,210.36 34.984,210.361 34.983,210.361 M35.001,210.344 C35.002,210.344 35.002,210.343 35.003,210.343 C35.002,210.343 35.002,210.344 35.001,210.344 M35.019,210.328 C35.02,210.327 35.02,210.326 35.021,210.326 C35.02,210.326 35.02,210.327 35.019,210.328 M35.037,210.311 C35.038,210.31 35.038,210.31 35.039,210.309 C35.038,210.31 35.038,210.31 35.037,210.311 M35.056,210.294 C35.056,210.293 35.056,210.293 35.057,210.293 L35.056,210.294 M35.238,210.129 C35.238,210.128 35.239,210.127 35.24,210.127 C35.239,210.127 35.238,210.128 35.238,210.129 M35.255,210.113 C35.257,210.112 35.258,210.111 35.259,210.11 C35.258,210.111 35.257,210.112 35.255,210.113 M35.273,210.097 C35.275,210.096 35.277,210.094 35.279,210.093 C35.277,210.094 35.275,210.096 35.273,210.097 M35.293,210.08 C35.294,210.079 35.296,210.077 35.298,210.076 C35.296,210.077 35.294,210.079 35.293,210.08 M35.311,210.064 C35.313,210.062 35.315,210.06 35.317,210.058 C35.315,210.06 35.313,210.062 35.311,210.064 M35.33,210.047 C35.332,210.045 35.335,210.043 35.337,210.042 C35.335,210.043 35.332,210.045 35.33,210.047 M35.349,210.031 C35.352,210.029 35.354,210.027 35.356,210.025 C35.354,210.027 35.352,210.029 35.349,210.031 M35.369,210.013 C35.371,210.012 35.373,210.01 35.375,210.008 C35.374,210.01 35.371,210.012 35.369,210.013 M35.388,209.997 C35.391,209.995 35.392,209.993 35.395,209.991 C35.393,209.993 35.39,209.995 35.388,209.997 M35.408,209.98 C35.41,209.979 35.411,209.977 35.413,209.976 C35.411,209.977 35.41,209.978 35.408,209.98 M35.428,209.963 C35.428,209.962 35.429,209.962 35.43,209.961 C35.429,209.962 35.428,209.962 35.428,209.963 M35.482,209.917 C35.483,209.916 35.484,209.915 35.486,209.914 C35.484,209.915 35.483,209.916 35.482,209.917 M35.498,209.903 C35.501,209.901 35.503,209.899 35.505,209.897 C35.503,209.899 35.501,209.901 35.498,209.903 M35.518,209.887 C35.52,209.884 35.523,209.882 35.525,209.88 C35.523,209.882 35.52,209.884 35.518,209.887 M35.536,209.871 C35.539,209.868 35.543,209.865 35.546,209.863 C35.543,209.865 35.539,209.868 35.536,209.871 M35.555,209.855 C35.559,209.852 35.562,209.849 35.566,209.846 C35.562,209.849 35.559,209.852 35.555,209.855 M35.576,209.838 C35.579,209.835 35.583,209.832 35.586,209.829 C35.583,209.832 35.58,209.835 35.576,209.838 M35.596,209.821 C35.6,209.818 35.603,209.815 35.606,209.812 C35.603,209.815 35.599,209.818 35.596,209.821 M35.616,209.805 C35.62,209.801 35.624,209.798 35.628,209.795 C35.623,209.798 35.62,209.801 35.616,209.805 M35.636,209.788 C35.64,209.785 35.644,209.781 35.648,209.778 C35.644,209.782 35.64,209.785 35.636,209.788 M35.657,209.771 C35.661,209.768 35.664,209.765 35.668,209.762 C35.665,209.764 35.66,209.768 35.657,209.771 M35.677,209.754 C35.681,209.751 35.685,209.748 35.688,209.745 C35.684,209.748 35.681,209.751 35.677,209.754 M35.698,209.737 C35.702,209.734 35.706,209.731 35.71,209.727 C35.706,209.731 35.701,209.734 35.698,209.737 M35.718,209.721 C35.722,209.718 35.725,209.715 35.729,209.712 C35.725,209.715 35.722,209.718 35.718,209.721 M35.739,209.704 C35.742,209.702 35.745,209.699 35.747,209.697 C35.745,209.699 35.742,209.702 35.739,209.704 M35.789,209.663 C35.793,209.66 35.797,209.657 35.801,209.654 C35.797,209.657 35.793,209.661 35.789,209.663 M35.808,209.648 C35.813,209.645 35.817,209.641 35.821,209.638 C35.817,209.641 35.813,209.645 35.808,209.648 M35.831,209.63 C35.835,209.627 35.838,209.624 35.842,209.621 C35.838,209.624 35.835,209.627 35.831,209.63 M35.852,209.614 C35.856,209.61 35.86,209.607 35.864,209.604 C35.859,209.607 35.856,209.61 35.852,209.614 M35.872,209.598 C35.876,209.594 35.881,209.591 35.885,209.587 C35.88,209.591 35.876,209.594 35.872,209.598 M35.892,209.581 C35.897,209.578 35.901,209.574 35.906,209.571 C35.901,209.574 35.897,209.578 35.892,209.581 M35.915,209.564 C35.919,209.561 35.923,209.558 35.927,209.554 C35.923,209.558 35.919,209.561 35.915,209.564 M35.935,209.548 C35.94,209.544 35.944,209.541 35.949,209.537 C35.944,209.541 35.94,209.544 35.935,209.548 M35.956,209.531 C35.961,209.527 35.966,209.524 35.971,209.52 C35.966,209.524 35.961,209.527 35.956,209.531 M35.977,209.515 C35.982,209.511 35.987,209.507 35.992,209.503 C35.987,209.508 35.982,209.511 35.977,209.515 M35.999,209.498 C36.004,209.494 36.009,209.49 36.014,209.487 C36.009,209.491 36.004,209.494 35.999,209.498 M36.02,209.482 C36.025,209.478 36.031,209.474 36.036,209.47 C36.031,209.474 36.025,209.478 36.02,209.482 M36.042,209.465 C36.048,209.46 36.055,209.455 36.061,209.451 C36.055,209.455 36.048,209.46 36.042,209.465 M36.063,209.449 C36.069,209.444 36.076,209.439 36.083,209.434 C36.076,209.439 36.069,209.444 36.063,209.449 M36.085,209.432 C36.1,209.421 36.114,209.41 36.129,209.399 C36.114,209.41 36.1,209.421 36.085,209.432 M36.131,209.397 C36.138,209.392 36.145,209.387 36.151,209.382 C36.144,209.387 36.138,209.392 36.131,209.397 M36.153,209.381 C36.159,209.376 36.166,209.371 36.173,209.366 C36.166,209.371 36.159,209.376 36.153,209.381 M36.178,209.362 C36.184,209.358 36.189,209.354 36.195,209.349 C36.189,209.354 36.184,209.358 36.178,209.362 M36.2,209.345 C36.206,209.341 36.211,209.337 36.216,209.333 C36.211,209.337 36.206,209.341 36.2,209.345 M36.223,209.328 C36.229,209.324 36.233,209.321 36.239,209.317 C36.234,209.321 36.228,209.324 36.223,209.328 M36.245,209.312 C36.25,209.308 36.255,209.304 36.26,209.301 C36.256,209.304 36.25,209.308 36.245,209.312 M36.268,209.295 C36.273,209.291 36.278,209.287 36.284,209.283 C36.278,209.288 36.273,209.291 36.268,209.295 M36.289,209.28 C36.295,209.275 36.3,209.271 36.307,209.267 C36.301,209.271 36.295,209.275 36.289,209.28 M36.311,209.263 C36.318,209.259 36.324,209.254 36.331,209.249 C36.324,209.254 36.318,209.258 36.311,209.263 M36.333,209.247 C36.34,209.242 36.346,209.237 36.353,209.233 C36.346,209.237 36.34,209.242 36.333,209.247 M36.356,209.231 C36.363,209.225 36.37,209.22 36.377,209.215 C36.37,209.22 36.363,209.225 36.356,209.231 M36.378,209.214 C36.416,209.187 36.454,209.159 36.493,209.132 C36.454,209.16 36.416,209.187 36.378,209.214 M36.496,209.13 C36.503,209.125 36.509,209.12 36.516,209.116 C36.509,209.12 36.502,209.125 36.496,209.13 M36.519,209.114 C36.525,209.109 36.532,209.104 36.538,209.1 C36.531,209.105 36.525,209.109 36.519,209.114 M36.544,209.096 C36.549,209.092 36.555,209.088 36.561,209.084 C36.555,209.088 36.549,209.092 36.544,209.096 M36.568,209.079 C36.573,209.076 36.578,209.072 36.583,209.068 C36.578,209.072 36.573,209.075 36.568,209.079 M36.591,209.063 C36.596,209.059 36.602,209.055 36.607,209.051 C36.602,209.055 36.596,209.059 36.591,209.063 M36.613,209.047 C36.619,209.043 36.624,209.039 36.63,209.035 C36.624,209.039 36.619,209.043 36.613,209.047 M36.636,209.031 C36.642,209.027 36.648,209.023 36.654,209.018 C36.649,209.022 36.642,209.027 36.636,209.031 M36.659,209.015 C36.665,209.011 36.672,209.006 36.678,209.002 C36.672,209.006 36.665,209.011 36.659,209.015 M36.682,208.999 C36.689,208.994 36.696,208.989 36.704,208.984 C36.697,208.989 36.689,208.995 36.682,208.999 M36.705,208.984 C36.712,208.979 36.719,208.974 36.726,208.969 C36.719,208.974 36.712,208.979 36.705,208.984 M36.729,208.967 C36.76,208.945 36.792,208.924 36.824,208.903 C36.792,208.924 36.761,208.945 36.729,208.967 M36.826,208.901 C36.833,208.896 36.841,208.891 36.848,208.886 C36.841,208.891 36.833,208.896 36.826,208.901 M36.85,208.884 C36.857,208.88 36.864,208.876 36.871,208.871 C36.864,208.875 36.857,208.88 36.85,208.884 M36.876,208.867 C36.882,208.863 36.889,208.859 36.895,208.855 C36.889,208.859 36.882,208.863 36.876,208.867 M36.899,208.852 C36.906,208.848 36.912,208.843 36.918,208.839 C36.912,208.843 36.905,208.848 36.899,208.852 M36.925,208.835 C36.93,208.831 36.936,208.827 36.942,208.823 C36.936,208.827 36.93,208.831 36.925,208.835 M36.949,208.819 C36.954,208.815 36.96,208.811 36.965,208.808 C36.96,208.811 36.954,208.815 36.949,208.819 M36.972,208.803 C36.979,208.799 36.985,208.795 36.991,208.791 C36.985,208.795 36.979,208.799 36.972,208.803 M36.996,208.788 C37.002,208.784 37.008,208.78 37.014,208.775 C37.008,208.78 37.002,208.783 36.996,208.788 M37.02,208.772 C37.026,208.768 37.032,208.764 37.038,208.76 C37.032,208.764 37.026,208.768 37.02,208.772 M37.044,208.756 C37.051,208.752 37.057,208.747 37.064,208.743 C37.057,208.748 37.051,208.751 37.044,208.756 M37.068,208.74 C37.076,208.735 37.084,208.73 37.091,208.725 C37.084,208.73 37.076,208.735 37.068,208.74 M37.092,208.725 C37.117,208.709 37.141,208.693 37.166,208.677 C37.141,208.693 37.117,208.709 37.092,208.725 M37.167,208.677 C37.175,208.671 37.183,208.666 37.191,208.661 C37.182,208.666 37.175,208.671 37.167,208.677 M37.192,208.66 C37.2,208.655 37.207,208.651 37.215,208.646 C37.208,208.65 37.199,208.656 37.192,208.66 M37.22,208.642 C37.226,208.638 37.233,208.634 37.239,208.63 C37.233,208.634 37.226,208.638 37.22,208.642 M37.246,208.626 C37.251,208.623 37.258,208.618 37.264,208.615 C37.257,208.619 37.252,208.622 37.246,208.626 M37.27,208.611 C37.276,208.607 37.283,208.603 37.289,208.599 C37.282,208.603 37.276,208.607 37.27,208.611 M37.294,208.595 C37.3,208.592 37.307,208.587 37.313,208.584 C37.307,208.588 37.3,208.591 37.294,208.595 M37.32,208.579 C37.326,208.576 37.331,208.572 37.337,208.568 C37.332,208.572 37.325,208.576 37.32,208.579 M37.345,208.564 C37.351,208.56 37.357,208.556 37.362,208.553 C37.356,208.556 37.351,208.56 37.345,208.564 M37.37,208.548 C37.376,208.544 37.382,208.541 37.388,208.537 C37.382,208.541 37.376,208.544 37.37,208.548 M37.394,208.533 C37.4,208.529 37.406,208.525 37.412,208.522 C37.406,208.526 37.4,208.529 37.394,208.533 M37.42,208.517 C37.426,208.513 37.432,208.509 37.439,208.505 C37.432,208.51 37.427,208.513 37.42,208.517 M37.444,208.502 C37.451,208.498 37.458,208.493 37.465,208.489 C37.458,208.493 37.451,208.498 37.444,208.502 M37.469,208.487 C37.503,208.466 37.536,208.446 37.57,208.425 C37.536,208.446 37.502,208.466 37.469,208.487 M37.576,208.421 C37.583,208.418 37.589,208.414 37.595,208.41 C37.589,208.414 37.583,208.417 37.576,208.421 M37.603,208.405 C37.608,208.402 37.614,208.399 37.62,208.395 C37.614,208.398 37.608,208.402 37.603,208.405 M37.63,208.389 C37.635,208.386 37.64,208.383 37.645,208.38 C37.64,208.383 37.635,208.386 37.63,208.389 M37.655,208.374 C37.66,208.371 37.665,208.368 37.671,208.365 C37.665,208.368 37.66,208.371 37.655,208.374 M37.68,208.359 C37.685,208.356 37.691,208.353 37.696,208.349 C37.691,208.353 37.686,208.356 37.68,208.359 M37.706,208.344 C37.711,208.341 37.716,208.338 37.721,208.335 C37.716,208.338 37.71,208.341 37.706,208.344 M37.732,208.328 C37.737,208.325 37.742,208.322 37.747,208.319 C37.742,208.322 37.737,208.325 37.732,208.328 M37.757,208.313 C37.762,208.31 37.767,208.308 37.772,208.305 C37.767,208.308 37.762,208.31 37.757,208.313 M37.783,208.298 C37.788,208.295 37.793,208.292 37.798,208.289 C37.793,208.292 37.788,208.295 37.783,208.298 M37.808,208.283 C37.813,208.28 37.818,208.278 37.822,208.275 C37.818,208.278 37.813,208.281 37.808,208.283 M37.834,208.268 C37.839,208.265 37.844,208.262 37.85,208.259 C37.845,208.262 37.839,208.265 37.834,208.268 M37.859,208.253 C37.865,208.25 37.872,208.246 37.878,208.243 C37.872,208.246 37.865,208.25 37.859,208.253 M37.885,208.238 C37.894,208.234 37.902,208.228 37.911,208.224 C37.902,208.229 37.894,208.233 37.885,208.238 M158.698,160.254 C158.664,160.235 158.629,160.215 158.595,160.195 C158.629,160.215 158.664,160.235 158.698,160.254 M123.501,158.808 C127.597,156.459 133.065,155.308 138.791,155.307 C133.065,155.308 127.596,156.459 123.501,158.808 M138.8,155.307 C138.798,155.307 138.797,155.307 138.795,155.307 C138.797,155.307 138.798,155.307 138.8,155.307"/>
    </clipPath>
  </defs>
  <g id="Layer_1">
    <path d="M379.289,305.153 L289.436,357.029 C280.192,362.366 264.046,361.697 253.371,355.534 L23.323,222.716 C12.649,216.553 11.49,207.231 20.734,201.894 L110.587,150.017 C119.831,144.68 135.978,145.35 146.652,151.512 L376.7,284.331 C387.374,290.493 388.533,299.816 379.289,305.153" fill="#415358"/>
    <path d="M385.181,291.74 C383.772,288.786 380.978,285.996 377.048,283.727 L147,150.909 C141.285,147.61 133.723,145.718 126.251,145.718 C120.053,145.718 114.367,147.031 110.239,149.414 L20.386,201.291 C17.775,202.798 15.889,204.674 14.819,206.769 L14.801,206.804 C13.311,209.613 12.573,213.802 12.573,219.438 C12.573,227.942 15.917,232.45 15.917,232.45 L15.918,232.45 C17.339,234.906 19.813,237.275 23.323,239.302 L253.371,372.12 C264.046,378.282 280.192,378.952 289.436,373.615 L379.289,321.738 C381.456,320.487 383.044,319.015 384.079,317.418 L384.083,317.42 C384.083,317.42 387.427,312.912 387.427,304.407 C387.427,295.903 385.181,291.74 385.181,291.74" fill="#334043"/>
    <path d="M379.289,305.153 L289.436,357.029 C280.192,362.366 264.046,361.697 253.371,355.534 L23.323,222.716 C12.649,216.553 11.49,207.231 20.734,201.894 L110.587,150.017 C119.831,144.68 135.978,145.35 146.652,151.512 L376.7,284.331 C387.374,290.493 388.533,299.816 379.289,305.153" fill="#415358"/>
    <path d="M289.436,373.615 L289.436,357.029 L379.289,305.153 L379.289,321.738 L289.436,373.615" fill="#334043"/>
    <path d="M379.289,321.738 L374.849,324.302 L374.849,307.716 L379.289,305.153 L379.289,321.738" fill="#52676E"/>
    <path d="M293.877,371.051 L289.436,373.615 L289.436,357.029 L293.877,354.466 L293.877,371.051" fill="#52676E"/>
    <path d="M300.775,362.467 C299.498,362.467 298.673,361.436 298.673,359.842 C298.673,357.64 300.233,354.949 302.15,353.844 C302.718,353.515 303.266,353.348 303.781,353.348 C305.058,353.348 305.884,354.38 305.884,355.974 C305.884,358.175 304.323,360.865 302.406,361.972 C301.839,362.301 301.29,362.467 300.775,362.467" fill="#272F31"/>
    <path d="M303.781,353.092 C303.221,353.092 302.629,353.27 302.022,353.621 C300,354.788 298.416,357.52 298.416,359.841 C298.416,361.592 299.342,362.724 300.775,362.724 C301.335,362.724 301.927,362.546 302.535,362.195 C304.556,361.028 306.14,358.295 306.14,355.974 C306.14,354.223 305.214,353.092 303.781,353.092 z M303.781,353.605 C304.876,353.605 305.627,354.472 305.627,355.974 C305.627,358.097 304.128,360.683 302.278,361.751 C301.738,362.063 301.227,362.211 300.775,362.211 C299.68,362.211 298.929,361.343 298.929,359.841 C298.929,357.719 300.429,355.133 302.278,354.065 C302.819,353.753 303.329,353.605 303.781,353.605" fill="#52676E"/>
    <path d="M326.971,347.344 C325.693,347.344 324.867,346.312 324.867,344.718 C324.867,342.517 326.428,339.827 328.346,338.72 L342.349,330.635 C342.918,330.305 343.467,330.139 343.981,330.139 C345.259,330.139 346.084,331.171 346.084,332.765 C346.084,334.966 344.523,337.656 342.605,338.763 L328.601,346.848 C328.034,347.177 327.485,347.344 326.971,347.344" fill="#272F31"/>
    <path d="M343.981,329.883 C343.421,329.883 342.829,330.061 342.221,330.412 L328.217,338.497 C326.195,339.664 324.611,342.397 324.611,344.718 C324.611,346.469 325.537,347.6 326.97,347.6 C327.53,347.6 328.122,347.422 328.73,347.071 L342.734,338.986 C344.756,337.818 346.34,335.086 346.34,332.765 C346.34,331.014 345.414,329.883 343.981,329.883 z M343.981,330.396 C345.075,330.396 345.827,331.263 345.827,332.765 C345.827,334.888 344.327,337.474 342.478,338.542 L328.473,346.627 C327.932,346.939 327.422,347.087 326.97,347.087 C325.875,347.087 325.124,346.22 325.124,344.718 C325.124,342.595 326.624,340.009 328.473,338.941 L342.478,330.856 C343.018,330.544 343.529,330.396 343.981,330.396" fill="#52676E"/>
    <path d="M361.797,325.251 L361.265,325.558 C360.785,325.836 360.396,325.541 360.396,324.901 L360.396,323.187 C360.396,322.853 360.574,322.544 360.863,322.377 L361.395,322.07 C361.875,321.793 362.264,322.087 362.264,322.728 L362.264,324.442 C362.264,324.776 362.086,325.084 361.797,325.251" fill="#272F31"/>
    <path d="M364.531,323.673 L363.999,323.98 C363.519,324.257 363.129,323.963 363.129,323.323 L363.129,321.608 C363.129,321.274 363.308,320.966 363.597,320.799 L364.129,320.492 C364.609,320.215 364.998,320.509 364.998,321.149 L364.998,322.864 C364.998,323.197 364.82,323.506 364.531,323.673" fill="#272F31"/>
    <path d="M367.265,322.094 L366.733,322.402 C366.253,322.679 365.863,322.385 365.863,321.744 L365.863,320.03 C365.863,319.696 366.041,319.387 366.331,319.221 L366.863,318.913 C367.343,318.636 367.732,318.93 367.732,319.571 L367.732,321.285 C367.732,321.619 367.554,321.928 367.265,322.094" fill="#272F31"/>
    <path d="M369.999,320.516 L369.467,320.823 C368.986,321.1 368.597,320.806 368.597,320.166 L368.597,318.451 C368.597,318.118 368.775,317.809 369.064,317.642 L369.596,317.335 C370.077,317.058 370.466,317.352 370.466,317.992 L370.466,319.707 C370.466,320.041 370.288,320.349 369.999,320.516" fill="#272F31"/>
    <path d="M372.733,318.938 L372.201,319.245 C371.72,319.522 371.331,319.228 371.331,318.587 L371.331,316.873 C371.331,316.539 371.509,316.231 371.798,316.064 L372.33,315.757 C372.81,315.479 373.2,315.774 373.2,316.414 L373.2,318.128 C373.2,318.462 373.022,318.771 372.733,318.938" fill="#272F31"/>
    <path d="M83.377,174.45 C83.95,174.781 84.012,175.282 83.516,175.568 L66.476,185.407 C66.177,185.579 65.809,185.579 65.51,185.407 L65.099,185.169 C64.525,184.838 64.463,184.338 64.96,184.051 L82,174.213 C82.299,174.04 82.667,174.04 82.966,174.213 L83.377,174.45" fill="#334043"/>
    <path d="M100.704,164.529 C102.038,165.3 102.031,166.552 100.689,167.327 C99.346,168.102 97.177,168.106 95.843,167.336 C94.509,166.566 94.516,165.313 95.858,164.538 C97.201,163.763 99.37,163.759 100.704,164.529" fill="#334043"/>
    <path d="M47.772,195.09 C49.105,195.86 51.275,195.856 52.617,195.081 C53.959,194.306 53.966,193.054 52.632,192.284 C51.298,191.514 49.129,191.517 47.787,192.292 C46.445,193.067 46.438,194.32 47.772,195.09" fill="#334043"/>
    <path d="M363.505,297.431 L277.964,346.818 C268.909,352.046 253.092,351.39 242.637,345.354 L40.447,228.62 C29.992,222.583 28.856,213.451 37.911,208.224 L123.452,158.836 C132.507,153.609 148.323,154.264 158.779,160.301 L360.969,277.035 C371.424,283.072 372.56,292.203 363.505,297.431" fill="#334043"/>
    <path d="M310.898,314.48 L312.845,315.604 C313.051,315.723 313.18,315.847 313.249,315.947 C313.319,316.049 313.335,316.119 313.336,316.182 C313.335,316.246 313.319,316.318 313.247,316.422 C313.175,316.525 313.043,316.652 312.832,316.774 L310.873,317.905 C310.564,318.083 310.458,318.478 310.637,318.787 C310.815,319.096 311.21,319.202 311.519,319.023 L313.478,317.892 C313.818,317.695 314.099,317.455 314.303,317.166 C314.507,316.878 314.629,316.535 314.628,316.182 C314.629,315.833 314.509,315.491 314.307,315.206 C314.105,314.919 313.827,314.68 313.49,314.486 L311.543,313.362 C311.235,313.183 310.84,313.289 310.661,313.598 C310.483,313.907 310.589,314.302 310.898,314.48" fill="#FFFFFE"/>
    <path d="M309.115,317.909 L307.168,316.785 C306.961,316.666 306.832,316.542 306.763,316.442 C306.693,316.34 306.677,316.27 306.676,316.207 C306.677,316.143 306.693,316.071 306.765,315.967 C306.837,315.864 306.969,315.737 307.18,315.616 L309.139,314.485 C309.448,314.306 309.554,313.911 309.376,313.602 C309.197,313.294 308.802,313.188 308.494,313.366 L306.534,314.497 C306.194,314.694 305.913,314.934 305.709,315.223 C305.505,315.511 305.384,315.855 305.385,316.207 C305.384,316.556 305.504,316.898 305.705,317.183 C305.907,317.471 306.185,317.709 306.522,317.904 L308.469,319.027 C308.778,319.206 309.173,319.1 309.351,318.791 C309.529,318.482 309.424,318.087 309.115,317.909" fill="#FFFFFE"/>
    <path d="M343.696,299.158 L339.106,299.166 L339.119,296.75 C339.121,296.447 338.877,296.2 338.574,296.198 C338.271,296.197 338.024,296.441 338.022,296.744 L338.006,299.713 C338.005,299.859 338.063,299.999 338.166,300.103 C338.269,300.207 338.409,300.264 338.556,300.264 L343.698,300.255 C344.001,300.254 344.246,300.008 344.245,299.705 C344.245,299.402 343.999,299.157 343.696,299.158" fill="#FFFFFE"/>
    <path d="M338.829,300.191 L343.777,297.334 C344.04,297.182 344.13,296.847 343.978,296.584 C343.827,296.322 343.491,296.232 343.229,296.383 L338.28,299.24 C338.018,299.392 337.928,299.727 338.08,299.99 C338.231,300.252 338.567,300.342 338.829,300.191" fill="#FFFFFE"/>
    <path d="M276.468,335.281 L279.633,333.454 C279.976,333.256 280.255,333.019 280.456,332.742 C280.656,332.467 280.778,332.143 280.777,331.808 C280.779,331.208 280.392,330.683 279.823,330.362 C279.573,330.218 279.253,330.304 279.108,330.554 C278.964,330.804 279.05,331.124 279.3,331.269 C279.659,331.484 279.729,331.67 279.73,331.808 C279.73,331.892 279.703,331.996 279.608,332.128 C279.514,332.258 279.352,332.408 279.11,332.548 L275.945,334.375 C275.695,334.519 275.609,334.839 275.753,335.09 C275.898,335.34 276.218,335.426 276.468,335.281" fill="#FFFFFE"/>
    <path d="M282.623,332.281 L279.458,334.108 C279.115,334.307 278.836,334.543 278.635,334.82 C278.435,335.095 278.313,335.419 278.314,335.755 C278.312,336.354 278.699,336.879 279.268,337.2 C279.518,337.344 279.838,337.259 279.983,337.008 C280.127,336.758 280.042,336.438 279.791,336.293 C279.432,336.078 279.362,335.892 279.361,335.755 C279.361,335.67 279.388,335.566 279.483,335.434 C279.577,335.304 279.74,335.154 279.981,335.015 L283.146,333.187 C283.396,333.043 283.482,332.723 283.338,332.472 C283.193,332.222 282.873,332.136 282.623,332.281" fill="#FFFFFE"/>
    <path d="M299.061,254.606 L203.789,309.611 C201.019,311.211 196.18,311.01 192.982,309.163 C189.783,307.317 189.436,304.523 192.206,302.924 L287.478,247.918 C290.248,246.319 295.086,246.52 298.285,248.366 C301.483,250.213 301.831,253.007 299.061,254.606" fill="#6AB2A9"/>
    <path d="M84.459,231.383 L80.367,233.745 C76.378,236.048 69.41,235.76 64.803,233.1 L63.062,232.095 C58.455,229.435 57.955,225.412 61.944,223.109 L66.036,220.746 C70.026,218.443 76.994,218.732 81.601,221.392 L83.342,222.397 C87.948,225.056 88.448,229.08 84.459,231.383" fill="#536063"/>
    <path d="M114.513,248.735 L110.421,251.097 C106.432,253.4 99.464,253.111 94.857,250.452 L93.116,249.447 C88.509,246.787 88.009,242.764 91.999,240.46 L96.09,238.098 C100.08,235.795 107.048,236.084 111.655,238.743 L113.396,239.749 C118.002,242.408 118.503,246.431 114.513,248.735" fill="#536063"/>
    <path d="M142.246,232.723 L138.154,235.086 C134.165,237.389 127.196,237.1 122.59,234.44 L120.849,233.435 C116.242,230.776 115.742,226.752 119.731,224.449 L123.823,222.087 C127.812,219.783 134.781,220.072 139.387,222.732 L141.128,223.737 C145.735,226.397 146.235,230.42 142.246,232.723" fill="#536063"/>
    <path d="M295.64,249.894 C297.677,251.07 297.666,252.982 295.617,254.165 C293.567,255.349 290.254,255.355 288.218,254.179 C286.181,253.003 286.191,251.09 288.241,249.907 C290.29,248.724 293.603,248.718 295.64,249.894" fill="#334043"/>
    <g clip-path="url(#Clip_1)">
      <path d="M34.983,155.307 L361.736,155.307 L361.736,277.494 L34.983,277.494 z" fill="#627377"/>
    </g>
    <path d="M369.134,291.316 C368.092,288.212 365.353,285.136 360.969,282.604 L256.542,222.314 C251.002,219.115 244.718,217.431 238.321,217.431 L168.732,217.431 L169.978,216.712 C173.968,214.408 173.467,210.385 168.861,207.726 L167.12,206.72 C164.6,205.266 161.374,204.52 158.315,204.52 C155.782,204.52 153.363,205.032 151.555,206.075 L147.464,208.438 C143.474,210.741 143.975,214.764 148.581,217.424 L148.594,217.431 L108.624,217.431 L112.192,215.371 C116.181,213.068 115.681,209.045 111.074,206.385 L109.333,205.38 C106.813,203.925 103.588,203.18 100.529,203.18 C97.995,203.18 95.576,203.692 93.769,204.735 L89.677,207.097 C85.688,209.401 86.188,213.424 90.794,216.083 L92.536,217.089 C92.742,217.208 92.953,217.322 93.168,217.431 L31.805,217.431 L31.805,217.423 C31.701,214.901 32.749,212.453 34.983,210.361 C34.984,210.361 34.984,210.36 34.985,210.359 C34.99,210.354 34.996,210.349 35.001,210.344 C35.002,210.344 35.002,210.343 35.003,210.343 C35.008,210.338 35.014,210.333 35.019,210.328 C35.02,210.327 35.02,210.326 35.021,210.326 C35.026,210.321 35.032,210.316 35.037,210.311 C35.038,210.31 35.038,210.31 35.039,210.309 C35.044,210.304 35.05,210.299 35.056,210.294 L35.057,210.293 C35.116,210.238 35.177,210.183 35.238,210.129 C35.238,210.128 35.239,210.127 35.24,210.127 C35.245,210.122 35.25,210.118 35.255,210.113 C35.257,210.112 35.258,210.111 35.259,210.11 C35.264,210.106 35.269,210.101 35.273,210.097 C35.275,210.096 35.277,210.094 35.279,210.093 C35.283,210.088 35.288,210.084 35.293,210.08 C35.294,210.079 35.296,210.077 35.298,210.076 C35.302,210.072 35.307,210.068 35.311,210.064 C35.313,210.062 35.315,210.06 35.317,210.058 C35.322,210.055 35.326,210.051 35.33,210.047 C35.332,210.045 35.335,210.043 35.337,210.042 C35.341,210.038 35.345,210.034 35.349,210.031 C35.352,210.029 35.354,210.027 35.356,210.025 C35.36,210.021 35.365,210.017 35.369,210.013 C35.371,210.012 35.374,210.01 35.375,210.008 C35.379,210.005 35.384,210.001 35.388,209.997 C35.39,209.995 35.393,209.993 35.395,209.991 C35.399,209.987 35.404,209.983 35.408,209.98 C35.41,209.978 35.411,209.977 35.413,209.976 C35.418,209.972 35.422,209.968 35.428,209.963 C35.428,209.962 35.429,209.962 35.43,209.961 C35.447,209.946 35.464,209.932 35.482,209.917 C35.483,209.916 35.484,209.915 35.486,209.914 C35.49,209.91 35.494,209.907 35.498,209.903 C35.501,209.901 35.503,209.899 35.505,209.897 C35.51,209.893 35.513,209.89 35.518,209.887 C35.52,209.884 35.523,209.882 35.525,209.88 C35.529,209.877 35.532,209.874 35.536,209.871 C35.539,209.868 35.543,209.865 35.546,209.863 C35.549,209.86 35.552,209.857 35.555,209.855 C35.559,209.852 35.562,209.849 35.566,209.846 C35.569,209.843 35.573,209.84 35.576,209.838 C35.58,209.835 35.583,209.832 35.586,209.829 C35.589,209.826 35.593,209.824 35.596,209.821 C35.599,209.818 35.603,209.815 35.606,209.812 C35.609,209.81 35.613,209.807 35.616,209.805 C35.62,209.801 35.623,209.798 35.628,209.795 C35.63,209.792 35.633,209.79 35.636,209.788 C35.64,209.785 35.644,209.782 35.648,209.778 C35.651,209.776 35.654,209.773 35.657,209.771 C35.66,209.768 35.665,209.764 35.668,209.762 C35.671,209.759 35.674,209.757 35.677,209.754 C35.681,209.751 35.684,209.748 35.688,209.745 C35.692,209.742 35.694,209.74 35.698,209.737 C35.701,209.734 35.706,209.731 35.71,209.727 C35.713,209.725 35.715,209.723 35.718,209.721 C35.722,209.718 35.725,209.715 35.729,209.712 C35.733,209.709 35.736,209.706 35.739,209.704 C35.742,209.702 35.745,209.699 35.747,209.697 C35.761,209.686 35.775,209.675 35.789,209.663 C35.793,209.661 35.797,209.657 35.801,209.654 C35.803,209.652 35.805,209.65 35.808,209.648 C35.813,209.645 35.817,209.641 35.821,209.638 C35.825,209.635 35.828,209.632 35.831,209.63 C35.835,209.627 35.838,209.624 35.842,209.621 C35.845,209.619 35.848,209.616 35.852,209.614 C35.856,209.61 35.859,209.607 35.864,209.604 C35.866,209.602 35.869,209.6 35.872,209.598 C35.876,209.594 35.88,209.591 35.885,209.587 C35.888,209.585 35.89,209.583 35.892,209.581 C35.897,209.578 35.901,209.574 35.906,209.571 C35.909,209.569 35.912,209.566 35.915,209.564 C35.919,209.561 35.923,209.558 35.927,209.554 C35.929,209.552 35.932,209.55 35.935,209.548 C35.94,209.544 35.944,209.541 35.949,209.537 C35.951,209.535 35.954,209.533 35.956,209.531 C35.961,209.527 35.966,209.524 35.971,209.52 C35.973,209.518 35.975,209.517 35.977,209.515 C35.982,209.511 35.987,209.508 35.992,209.503 C35.995,209.502 35.997,209.5 35.999,209.498 C36.004,209.494 36.009,209.491 36.014,209.487 C36.016,209.485 36.018,209.484 36.02,209.482 C36.025,209.478 36.031,209.474 36.036,209.47 C36.038,209.468 36.04,209.467 36.042,209.465 C36.048,209.46 36.055,209.455 36.061,209.451 C36.062,209.45 36.062,209.45 36.063,209.449 C36.069,209.444 36.076,209.439 36.083,209.434 C36.083,209.433 36.084,209.433 36.085,209.432 C36.1,209.421 36.114,209.41 36.129,209.399 C36.13,209.398 36.131,209.398 36.131,209.397 C36.138,209.392 36.144,209.387 36.151,209.382 C36.152,209.382 36.152,209.381 36.153,209.381 C36.159,209.376 36.166,209.371 36.173,209.366 C36.175,209.365 36.176,209.363 36.178,209.362 C36.184,209.358 36.189,209.354 36.195,209.349 C36.197,209.348 36.199,209.347 36.2,209.345 C36.206,209.341 36.211,209.337 36.216,209.333 C36.218,209.332 36.221,209.33 36.223,209.328 C36.228,209.324 36.234,209.321 36.239,209.317 C36.241,209.315 36.243,209.313 36.245,209.312 C36.25,209.308 36.256,209.304 36.26,209.301 C36.263,209.299 36.265,209.297 36.268,209.295 C36.273,209.291 36.278,209.288 36.284,209.283 C36.285,209.282 36.287,209.281 36.289,209.28 C36.295,209.275 36.301,209.271 36.307,209.267 C36.308,209.266 36.31,209.264 36.311,209.263 C36.318,209.258 36.324,209.254 36.331,209.249 C36.332,209.248 36.332,209.248 36.333,209.247 C36.34,209.242 36.346,209.237 36.353,209.233 C36.354,209.232 36.355,209.231 36.356,209.231 C36.363,209.225 36.37,209.22 36.377,209.215 C36.377,209.215 36.378,209.215 36.378,209.214 C36.416,209.187 36.454,209.16 36.493,209.132 C36.494,209.131 36.495,209.131 36.496,209.13 C36.502,209.125 36.509,209.12 36.516,209.116 C36.517,209.115 36.518,209.114 36.519,209.114 C36.525,209.109 36.531,209.105 36.538,209.1 C36.54,209.098 36.542,209.097 36.544,209.096 C36.549,209.092 36.555,209.088 36.561,209.084 C36.563,209.082 36.565,209.081 36.568,209.079 C36.573,209.075 36.578,209.072 36.583,209.068 C36.586,209.066 36.588,209.065 36.591,209.063 C36.596,209.059 36.602,209.055 36.607,209.051 C36.609,209.05 36.611,209.049 36.613,209.047 C36.619,209.043 36.624,209.039 36.63,209.035 C36.632,209.034 36.634,209.033 36.636,209.031 C36.642,209.027 36.649,209.022 36.654,209.018 C36.656,209.017 36.657,209.016 36.659,209.015 C36.665,209.011 36.672,209.006 36.678,209.002 C36.679,209.001 36.681,209 36.682,208.999 C36.689,208.995 36.697,208.989 36.704,208.984 C36.704,208.984 36.704,208.984 36.705,208.984 C36.712,208.979 36.719,208.974 36.726,208.969 C36.727,208.968 36.728,208.968 36.729,208.967 C36.761,208.945 36.792,208.924 36.824,208.903 C36.824,208.902 36.826,208.901 36.826,208.901 C36.833,208.896 36.841,208.891 36.848,208.886 C36.848,208.886 36.849,208.885 36.85,208.884 C36.857,208.88 36.864,208.875 36.871,208.871 C36.872,208.87 36.874,208.868 36.876,208.867 C36.882,208.863 36.889,208.859 36.895,208.855 C36.896,208.854 36.898,208.853 36.899,208.852 C36.905,208.848 36.912,208.843 36.918,208.839 C36.92,208.838 36.922,208.836 36.925,208.835 C36.93,208.831 36.936,208.827 36.942,208.823 C36.944,208.822 36.947,208.82 36.949,208.819 C36.954,208.815 36.96,208.811 36.965,208.808 C36.968,208.806 36.97,208.805 36.972,208.803 C36.979,208.799 36.985,208.795 36.991,208.791 C36.992,208.79 36.994,208.789 36.996,208.788 C37.002,208.783 37.008,208.78 37.014,208.775 C37.016,208.774 37.018,208.773 37.02,208.772 C37.026,208.768 37.032,208.764 37.038,208.76 C37.041,208.758 37.042,208.757 37.044,208.756 C37.051,208.751 37.057,208.748 37.064,208.743 C37.065,208.742 37.067,208.741 37.068,208.74 C37.076,208.735 37.084,208.73 37.091,208.725 L37.092,208.725 C37.117,208.709 37.141,208.693 37.166,208.677 L37.167,208.677 C37.175,208.671 37.182,208.666 37.191,208.661 C37.191,208.661 37.192,208.661 37.192,208.66 C37.199,208.656 37.208,208.65 37.215,208.646 C37.216,208.645 37.218,208.643 37.22,208.642 C37.226,208.638 37.233,208.634 37.239,208.63 C37.241,208.629 37.243,208.628 37.246,208.626 C37.252,208.622 37.257,208.619 37.264,208.615 C37.266,208.613 37.268,208.612 37.27,208.611 C37.276,208.607 37.282,208.603 37.289,208.599 C37.291,208.598 37.292,208.597 37.294,208.595 C37.3,208.591 37.307,208.588 37.313,208.584 C37.315,208.582 37.318,208.581 37.32,208.579 C37.325,208.576 37.332,208.572 37.337,208.568 C37.34,208.567 37.342,208.565 37.345,208.564 C37.351,208.56 37.356,208.556 37.362,208.553 C37.365,208.551 37.367,208.55 37.37,208.548 C37.376,208.544 37.382,208.541 37.388,208.537 C37.39,208.535 37.392,208.534 37.394,208.533 C37.4,208.529 37.406,208.526 37.412,208.522 C37.415,208.52 37.417,208.519 37.42,208.517 C37.427,208.513 37.432,208.51 37.439,208.505 C37.441,208.504 37.442,208.503 37.444,208.502 C37.451,208.498 37.458,208.493 37.465,208.489 C37.466,208.488 37.468,208.487 37.469,208.487 C37.502,208.466 37.536,208.446 37.57,208.425 C37.572,208.424 37.574,208.423 37.576,208.421 C37.583,208.417 37.589,208.414 37.595,208.41 C37.598,208.408 37.6,208.407 37.603,208.405 C37.608,208.402 37.614,208.398 37.62,208.395 C37.623,208.393 37.626,208.391 37.63,208.389 C37.635,208.386 37.64,208.383 37.645,208.38 C37.649,208.378 37.652,208.376 37.655,208.374 C37.66,208.371 37.665,208.368 37.671,208.365 C37.674,208.363 37.677,208.361 37.68,208.359 C37.686,208.356 37.691,208.353 37.696,208.349 C37.699,208.348 37.703,208.345 37.706,208.344 C37.71,208.341 37.716,208.338 37.721,208.335 C37.725,208.332 37.728,208.331 37.732,208.328 C37.737,208.325 37.742,208.322 37.747,208.319 C37.75,208.317 37.753,208.315 37.757,208.313 C37.762,208.31 37.767,208.308 37.772,208.305 C37.775,208.303 37.779,208.3 37.783,208.298 C37.788,208.295 37.793,208.292 37.798,208.289 C37.801,208.287 37.805,208.285 37.808,208.283 C37.813,208.281 37.818,208.278 37.822,208.275 C37.826,208.273 37.83,208.27 37.834,208.268 C37.839,208.265 37.845,208.262 37.85,208.259 C37.853,208.257 37.856,208.255 37.859,208.253 C37.865,208.25 37.872,208.246 37.878,208.243 C37.88,208.241 37.882,208.24 37.885,208.238 C37.894,208.233 37.902,208.229 37.911,208.224 L123.452,158.836 C123.468,158.827 123.485,158.817 123.501,158.808 C127.596,156.459 133.065,155.308 138.791,155.307 C138.793,155.307 138.794,155.307 138.795,155.307 C138.797,155.307 138.798,155.307 138.8,155.307 C145.666,155.308 152.905,156.964 158.595,160.195 C158.629,160.215 158.664,160.235 158.698,160.254 C158.725,160.27 158.752,160.285 158.779,160.301 L360.969,277.035 C360.981,277.042 360.993,277.049 361.006,277.056 C361.01,277.059 361.013,277.06 361.016,277.063 C361.025,277.068 361.035,277.073 361.044,277.078 C361.047,277.081 361.051,277.083 361.055,277.085 C361.067,277.092 361.078,277.098 361.089,277.105 C361.093,277.107 361.096,277.109 361.099,277.111 C361.109,277.116 361.118,277.122 361.127,277.127 C361.132,277.13 361.136,277.133 361.141,277.135 C361.149,277.14 361.157,277.145 361.165,277.149 C361.169,277.152 361.173,277.154 361.178,277.157 C361.189,277.164 361.201,277.171 361.212,277.177 C361.216,277.18 361.219,277.181 361.223,277.183 C361.232,277.189 361.24,277.194 361.249,277.199 C361.253,277.202 361.258,277.204 361.263,277.207 C361.271,277.212 361.279,277.217 361.288,277.222 C361.292,277.224 361.295,277.226 361.299,277.229 C361.311,277.236 361.322,277.242 361.334,277.25 C361.337,277.251 361.34,277.253 361.343,277.255 C361.352,277.26 361.362,277.266 361.371,277.271 C361.375,277.274 361.379,277.276 361.383,277.279 C361.392,277.284 361.401,277.289 361.409,277.295 C361.413,277.297 361.416,277.298 361.419,277.301 C361.431,277.308 361.443,277.315 361.455,277.322 C361.457,277.323 361.461,277.326 361.463,277.327 C361.473,277.333 361.482,277.339 361.492,277.344 C361.495,277.346 361.499,277.348 361.502,277.35 C361.513,277.357 361.523,277.363 361.534,277.37 C361.535,277.371 361.537,277.372 361.538,277.372 C361.55,277.38 361.563,277.387 361.575,277.395 C361.577,277.396 361.579,277.397 361.581,277.399 C361.592,277.405 361.603,277.412 361.614,277.418 C361.615,277.42 361.617,277.421 361.619,277.422 C361.645,277.438 361.67,277.453 361.696,277.469 C361.696,277.469 361.696,277.469 361.697,277.47 C361.709,277.477 361.722,277.485 361.735,277.493 L361.736,277.494 C368.218,281.509 370.759,286.754 369.134,291.316 M186.048,188.509 C183.515,188.509 181.095,189.021 179.288,190.064 L175.196,192.426 C171.207,194.73 171.707,198.753 176.314,201.412 L178.055,202.418 C180.575,203.872 183.8,204.618 186.859,204.618 C189.393,204.618 191.812,204.106 193.619,203.063 L197.711,200.7 C201.7,198.397 201.2,194.374 196.593,191.714 L194.852,190.709 C192.333,189.254 189.107,188.509 186.048,188.509 M128.261,187.169 C125.728,187.169 123.309,187.68 121.501,188.724 L117.41,191.086 C113.42,193.389 113.92,197.412 118.527,200.072 L120.268,201.077 C122.788,202.532 126.014,203.277 129.073,203.277 C131.606,203.277 134.025,202.766 135.833,201.722 L139.924,199.36 C143.914,197.057 143.413,193.034 138.807,190.374 L137.066,189.369 C134.546,187.914 131.32,187.169 128.261,187.169 M155.994,171.157 C153.46,171.157 151.041,171.669 149.234,172.712 L145.142,175.074 C141.153,177.378 141.653,181.401 146.26,184.061 L148.001,185.066 C150.52,186.521 153.746,187.266 156.805,187.266 C159.339,187.266 161.758,186.754 163.565,185.711 L167.657,183.349 C171.646,181.045 171.146,177.022 166.539,174.363 L164.798,173.357 C162.279,171.903 159.053,171.157 155.994,171.157" fill="#536063"/>
    <path d="M37.911,208.92 L123.452,159.533 C132.507,154.305 148.323,154.96 158.779,160.997 L360.968,277.731 C366.521,280.937 369.445,285.016 369.61,288.919 C369.784,284.809 366.852,280.432 360.968,277.035 L158.779,160.301 C148.323,154.264 132.507,153.609 123.452,158.836 L37.911,208.224 C33.665,210.675 31.66,213.985 31.805,217.431 C31.941,214.238 33.952,211.206 37.911,208.92" fill="#272F31"/>
    <path d="M253.371,355.534 L253.371,372.12 L23.323,239.302 L23.323,222.716 L253.371,355.534" fill="#334043"/>
    <path d="M99.343,275.795 C99.343,276.967 100.171,278.395 101.192,278.985 L115.312,287.137 C116.333,287.727 117.161,287.255 117.161,286.083 C117.161,284.91 116.333,283.482 115.312,282.892 L101.192,274.74 C100.171,274.151 99.343,274.623 99.343,275.795" fill="#52676E"/>
    <path d="M118.39,285.39 C118.39,284.218 117.561,282.789 116.54,282.199 L102.421,274.047 C101.908,273.752 101.445,273.723 101.11,273.916 L99.99,274.568 C100.314,274.434 100.731,274.474 101.192,274.74 L115.312,282.892 C116.333,283.482 117.161,284.91 117.161,286.083 C117.161,286.617 116.983,286.996 116.7,287.206 L117.796,286.604 L117.778,286.603 C118.151,286.43 118.39,286.013 118.39,285.39" fill="#415358"/>
    <path d="M42.84,243.173 C42.84,244.345 43.668,245.773 44.689,246.363 L84.225,269.189 C85.246,269.779 86.075,269.307 86.075,268.135 C86.075,266.962 85.246,265.534 84.225,264.944 L44.689,242.118 C43.668,241.528 42.84,242.001 42.84,243.173" fill="#52676E"/>
    <path d="M87.303,267.442 C87.303,266.27 86.475,264.841 85.453,264.251 L45.918,241.425 C45.406,241.13 44.942,241.101 44.607,241.294 L43.487,241.946 C43.811,241.812 44.228,241.852 44.689,242.118 L84.225,264.944 C85.246,265.534 86.075,266.962 86.075,268.135 C86.075,268.669 85.897,269.048 85.613,269.258 L86.709,268.656 L86.692,268.655 C87.064,268.482 87.303,268.065 87.303,267.442" fill="#415358"/>
    <path d="M72.952,225.746 L73.452,225.746 L73.452,227.246 L72.952,227.246 z" fill="#FFFFFE"/>
    <path d="M72.952,222.707 L73.452,222.707 L73.452,219.668 L72.952,219.668 z M72.952,216.63 L73.452,216.63 L73.452,213.591 L72.952,213.591 z M72.952,210.553 L73.452,210.553 L73.452,207.514 L72.952,207.514 z M72.952,204.475 L73.452,204.475 L73.452,201.437 L72.952,201.437 z M72.952,198.398 L73.452,198.398 L73.452,195.359 L72.952,195.359 z M72.952,192.321 L73.452,192.321 L73.452,189.282 L72.952,189.282 z M72.952,186.243 L73.452,186.243 L73.452,183.205 L72.952,183.205 z M72.952,180.166 L73.452,180.166 L73.452,177.127 L72.952,177.127 z M72.952,174.089 L73.452,174.089 L73.452,171.05 L72.952,171.05 z M72.952,168.011 L73.452,168.011 L73.452,164.973 L72.952,164.973 z M72.952,161.934 L73.452,161.934 L73.452,158.896 L72.952,158.896 z M72.952,155.857 L73.452,155.857 L73.452,152.818 L72.952,152.818 z M72.952,149.78 L73.452,149.78 L73.452,146.741 L72.952,146.741 z M72.952,143.702 L73.452,143.702 L73.452,140.664 L72.952,140.664 z" fill="#FFFFFE"/>
    <path d="M73.452,137.625 L73.452,135.983 L72.042,135.141 L71.786,135.57 L72.952,136.267 L72.952,137.625 L73.452,137.625" fill="#FFFFFE"/>
    <path d="M70.006,133.925 L67.969,132.708 L67.713,133.138 L69.749,134.354 z M65.933,131.492 L63.896,130.275 L63.64,130.705 L65.676,131.921" fill="#FFFFFE"/>
    <path d="M61.86,129.059 L60.572,128.29 L60.316,128.719 L61.603,129.488" fill="#FFFFFE"/>
    <path d="M61.488,126.939 C60.597,126.406 59.443,126.697 58.911,127.589 C58.378,128.48 58.669,129.634 59.56,130.166 C60.452,130.699 61.606,130.408 62.138,129.517 C62.671,128.625 62.38,127.471 61.488,126.939" fill="#FFFFFE"/>
    <path d="M128.385,193.723 L128.885,193.723 L128.885,195.223 L128.385,195.223 z" fill="#FFFFFE"/>
    <path d="M128.385,190.684 L128.885,190.684 L128.885,187.646 L128.385,187.646 z M128.385,184.607 L128.885,184.607 L128.885,181.568 L128.385,181.568 z M128.385,178.53 L128.885,178.53 L128.885,175.491 L128.385,175.491 z M128.385,172.452 L128.885,172.452 L128.885,169.414 L128.385,169.414 z M128.385,166.375 L128.885,166.375 L128.885,163.337 L128.385,163.337 z M128.385,160.298 L128.885,160.298 L128.885,157.259 L128.385,157.259 z M128.385,154.221 L128.885,154.221 L128.885,151.182 L128.385,151.182 z M128.385,148.143 L128.885,148.143 L128.885,145.105 L128.385,145.105 z M128.385,142.066 L128.885,142.066 L128.885,139.027 L128.385,139.027 z M128.385,135.989 L128.885,135.989 L128.885,132.95 L128.385,132.95 z M128.385,129.911 L128.885,129.911 L128.885,126.873 L128.385,126.873 z M128.385,123.834 L128.885,123.834 L128.885,120.795 L128.385,120.795 z M128.385,117.757 L128.885,117.757 L128.885,114.718 L128.385,114.718 z M128.385,111.68 L128.885,111.68 L128.885,108.641 L128.385,108.641 z" fill="#FFFFFE"/>
    <path d="M128.885,105.602 L128.885,103.96 L127.476,103.118 L127.219,103.548 L128.385,104.244 L128.385,105.602 L128.885,105.602" fill="#FFFFFE"/>
    <path d="M125.172,101.742 L122.869,100.367 L122.612,100.796 L124.916,102.172" fill="#FFFFFE"/>
    <path d="M120.565,98.991 L119.278,98.221 L119.021,98.651 L120.309,99.42" fill="#FFFFFE"/>
    <path d="M120.194,96.87 C119.303,96.338 118.148,96.629 117.616,97.52 C117.084,98.411 117.375,99.566 118.266,100.098 C119.157,100.63 120.312,100.339 120.844,99.448 C121.376,98.557 121.085,97.403 120.194,96.87" fill="#FFFFFE"/>
    <path d="M156.149,177.712 L156.649,177.712 L156.649,179.212 L156.149,179.212 z" fill="#FFFFFE"/>
    <path d="M156.149,174.619 L156.649,174.619 L156.649,171.527 L156.149,171.527 z M156.149,168.435 L156.649,168.435 L156.649,165.343 L156.149,165.343 z M156.149,162.251 L156.649,162.251 L156.649,159.159 L156.149,159.159 z M156.149,156.066 L156.649,156.066 L156.649,152.974 L156.149,152.974 z M156.149,149.882 L156.649,149.882 L156.649,146.79 L156.149,146.79 z M156.149,143.698 L156.649,143.698 L156.649,140.606 L156.149,140.606 z M156.149,137.513 L156.649,137.513 L156.649,134.421 L156.149,134.421 z M156.149,131.329 L156.649,131.329 L156.649,128.237 L156.149,128.237 z M156.149,125.145 L156.649,125.145 L156.649,122.053 L156.149,122.053 z M156.149,118.961 L156.649,118.961 L156.649,115.868 L156.149,115.868 z M156.149,112.776 L156.649,112.776 L156.649,109.684 L156.149,109.684 z" fill="#FFFFFE"/>
    <path d="M156.649,106.592 L156.649,105.234 L157.817,104.542 L157.562,104.112 L156.149,104.949 L156.149,106.592 L156.649,106.592" fill="#FFFFFE"/>
    <path d="M160.215,103.12 L162.612,101.699 L162.357,101.268 L159.96,102.69 z M165.009,100.277 L167.407,98.855 L167.152,98.425 L164.754,99.847" fill="#FFFFFE"/>
    <path d="M169.804,97.434 L171.094,96.669 L170.839,96.239 L169.549,97.004" fill="#FFFFFE"/>
    <path d="M171.845,98.119 C172.738,97.589 173.032,96.436 172.503,95.543 C171.974,94.65 170.82,94.355 169.927,94.885 C169.034,95.414 168.74,96.567 169.269,97.46 C169.799,98.353 170.952,98.648 171.845,98.119" fill="#FFFFFE"/>
    <path d="M101.112,208.296 L101.612,208.296 L101.612,209.796 L101.112,209.796 z" fill="#FFFFFE"/>
    <path d="M101.112,205.251 L101.612,205.251 L101.612,202.205 L101.112,202.205 z M101.112,199.159 L101.612,199.159 L101.612,196.114 L101.112,196.114 z M101.112,193.068 L101.612,193.068 L101.612,190.023 L101.112,190.023 z M101.112,186.977 L101.612,186.977 L101.612,183.932 L101.112,183.932 z M101.112,180.886 L101.612,180.886 L101.612,177.84 L101.112,177.84 z M101.112,174.795 L101.612,174.795 L101.612,171.749 L101.112,171.749 z M101.112,168.704 L101.612,168.704 L101.612,165.658 L101.112,165.658 z M101.112,162.612 L101.612,162.612 L101.612,159.567 L101.112,159.567 z M101.112,156.521 L101.612,156.521 L101.612,153.476 L101.112,153.476 z M101.112,150.43 L101.612,150.43 L101.612,147.385 L101.112,147.385 z M101.112,144.339 L101.612,144.339 L101.612,141.293 L101.112,141.293 z M101.112,138.248 L101.612,138.248 L101.612,135.202 L101.112,135.202 z M101.112,132.157 L101.612,132.157 L101.612,129.111 L101.112,129.111 z M101.112,126.065 L101.612,126.065 L101.612,123.02 L101.112,123.02 z M101.112,119.974 L101.612,119.974 L101.612,116.929 L101.112,116.929 z" fill="#FFFFFE"/>
    <path d="M101.612,113.883 L101.612,112.245 L101.495,112.171 C101.493,112.171 101.031,111.88 100.227,111.376 L99.961,111.799 C100.765,112.304 101.229,112.595 101.229,112.595 L101.362,112.383 L101.112,112.383 L101.112,113.883 L101.612,113.883" fill="#FFFFFE"/>
    <path d="M97.625,109.742 C96.837,109.247 95.959,108.696 95.019,108.106 L94.754,108.53 C95.693,109.12 96.571,109.671 97.359,110.165 L97.625,109.742 z M92.414,106.471 C91.565,105.938 90.691,105.389 89.809,104.836 L89.544,105.259 C90.425,105.813 91.299,106.361 92.149,106.895 L92.414,106.471 z M87.204,103.2 C86.322,102.647 85.448,102.098 84.599,101.565 L84.333,101.989 C85.182,102.522 86.056,103.07 86.938,103.624 L87.204,103.2 z M81.994,99.93 C81.055,99.34 80.176,98.789 79.389,98.294 L79.123,98.718 C79.911,99.212 80.789,99.763 81.728,100.353 L81.994,99.93" fill="#FFFFFE"/>
    <path d="M76.797,96.667 C75.993,96.163 75.53,95.872 75.529,95.871 L75.396,96.083 L75.646,96.083 L75.646,94.583 L75.146,94.583 L75.146,96.221 L75.263,96.295 C75.263,96.295 75.727,96.586 76.531,97.091 L76.797,96.667" fill="#FFFFFE"/>
    <path d="M75.146,91.569 L75.646,91.569 L75.646,88.554 L75.146,88.554 z M75.146,85.54 L75.646,85.54 L75.646,82.525 L75.146,82.525 z M75.146,79.511 L75.646,79.511 L75.646,76.497 L75.146,76.497 z M75.146,73.482 L75.646,73.482 L75.646,70.468 L75.146,70.468 z M75.146,67.453 L75.646,67.453 L75.646,64.439 L75.146,64.439 z M75.146,61.424 L75.646,61.424 L75.646,58.41 L75.146,58.41 z M75.146,55.396 L75.646,55.396 L75.646,52.381 L75.146,52.381 z M75.146,49.367 L75.646,49.367 L75.646,46.352 L75.146,46.352 z M75.146,43.338 L75.646,43.338 L75.646,40.323 L75.146,40.323 z" fill="#FFFFFE"/>
    <path d="M75.646,37.309 L75.646,35.665 L74.222,34.843 L73.972,35.276 L75.146,35.953 L75.146,37.309 L75.646,37.309" fill="#FFFFFE"/>
    <path d="M71.823,33.458 L69.423,32.073 L69.173,32.506 L71.573,33.891 z M67.024,30.688 L64.625,29.303 L64.375,29.736 L66.774,31.121 z M62.226,27.918 L59.826,26.533 L59.576,26.966 L61.976,28.351" fill="#FFFFFE"/>
    <path d="M57.427,25.149 L56.128,24.399 L55.878,24.832 L57.177,25.582" fill="#FFFFFE"/>
    <path d="M57.024,23.034 C56.125,22.515 54.975,22.823 54.456,23.722 C53.937,24.621 54.246,25.771 55.145,26.29 C56.044,26.809 57.194,26.501 57.712,25.602 C58.231,24.703 57.923,23.553 57.024,23.034" fill="#FFFFFE"/>
    <path d="M103.132,244.815 L104.436,245.557 L104.683,245.122 L103.38,244.38" fill="#FFFFFE"/>
    <path d="M107.137,247.095 L109.838,248.633 L110.085,248.198 L107.384,246.66 z M112.539,250.17 L115.24,251.708 L115.487,251.274 L112.786,249.736 z M117.941,253.246 L120.642,254.784 L120.89,254.349 L118.188,252.812 z M123.343,256.322 L126.044,257.86 L126.292,257.425 L123.591,255.887 z M128.745,259.397 L131.447,260.935 L131.694,260.501 L128.993,258.963 z M134.148,262.473 L136.849,264.011 L137.096,263.576 L134.395,262.038 z M139.55,265.549 L142.251,267.086 L142.498,266.652 L139.797,265.114 z M144.952,268.624 L147.653,270.162 L147.9,269.728 L145.199,268.19 z M150.354,271.7 L153.055,273.238 L153.303,272.803 L150.601,271.265 z M155.756,274.776 L158.457,276.313 L158.705,275.879 L156.004,274.341 z M161.158,277.851 L163.859,279.389 L164.107,278.955 L161.406,277.417 z M166.561,280.927 L169.262,282.465 L169.509,282.03 L166.808,280.492 z M171.963,284.003 L174.664,285.54 L174.911,285.106 L172.21,283.568" fill="#FFFFFE"/>
    <path d="M177.365,287.078 L178.793,287.891 L180.216,287.07 L179.967,286.637 L178.791,287.315 L177.612,286.644 L177.365,287.078" fill="#FFFFFE"/>
    <path d="M182.834,285.561 L185.451,284.051 L185.202,283.618 L182.584,285.127 z M188.069,282.541 L190.686,281.031 L190.437,280.598 L187.819,282.108 z M193.304,279.522 L195.921,278.012 L195.672,277.579 L193.054,279.088 z M198.539,276.502 L201.156,274.992 L200.907,274.559 L198.289,276.069 z M203.774,273.483 L206.391,271.973 L206.142,271.54 L203.524,273.049 z M209.009,270.463 L211.626,268.953 L211.377,268.52 L208.759,270.03 z M214.244,267.444 L216.862,265.934 L216.612,265.501 L213.994,267.01 z M219.479,264.424 L222.097,262.914 L221.847,262.481 L219.229,263.991 z M224.714,261.405 L227.332,259.895 L227.082,259.462 L224.464,260.971 z M229.949,258.385 L232.567,256.875 L232.317,256.442 L229.699,257.952 z M235.184,255.366 L237.802,253.856 L237.552,253.423 L234.934,254.932 z M240.419,252.346 L243.037,250.836 L242.787,250.403 L240.169,251.913 z M245.654,249.327 L248.272,247.817 L248.022,247.384 L245.404,248.893 z M250.889,246.307 L253.507,244.797 L253.257,244.364 L250.639,245.874 z M256.124,243.288 L258.742,241.778 L258.492,241.345 L255.874,242.854 z M261.359,240.268 L263.977,238.758 L263.727,238.325 L261.109,239.835 z M266.594,237.249 L269.212,235.739 L268.962,235.306 L266.344,236.816 z M271.829,234.229 L274.447,232.719 L274.197,232.286 L271.579,233.796 z M277.064,231.21 L279.682,229.7 L279.432,229.267 L276.814,230.777 z M282.299,228.19 L284.917,226.68 L284.667,226.247 L282.049,227.757 z M287.534,225.171 L290.152,223.661 L289.902,223.228 L287.284,224.738 z M292.769,222.151 L295.387,220.641 L295.137,220.208 L292.519,221.718 z M298.004,219.132 L300.622,217.622 L300.372,217.189 L297.754,218.699 z M303.239,216.112 L305.857,214.603 L305.607,214.169 L302.99,215.679" fill="#FFFFFE"/>
    <path d="M308.475,213.093 L309.774,212.343 L309.524,211.91 L308.225,212.66" fill="#FFFFFE"/>
    <path d="M310.507,213.802 C311.406,213.283 311.715,212.134 311.196,211.234 C310.677,210.335 309.528,210.027 308.628,210.545 C307.729,211.064 307.42,212.214 307.939,213.113 C308.458,214.012 309.608,214.321 310.507,213.802" fill="#FFFFFE"/>
    <path d="M130.864,228.803 L132.164,229.551 L132.413,229.118 L131.113,228.369" fill="#FFFFFE"/>
    <path d="M134.658,230.988 L137.152,232.424 L137.402,231.991 L134.907,230.554 z M139.647,233.861 L142.141,235.297 L142.39,234.864 L139.896,233.427 z M144.635,236.734 L147.13,238.17 L147.379,237.737 L144.885,236.3 z M149.624,239.606 L152.118,241.043 L152.368,240.61 L149.874,239.173 z M154.613,242.479 L157.107,243.916 L157.357,243.483 L154.862,242.046 z M159.601,245.352 L162.096,246.789 L162.345,246.355 L159.851,244.919 z M164.59,248.225 L167.084,249.662 L167.334,249.228 L164.84,247.792 z M169.579,251.098 L172.073,252.534 L172.323,252.101 L169.828,250.665 z M174.568,253.971 L177.062,255.407 L177.311,254.974 L174.817,253.538" fill="#FFFFFE"/>
    <path d="M179.556,256.844 L180.981,257.664 L182.406,256.845 L182.157,256.411 L180.981,257.087 L179.806,256.411 L179.556,256.844" fill="#FFFFFE"/>
    <path d="M184.97,255.37 L187.534,253.896 L187.285,253.462 L184.721,254.937 z M190.098,252.421 L192.662,250.946 L192.413,250.513 L189.849,251.987 z M195.226,249.472 L197.79,247.997 L197.541,247.564 L194.977,249.038 z M200.354,246.522 L202.918,245.048 L202.669,244.614 L200.105,246.089 z M205.482,243.573 L208.046,242.099 L207.797,241.665 L205.233,243.14 z M210.61,240.624 L213.174,239.149 L212.925,238.716 L210.361,240.191 z M215.739,237.675 L218.303,236.2 L218.053,235.767 L215.489,237.241 z M220.867,234.726 L223.431,233.251 L223.181,232.818 L220.617,234.292 z M225.995,231.776 L228.559,230.302 L228.31,229.868 L225.745,231.343 z M231.123,228.827 L233.687,227.353 L233.438,226.919 L230.874,228.394 z M236.251,225.878 L238.815,224.403 L238.566,223.97 L236.002,225.445 z M241.379,222.929 L243.943,221.454 L243.694,221.021 L241.13,222.495 z M246.507,219.979 L249.071,218.505 L248.822,218.071 L246.258,219.546 z M251.635,217.03 L254.199,215.556 L253.95,215.122 L251.386,216.597 z M256.763,214.081 L259.327,212.606 L259.078,212.173 L256.514,213.648 z M261.892,211.132 L264.456,209.657 L264.206,209.224 L261.642,210.698 z M267.02,208.183 L269.584,206.708 L269.334,206.275 L266.77,207.749 z M272.148,205.233 L274.712,203.759 L274.462,203.325 L271.898,204.8 z M277.276,202.284 L279.84,200.81 L279.591,200.376 L277.027,201.851 z M282.404,199.335 L284.968,197.86 L284.719,197.427 L282.155,198.902 z M287.532,196.386 L290.096,194.911 L289.847,194.478 L287.283,195.952 z M292.66,193.437 L295.224,191.962 L294.975,191.529 L292.411,193.003 z M297.788,190.487 L300.352,189.013 L300.103,188.579 L297.539,190.054" fill="#FFFFFE"/>
    <path d="M302.916,187.538 L304.342,186.718 L304.342,185.074 L303.842,185.074 L303.842,186.429 L302.667,187.105 L302.916,187.538" fill="#FFFFFE"/>
    <path d="M303.842,182.123 L304.342,182.123 L304.342,179.172 L303.842,179.172 z M303.842,176.221 L304.342,176.221 L304.342,173.27 L303.842,173.27 z M303.842,170.319 L304.342,170.319 L304.342,167.368 L303.842,167.368 z M303.842,164.417 L304.342,164.417 L304.342,161.466 L303.842,161.466 z M303.842,158.515 L304.342,158.515 L304.342,155.564 L303.842,155.564 z M303.842,152.614 L304.342,152.614 L304.342,149.663 L303.842,149.663 z M303.842,146.712 L304.342,146.712 L304.342,143.761 L303.842,143.761 z M303.842,140.81 L304.342,140.81 L304.342,137.859 L303.842,137.859 z M303.842,134.908 L304.342,134.908 L304.342,131.957 L303.842,131.957 z M303.842,129.006 L304.342,129.006 L304.342,126.055 L303.842,126.055 z M303.842,123.104 L304.342,123.104 L304.342,120.154 L303.842,120.154 z M303.842,117.203 L304.342,117.203 L304.342,114.252 L303.842,114.252 z M303.842,111.301 L304.342,111.301 L304.342,108.35 L303.842,108.35 z M303.842,105.399 L304.342,105.399 L304.342,102.448 L303.842,102.448 z" fill="#FFFFFE"/>
    <path d="M304.342,99.497 L304.342,98.145 L305.525,97.489 L305.283,97.052 L303.842,97.85 L303.842,99.497 L304.342,99.497" fill="#FFFFFE"/>
    <path d="M308.681,95.742 L311.836,93.995 L311.593,93.558 L308.438,95.305" fill="#FFFFFE"/>
    <path d="M314.991,92.248 L316.303,91.522 L316.061,91.084 L314.749,91.811" fill="#FFFFFE"/>
    <path d="M317.01,92.993 C317.918,92.49 318.247,91.346 317.744,90.438 C317.241,89.53 316.097,89.201 315.189,89.704 C314.281,90.207 313.952,91.351 314.455,92.259 C314.958,93.167 316.102,93.496 317.01,92.993" fill="#FFFFFE"/>
    <path d="M186.578,196.78 L187.879,196.035 L187.631,195.601 L186.329,196.346" fill="#FFFFFE"/>
    <path d="M190.521,194.521 L193.163,193.007 L192.915,192.573 L190.273,194.087 z M195.805,191.494 L198.448,189.98 L198.199,189.546 L195.557,191.06 z M201.09,188.466 L203.732,186.953 L203.483,186.519 L200.841,188.032 z M206.374,185.439 L209.016,183.925 L208.767,183.491 L206.125,185.005 z M211.658,182.412 L214.3,180.898 L214.051,180.464 L211.409,181.978 z M216.942,179.384 L219.584,177.871 L219.335,177.437 L216.693,178.95 z M222.226,176.357 L224.868,174.843 L224.619,174.409 L221.977,175.923" fill="#FFFFFE"/>
    <path d="M227.51,173.33 L228.937,172.512 L228.937,170.867 L228.437,170.867 L228.437,172.222 L227.261,172.896 L227.51,173.33" fill="#FFFFFE"/>
    <path d="M228.437,167.916 L228.937,167.916 L228.937,164.965 L228.437,164.965 z M228.437,162.014 L228.937,162.014 L228.937,159.063 L228.437,159.063 z M228.437,156.112 L228.937,156.112 L228.937,153.161 L228.437,153.161 z M228.437,150.211 L228.937,150.211 L228.937,147.26 L228.437,147.26 z M228.437,144.309 L228.937,144.309 L228.937,141.358 L228.437,141.358 z M228.437,138.407 L228.937,138.407 L228.937,135.456 L228.437,135.456 z M228.437,132.505 L228.937,132.505 L228.937,129.554 L228.437,129.554 z M228.437,126.603 L228.937,126.603 L228.937,123.652 L228.437,123.652 z M228.437,120.701 L228.937,120.701 L228.937,117.751 L228.437,117.751 z M228.437,114.8 L228.937,114.8 L228.937,111.849 L228.437,111.849 z M228.437,108.898 L228.937,108.898 L228.937,105.947 L228.437,105.947 z M228.437,102.996 L228.937,102.996 L228.937,100.045 L228.437,100.045 z M228.437,97.094 L228.937,97.094 L228.937,94.143 L228.437,94.143 z M228.437,91.192 L228.937,91.192 L228.937,88.242 L228.437,88.242 z" fill="#FFFFFE"/>
    <path d="M228.937,85.291 L228.937,83.936 L230.116,83.269 L229.869,82.834 L228.437,83.645 L228.437,85.291 L228.937,85.291" fill="#FFFFFE"/>
    <path d="M232.877,81.705 L235.638,80.141 L235.392,79.706 L232.63,81.27 z M238.399,78.577 L241.161,77.013 L240.914,76.578 L238.153,78.142 z M243.922,75.449 L246.683,73.885 L246.437,73.45 L243.675,75.014 z M249.444,72.322 L252.206,70.758 L251.959,70.323 L249.198,71.886 z M254.967,69.194 L257.728,67.63 L257.482,67.195 L254.72,68.759 z M260.489,66.066 L263.251,64.502 L263.004,64.067 L260.243,65.631 z M266.012,62.938 L268.773,61.374 L268.527,60.939 L265.765,62.503" fill="#FFFFFE"/>
    <path d="M271.534,59.81 L272.966,58.999 L272.966,57.354 L272.466,57.354 L272.466,58.708 L271.288,59.375 L271.534,59.81" fill="#FFFFFE"/>
    <path d="M272.466,49.9 L272.966,49.9 L272.966,53.627 L272.466,53.627 z" fill="#FFFFFE"/>
    <path d="M272.466,44.673 L272.966,44.673 L272.966,46.173 L272.466,46.173 z" fill="#FFFFFE"/>
    <path d="M274.596,44.767 C274.596,43.729 273.754,42.887 272.716,42.887 C271.678,42.887 270.837,43.729 270.837,44.767 C270.837,45.805 271.678,46.647 272.716,46.647 C273.754,46.647 274.596,45.805 274.596,44.767" fill="#FFFFFE"/>
    <path d="M158.595,212.79 L159.888,213.549 L160.141,213.118 L158.847,212.359" fill="#FFFFFE"/>
    <path d="M162.233,214.925 L164.578,216.3 L164.831,215.869 L162.486,214.494 z M166.922,217.676 L169.267,219.051 L169.52,218.62 L167.175,217.244 z M171.612,220.427 L173.957,221.802 L174.21,221.371 L171.865,219.995 z M176.301,223.177 L178.646,224.553 L178.899,224.122 L176.554,222.746" fill="#FFFFFE"/>
    <path d="M180.991,225.928 L182.408,226.76 L183.841,225.955 L183.596,225.519 L182.414,226.183 L181.244,225.497 L180.991,225.928" fill="#FFFFFE"/>
    <path d="M186.499,224.462 L189.156,222.97 L188.911,222.534 L186.254,224.026 z M191.813,221.477 L194.47,219.984 L194.225,219.548 L191.568,221.041 z M197.128,218.491 L199.785,216.999 L199.54,216.563 L196.883,218.055 z M202.442,215.506 L205.099,214.013 L204.855,213.577 L202.197,215.07 z M207.757,212.52 L210.414,211.028 L210.169,210.592 L207.512,212.085 z M213.071,209.535 L215.728,208.042 L215.484,207.606 L212.826,209.099 z M218.386,206.55 L221.043,205.057 L220.798,204.621 L218.141,206.114 z M223.7,203.564 L226.358,202.071 L226.113,201.635 L223.455,203.128 z M229.015,200.579 L231.672,199.086 L231.427,198.65 L228.77,200.143 z M234.329,197.593 L236.987,196.1 L236.742,195.665 L234.084,197.157 z M239.644,194.608 L242.301,193.115 L242.056,192.679 L239.399,194.172 z M244.958,191.622 L247.616,190.13 L247.371,189.694 L244.713,191.186 z M250.273,188.637 L252.93,187.144 L252.685,186.708 L250.028,188.201 z M255.587,185.651 L258.245,184.159 L258,183.723 L255.342,185.215 z M260.902,182.666 L263.559,181.173 L263.314,180.737 L260.657,182.23 z M266.216,179.68 L268.874,178.188 L268.629,177.752 L265.972,179.245" fill="#FFFFFE"/>
    <path d="M271.531,176.695 L272.966,175.889 L272.966,174.242 L272.466,174.242 L272.466,175.596 L271.286,176.259 L271.531,176.695" fill="#FFFFFE"/>
    <path d="M272.466,171.433 L272.966,171.433 L272.966,168.623 L272.466,168.623 z M272.466,165.814 L272.966,165.814 L272.966,163.005 L272.466,163.005 z" fill="#FFFFFE"/>
    <path d="M272.466,158.695 L272.966,158.695 L272.966,160.195 L272.466,160.195 z" fill="#FFFFFE"/>
    <path d="M274.596,158.789 C274.596,157.751 273.754,156.909 272.716,156.909 C271.678,156.909 270.837,157.751 270.837,158.789 C270.837,159.827 271.678,160.669 272.716,160.669 C273.754,160.669 274.596,159.827 274.596,158.789" fill="#FFFFFE"/>
  </g>
</svg>
