<svg xmlns="http://www.w3.org/2000/svg" viewBox="0 0 451.38 615.49"><defs><style>.cls-1{fill:#303030;}.cls-2{fill:#ffe7ca;}.cls-3{fill:#212121;}.cls-4{fill:#86b546;}.cls-5{fill:none;stroke:#fff;stroke-miterlimit:10;}.cls-6{fill:#fff;}.cls-7{fill:#c59c6d;}.cls-8{fill:#ef4343;}.cls-9{fill:#4a4a49;}.cls-10{fill:#010101;}.cls-11{fill:#a77d52;}.cls-12{fill:#59230d;opacity:0.1;isolation:isolate;}.cls-13{fill:#231f20;}.cls-14{fill:#754d25;}</style></defs><title>wizzy</title><g id="Layer_2" data-name="Layer 2"><g id="right_hand" data-name="right hand"><polygon class="cls-1" points="262.19 96.86 145.15 0 0 29.14 104.24 53.14 116.19 170.47 262.19 96.86"/><path class="cls-2" d="M233.07,522.14l-8,76,39.1,9.6s9.8-3.8-6.2-12.8-17.9-6.8-17.9-6.8l9-71"/><path class="cls-3" d="M233.05,522.14l-8,76,39.1,9.6s9.8-3.8-6.2-12.8-17.9-6.8-17.9-6.8l9-71"/><polyline class="cls-4" points="222.23 522.47 228.26 567.76 248.56 571.95 259.58 512.56"/><path class="cls-5" d="M236.06,573.81h6.33l-6.33,2.58,4.72,1-4.72,3.49,3.16,1.5-6.37,2.67,6.21,1.08-7,4,10.29-2.38s-5.47,5.55-5.15,5.88,11.57-4.83,11.57-4.83l-4,6.41,9.21-4.24s-4.07,7.24-4,6.66,11.25-5.5,11.25-5.5l-4.61,6.33,7.72-5.47"/><path class="cls-6" d="M228.47,596.42c1.57-.41,4.2-1.36,5.81-.51.72.38-.06-.16.42.48s.41,1.34,1.1,2c3,2.78,9.26,3.12,13,3.8,1.57.28,2.25-2.12.67-2.41-3-.55-10.32-.88-12.22-3.61-.73-1,0-1.62-1.54-2.4-2.37-1.19-5.49-.36-7.88.27a1.25,1.25,0,0,0,.67,2.41Z"/><path class="cls-6" d="M262.51,607.42l-37-9-.1,2.51,36,8.74s3.64-.26,4.57-2.15a13.89,13.89,0,0,0,1.21-3.63S264.11,607.8,262.51,607.42Z"/><path class="cls-2" d="M170.13,523.88l-12,79,42,10s17-10-7-17-22-6.7-22-6.7l12-67.3,10.67.21c-12.18-6.77-28.42-17.12-42.29-17.87Z"/><path class="cls-3" d="M158.13,602.41l42,10s17-10-7-17-22-6.7-22-6.7L183,522.43l-12.82,1Z"/><path class="cls-4" d="M195.68,516.42c-13.51-7.51-32.1-19.53-46.87-17.85l7.66,22.51,5.16,41.57,14.17,4.29L197.36,518A6.2,6.2,0,0,0,195.68,516.42Z"/><path class="cls-5" d="M169.56,579.15h2.26a.67.67,0,0,1,.21,1.3h0a.67.67,0,0,0,.1,1.29l.41.07a.67.67,0,0,1,.23,1.23l-2.07,1.28a.67.67,0,0,0,.1,1.19l.23.09a.67.67,0,0,1,0,1.26l-2.07.71a.67.67,0,0,0,.12,1.3l1.31.19a.66.66,0,0,1,.19,1.26l-5,2.37,7.82-1.5a.67.67,0,0,1,.57,1.16c-1.54,1.35-3.44,3.08-3.24,3.24s6.16-2,9.44-3.2a.66.66,0,0,1,.76,1l-1.22,1.65a.67.67,0,0,0,.77,1l5.07-1.94a.67.67,0,0,1,.79,1,32.34,32.34,0,0,1-2.76,3.76c.11-.49,11.25-4.56,11.25-4.56L193,596.48a.67.67,0,0,0,.85,1l4.13-2.43"/><path class="cls-6" d="M162.73,600.64c2.43-1,4.33-1.63,6.93-.55,1.66.69,3.16,1.8,4.86,2.49a16.41,16.41,0,0,0,9.75,1c1.58-.31.91-2.72-.66-2.41-5.66,1.11-9.07-2-13.92-4-2.58-1.06-5.17,0-7.62,1-1.47.6-.83,3,.66,2.41Z"/><path class="cls-6" d="M200.53,612.39l-41.18-9.81a.67.67,0,0,0-.82.66v2a.67.67,0,0,0,.51.65l40.3,9.62s4.07-.53,5-3.1a21.81,21.81,0,0,0,1.19-4.91S202.34,612.82,200.53,612.39Z"/><path class="cls-3" d="M297,205.77s33.14-25.8,46.8-42.51,6.9-43.26,6.9-43.26l-60.81-8.57-15.49,18.12Z"/><g id="Layer_1-2" data-name="Layer 1-2"><path class="cls-7" d="M291.67,361.47s21.4-96.5,12.1-152.7a83.67,83.67,0,0,0-6.1-21.3s41,38,8-23c0,0,19,10,13,0s-20-26-27-18-2-34-27-40,0,28,0,28-31.8-47.2-45-29c-8,11,17,29,17,29s-31.6-28.2-50-19c-10,5,26,21,26,21s-37-20-45-8,18,21,18,21-48.1-28.6-59-5c-6,13,32,16,32,16s-44-11-53,9c-5.3,11.8,5,12,17,12l-3,13s-12,37-6,50-7,28-2,37-5,20,2,41,101,88,99,88S291.67,361.47,291.67,361.47Z"/><path class="cls-2" d="M182.07,227.57a1.77,1.77,0,0,1,3-1.5c4.6,4.5,11.3,9.9,12.6,5.4,2-7,4-7,4-7l.9,8a10.51,10.51,0,0,0,12.9,2.9,8.63,8.63,0,0,0,4.1-3.9l1-2s4.4,9.8,10,9c6.3-.9,9.6-9.9,8-12a26.57,26.57,0,0,0,8,11c6.2,5.2,13,2,16,1,1.9-.6,4.2-5.3,5.6-8.6a1.51,1.51,0,0,1,2-.8,2,2,0,0,1,.8.8,43.73,43.73,0,0,0,4.5,7.8,8.82,8.82,0,0,0,12.5,1.5,12.1,12.1,0,0,0,1.9-2l3.9-5.7a1.89,1.89,0,0,1,2.5-.5,1.21,1.21,0,0,1,.5.5c1.5,2.3,3.8,5.7,5.7,7,3,2-2,8,0,17,1.1,4.9,2.6,10.3,2.6,10.3l-5,46.7-40.7,26-88-30,3-44a26.26,26.26,0,0,0,5-11c1-6-1-8-1-8S184,240.17,182.07,227.57Z"/><path class="cls-2" d="M254.11,513.79,289.86,468l3.81-79.52-93-7-70,43,5,63,17.38,18.34c13.87.75,30.11,11.1,42.29,17.87l28.36.58C233.16,518.38,243.41,513.05,254.11,513.79Z"/><path class="cls-2" d="M249.67,519.47l4.44-5.68c-10.7-.74-21,4.59-30.41,10.47l10,.21"/><polygon class="cls-3" points="184.65 523.47 184.47 524.48 194.93 523.68 184.65 523.47"/><path class="cls-3" d="M249.65,519.47l-20.55,1.58c-1.82,1-3.63,2.11-5.4,3.21l10,.21"/><path class="cls-8" d="M194.92,502.05s8.31,12,63,1.92l-1.76-123.6L168.7,366.05Z"/><path class="cls-3" d="M195.28,523.65l.06,0,28.36.57c1.77-1.1,3.58-2.18,5.4-3.21Z"/><path class="cls-3" d="M195.28,523.65l-.36,0h.42Z"/><path class="cls-4" d="M260.18,514.89C247,511,234.3,517.6,222.83,524.8"/><path class="cls-4" d="M260.18,514.89l4.89-26.32-124.4-6,7.94,23.34c15.76,10.71,30.73,23.14,46.88,17.86a6.14,6.14,0,0,1,1.67,1.59l.72-1.62,24.88.5.07.56C238.22,525.36,249.65,526.86,260.18,514.89Z"/><path class="cls-9" d="M200.67,381.47l-76.8-44.88S93.43,441,114,492l89.23,24Z"/><path class="cls-9" d="M291.67,361.47s19.86,84.66-17.3,151.42H238.22l.65-136.52Z"/><path class="cls-10" d="M258,380.35c2.8,10.8,6.3,21.7,8.3,32.7,1.1,6.1-1.5,11.4-2.5,17.3a131.43,131.43,0,0,0-1.3,15.4c-.1,1.9,2.9,1.9,3,0a112.46,112.46,0,0,1,1.9-18.3c1.1-4.7,2.8-8.6,2.1-13.5-1.7-11.5-5.8-23.1-8.6-34.4a1.5,1.5,0,0,0-2.9.8Z"/><path class="cls-10" d="M160.3,373.65c6,8.7,4.2,21.8,4.5,31.9l.9,34a1.5,1.5,0,0,0,3,0l-1-37.9c-.2-9.7,1-21.1-4.8-29.5-1.1-1.6-3.7-.1-2.6,1.5Z"/><path class="cls-11" d="M165.27,290.47s10.6-14.8,22.1-5.6c0,0,16.1-4.6,19.5,1.1,0,0,14.9-5.7,18.4,4.6s1.4,1.9,1.4,1.9,5.4-5.3,10,2.7c0,0,13.8-5.7,17.2,0,0,0,12.6-5.7,17.2,0,0,0,11.5-8,17.2,0,0,0,2.3-12.6,13.8-6.9,0,0,6.8-7.6,12,.2a67.92,67.92,0,0,1,7.5,14.7s2.3,10.3-6.9,14.9c0,0,5.7,17.2-1.1,19.5,0,0,1.1,18.4-9.2,21.8,0,0-10.3,17.9-16.1,12.9,0,0-12.6,24.9-20.7,22.6,0,0-12.6,24.1-23,17.2,0,0,6.9,19.5-10.3,18.4,0,0,5.7,26.4-9.2,24.1,0,0-11.5,19.5-13.8,11.5,0,0-9.2-1.1-10.3-11.5,0,0-24.1-5.7-19.5-11.5,0,0-9.2-1.1-2.3-13.8,0,0-18.4-6.9-8-24.1,0,0-21.8-7.6-11.5-26.8,0,0-16.4-11.6-5.3-26.9,0,0-16.5-15.2-3.9-25.6,0,0-12.6-9.2-4.6-18.4,0,0-10.3-16.1-2.3-16.1C143.77,291.67,154.67,270.87,165.27,290.47Z"/><path class="cls-10" d="M237.87,281.17a17.67,17.67,0,0,0,23.8.9c1.5-1.2-.6-3.4-2.1-2.1a14.59,14.59,0,0,1-19.6-.9,1.45,1.45,0,0,0-2.1.1A1.52,1.52,0,0,0,237.87,281.17Z"/><path class="cls-10" d="M217.07,255a3,3,0,0,0,.6,3.8,3.11,3.11,0,0,0,4.3-.2,3.06,3.06,0,0,0,0-4.1,3.19,3.19,0,0,0-3.9-.6c-1.7.9-.2,3.5,1.5,2.6h.1l.1.1-.1-.1c.1.1.1.1.1,0s-.1-.1,0,.1v-.2c-.1.3,0,.1,0,0-.1.2,0,.1-.1.1s.3-.2-.1.1h.2c-.2-.1,0,0-.1-.1h0c.1.1,0,.1,0-.1v0h0c1-1.6-1.6-3.1-2.6-1.4Z"/><path class="cls-10" d="M277.57,254.37c-1.8-.2-3.2,1.6-3.2,3.3a3,3,0,0,0,3,3,1.7,1.7,0,0,0,.7-.1,3.43,3.43,0,0,0,2.8-4,3.94,3.94,0,0,0-4.2-3.1,1.5,1.5,0,1,0,0,3,1,1,0,0,1,1.2.6c.2.3-.1.5-.3.6s-.4.1-.2.1c-.5.2,0-.1,0,0s-.1-.1,0,0-.1.3,0,0c-.1.2,0-.2.1-.2v.1c.1-.2.1-.2,0-.1l.1-.1-.1.1h.1c-.1,0-.1,0,.1.1a1.54,1.54,0,0,0,1.5-1.5,1.64,1.64,0,0,0-1.6-1.8Z"/><path class="cls-12" d="M297,340.07a10.59,10.59,0,0,1-2.2-2.9h0a36.33,36.33,0,0,1-2.8-7.8h0a101.63,101.63,0,0,1-2.1-11h0a1.9,1.9,0,0,1,1.7-2.1h0a1.85,1.85,0,0,1,2.1,1.7h0s.1.6.2,1.5h0c.1.9.4,2.3.6,3.8h0a67.43,67.43,0,0,0,2.6,9.8h0a11,11,0,0,0,2.4,4.2h0c.4.4.6.4.8.4h.2c.1,0,.3-.1.6-.6h0a5.84,5.84,0,0,0,.8-2.2h0a39.09,39.09,0,0,0,.7-7.6h0a98.34,98.34,0,0,0-.8-12.1h0c-.4-3.4-.8-5.8-.8-5.8h0a1.9,1.9,0,0,1,1.6-2.2h0a1.9,1.9,0,0,1,2.2,1.6h0a127.13,127.13,0,0,1,1.6,18.5h0a48.72,48.72,0,0,1-.4,6.6h0a14.33,14.33,0,0,1-1.7,5.3h0a4.76,4.76,0,0,1-2.8,2.2h0a5.07,5.07,0,0,1-1.3.2h0a6.74,6.74,0,0,1-3.2-1.5Z"/><path class="cls-12" d="M220.67,341.27a7.26,7.26,0,0,1-1.7-3.1h0a25.64,25.64,0,0,1-.9-7.8h0A87.54,87.54,0,0,1,219,319h0a2,2,0,0,1,2.2-1.6h0a2.07,2.07,0,0,1,1.6,2.2h0s-.2,1.3-.4,3.4h0a61.17,61.17,0,0,0-.4,7.4h0a31.53,31.53,0,0,0,.4,5.3h0a5.63,5.63,0,0,0,1.2,3h0a.91.91,0,0,0,.7.3h0a1.08,1.08,0,0,0,.7-.3h0a5.26,5.26,0,0,0,1.2-1.4h0a23.4,23.4,0,0,0,2.5-5.6h0a96,96,0,0,0,3.1-13.9h0c.4-2.5.6-4.1.6-4.1h0a2,2,0,0,1,2.1-1.7h0a2,2,0,0,1,1.7,2.1h0c0,.1-1.4,11.7-4.3,20h0a19.39,19.39,0,0,1-3.8,6.9h0a5.45,5.45,0,0,1-3.7,1.8h-.1a4.33,4.33,0,0,1-3.6-1.5Z"/><path class="cls-12" d="M271.77,170.47a6.43,6.43,0,0,1-4.6-2.3h0a18.34,18.34,0,0,1-2.6-4.2h0a29.35,29.35,0,0,1-1.9-5.7h0a2,2,0,0,1,1.4-2.3h0a1.93,1.93,0,0,1,2.3,1.5h0a6.59,6.59,0,0,1,.2.9h0c.2.6.4,1.4.7,2.3h0a16.18,16.18,0,0,0,2.7,5h0a2.37,2.37,0,0,0,1.7,1h0a1.61,1.61,0,0,0,.9-.3h0a3.52,3.52,0,0,0,1.4-2h0a11.28,11.28,0,0,0,.5-4.1h0a44.11,44.11,0,0,0-1.5-10.2h0c-.2-.6-.3-1-.3-1h0a2,2,0,0,1,1.3-2.4h0a2,2,0,0,1,2.4,1.3h0a51.79,51.79,0,0,1,2,12.4h0a18.82,18.82,0,0,1-.7,5.3h0a7.85,7.85,0,0,1-3.2,4.2h0a8.17,8.17,0,0,1-2.7.6Z"/><path class="cls-12" d="M285.47,214.47a10.69,10.69,0,0,1-5.9-2.2h0a33.54,33.54,0,0,1-4.9-4.3h0a56.89,56.89,0,0,1-4.9-6.1h0a1.93,1.93,0,0,1,.5-2.7h0a1.93,1.93,0,0,1,2.7.5h0s.3.4.7,1h0c.5.7,1.2,1.6,2,2.6h0a34.09,34.09,0,0,0,6.1,5.9h0a6.67,6.67,0,0,0,3.8,1.5h0a2.92,2.92,0,0,0,.9-.2h0a1.6,1.6,0,0,0,.9-.7h0a1.39,1.39,0,0,0,.2-1.1h0a11.38,11.38,0,0,0-1.6-4.8h0a29.22,29.22,0,0,0-2.4-3.7h0l-.2-.2h0a2,2,0,0,1,.3-2.7h0a2,2,0,0,1,2.7.3h0a29.22,29.22,0,0,1,2.4,3.7h0c1.2,2.1,2.5,4.7,2.5,7.5h0a6.81,6.81,0,0,1-.8,3.1h0a5.32,5.32,0,0,1-2.7,2.2h0a5.87,5.87,0,0,1-2.3.4Z"/><path class="cls-12" d="M206.27,214.27c-2.3-2-3-4.9-3-7.8h0c0-4.2,1.4-8.8,2.8-12.4h0a49.1,49.1,0,0,1,2.8-6.2h0a1.94,1.94,0,0,1,2.6-.8h0a2,2,0,0,1,.8,2.6h0l-.8,1.6h0c-.5,1-1.1,2.5-1.8,4.2h0c-1.3,3.4-2.6,7.7-2.5,11h0c0,2.3.6,4,1.7,4.9h0a.91.91,0,0,0,.7.3h0a6,6,0,0,0,3.3-1.8h0a38.73,38.73,0,0,0,4.7-5.2h0a118.33,118.33,0,0,0,8.2-12.6h0l2.1-3.7h0a2,2,0,0,1,2-1h0a2,2,0,0,1,1.6,1.7h0a8.66,8.66,0,0,0,.1,1.1h0c.1.7.3,1.7.5,2.9h0a38.32,38.32,0,0,0,2.3,7.5h0a8.39,8.39,0,0,0,2.2,3.1h0a3,3,0,0,0,1,.4h.2a.78.78,0,0,0,.4-.4h0a10.71,10.71,0,0,0,1.3-2.1h0a42.72,42.72,0,0,0,2.5-7.9h0q2.1-9.3,3.3-18.9h0c.4-3.4.6-5.6.6-5.6h0a1.85,1.85,0,0,1,2.1-1.7h0a1.85,1.85,0,0,1,1.7,2.1h0c0,.1-1.5,15.6-4.4,26.6h0a29.84,29.84,0,0,1-3.6,9.1h0a5.27,5.27,0,0,1-3.7,2.6h-.4a5.17,5.17,0,0,1-3.2-1.1h0a10,10,0,0,1-2.2-2.4h0a22.88,22.88,0,0,1-2.7-6.2h0c-.3-1.1-.6-2.2-.8-3.2h0c-2.7,4.7-7.1,11.7-11.4,16.2h0c-2.4,2.4-4.7,4.3-7.6,4.4h0a5.45,5.45,0,0,1-3.4-1.3Z"/><path class="cls-12" d="M263.87,387.47h-.7a6.81,6.81,0,0,1-4.1-2.5h0a19.87,19.87,0,0,1-2.9-4.6h0a63.21,63.21,0,0,1-4-12.3h0a160.73,160.73,0,0,1-3-17.1h0a1.9,1.9,0,0,1,1.7-2.1h0a1.9,1.9,0,0,1,2.1,1.7h0s.1.9.3,2.4h0c.2,1.5.5,3.6.9,6h0a122.62,122.62,0,0,0,3.8,15.9h0a22.88,22.88,0,0,0,3.9,7.6h0a3.63,3.63,0,0,0,1.9,1.3h.1c.1,0,.1,0,.2-.1h0a4.35,4.35,0,0,0,.6-.7h0a14.41,14.41,0,0,0,1.3-4h0a80.12,80.12,0,0,0,1-13.8h0c0-5.7-.3-11.5-.6-15.9h0c-.3-4.4-.6-7.4-.6-7.4h0a2,2,0,0,1,1.4-2.1h0a2,2,0,0,1,2.2,1.1h0s.1.3.3.8h0c.2.5.6,1.2,1,2h0a17.1,17.1,0,0,0,3.2,4.4h0a3.25,3.25,0,0,0,1.8,1h0a1.09,1.09,0,0,0,.9-.4h0a1.8,1.8,0,0,0,.4-.9h0a14.28,14.28,0,0,0,.3-2.9h0c0-7-3.4-20-5.2-25.9h0c-.6-2-1-3.2-1-3.2h0a1.9,1.9,0,0,1,1.2-2.4h0a1.9,1.9,0,0,1,2.4,1.2h0s1.6,5,3.1,11.2h0c1.6,6.2,3.2,13.7,3.2,19.1h0a17.22,17.22,0,0,1-.4,3.9h0a5.62,5.62,0,0,1-1.9,3.1h0a5.17,5.17,0,0,1-3.2,1.1h0a7.07,7.07,0,0,1-4.4-1.9h0l-1.2-1.2h0c.3,4.4.6,10,.6,15.4h0c0,7-.4,13.7-1.9,18h0a7.91,7.91,0,0,1-2.4,3.6h0a5.19,5.19,0,0,1-2.3.6Z"/><path class="cls-12" d="M187.47,378.27a4.42,4.42,0,0,1-2.9-1.9h0a9.87,9.87,0,0,1-1.5-3.1h0a44.15,44.15,0,0,1-1.7-8.8h0a184.41,184.41,0,0,1-.9-21h0v-1.6h0a4.82,4.82,0,0,1-3.2,1.3h0a5.59,5.59,0,0,1-3.8-1.9h0a8.21,8.21,0,0,1-1.6-3.7h0a23.83,23.83,0,0,1-.4-4.6h0c0-9.9,3.6-24.5,3.6-24.6h0a1.87,1.87,0,0,1,2.3-1.4h0a1.87,1.87,0,0,1,1.4,2.3h0s-.2.9-.5,2.4h0c-.3,1.5-.8,3.6-1.2,6h0a87.4,87.4,0,0,0-1.7,15.3h0a25.61,25.61,0,0,0,.3,3.9h0a4.38,4.38,0,0,0,.7,1.9h0c.6.7.9.6.9.6h0a.93.93,0,0,0,.6-.3h0a8.06,8.06,0,0,0,1.2-1.4h0a16.58,16.58,0,0,0,1.5-3.3h0l.1-.2h0a1.91,1.91,0,0,1,2.2-1.3h0a2,2,0,0,1,1.6,2h0s-.1,3.6-.1,8.8h0c0,8.1.3,20.1,2,26.8h0a8.77,8.77,0,0,0,1.7,4.1h0l.1.1h0s.1,0,.4-.2h0a7.1,7.1,0,0,0,1-1.4h0a24.9,24.9,0,0,0,2-6h0a126.09,126.09,0,0,0,2.2-15h0c.2-2.7.3-4.4.3-4.5h0a1.79,1.79,0,0,1,2-1.8h0a1.79,1.79,0,0,1,1.8,2h0c0,.1-.6,12.6-2.9,21.4h0c-.8,3-1.7,5.6-3.2,7.4h0a4.55,4.55,0,0,1-3.7,1.9h0c-.3-.1-.5-.1-.6-.2Z"/><path class="cls-12" d="M141.37,205a7.6,7.6,0,0,1-4.7-3.1h0a4,4,0,0,1-.6-2.2h0a6.38,6.38,0,0,1,2.3-4.4h0a32.72,32.72,0,0,1,4.8-3.5h0a102.67,102.67,0,0,1,13.9-6.4h0c4.3-1.7,8.5-3.2,12-4.3h0a9.2,9.2,0,0,1-2.8-1.4h0a5.52,5.52,0,0,1-2.5-4.5h0a6.75,6.75,0,0,1,.2-1.4h0a5.53,5.53,0,0,1,2.7-3.3h0a18.47,18.47,0,0,1,4.5-2.1h0a80.73,80.73,0,0,1,12-2.9h0c8.5-1.5,16.7-2.2,16.7-2.2h0a1.93,1.93,0,0,1,2.1,1.8h0a1.92,1.92,0,0,1-1.7,2.1h0s-4,.3-9.3,1h0a119.94,119.94,0,0,0-16.7,3.2h0c-3.2.9-5.8,2.2-6.4,3h0c-.1.1-.2.2-.2.3h0c0,.2-.1.3-.1.5h0c0,.5.2.8.9,1.4h0a12.66,12.66,0,0,0,3.2,1.3h0a28.8,28.8,0,0,0,5.9.6h.1a1.86,1.86,0,0,1,1.9,1.6h0a1.93,1.93,0,0,1-1.4,2.1h0s-1,.3-2.8.9h0c-1.8.6-4.2,1.4-7.1,2.3h0a174,174,0,0,0-18.5,7.4h0c-3.8,1.8-7,3.7-8.6,5.3h0c-.9.9-1.2,1.6-1.1,1.6h0l.1.2h0a4.52,4.52,0,0,0,2.4,1.4h0a24.83,24.83,0,0,0,5.4.6h0c7.9,0,19.2-2.6,24.2-3.8h0c1.7-.4,2.7-.7,2.7-.7h0a2,2,0,0,1,2.4,1.3h0a2,2,0,0,1-1.3,2.4h0c-.1,0-16.4,4.7-27.9,4.7h0a28.61,28.61,0,0,1-6.7-.8Z"/><path class="cls-12" d="M126.37,271.47c-2-1.8-2.5-4.4-2.5-7.2h0c0-5.8,2.3-13.5,4.6-19.9h0c2.3-6.4,4.5-11.4,4.5-11.4h0a1.87,1.87,0,0,1,2.5-1h0a1.87,1.87,0,0,1,1,2.5h0s-.6,1.2-1.4,3.2h0c-.8,2-1.9,4.8-3,7.9h0c-2.2,6.2-4.4,13.8-4.4,18.6h0c0,2.4.6,3.8,1.2,4.3h0c.1.1.1.1.2.1h0a3.1,3.1,0,0,0,1.3-.6h0a12.56,12.56,0,0,0,2.4-2.2h0a55.25,55.25,0,0,0,5.8-7.9h0c4-6.3,8.1-13.9,10.6-18.9h0l2.8-5.6h0a1.86,1.86,0,0,1,2.3-1h0a1.86,1.86,0,0,1,1.3,2.1h0a11.31,11.31,0,0,0-.2,1.2h0a23.64,23.64,0,0,0-.2,3h0a15.53,15.53,0,0,0,.4,3.7h0a3.86,3.86,0,0,0,1.1,2.2h0a1.61,1.61,0,0,0,.9.3h.2a1.61,1.61,0,0,0,.7-.4h0a13.3,13.3,0,0,0,1.4-1.9h0a45.23,45.23,0,0,0,3.4-7h0a164.25,164.25,0,0,0,5.4-16.8h0c.8-3,1.3-4.9,1.3-4.9h0a1.87,1.87,0,0,1,2.3-1.4h0a1.87,1.87,0,0,1,1.4,2.3h0c0,.1-3.2,13.8-7.4,23.7h0a29.69,29.69,0,0,1-4.6,8.1h0a5.52,5.52,0,0,1-3.7,2.2h-.6a5.43,5.43,0,0,1-3.4-1.2h0a6.14,6.14,0,0,1-1.8-2.7h0a9.77,9.77,0,0,1-.6-2.3h0a189.31,189.31,0,0,1-11,19.1h0a43.82,43.82,0,0,1-7.3,8.8h0a6.92,6.92,0,0,1-4.5,2h0a4.6,4.6,0,0,1-2.4-1Z"/><path class="cls-12" d="M204,432.77a7.1,7.1,0,0,1-2.5-3.8h0a20.53,20.53,0,0,1-.6-4.9h0c0-10.3,5.3-25.9,5.3-26h0a1.9,1.9,0,0,1,2.4-1.2h0a1.9,1.9,0,0,1,1.2,2.4h0s-.3,1-.8,2.5h0c-.5,1.6-1.1,3.8-1.8,6.4h0a70.84,70.84,0,0,0-2.5,15.9h0a17.22,17.22,0,0,0,.4,3.9h0a3,3,0,0,0,1,1.7h0a2,2,0,0,0,.8-.4h0a18,18,0,0,0,1.9-2h0a45.66,45.66,0,0,0,4.4-7.3h0a187.31,187.31,0,0,0,7.7-17.8h0c1.2-3.2,1.9-5.3,1.9-5.3h0a2,2,0,0,1,2.2-1.3h0a1.87,1.87,0,0,1,1.5,2h0v1h0a25.61,25.61,0,0,0,.3,3.9h0a7,7,0,0,0,1.2,3.4h0a.91.91,0,0,0,.8.4h.4c.1-.1.3-.2.4-.3h0a7.84,7.84,0,0,0,1.1-1.8h0a37.65,37.65,0,0,0,2.3-6.4h0c1.3-5,2.4-10.1,3.2-15.2h0c.4-2.7.6-4.5.6-4.5h0a2,2,0,0,1,2.1-1.7h0a2,2,0,0,1,1.7,2.1h0a163.19,163.19,0,0,1-4.3,21.5h0a27,27,0,0,1-3.3,7.6h0a5.52,5.52,0,0,1-3.2,2.4h0a3.75,3.75,0,0,1-1.1.1h0a4.94,4.94,0,0,1-3.8-1.8h0a8.67,8.67,0,0,1-1.4-2.7h0a184.48,184.48,0,0,1-7.8,17.6h0a36,36,0,0,1-5.7,8.3h0a5.75,5.75,0,0,1-4,2h0a4,4,0,0,1-2-.7Z"/><path class="cls-13" d="M264.77,276.57s-3.6,20.6-20.1,16.9c-9.7-2.2-7.9-20.7-7.9-20.7Z"/></g><path class="cls-3" d="M292,127.83s-154.89,9.93-175.08,77c0,0-8.1,23.32,0,54.18,0,0-128.19-29.2-18.48-103.31s233.65-85.5,249-77.55c25.34,13.11,44.14,45.76-28.29,111.17l30.62-33.62S298.71,129,305.79,127,292,127.83,292,127.83Z"/><path class="cls-14" d="M446.55,95.4,350.08,363.33a7.82,7.82,0,0,0,.32,6.29c1.24,2.37,3.62,3.82,7.86-2.88,7.27-11.5,93.12-270,93.12-270Z"/><path class="cls-2" d="M299.67,364.77l52-14.3s1-8,5-5,21.3.8,13.3,7.8,1.2,8.5-6.8,10.5c-4.6,1.2-6.8-3.5-11.5-3.3l-57.9,14.6Z"/><circle class="cls-2" cx="136.51" cy="373.09" r="10.5"/><path class="cls-2" d="M133.51,373.09l-7,51s-16,10-4,13c5.2,1.3,9-4,9-7s8,7,10,2-11-10-9-10,7-49,7-49Z"/></g></g></svg>